<svg width="38" height="38" viewBox="0 0 38 38" fill="none" xmlns="http://www.w3.org/2000/svg">
<path d="M28.7383 20.7451C28.8427 21.1068 28.8072 21.494 28.6387 21.831C28.4703 22.168 28.1812 22.4303 27.828 22.5664C27.4526 22.7091 27.0356 22.6984 26.668 22.5368C26.3005 22.3752 26.0123 22.0757 25.8664 21.7039V21.6901C25.4573 20.5918 24.8806 19.5624 24.1565 18.6382C22.8558 16.968 20.9477 15.8704 18.8415 15.5807C17.6876 15.4227 16.516 15.445 15.3691 15.6466H15.3166C14.9366 15.6929 14.5531 15.5947 14.2431 15.3719C14.0818 15.2578 13.9454 15.1126 13.8417 14.9451C13.7381 14.7776 13.6695 14.5911 13.6399 14.3967L13.6205 14.3253C13.5756 13.9482 13.6743 13.568 13.8972 13.2594C14.0142 13.1023 14.1616 12.9699 14.3307 12.8699C14.4998 12.7699 14.6873 12.7044 14.8822 12.677H14.9154C16.3983 12.4253 17.9121 12.4086 19.4004 12.6276C20.7842 12.8371 22.116 13.3031 23.3264 14.0011C24.5387 14.7065 25.6105 15.6264 26.4889 16.7152C27.4253 17.9032 28.1718 19.2272 28.7023 20.6408C28.7161 20.674 28.7245 20.7093 28.7272 20.7451H28.7383ZM6.37707 33.9969C5.73794 33.9969 5.02964 33.9612 4.2577 33.8871C3.48577 33.8129 2.7332 33.736 2 33.6563V31.0329H6.53201C6.792 31.0596 7.05324 30.9955 7.27074 30.8516C7.40226 30.7449 7.48825 30.5928 7.51145 30.4258C7.53235 30.2875 7.54436 30.148 7.54742 30.0082V29.4808C7.56059 29.248 7.50377 29.0166 7.38418 28.816C7.30749 28.7278 7.21 28.6598 7.10041 28.6181C6.99082 28.5764 6.87254 28.5623 6.75612 28.577H6.00078C5.79145 28.5589 5.58225 28.6132 5.40869 28.7308C5.28203 28.8451 5.20472 29.0036 5.19288 29.1731H2.03597L2.39565 21.2286H10.3446V24.1954H5.24545L5.15968 26.1184C5.36637 25.9686 5.60836 25.874 5.86244 25.8437C6.1372 25.8029 6.41466 25.7827 6.69248 25.7832H7.99841C8.57096 25.7601 9.13798 25.9023 9.63081 26.1926C10.0484 26.4575 10.3769 26.8401 10.5743 27.2914C10.7852 27.7864 10.8898 28.3197 10.8814 28.8572V30.7252C10.9105 31.3874 10.741 32.0432 10.3944 32.6097C10.0351 33.1159 9.5147 33.4874 8.91698 33.6646C8.09816 33.9082 7.24538 34.0205 6.3909 33.9969H6.37707ZM15.8727 33.9805C15.2258 34.0232 14.5815 33.865 14.0292 33.5278C13.477 33.1906 13.044 32.6912 12.7905 32.0987C12.4997 31.4507 12.3058 30.7641 12.215 30.0604C12.1035 29.241 12.049 28.4149 12.0518 27.5881C12.0405 26.6981 12.1025 25.8088 12.2371 24.9289C12.3412 24.2069 12.5855 23.5119 12.9565 22.8824C13.3162 22.3064 13.8401 21.8494 14.4616 21.5693C15.2645 21.2345 16.1314 21.078 17.0015 21.1105C17.5835 21.1057 18.1654 21.1314 18.7446 21.1874C19.2034 21.2328 19.6589 21.3062 20.1087 21.4072C20.532 21.5061 20.9719 21.616 21.4312 21.7396V24.3136C21.1794 24.2696 20.8585 24.2284 20.4683 24.1954C20.0782 24.1625 19.6383 24.1323 19.1652 24.1103C18.6921 24.0883 18.1747 24.0773 17.6379 24.0773C17.1276 24.0436 16.6175 24.146 16.1604 24.374C15.9856 24.498 15.8387 24.6569 15.7292 24.8404C15.6196 25.0239 15.5498 25.2281 15.5241 25.4399C15.4056 26.1496 15.3538 26.8688 15.3691 27.5881C15.363 28.1606 15.3916 28.7331 15.4549 29.3022C15.4852 29.6539 15.5789 29.9972 15.7316 30.3159C15.843 30.5342 16.0266 30.7079 16.2517 30.8076C16.4855 30.9044 16.7373 30.9512 16.9905 30.945C17.3685 30.9465 17.7464 30.9263 18.1221 30.8845C18.4541 30.8433 18.7059 30.8076 18.8774 30.7746V29.1264H17.1095V26.514C17.3612 26.481 17.6628 26.4508 18.0114 26.4288C18.36 26.4068 18.7197 26.3848 19.0932 26.3684C19.4668 26.3519 19.8071 26.3436 20.1142 26.3436C20.5264 26.3436 20.8889 26.3436 21.2043 26.3436C21.5197 26.3436 21.8102 26.3436 22.0731 26.3684V33.8871H19.5664L19.1181 33.0629C18.7125 33.3076 18.281 33.5075 17.8316 33.6591C17.2035 33.8831 16.54 33.9929 15.8727 33.9832V33.9805ZM35.9319 18.4596C36.05 18.8388 36.0135 19.2489 35.8304 19.6018C35.6472 19.9546 35.3321 20.2221 34.9525 20.3468C34.5677 20.4689 34.1503 20.4384 33.7877 20.2617C33.6083 20.1721 33.4486 20.0481 33.318 19.8967C33.1874 19.7453 33.0884 19.5696 33.0268 19.3799V19.3579C32.3489 17.2486 31.3344 15.261 30.0221 13.4709C28.8725 11.9181 27.4043 10.625 25.7142 9.67726C24.0189 8.75799 22.1456 8.20825 20.2193 8.06473C17.9757 7.90817 15.7212 8.1066 13.5403 8.6526C13.3481 8.69859 13.1486 8.70624 12.9534 8.67511C12.7582 8.64399 12.5712 8.57471 12.4031 8.4713C12.0601 8.26177 11.813 7.92768 11.7142 7.54005C11.7116 7.52551 11.7116 7.51063 11.7142 7.49609C11.6297 7.11915 11.6983 6.72432 11.9051 6.39727C12.1167 6.06001 12.452 5.81766 12.8403 5.72149H12.8846C15.3998 5.09238 18.0012 4.87251 20.5873 5.07044C22.907 5.25131 25.1602 5.9262 27.1936 7.04918C29.227 8.17216 30.9929 9.71688 32.3711 11.5782C33.8915 13.6227 35.0679 15.8984 35.8545 18.3167C35.8906 18.3623 35.9169 18.4146 35.9319 18.4706V18.4596Z" fill="#EF3239"/>
</svg>
