
<svg width="38" height="38" viewBox="0 0 38 38" fill="#EF3239" xmlns="http://www.w3.org/2000/svg">
<path d="M25.956 10.1171C24.8298 10.1171 23.916 9.20336 23.916 8.07711C23.916 6.95617 24.8298 6.03711 25.956 6.03711C27.0823 6.03711 27.9907 6.95617 27.9907 8.07711C27.9907 9.20336 27.077 10.1171 25.956 10.1171ZM25.956 7.07305C25.3982 7.07305 24.9466 7.52461 24.9466 8.08242C24.9466 8.64023 25.3982 9.0918 25.956 9.0918C26.5138 9.0918 26.9654 8.64023 26.9654 8.08242C26.9654 7.52461 26.5085 7.07305 25.956 7.07305ZM30.4238 12.1093C29.2976 12.1093 28.3838 11.1955 28.3838 10.0693C28.3838 8.94836 29.2976 8.0293 30.4238 8.0293C31.5501 8.0293 32.4638 8.94305 32.4638 10.0693C32.4638 11.1955 31.5448 12.1093 30.4238 12.1093ZM30.4238 9.06523C29.866 9.06523 29.4145 9.5168 29.4145 10.0746C29.4145 10.6324 29.866 11.084 30.4238 11.084C30.9816 11.084 31.4332 10.6324 31.4332 10.0746C31.4332 9.5168 30.9816 9.06523 30.4238 9.06523ZM33.3191 23.1327C32.1929 23.1327 31.2791 22.219 31.2791 21.0927C31.2791 19.9718 32.1929 19.0527 33.3191 19.0527C34.4454 19.0527 35.3591 19.9665 35.3591 21.0927C35.3591 22.219 34.4401 23.1327 33.3191 23.1327ZM33.3191 20.0887C32.7613 20.0887 32.3098 20.5402 32.3098 21.098C32.3098 21.6559 32.7613 22.1074 33.3191 22.1074C33.877 22.1074 34.3285 21.6559 34.3285 21.098C34.3285 20.5402 33.8716 20.0887 33.3191 20.0887ZM26.4129 23.3559C25.2866 23.3559 24.3729 22.4421 24.3729 21.3159C24.3729 20.1949 25.2866 19.2759 26.4129 19.2759C27.5391 19.2759 28.4529 20.1896 28.4529 21.3159C28.4476 22.4421 27.5338 23.3559 26.4129 23.3559ZM26.4129 20.3118C25.8551 20.3118 25.4035 20.7634 25.4035 21.3212C25.4035 21.879 25.8551 22.3305 26.4129 22.3305C26.9707 22.3305 27.4223 21.879 27.4223 21.3212C27.417 20.7634 26.9654 20.3118 26.4129 20.3118ZM28.6441 34.1721C27.5179 34.1721 26.6041 33.2584 26.6041 32.1321C26.6041 31.0112 27.5179 30.0921 28.6441 30.0921C29.7704 30.0921 30.6841 31.0059 30.6841 32.1321C30.6841 33.2584 29.7704 34.1721 28.6441 34.1721ZM28.6441 31.128C28.0863 31.128 27.6348 31.5796 27.6348 32.1374C27.6348 32.6952 28.0863 33.1468 28.6441 33.1468C29.202 33.1468 29.6535 32.6952 29.6535 32.1374C29.6535 31.5796 29.202 31.128 28.6441 31.128Z" fill="#EF3239"/>
<path d="M27.4197 31.5695C27.2869 31.5695 27.1541 31.5164 27.0532 31.4154L26.081 30.4326H19.5276C19.2408 30.4326 19.3752 30.2042 19.3752 29.9173C19.3752 29.6304 19.5457 29.402 19.8326 29.402H26.2988C26.4369 29.402 26.5697 29.4551 26.6654 29.5561L27.7863 30.6876C27.9882 30.8895 27.9829 31.2136 27.781 31.4154C27.68 31.5217 27.5472 31.5695 27.4197 31.5695ZM30.0175 28.1376C28.8913 28.1376 27.9775 27.2239 27.9775 26.0976C27.9775 24.9767 28.8913 24.0576 30.0175 24.0576C31.1438 24.0576 32.0575 24.9714 32.0575 26.0976C32.0575 27.2239 31.1438 28.1376 30.0175 28.1376ZM30.0175 25.0936C29.4597 25.0936 29.0082 25.5451 29.0082 26.1029C29.0082 26.6607 29.4597 27.1123 30.0175 27.1123C30.5754 27.1123 31.0269 26.6607 31.0269 26.1029C31.0269 25.5451 30.5754 25.0936 30.0175 25.0936Z" fill="#EF3239"/>
<path d="M28.4928 26.6127H19.617C19.3301 26.6127 19.4894 26.4527 19.4894 26.1658C19.4894 25.8789 19.3301 25.5821 19.617 25.5821H28.4981C28.7849 25.5821 29.0134 25.8105 29.0134 26.0974C29.0134 26.3843 28.7796 26.6127 28.4928 26.6127ZM24.7368 21.8368H21.1509C20.864 21.8368 20.6356 21.6083 20.6356 21.3215C20.6356 21.0346 20.864 20.8062 21.1509 20.8062H24.7368C25.0237 20.8062 25.2521 21.0346 25.2521 21.3215C25.2521 21.6083 25.0184 21.8368 24.7368 21.8368ZM32.084 20.5405C31.9512 20.5405 31.8131 20.4874 31.7121 20.3812L28.514 17.0502H21.1934C20.9065 17.0502 20.6781 16.8218 20.6781 16.5349C20.6781 16.248 20.9065 16.0196 21.1934 16.0196H28.7371C28.8753 16.0196 29.0134 16.078 29.109 16.179L32.4559 19.6693C32.6524 19.8765 32.6471 20.2005 32.4399 20.3971C32.339 20.4927 32.2115 20.5405 32.084 20.5405ZM27.324 13.5121H20.023C19.7361 13.5121 20.0229 13.3025 20.0229 13.0156C19.1605 13.0156 20.0791 12.4815 20.366 12.4815H27.1221L28.8699 10.8027C29.0771 10.6062 29.4012 10.6115 29.5978 10.8187C29.7943 11.0258 29.789 11.3499 29.5818 11.5465L27.6799 13.3687C27.5843 13.459 27.4568 13.5121 27.324 13.5121Z" fill="#EF3239"/>
<path d="M24.0415 8.59215H19.7828C19.4959 8.59215 19.8465 8.28688 19.8465 8C19.8465 7.71312 19.6373 7.56152 19.9241 7.56152L24.7164 7.56152C25.0033 7.56152 24.1861 7.78996 24.1861 8.07684C24.1861 8.36371 24.3231 8.59215 24.0415 8.59215Z" fill="#EF3239"/>
<path d="M14.5939 36.0003C13.9086 36.0003 13.2604 35.9259 12.6336 35.7878L12.5645 35.7718C12.3998 35.7346 12.2351 35.6921 12.0811 35.6443C8.96793 34.7306 6.75793 32.1859 6.46043 29.1737C6.44449 29.0037 6.43387 28.8284 6.42856 28.6531L6.42324 28.5309C6.42324 28.4724 6.42324 28.4246 6.42324 28.3715C4.32481 26.9796 3.06043 24.6846 3.00199 22.2143C2.97543 21.0456 3.21449 19.9087 3.70856 18.8462C4.18137 17.8368 4.88793 16.9284 5.74856 16.2112L5.72731 16.1846C5.04731 15.239 4.67543 14.1393 4.64887 12.9759C4.61168 11.4512 5.17481 10.0062 6.22668 8.90119C7.27856 7.80151 8.70231 7.17463 10.227 7.13744C10.3598 7.13744 10.4926 7.13745 10.6254 7.14276C10.6201 7.04713 10.6148 6.95682 10.6095 6.85588C10.5617 4.23682 12.6442 2.05869 15.2632 2.00026C16.3204 1.98963 17.3723 2.30838 18.2117 2.94057C18.3657 3.05744 18.5145 3.17963 18.6473 3.30713C19.5664 4.18901 20.087 5.3737 20.1189 6.63276C20.1242 6.66463 20.2145 8.00338 20.172 9.35276L20.1614 11.1059V11.6478L20.087 31.0649C19.9754 32.7596 19.152 35.6124 14.8329 35.9896C14.7532 36.0003 14.6736 36.0003 14.5939 36.0003ZM10.3704 8.16276C10.3332 8.16276 10.2961 8.16276 10.2589 8.16276C9.01043 8.18932 7.84699 8.70463 6.98106 9.60776C6.11512 10.5109 5.65824 11.6956 5.68481 12.944C5.70606 13.8949 6.00887 14.7981 6.55606 15.5524L6.64106 15.664C6.64106 15.664 6.67293 15.7065 6.67293 15.7118C6.69418 15.7331 6.68887 15.7278 6.71012 15.7543C6.74731 15.8074 6.79512 15.8606 6.83762 15.9084C6.94918 16.0146 7.00762 16.1634 6.99699 16.3121C6.98637 16.4609 6.91199 16.6043 6.78981 16.6946C6.67293 16.7796 6.59856 16.8381 6.52418 16.8965C6.48699 16.9231 6.45512 16.9496 6.42324 16.9762C5.66356 17.6084 5.05262 18.3946 4.64356 19.2659C4.22387 20.1956 4.01668 21.1731 4.04324 22.1878C4.09106 24.3234 5.18543 26.3049 6.96512 27.4896C7.07137 27.5587 7.15106 27.6118 7.23074 27.6596C7.39012 27.7606 7.48574 27.9359 7.47512 28.1271C7.46981 28.2546 7.46449 28.3821 7.46449 28.5096V28.6318C7.46981 28.7806 7.47512 28.9346 7.49106 29.0781C7.74606 31.6706 9.66387 33.8593 12.3839 34.6615C12.5273 34.7093 12.6707 34.7412 12.8089 34.7731L12.8673 34.789C13.4729 34.9271 14.1157 34.9909 14.7745 34.9749C17.452 34.7412 18.9023 33.4131 19.0564 31.0437L19.1254 11.6637V11.1218L19.1361 9.35807C19.1361 9.35276 19.1361 9.34744 19.1361 9.34213C19.1786 8.04057 19.0882 6.70182 19.0882 6.69119C19.067 5.68182 18.6526 4.75213 17.9354 4.06151C17.8292 3.96057 17.7123 3.86494 17.5901 3.77463C16.9314 3.28057 16.1132 3.00963 15.2845 3.04151C13.2339 3.08932 11.6029 4.79463 11.6507 6.83994C11.6561 7.11619 11.6879 7.3712 11.7464 7.61026C11.7889 7.78026 11.7411 7.95557 11.6242 8.08307C11.5073 8.21057 11.332 8.26369 11.162 8.23713C10.9017 8.18401 10.6361 8.16276 10.3704 8.16276Z" fill="#EF3239"/>
<rect x="8.5759" y="13.196" width="12.2945" height="12.2945" rx="2.52616" fill="#000000" stroke="#EF3239" stroke-width="1.04634"/>
<path d="M14.3847 16.8011L15.7266 21.9805H14.8006L14.4867 20.6621H12.9486L12.6425 21.9805H11.7793L13.2154 16.8011H14.3847ZM13.0898 20.0814H14.3533L13.7176 17.3897L13.0898 20.0814ZM17.1151 16.8011V21.9805H16.1969V16.8011H17.1151Z" fill="#EF3239"/>

</svg>
