<svg width="195" height="46" viewBox="0 0 195 46" fill="none" xmlns="http://www.w3.org/2000/svg">
<path d="M54.3242 19.8712V31.2345H48.9219V0.893521H54.3242V14.141L60.1124 17.3266L60.6912 16.3748C66.0292 7.73093 69.3306 2.46691 70.8741 0L75.5904 2.44748L64.6357 19.9683L77.9914 27.5633C77.97 27.5827 77.97 27.6022 77.9486 27.6216C77.6056 28.0683 77.2411 28.5734 76.8552 29.1755L75.1188 31.759L54.3242 19.8712Z" fill="#BA8D5D"/>
<path d="M101.207 0.851562H95.4614V31.2508H101.207V0.851562Z" fill="#BA8D5D"/>
<path d="M145.563 0.892578V31.1947H140.29V26.1055L123.89 9.0897V31.1947H118.509V0.892578H123.804L140.29 18.2969V0.892578H145.563Z" fill="#BA8D5D"/>
<path d="M180.549 0.892578H174.761C171.802 7.67172 161.319 31.2336 161.319 31.2336H166.679L169.508 24.8624L185.222 23.2501L188.802 31.1753H193.969L180.549 0.892578ZM171.438 20.453L177.697 6.27316L183.443 19.2487L171.438 20.453Z" fill="#BA8D5D"/>
<path d="M19.7641 0.892578H13.9759C11.0175 7.67172 0.534424 31.2336 0.534424 31.2336H5.89386L9.43108 23.2501L25.1664 24.8624L28.039 31.1753H33.2055L19.7641 0.892578ZM11.189 19.2293L16.9343 6.27316L23.237 20.453L11.189 19.2293Z" fill="#BA8D5D"/>
<path d="M0 43.4543C0 42.3082 0.900392 41.5312 2.16522 41.5312C2.76547 41.5312 3.27997 41.7255 3.70872 42.0946L3.12992 42.619C2.87266 42.3859 2.57252 42.2888 2.20808 42.2888C1.4792 42.2888 0.986137 42.755 0.986137 43.4348C0.986137 44.1341 1.4792 44.5809 2.20808 44.5809C2.59396 44.5809 2.95841 44.4449 3.21566 44.2118L3.77305 44.7751C3.34429 45.1636 2.80834 45.3384 2.18665 45.3384C0.857512 45.3579 0 44.5809 0 43.4543Z" fill="#BA8D5D"/>
<path d="M5.22998 43.4543C5.22998 42.2888 6.08749 41.5312 7.41663 41.5312C8.72433 41.5312 9.60327 42.2888 9.60327 43.4543C9.60327 44.6197 8.74577 45.3773 7.41663 45.3773C6.08749 45.3773 5.22998 44.6197 5.22998 43.4543ZM8.63857 43.4543C8.63857 42.755 8.14551 42.2888 7.41663 42.2888C6.68775 42.2888 6.19468 42.755 6.19468 43.4543C6.19468 44.1536 6.68775 44.6197 7.41663 44.6197C8.14551 44.6003 8.63857 44.1536 8.63857 43.4543Z" fill="#BA8D5D"/>
<path d="M15.1133 41.6094V45.2806H14.2557L12.4335 43.0079L12.455 43.9986V45.2806H11.5117V41.6094H12.3692L14.1914 43.882L14.17 42.9108V41.6094H15.1133Z" fill="#BA8D5D"/>
<path d="M20.3232 42.3669H19.0798V45.2806H18.158V42.3669H16.936V41.6094H20.3446V42.3669H20.3232Z" fill="#BA8D5D"/>
<path d="M25.2754 44.5619V45.2806H22.124V41.6094H25.2111V42.3281H23.0458V43.0662H25.1039V43.7655H23.0458V44.5619H25.2754Z" fill="#BA8D5D"/>
<path d="M31.7061 41.6094V45.2806H30.7628V42.9885L29.5838 44.3094H29.3908L28.1903 42.9885V45.2806H27.2471V41.6094H28.1046L29.4766 43.1633L30.8486 41.6094H31.7061Z" fill="#BA8D5D"/>
<path d="M37.3452 42.9302C37.3452 43.7266 36.745 44.2511 35.8017 44.2511H34.8156V45.2806H33.8723V41.6094H35.8017C36.745 41.6094 37.3452 42.1338 37.3452 42.9302ZM36.402 42.9302C36.402 42.5806 36.1447 42.3669 35.7588 42.3669H34.8156V43.4935H35.7588C36.1447 43.4935 36.402 43.2799 36.402 42.9302Z" fill="#BA8D5D"/>
<path d="M38.9316 43.4543C38.9316 42.2888 39.7891 41.5312 41.1183 41.5312C42.426 41.5312 43.3049 42.2888 43.3049 43.4543C43.3049 44.6197 42.4474 45.3773 41.1183 45.3773C39.7891 45.3773 38.9316 44.6197 38.9316 43.4543ZM42.3402 43.4543C42.3402 42.755 41.8472 42.2888 41.1183 42.2888C40.3894 42.2888 39.8963 42.755 39.8963 43.4543C39.8963 44.1536 40.3894 44.6197 41.1183 44.6197C41.8472 44.6003 42.3402 44.1536 42.3402 43.4543Z" fill="#BA8D5D"/>
<path d="M46.6913 44.0763H46.1339V45.2806H45.1907V41.6094H47.1629C48.0419 41.6094 48.6207 42.1144 48.6207 42.8525C48.6207 43.4158 48.2991 43.8238 47.6989 43.9986L48.8351 45.2806H47.6989L46.6913 44.0763ZM47.0558 42.3475H46.1339V43.377H47.0558C47.4631 43.377 47.6775 43.2022 47.6775 42.872C47.6989 42.5417 47.4631 42.3475 47.0558 42.3475Z" fill="#BA8D5D"/>
<path d="M53.4879 44.6202H51.4942L51.1941 45.2806H50.1865L52.0087 41.6094H53.0163L54.8171 45.2806H53.7881L53.4879 44.6202ZM51.8372 43.882H53.1449L52.5018 42.4446L51.8372 43.882Z" fill="#BA8D5D"/>
<path d="M57.9674 44.0763H57.41V45.2806H56.4668V41.6094H58.4391C59.318 41.6094 59.8968 42.1144 59.8968 42.8525C59.8968 43.4158 59.5753 43.8238 58.975 43.9986L60.1112 45.2806H58.975L57.9674 44.0763ZM58.3319 42.3475H57.41V43.377H58.3319C58.7392 43.377 58.9536 43.2022 58.9536 42.872C58.9536 42.5417 58.7392 42.3475 58.3319 42.3475Z" fill="#BA8D5D"/>
<path d="M63.756 43.8432V45.2806H62.8127V43.8432L61.2263 41.6094H62.3411L63.3058 43.0274L64.2919 41.6094H65.4281L63.756 43.8432Z" fill="#BA8D5D"/>
<path d="M72.8022 41.6094V43.7266C72.8022 44.7173 72.0948 45.3583 71.0015 45.3583C69.8653 45.3583 69.2221 44.7756 69.2007 43.7266H70.1225C70.144 44.2899 70.4441 44.5813 70.98 44.5813C71.516 44.5813 71.8375 44.2705 71.8375 43.7072V42.3475H70.6799V41.6094H72.8022Z" fill="#BA8D5D"/>
<path d="M77.5834 44.6202H75.5897L75.2896 45.2806H74.282L76.1042 41.6094H77.1118L78.9125 45.2806H77.8835L77.5834 44.6202ZM75.9327 43.882H77.2404L76.5973 42.4446L75.9327 43.882Z" fill="#BA8D5D"/>
<path d="M84.0567 42.9302C84.0567 43.7266 83.4564 44.2511 82.5131 44.2511H81.527V45.2806H80.5837V41.6094H82.5131C83.4564 41.6094 84.0567 42.1338 84.0567 42.9302ZM83.1134 42.9302C83.1134 42.5806 82.8561 42.3669 82.4703 42.3669H81.527V43.4935H82.4703C82.8561 43.4935 83.1134 43.2799 83.1134 42.9302Z" fill="#BA8D5D"/>
<path d="M88.581 44.6202H86.5873L86.2871 45.2806H85.2795L87.1017 41.6094H88.1093L89.9101 45.2806H88.8811L88.581 44.6202ZM86.9302 43.882H88.238L87.5948 42.4446L86.9302 43.882Z" fill="#BA8D5D"/>
<path d="M95.1831 41.6094V45.2806H94.3256L92.5034 43.0079L92.5248 43.9986V45.2806H91.5815V41.6094H92.4391L94.2613 43.882L94.2398 42.9108V41.6094H95.1831Z" fill="#BA8D5D"/>
<path d="M100.478 44.5619V45.2806H97.3267V41.6094H100.414V42.3281H98.2485V43.0662H100.307V43.7655H98.2485V44.5619H100.478Z" fill="#BA8D5D"/>
<path d="M102.193 44.8529L102.686 44.2314C103.029 44.4839 103.458 44.6199 103.929 44.6199C104.401 44.6199 104.701 44.4645 104.701 44.2119C104.701 43.9788 104.444 43.8429 103.886 43.7846C102.793 43.668 102.3 43.3378 102.3 42.6774C102.3 41.9976 102.965 41.5508 103.951 41.5508C104.508 41.5508 105.066 41.7062 105.473 41.9781L105.023 42.5803C104.723 42.386 104.358 42.2889 103.972 42.2889C103.501 42.2889 103.2 42.4443 103.2 42.6774C103.2 42.9105 103.415 43.027 103.994 43.0853C105.087 43.2019 105.623 43.5709 105.623 44.2314C105.623 44.9306 104.937 45.3968 103.929 45.3968C103.286 45.358 102.643 45.1832 102.193 44.8529Z" fill="#BA8D5D"/>
<path d="M110.684 44.5619V45.2806H107.532V41.6094H110.619V42.3281H108.454V43.0662H110.512V43.7655H108.454V44.5619H110.684Z" fill="#BA8D5D"/>
<path d="M116.771 44.0763H116.214V45.2806H115.27V41.6094H117.243C118.121 41.6094 118.7 42.1144 118.7 42.8525C118.7 43.4158 118.379 43.8238 117.778 43.9986L118.915 45.2806H117.778L116.771 44.0763ZM117.135 42.3475H116.214V43.377H117.135C117.543 43.377 117.757 43.2022 117.757 42.872C117.757 42.5417 117.543 42.3475 117.135 42.3475Z" fill="#BA8D5D"/>
<path d="M123.868 44.5619V45.2806H120.716V41.6094H123.803V42.3281H121.638V43.0662H123.696V43.7655H121.638V44.5619H123.868Z" fill="#BA8D5D"/>
<path d="M125.582 44.8529L126.075 44.2314C126.418 44.4839 126.847 44.6199 127.319 44.6199C127.79 44.6199 128.091 44.4645 128.091 44.2119C128.091 43.9788 127.833 43.8429 127.276 43.7846C126.183 43.668 125.689 43.3378 125.689 42.6774C125.689 41.9976 126.354 41.5508 127.34 41.5508C127.898 41.5508 128.455 41.7062 128.862 41.9781L128.412 42.5803C128.112 42.386 127.747 42.2889 127.362 42.2889C126.89 42.2889 126.59 42.4443 126.59 42.6774C126.59 42.9105 126.804 43.027 127.383 43.0853C128.476 43.2019 129.012 43.5709 129.012 44.2314C129.012 44.9306 128.326 45.3968 127.319 45.3968C126.676 45.358 126.032 45.1832 125.582 44.8529Z" fill="#BA8D5D"/>
<path d="M133.964 42.3669H132.721V45.2806H131.777V42.3669H130.555V41.6094H133.964V42.3669Z" fill="#BA8D5D"/>
<path d="M138.209 44.6202H136.215L135.915 45.2806H134.908L136.73 41.6094H137.738L139.538 45.2806H138.509L138.209 44.6202ZM136.558 43.882H137.866L137.223 42.4446L136.558 43.882Z" fill="#BA8D5D"/>
<path d="M140.996 43.7073V41.6289H141.939V43.7073C141.939 44.2706 142.261 44.6008 142.818 44.6008C143.376 44.6008 143.697 44.2512 143.697 43.7073V41.6289H144.641V43.7073C144.641 44.7562 143.976 45.3584 142.818 45.3584C141.682 45.3584 140.996 44.7562 140.996 43.7073Z" fill="#BA8D5D"/>
<path d="M148.263 44.0763H147.706V45.2806H146.763V41.6094H148.735C149.614 41.6094 150.193 42.1144 150.193 42.8525C150.193 43.4158 149.871 43.8238 149.271 43.9986L150.407 45.2806H149.271L148.263 44.0763ZM148.628 42.3475H147.706V43.377H148.628C149.035 43.377 149.249 43.2022 149.249 42.872C149.249 42.5417 149.014 42.3475 148.628 42.3475Z" fill="#BA8D5D"/>
<path d="M155.038 44.6202H153.045L152.744 45.2806H151.737L153.559 41.6094H154.567L156.367 45.2806H155.338L155.038 44.6202ZM153.388 43.882H154.695L154.052 42.4446L153.388 43.882Z" fill="#BA8D5D"/>
<path d="M161.641 41.6094V45.2806H160.783L158.961 43.0079L158.983 43.9986V45.2806H158.039V41.6094H158.897L160.719 43.882L160.698 42.9108V41.6094H161.641Z" fill="#BA8D5D"/>
<path d="M166.849 42.3669H165.606V45.2806H164.663V42.3669H163.441V41.6094H166.849V42.3669Z" fill="#BA8D5D"/>
<path d="M174.654 44.5423V45.2804C174.182 45.3387 173.86 45.2221 173.71 44.9307C173.41 45.2027 173.003 45.3387 172.467 45.3387C171.545 45.3387 170.966 44.9307 170.966 44.2897C170.966 43.9012 171.224 43.571 171.588 43.3962C171.288 43.2602 171.095 42.9883 171.095 42.6387C171.095 41.9977 171.738 41.5703 172.681 41.5703C173.667 41.5703 174.246 41.9782 174.246 42.6581H173.367C173.346 42.3861 173.11 42.2502 172.681 42.2502C172.253 42.2502 171.995 42.4056 171.995 42.6775C171.995 42.9495 172.253 43.1243 172.681 43.1243H174.611V43.7847H174.225V44.1732C174.225 44.4257 174.375 44.5811 174.654 44.5423ZM173.346 44.1343V43.7459H172.596C172.124 43.7459 171.867 43.9012 171.867 44.1926C171.867 44.484 172.124 44.6394 172.574 44.6394C173.024 44.6394 173.346 44.4451 173.346 44.1343Z" fill="#BA8D5D"/>
<path d="M182.778 44.2511C182.778 44.8921 182.2 45.2806 181.256 45.2806H179.263V41.6094H181.256C182.114 41.6094 182.65 41.9784 182.65 42.5806C182.65 42.9302 182.457 43.2216 182.135 43.3576C182.521 43.513 182.778 43.8626 182.778 44.2511ZM180.163 42.3281V43.0468H181.256C181.557 43.0468 181.728 42.9108 181.728 42.6777C181.728 42.4446 181.557 42.3087 181.256 42.3087H180.163V42.3281ZM181.835 44.154C181.835 43.9015 181.642 43.7461 181.299 43.7461H180.163V44.5813H181.299C181.642 44.5619 181.835 44.4065 181.835 44.154Z" fill="#BA8D5D"/>
<path d="M187.88 44.6202H185.887L185.587 45.2806H184.579L186.401 41.6094H187.409L189.21 45.2806H188.181L187.88 44.6202ZM186.23 43.882H187.537L186.894 42.4446L186.23 43.882Z" fill="#BA8D5D"/>
<path d="M192.361 44.0763H191.804V45.2806H190.861V41.6094H192.833C193.712 41.6094 194.291 42.1144 194.291 42.8525C194.291 43.4158 193.969 43.8238 193.369 43.9986L194.505 45.2806H193.369L192.361 44.0763ZM192.726 42.3475H191.804V43.377H192.726C193.133 43.377 193.348 43.2022 193.348 42.872C193.369 42.5417 193.133 42.3475 192.726 42.3475Z" fill="#BA8D5D"/>
</svg>
