<svg width="183" height="74" viewBox="0 0 183 74" fill="none" xmlns="http://www.w3.org/2000/svg">
<path d="M19.4011 0H31.6546L50.7553 53.191H40.5573L39.2621 49.6149C38.5018 47.7142 37.6617 46.1139 36.296 44.7435C33.7102 42.3829 30.2092 41.2425 25.8728 41.1674H25.1125C20.6213 41.2425 17.2 42.3078 14.6846 44.5136C13.0889 45.8839 12.2489 47.7095 11.4886 49.385L10.0431 53.191H0L19.4011 0ZM33.2503 34.0152L25.488 9.81785L17.5755 34.0152H33.2503Z" fill="white"/>
<path d="M56.9175 0H66.6603V44.5183H83.4004V53.191H56.9175V0Z" fill="white"/>
<path d="M89.6421 0H104.406C110.418 0 121.682 1.44545 121.682 13.0889C121.682 23.667 111.789 25.1125 111.789 25.1125C111.789 25.1125 126.173 25.2627 126.173 39.2667C126.173 49.4647 118.41 53.191 108.212 53.191H89.6468V0H89.6421ZM98.0896 6.92695V14.0791V21.3064H105.467H105.772C110.414 21.3064 113.154 18.7206 113.154 14.1542C113.154 9.5879 110.414 6.92695 105.772 6.92695H105.467H98.0896ZM107.142 29.4489H98.3148V37.5913V45.9637H106.687H107.067C112.469 45.9637 115.59 42.9179 115.59 37.7462C115.59 32.4947 112.549 29.4489 107.142 29.4489H106.762H107.142Z" fill="white"/>
<path d="M149.225 0H161.479L180.579 53.191H170.381L169.086 49.6149C168.326 47.7142 167.49 46.1139 166.12 44.7435C163.534 42.3829 160.033 41.2425 155.697 41.1674H154.936C150.445 41.2425 147.024 42.3078 144.513 44.5136C142.918 45.8839 142.077 47.7095 141.317 49.385L139.872 53.191H129.829L149.225 0ZM163.074 34.0152L155.312 9.81785L147.399 34.0152H163.074Z" fill="white"/>
<path d="M0.347412 73.7369V64.6934H2.3795V73.7369H0.347412ZM2.01814 70.081V68.2976H6.54223V70.081H2.01814ZM6.18087 73.7369V64.6934H8.22703V73.7369H6.18087Z" fill="white"/>
<path d="M15.5762 73.9863C14.7596 73.9863 14.0463 73.8408 13.4409 73.5546C12.8355 73.2636 12.3333 72.8881 11.9344 72.4188C11.5402 71.9495 11.2398 71.4474 11.0427 70.9077C10.8456 70.368 10.7471 69.8377 10.7471 69.3261V69.0539C10.7471 68.4907 10.8503 67.937 11.0521 67.3879C11.2539 66.8388 11.559 66.3413 11.9673 65.8955C12.3756 65.4497 12.8777 65.093 13.4784 64.8255C14.0791 64.558 14.7784 64.4219 15.5809 64.4219C16.374 64.4219 17.0733 64.558 17.674 64.8255C18.2747 65.093 18.7816 65.4497 19.1852 65.8955C19.5888 66.3413 19.8938 66.8388 20.1003 67.3879C20.3068 67.937 20.4101 68.4907 20.4101 69.0539V69.3261C20.4101 69.8377 20.3115 70.3633 20.1144 70.9077C19.9173 71.4474 19.6169 71.9542 19.2227 72.4188C18.8285 72.8834 18.3217 73.2636 17.7163 73.5546C17.1062 73.8408 16.3928 73.9863 15.5762 73.9863ZM15.5762 72.0809C16.0033 72.0809 16.3928 72.0058 16.7354 71.8557C17.078 71.7055 17.3689 71.499 17.6083 71.2362C17.8476 70.9734 18.0307 70.6683 18.1574 70.321C18.2841 69.9738 18.3498 69.603 18.3498 69.2041C18.3498 68.7817 18.2841 68.3969 18.1574 68.0449C18.0307 67.6929 17.843 67.3879 17.5989 67.1345C17.3549 66.881 17.0639 66.6792 16.7213 66.5384C16.3787 66.3977 15.9986 66.3273 15.5762 66.3273C15.1445 66.3273 14.7643 66.3977 14.4217 66.5384C14.0838 66.6792 13.7929 66.8763 13.5488 67.1345C13.3048 67.3926 13.1218 67.6929 12.995 68.0449C12.873 68.3969 12.8073 68.7817 12.8073 69.2041C12.8073 69.603 12.8683 69.9738 12.995 70.321C13.1171 70.6683 13.3048 70.9734 13.5488 71.2362C13.7929 71.499 14.0838 71.7055 14.4217 71.8557C14.7596 72.0058 15.1445 72.0809 15.5762 72.0809Z" fill="white"/>
<path d="M26.0232 73.9851C25.2066 73.9851 24.5167 73.8537 23.9535 73.5862C23.3904 73.3234 22.9633 72.9667 22.6723 72.5162C22.3767 72.0657 22.2312 71.5494 22.2312 70.9628H24.2117C24.2117 71.1928 24.2774 71.4086 24.4041 71.6058C24.5308 71.8029 24.7279 71.9624 24.9954 72.0845C25.2582 72.2018 25.6008 72.2628 26.0232 72.2628C26.4033 72.2628 26.7224 72.2112 26.9759 72.1126C27.234 72.0141 27.4264 71.8733 27.5578 71.6996C27.6892 71.5213 27.7549 71.3195 27.7549 71.0848C27.7549 70.7939 27.6329 70.5686 27.3842 70.3997C27.1354 70.2307 26.7365 70.1228 26.1827 70.0711L25.5022 70.0195C24.6012 69.935 23.8832 69.6534 23.3481 69.1701C22.8084 68.6867 22.5409 68.0437 22.5409 67.2412C22.5409 66.6546 22.677 66.1524 22.9539 65.7301C23.2308 65.3077 23.6157 64.9839 24.1131 64.7586C24.6106 64.5333 25.1972 64.416 25.873 64.416C26.5817 64.416 27.1917 64.538 27.7033 64.7868C28.2101 65.0355 28.5997 65.3781 28.8718 65.8192C29.144 66.2604 29.2801 66.7766 29.2801 67.3633H27.2997C27.2997 67.138 27.2481 66.9362 27.1401 66.7485C27.0322 66.5607 26.8726 66.4152 26.6614 66.3026C26.4503 66.19 26.1874 66.1337 25.873 66.1337C25.5774 66.1337 25.3239 66.1806 25.1221 66.2745C24.9203 66.3683 24.7701 66.4997 24.6716 66.6687C24.573 66.8376 24.5214 67.0254 24.5214 67.2318C24.5214 67.4806 24.6106 67.7011 24.7936 67.8889C24.9766 68.0813 25.2723 68.1892 25.6853 68.2221L26.3798 68.2831C27.0416 68.3394 27.6235 68.4849 28.1257 68.7102C28.6278 68.9354 29.0267 69.2452 29.3083 69.6394C29.5946 70.0336 29.7354 70.5076 29.7354 71.0708C29.7354 71.648 29.5852 72.1595 29.2848 72.596C28.9845 73.0325 28.5574 73.375 28.0036 73.6144C27.4499 73.8678 26.7881 73.9851 26.0232 73.9851Z" fill="white"/>
<path d="M32.1194 73.7358V64.6172H34.1515V73.7358H32.1194ZM33.9027 71.1499V69.39H35.5265C35.8409 69.39 36.1132 69.329 36.3384 69.2023C36.5637 69.0803 36.7373 68.9019 36.8594 68.6767C36.9767 68.4514 37.0377 68.1886 37.0377 67.8882C37.0377 67.5832 36.9767 67.3157 36.8594 67.0904C36.7373 66.8652 36.5637 66.6868 36.3384 66.5648C36.1085 66.4428 35.8409 66.3771 35.5265 66.3771H33.9027V64.6172H35.428C36.1976 64.6172 36.8546 64.7439 37.4037 65.002C37.9528 65.2554 38.3752 65.6215 38.6662 66.1002C38.9571 66.5742 39.1073 67.1373 39.1073 67.7897V67.9868C39.1073 68.6297 38.9618 69.1929 38.6662 69.6669C38.3705 70.1409 37.9528 70.507 37.4037 70.7651C36.8546 71.0232 36.1929 71.1499 35.428 71.1499H33.9027Z" fill="white"/>
<path d="M41.3975 73.7369V64.6934H43.4296V73.7369H41.3975Z" fill="white"/>
<path d="M45.7246 66.4767V64.6934H52.8627V66.4767H45.7246ZM48.2776 73.7369V66.228H50.3097V73.7369H48.2776Z" fill="white"/>
<path d="M53.468 73.7369L56.4528 64.6934H59.7379L62.8353 73.7369H60.7282L58.2268 66.1013L58.8697 66.3594H57.2694L57.9405 66.1013L55.5001 73.7369H53.468ZM55.7394 71.4983L56.3589 69.8135H59.9022L60.5357 71.4983H55.7394Z" fill="white"/>
<path d="M65.0083 73.7369V64.6934H67.0404V73.7369H65.0083ZM66.7917 73.7369V71.9535H70.5836V73.7369H66.7917Z" fill="white"/>
<path d="M72.9348 73.7369V64.6934H74.9669V73.7369H72.9348Z" fill="white"/>
<path d="M77.2617 66.4767V64.6934H84.3998V66.4767H77.2617ZM79.8147 73.7369V66.228H81.8468V73.7369H79.8147Z" fill="white"/>
<path d="M88.4502 70.3203L85.8127 64.6934H87.8965L89.7924 68.8936L89.4311 68.781H90.4729L90.0881 68.8936L91.7964 64.6934H93.7675L91.3412 70.3203H88.4502ZM88.8961 73.7369V70.0294H90.8906V73.7369H88.8961Z" fill="white"/>
<path d="M102.083 73.9994C101.412 73.9994 100.83 73.868 100.328 73.6099C99.8308 73.3518 99.4366 72.9951 99.1597 72.5446C98.8781 72.0941 98.7373 71.5919 98.7373 71.0381V70.8645C98.7373 70.2638 98.9063 69.7241 99.2442 69.2548C99.5821 68.7855 100.019 68.4288 100.558 68.1894L101.365 69.2313C101.14 69.3815 100.952 69.5927 100.802 69.8696C100.647 70.1465 100.572 70.4703 100.572 70.841C100.572 71.132 100.633 71.3948 100.751 71.6295C100.873 71.8641 101.051 72.0471 101.29 72.1738C101.53 72.3006 101.83 72.3663 102.196 72.3663C102.675 72.3663 103.116 72.2396 103.515 71.9814C103.914 71.728 104.238 71.3197 104.482 70.7659C104.726 70.2122 104.848 69.4894 104.848 68.5977H106.584C106.584 69.48 106.467 70.2591 106.232 70.9255C105.997 71.5966 105.669 72.1551 105.251 72.6103C104.834 73.0655 104.355 73.4081 103.806 73.6475C103.261 73.8821 102.684 73.9994 102.083 73.9994ZM105.045 73.7366L101.586 70.0056C101.206 69.5927 100.906 69.2313 100.68 68.9216C100.455 68.6118 100.295 68.3115 100.197 68.0205C100.098 67.7295 100.047 67.4198 100.047 67.0772C100.047 66.575 100.159 66.1339 100.38 65.7584C100.605 65.383 100.948 65.0873 101.412 64.8808C101.882 64.6697 102.482 64.5664 103.229 64.5664C103.534 64.5664 103.843 64.5805 104.162 64.6086C104.482 64.6368 104.758 64.6743 104.998 64.7166V66.3498C104.834 66.3263 104.632 66.3028 104.392 66.2841C104.153 66.2653 103.914 66.2465 103.679 66.2324C103.444 66.2184 103.252 66.2137 103.102 66.2137C102.614 66.2137 102.29 66.2981 102.121 66.4671C101.957 66.636 101.872 66.8754 101.872 67.1804C101.872 67.462 101.938 67.7342 102.074 67.9923C102.21 68.2505 102.435 68.5508 102.75 68.8887L107.222 73.7319H105.045V73.7366ZM103.679 68.8559V67.4057H107.199V68.8559H103.679Z" fill="white"/>
<path d="M113.112 73.7369V64.6934H115.144V73.7369H113.112ZM114.895 73.7369V71.9535H118.687V73.7369H114.895Z" fill="white"/>
<path d="M121.043 73.7369V64.6934H123.075V73.7369H121.043Z" fill="white"/>
<path d="M126.121 73.7369V64.6934H128.153V73.7369H126.121ZM127.905 66.3782V64.6934H131.547V66.3782H127.905ZM127.905 70.1091V68.4102H131.401V70.095L127.905 70.1091Z" fill="white"/>
<path d="M134.052 73.7369V64.6934H136.033V73.7369H134.052ZM135.789 66.3782V64.6934H139.656V66.3782H135.789ZM135.789 69.9824V68.2976H139.459V69.9824H135.789ZM135.789 73.7369V72.0521H139.74V73.7369H135.789Z" fill="white"/>
<path d="M145.49 73.9851C144.673 73.9851 143.983 73.8537 143.42 73.5862C142.857 73.3234 142.43 72.9667 142.139 72.5162C141.848 72.0657 141.698 71.5494 141.698 70.9628H143.678C143.678 71.1928 143.744 71.4086 143.87 71.6058C143.997 71.8029 144.194 71.9624 144.462 72.0845C144.725 72.2018 145.067 72.2628 145.49 72.2628C145.87 72.2628 146.189 72.2112 146.442 72.1126C146.696 72.0141 146.893 71.8733 147.024 71.6996C147.156 71.5213 147.221 71.3195 147.221 71.0848C147.221 70.7939 147.099 70.5686 146.85 70.3997C146.602 70.2307 146.203 70.1228 145.649 70.0711L144.969 70.0195C144.067 69.935 143.349 69.6534 142.814 69.1701C142.275 68.6867 142.007 68.0437 142.007 67.2412C142.007 66.6546 142.143 66.1524 142.42 65.7301C142.697 65.3077 143.082 64.9839 143.579 64.7586C144.077 64.5333 144.664 64.416 145.339 64.416C146.048 64.416 146.658 64.538 147.165 64.7868C147.672 65.0355 148.066 65.3781 148.338 65.8192C148.61 66.2604 148.746 66.7766 148.746 67.3633H146.766C146.766 67.138 146.71 66.9362 146.606 66.7485C146.498 66.5607 146.339 66.4152 146.128 66.3026C145.917 66.19 145.654 66.1337 145.339 66.1337C145.044 66.1337 144.79 66.1806 144.588 66.2745C144.387 66.3683 144.236 66.4997 144.138 66.6687C144.039 66.8376 143.988 67.0254 143.988 67.2318C143.988 67.4806 144.077 67.7011 144.26 67.8889C144.443 68.0813 144.739 68.1892 145.152 68.2221L145.846 68.2831C146.508 68.3394 147.09 68.4849 147.592 68.7102C148.094 68.9354 148.488 69.2452 148.775 69.6394C149.061 70.0336 149.202 70.5076 149.202 71.0708C149.202 71.648 149.052 72.1595 148.751 72.596C148.451 73.0325 148.024 73.375 147.47 73.6144C146.921 73.8678 146.259 73.9851 145.49 73.9851Z" fill="white"/>
<path d="M150.572 66.4767V64.6934H157.71V66.4767H150.572ZM153.125 73.7369V66.228H155.157V73.7369H153.125Z" fill="white"/>
<path d="M161.76 70.3203L159.123 64.6934H161.207L163.102 68.8936L162.741 68.781H163.783L163.398 68.8936L165.106 64.6934H167.078L164.647 70.3203H161.76ZM162.206 73.7369V70.0294H164.201V73.7369H162.206Z" fill="white"/>
<path d="M169.185 73.7369V64.6934H171.217V73.7369H169.185ZM170.968 73.7369V71.9535H174.76V73.7369H170.968Z" fill="white"/>
<path d="M177.088 73.7369V64.6934H179.068V73.7369H177.088ZM178.824 66.3782V64.6934H182.691V66.3782H178.824ZM178.824 69.9824V68.2976H182.494V69.9824H178.824ZM178.824 73.7369V72.0521H182.776V73.7369H178.824Z" fill="white"/>
</svg>
