<svg xmlns="http://www.w3.org/2000/svg" width="27" height="27" viewBox="0 0 27 27">
    <g fill="none" fill-rule="evenodd">
        <g>
            <g>
                <g>
                    <g>
                        <path d="M0 0H25.667V25.667H0z" transform="translate(-1423 -48) translate(105 48.333) translate(987) translate(331.333)"/>
                        <path fill="#FFF" fill-rule="nonzero" d="M12.803.856C19.4.856 24.75 6.205 24.75 12.803c0 6.598-5.349 11.947-11.947 11.947C6.204 24.75.856 19.4.856 12.803.856 6.205 6.204.856 12.803.856zm4.936 9.17c-2.565 0-3.55 1.577-3.928 2.79l-.064.223-.051.211-.022.1-.034.19-.026.17-.018.15-.02.29-.004.14v.145l.015.27.016.163.024.18.034.193.02.1.051.21c.31 1.172 1.209 2.69 3.77 2.779l.418.007.205-.006.17-.01.194-.02.212-.027.226-.04c1.046-.205 2.419-.812 2.516-2.581l.005-.202h-1.907l-.002.06-.007.07-.007.041-.024.096c-.095.327-.42.844-1.518.895l-.262.006-.152-.007-.064-.006-.145-.02c-.537-.094-1.383-.437-1.459-1.673l-.006-.182h5.617l.017-.202.009-.18.002-.108v-.175l-.005-.18-.02-.3-.023-.214-.032-.224c-.02-.114-.042-.23-.07-.348l-.062-.238c-.358-1.234-1.281-2.536-3.59-2.536zM9.704 7.27h-5.64v10.838h5.758l.232-.014.153-.016.174-.025.19-.034c.987-.2 2.477-.842 2.572-2.9l.006-.27-.001-.158-.007-.143-.014-.17c-.08-.753-.422-2.055-1.835-2.154l-.169-.006.075-.01.148-.032.129-.037c.486-.158 1.296-.626 1.296-1.984 0-1.874-1.264-2.821-2.896-2.882l-.17-.003zM6.55 13.285h3.174l.053.004.082.012.104.024c.337.094.884.407.884 1.448 0 1.036-.57 1.312-1.023 1.385l-.139.016-.126.007h-3.01v-2.896zm11.232-1.671c1.113 0 1.477.739 1.595 1.234l.029.14.017.12.011.154v.023h-3.56l.018-.093.026-.105.041-.134c.166-.487.627-1.34 1.823-1.34zm-11.232 0V9.196h3.172l.05.006.072.016c.222.061.627.285.627 1.105 0 1.074-.409 1.273-.89 1.29l-3.031.001zm13.33-3.707h-4.472v1.335h4.471V7.907z" transform="translate(-1423 -48) translate(105 48.333) translate(987) translate(331.333)"/>
                    </g>
                </g>
            </g>
        </g>
    </g>
</svg>
