<svg width="64" height="64" viewBox="0 0 64 64" fill="none" xmlns="http://www.w3.org/2000/svg">
<path d="M18.6228 11.8852C20.3456 11.8498 22.0655 12.0427 23.7376 12.459C25.295 12.7377 26.5737 13.3115 27.7212 14.0164C28.8586 14.7261 29.7512 15.7674 30.2786 17C30.8721 18.4389 31.1623 19.9848 31.131 21.541C31.131 23.5082 30.7048 25.2295 29.7048 26.5082C28.8524 27.7869 27.4097 28.918 25.7212 29.7869C27.8983 30.3407 29.809 31.6474 31.1146 33.4754C32.2622 35.1803 32.9671 37.3115 32.9671 39.7049C32.9955 41.4748 32.608 43.2267 31.836 44.8197C31.1138 46.2488 30.0424 47.4724 28.7212 48.377C27.3354 49.2954 25.798 49.9614 24.1802 50.3443C22.5089 50.7795 20.7922 51.0161 19.0655 51.0492H0.0490723V11.8852H18.6228ZM17.4753 27.7869C19.0327 27.7869 20.3114 27.3606 21.3114 26.6393C22.3114 25.918 22.7376 24.6721 22.7376 23.082C22.7618 22.3005 22.6164 21.5231 22.3114 20.8033C22.0327 20.2295 21.6064 19.8197 21.0327 19.377C20.4589 19.0984 19.8851 18.8033 19.1802 18.6721C18.4753 18.541 17.754 18.5082 16.8851 18.5082H8.68842V27.7377L17.4753 27.7869ZM17.8851 44.5902C18.6955 44.5748 19.5025 44.4815 20.295 44.3115C20.9986 44.172 21.6648 43.8852 22.2497 43.4699C22.8346 43.0545 23.3249 42.5201 23.6884 41.9016C23.9671 41.1967 24.2622 40.3443 24.2622 39.3443C24.2622 37.377 23.6884 35.9344 22.5573 34.918C21.4097 34.0656 19.8524 33.6393 18.0163 33.6393H8.67202V44.5738L17.8851 44.5902ZM45.3114 44.4262C46.4589 45.5738 48.1474 46.1311 50.4261 46.1311C51.8741 46.1501 53.2969 45.7517 54.5245 44.9836C55.4788 44.3681 56.2223 43.4759 56.6556 42.4262H63.6228C62.4753 45.8361 60.7868 48.2459 58.5081 49.8033C56.213 51.2295 53.5409 52.0983 50.2622 52.0983C48.1711 52.107 46.097 51.7233 44.1474 50.9672C42.3986 50.3142 40.8385 49.2385 39.6064 47.8361C38.2802 46.5379 37.3045 44.9249 36.7704 43.1475C36.059 41.1894 35.7199 39.1155 35.7704 37.0328C35.7704 34.9016 36.0491 32.9344 36.754 31.0656C37.4331 29.2791 38.4456 27.6379 39.7376 26.2295C41.0358 24.9034 42.5776 23.8403 44.2786 23.0984C46.1765 22.3397 48.2018 21.9502 50.2458 21.9508C52.6556 21.9508 54.7868 22.377 56.6392 23.377C58.4917 24.377 59.9179 25.5082 61.0655 27.2131C62.2255 28.8483 63.091 30.6735 63.6228 32.6065C63.9015 34.5738 64.0491 36.5902 63.9015 38.8361H43.3441C43.2921 40.8628 43.9929 42.8369 45.3114 44.377V44.4262ZM54.2622 29.5082C53.2786 28.5246 51.7048 27.9508 49.836 27.9508C48.5573 27.9508 47.5409 28.2295 46.7212 28.6557C45.9015 29.082 45.295 29.6393 44.754 30.2131C44.2458 30.762 43.9046 31.4444 43.7704 32.1803C43.6392 32.8688 43.4917 33.459 43.4917 34.0328H56.2786C56.1396 32.3426 55.4186 30.7486 54.2622 29.5082ZM41.8032 14.5902H57.7048V18.4262H41.8032V14.5902Z" fill="white"/>
</svg>
