<svg width="102" height="47" viewBox="0 0 102 47" fill="none" xmlns="http://www.w3.org/2000/svg">
<path d="M30.9687 22.7287C30.796 22.5634 30.5554 22.5015 30.231 22.5015C28.3686 22.5066 26.5062 22.5066 24.6438 22.5015C24.4607 22.5015 24.3613 22.5376 24.2514 22.6254C24.1206 22.7339 23.948 22.8217 23.7753 22.9043C23.6027 22.9869 23.4144 23.054 23.2469 23.1676C23.3307 23.1676 23.4144 23.1676 23.4981 23.1676C25.7424 23.1676 27.9867 23.1625 30.231 23.1728C30.5554 23.1728 30.796 23.116 30.9687 22.9508C30.9687 22.8785 30.9687 22.801 30.9687 22.7287Z" fill="white"/>
<path d="M14.1856 28.1056C13.673 27.7286 13.1969 27.3774 12.7156 27.0262C11.4967 26.1276 10.2829 25.2342 9.05354 24.3408C8.58271 24 8.37344 23.623 8.67164 23.2046C8.81289 23.0136 9.07447 22.8277 9.3622 22.7089C10.7642 22.115 12.1924 21.5417 13.6154 20.9633C14.0706 20.7774 14.1281 20.6845 13.9712 20.354C13.5526 19.476 13.1289 18.6033 12.7208 17.7253C12.6633 17.6014 12.5796 17.5601 12.3703 17.5601C9.88012 17.5652 7.39515 17.5601 4.90495 17.5652C3.86388 17.5652 3.20994 17.9784 3.20471 18.6187C3.20471 21.4384 3.20471 24.2633 3.20471 27.083C3.20471 27.6924 3.86389 28.1159 4.83695 28.1211C7.89215 28.1262 10.9421 28.1211 13.9973 28.1211C14.0392 28.1159 14.081 28.1107 14.1856 28.1056Z" fill="white"/>
<path d="M12.4887 14.8526C12.541 14.9765 12.5671 15.0643 12.609 15.147C13.4146 16.8408 14.2255 18.5347 15.0312 20.2286C15.2875 20.7709 15.0573 21.1686 14.2831 21.4836C12.8706 22.062 11.4633 22.6352 10.0508 23.2136C9.52763 23.4305 9.48054 23.6216 9.87814 23.916C13.0327 26.2347 16.1926 28.5587 19.3472 30.8775C19.3576 30.8878 19.3733 30.8981 19.3838 30.9084C19.525 31.0014 19.6349 31.1512 19.8965 31.0582C20.1267 30.9756 20.158 30.831 20.1005 30.6812C19.6611 29.5399 19.2268 28.3934 18.7874 27.2521C18.5415 26.6117 18.2904 25.9714 18.0445 25.331C17.8457 24.8145 18.1073 24.4221 18.8345 24.1277C20.2575 23.5493 21.6804 22.9761 23.1034 22.3977C23.5794 22.2066 23.6265 21.9948 23.2551 21.7366C19.8965 19.3972 16.5431 17.0629 13.174 14.7286C13.0851 14.6667 12.8653 14.6047 12.7816 14.6305C12.6404 14.6615 12.5671 14.7803 12.4887 14.8526Z" fill="white"/>
<path d="M2.11746 24.8107C2.11746 23.4887 2.11746 22.1821 2.11746 20.8652C1.56292 20.8652 1.01884 20.8549 0.479992 20.8704C0.202723 20.8755 0.00915513 21.0149 0.00392363 21.2009C-0.00130788 22.2957 -0.00130788 23.3905 0.00392363 24.4854C0.00392363 24.6558 0.145174 24.8004 0.41198 24.8107C0.982214 24.8262 1.55245 24.8107 2.11746 24.8107Z" fill="white"/>
<path d="M19.4597 26.1479C19.533 26.3493 19.5957 26.5352 19.6794 26.7211C19.6951 26.7572 19.7788 26.7882 19.8468 26.7986C19.9096 26.814 19.9881 26.8037 20.0561 26.8037C23.2578 26.8037 26.4595 26.8037 29.6611 26.8037C29.7501 26.8037 29.8442 26.8089 29.9332 26.7986C30.2209 26.7779 30.4197 26.6488 30.4302 26.4784C30.4354 26.3079 30.2523 26.1737 29.9698 26.1427C29.8913 26.1324 29.8076 26.1375 29.7292 26.1375C26.4072 26.1375 23.0852 26.1375 19.7632 26.1375C19.669 26.1375 19.58 26.1427 19.4597 26.1479Z" fill="white"/>
<path d="M20.5952 18.8876C20.9091 19.1045 21.1759 19.2955 21.4584 19.4815C21.516 19.5176 21.6311 19.5383 21.7252 19.5383C24.2416 19.5434 26.7631 19.5434 29.2795 19.5383C29.6719 19.5383 29.8968 19.3988 29.8864 19.1923C29.8759 18.996 29.6509 18.8721 29.269 18.8721C26.4388 18.8721 23.6085 18.8721 20.7783 18.8721C20.7417 18.8772 20.7051 18.8824 20.5952 18.8876Z" fill="white"/>
<path d="M17.733 16.8992C18.0574 17.1265 18.3242 17.3175 18.6067 17.5035C18.6642 17.5396 18.7793 17.5603 18.8735 17.5603C20.2128 17.5654 21.5468 17.5654 22.8861 17.5603C23.2575 17.5603 23.4824 17.426 23.4824 17.2297C23.4824 17.0438 23.268 16.9044 22.9436 16.9044C21.2381 16.8941 19.5274 16.8992 17.733 16.8992Z" fill="white"/>
<path d="M19.0826 25.1526C19.4593 25.1526 19.8203 25.1526 20.1812 25.1526C21.1961 25.1526 22.2163 25.1526 23.2312 25.1526C23.2992 25.1526 23.3725 25.1526 23.4405 25.1526C23.791 25.1423 24.0107 25.0132 24.0159 24.8221C24.0212 24.6207 23.791 24.4864 23.4248 24.4864C22.4308 24.4812 21.4316 24.4967 20.4376 24.4812C20.0191 24.4761 19.679 24.5432 19.3547 24.693C19.1088 24.8118 18.9937 24.9409 19.0826 25.1526Z" fill="white"/>
<path d="M20.2184 28.1204C20.3073 28.3528 20.3858 28.5542 20.4643 28.7711C20.548 28.7763 20.6264 28.7815 20.7049 28.7815C21.7721 28.7815 22.8341 28.7815 23.9014 28.7815C23.9432 28.7815 23.9798 28.7815 24.0217 28.7815C24.3408 28.766 24.5553 28.6265 24.5553 28.4458C24.5501 28.2702 24.346 28.1256 24.0374 28.1256C22.7818 28.1153 21.5315 28.1204 20.2184 28.1204Z" fill="white"/>
<path d="M26.676 24.4862C26.3464 24.4862 26.0116 24.481 25.682 24.4862C25.3367 24.4913 25.1065 24.6256 25.1065 24.8115C25.1013 25.0026 25.321 25.142 25.6715 25.1472C26.3569 25.1524 27.0422 25.1524 27.7223 25.1472C28.0676 25.142 28.2977 25.0078 28.303 24.8219C28.3082 24.6308 28.0676 24.4913 27.7066 24.4862C27.3613 24.4862 27.016 24.4862 26.676 24.4862Z" fill="white"/>
<path d="M25.8966 16.9002C25.6351 16.9002 25.3735 16.8951 25.1119 16.9002C24.7876 16.9106 24.5678 17.0448 24.5626 17.2256C24.5574 17.4063 24.7771 17.5561 25.0962 17.5613C25.6298 17.5716 26.1634 17.5716 26.6918 17.5613C27.0162 17.5561 27.2254 17.4115 27.2202 17.2308C27.215 17.0448 27.0057 16.9157 26.6761 16.9054C26.4198 16.8951 26.1582 16.9002 25.8966 16.9002Z" fill="white"/>
<path d="M26.9884 28.7826C27.229 28.7826 27.4697 28.7877 27.7103 28.7826C28.0556 28.7774 28.2858 28.6431 28.2963 28.4572C28.3067 28.2661 28.0608 28.1215 27.7051 28.1215C27.2029 28.1164 26.7006 28.1164 26.1984 28.1215C25.8531 28.1267 25.6334 28.261 25.6334 28.4521C25.6334 28.6431 25.8531 28.7723 26.2037 28.7826C26.4652 28.7826 26.7268 28.7826 26.9884 28.7826Z" fill="white"/>
<path d="M22.9557 20.5282C23.2853 20.7554 23.5573 20.9465 23.8294 21.1324C23.8607 21.153 23.9078 21.184 23.9497 21.184C24.3787 21.184 24.8129 21.1944 25.2419 21.1634C25.5087 21.1427 25.6342 20.9981 25.629 20.8329C25.6185 20.6676 25.404 20.5333 25.1111 20.5282C24.4205 20.523 23.73 20.5282 22.9557 20.5282Z" fill="white"/>
<path d="M27.7634 21.1903C27.936 21.1903 28.1086 21.1954 28.276 21.1903C28.6004 21.1799 28.8254 21.0457 28.8306 20.8649C28.8358 20.6842 28.6161 20.5396 28.2917 20.5292C27.9412 20.5189 27.5855 20.5189 27.235 20.5292C26.9106 20.5396 26.6909 20.679 26.6961 20.8649C26.7014 21.0457 26.9211 21.1799 27.2454 21.1903C27.4233 21.1954 27.5907 21.1903 27.7634 21.1903Z" fill="white"/>
<path d="M64.0823 12.1414L64.0819 12.1434C63.1025 17.3768 59.1946 20.7792 54.448 22.0217L54.4765 23.0894C59.488 24.1196 62.1218 28.4562 61.2149 33.3437L61.2145 33.3456C59.9169 40.4745 53.4643 45.2019 43.5275 45.2019H21.86L30.1193 1.06451H51.2387C56.049 1.06451 59.582 2.19386 61.7386 4.10811C63.8668 5.99715 64.735 8.72229 64.0823 12.1414ZM36.4284 26.2592H35.9733L35.8894 26.7065L33.9799 36.8854L33.858 37.5349H34.5189H43.1195C45.1752 37.5349 46.9027 37.0835 48.2089 36.1523C49.5237 35.215 50.359 33.8288 50.6884 32.0689C51.0583 30.3217 50.6983 28.8277 49.6201 27.7824C48.5646 26.7591 46.9146 26.2592 44.8929 26.2592H36.4284ZM39.7033 8.66958H39.2464L39.1639 9.11898L37.3904 18.7814L37.2716 19.4288H37.9298H45.5103C47.5294 19.4288 49.2367 18.9953 50.5244 18.1088C51.8243 17.2139 52.6501 15.8884 52.9455 14.2087L52.9458 14.2068C53.2376 12.512 52.9224 11.0815 51.8988 10.0873C50.898 9.11528 49.3282 8.66958 47.3517 8.66958H39.7033Z" fill="white" stroke="white" stroke-width="1.0968"/>
<path d="M89.7792 27.1881H76.3407L77.3839 21.3254H100.544L98.9054 30.1167C95.0647 37.5521 86.0292 44.9689 73.9434 44.9689C67.0118 44.9689 61.6951 42.6846 58.4083 38.9176C55.128 35.1581 53.7341 29.7669 54.9483 23.2652L54.9484 23.2644C57.3634 10.2841 68.6332 1.0968 82.4707 1.0968C88.0412 1.0968 92.4977 2.44272 95.6186 4.80519C98.4303 6.93356 100.23 9.93906 100.778 13.7248H89.8637C88.2527 10.6025 84.8943 9.08722 80.6292 9.08722C72.4882 9.08722 66.1907 14.5214 64.6671 22.8694C63.8471 27.2485 64.4695 30.9382 66.6247 33.5452C68.7809 36.1533 72.2731 37.4381 76.669 37.4381C82.9685 37.4381 87.9092 34.2275 90.7511 28.7932L91.5904 27.1881H89.7792Z" fill="#3E8527" stroke="white" stroke-width="2.1936"/>
<mask id="path-17-inside-1_59_234" fill="white">
<path fill-rule="evenodd" clip-rule="evenodd" d="M81.4091 23.3983L81.4301 25.2161C81.4039 25.3194 81.3777 25.4175 81.3411 25.5156C81.1214 26.2128 80.7081 26.8274 80.1065 27.3645C79.599 27.8189 79.034 28.1391 78.4115 28.3302C77.925 28.4799 77.4018 28.5471 76.842 28.5368L73.4572 28.4438L73.5043 26.7912L69.6958 26.6879C69.4395 26.6776 69.225 26.5898 69.0471 26.4142C68.8692 26.2386 68.7855 26.0321 68.7908 25.7945C68.796 25.5518 68.8954 25.3504 69.0837 25.1851C69.2668 25.0199 69.4866 24.9372 69.7429 24.9424L73.5514 25.0457L73.5985 23.2433L69.79 23.14C69.5336 23.1349 69.3191 23.0419 69.1413 22.8663C68.9634 22.6908 68.8797 22.4842 68.8849 22.2466C68.8902 22.0039 68.9896 21.8025 69.1779 21.6372C69.361 21.472 69.5807 21.3893 69.8371 21.3945L73.6456 21.4978L73.6927 19.8452L77.0775 19.9382C77.632 19.9537 78.1551 20.0518 78.6312 20.2274C79.2381 20.4494 79.7874 20.8058 80.2687 21.2861C80.9174 21.9264 81.315 22.6546 81.4667 23.4757L80.7134 22.1537"/>
</mask>
<path fill-rule="evenodd" clip-rule="evenodd" d="M81.4091 23.3983L81.4301 25.2161C81.4039 25.3194 81.3777 25.4175 81.3411 25.5156C81.1214 26.2128 80.7081 26.8274 80.1065 27.3645C79.599 27.8189 79.034 28.1391 78.4115 28.3302C77.925 28.4799 77.4018 28.5471 76.842 28.5368L73.4572 28.4438L73.5043 26.7912L69.6958 26.6879C69.4395 26.6776 69.225 26.5898 69.0471 26.4142C68.8692 26.2386 68.7855 26.0321 68.7908 25.7945C68.796 25.5518 68.8954 25.3504 69.0837 25.1851C69.2668 25.0199 69.4866 24.9372 69.7429 24.9424L73.5514 25.0457L73.5985 23.2433L69.79 23.14C69.5336 23.1349 69.3191 23.0419 69.1413 22.8663C68.9634 22.6908 68.8797 22.4842 68.8849 22.2466C68.8902 22.0039 68.9896 21.8025 69.1779 21.6372C69.361 21.472 69.5807 21.3893 69.8371 21.3945L73.6456 21.4978L73.6927 19.8452L77.0775 19.9382C77.632 19.9537 78.1551 20.0518 78.6312 20.2274C79.2381 20.4494 79.7874 20.8058 80.2687 21.2861C80.9174 21.9264 81.315 22.6546 81.4667 23.4757L80.7134 22.1537" fill="white"/>
<path d="M81.4301 25.2161L82.4933 25.4854L82.5284 25.3466L82.5268 25.2035L81.4301 25.2161ZM81.3411 25.5156L80.3136 25.1321L80.3036 25.1588L80.295 25.186L81.3411 25.5156ZM80.1065 27.3645L79.3761 26.5463L79.3748 26.5474L80.1065 27.3645ZM78.4115 28.3302L78.0897 27.2816L78.0888 27.2819L78.4115 28.3302ZM76.842 28.5368L76.8119 29.6332L76.8218 29.6334L76.842 28.5368ZM73.4572 28.4438L72.3609 28.4125L72.3296 29.51L73.4271 29.5402L73.4572 28.4438ZM73.5043 26.7912L74.6007 26.8225L74.632 25.7246L73.5341 25.6948L73.5043 26.7912ZM69.6958 26.6879L69.6516 27.7838L69.6589 27.7841L69.6661 27.7843L69.6958 26.6879ZM68.7908 25.7945L69.8873 25.8187L69.8873 25.8181L68.7908 25.7945ZM69.0837 25.1851L69.8071 26.0095L69.8129 26.0045L69.8186 25.9993L69.0837 25.1851ZM69.7429 24.9424L69.7726 23.846L69.765 23.8458L69.7429 24.9424ZM73.5514 25.0457L73.5217 26.1421L74.6192 26.1718L74.6479 25.0743L73.5514 25.0457ZM73.5985 23.2433L74.6949 23.272L74.7236 22.1766L73.6282 22.1469L73.5985 23.2433ZM69.79 23.14L69.8197 22.0436L69.8121 22.0435L69.79 23.14ZM68.8849 22.2466L69.9815 22.2708L69.9815 22.2703L68.8849 22.2466ZM69.1779 21.6372L69.9013 22.4616L69.9071 22.4566L69.9127 22.4514L69.1779 21.6372ZM69.8371 21.3945L69.8668 20.2981L69.8592 20.2979L69.8371 21.3945ZM73.6456 21.4978L73.6159 22.5942L74.7108 22.6239L74.7419 21.529L73.6456 21.4978ZM73.6927 19.8452L73.7228 18.7488L72.6275 18.7187L72.5963 19.814L73.6927 19.8452ZM77.0775 19.9382L77.1081 18.8418L77.1076 18.8418L77.0775 19.9382ZM78.6312 20.2274L78.2517 21.2564L78.2543 21.2574L78.6312 20.2274ZM80.2687 21.2861L79.4939 22.0624L79.4981 22.0666L80.2687 21.2861ZM81.4667 23.4757L80.5137 24.0187L82.5452 23.2764L81.4667 23.4757ZM80.3124 23.4109L80.3333 25.2287L82.5268 25.2035L82.5059 23.3856L80.3124 23.4109ZM80.3668 24.9468C80.3415 25.0467 80.3276 25.0946 80.3136 25.1321L82.3687 25.8991C82.4279 25.7405 82.4663 25.5921 82.4933 25.4854L80.3668 24.9468ZM80.295 25.186C80.1417 25.6725 79.849 26.1241 79.3761 26.5463L80.8369 28.1826C81.5673 27.5307 82.1011 26.7532 82.3872 25.8453L80.295 25.186ZM79.3748 26.5474C78.982 26.8992 78.5559 27.1386 78.0897 27.2816L78.7333 29.3787C79.5122 29.1396 80.2161 28.7386 80.8382 28.1815L79.3748 26.5474ZM78.0888 27.2819C77.727 27.3933 77.3212 27.4486 76.8623 27.4401L76.8218 29.6334C77.4824 29.6456 78.1229 29.5666 78.7342 29.3784L78.0888 27.2819ZM76.8721 27.4404L73.4874 27.3474L73.4271 29.5402L76.8119 29.6331L76.8721 27.4404ZM74.5536 28.475L74.6007 26.8225L72.408 26.76L72.3609 28.4125L74.5536 28.475ZM73.5341 25.6948L69.7255 25.5915L69.6661 27.7843L73.4746 27.8876L73.5341 25.6948ZM69.74 25.592C69.726 25.5915 69.739 25.5902 69.7657 25.6014C69.7782 25.6066 69.7899 25.613 69.8001 25.6199C69.8101 25.6266 69.8159 25.632 69.8176 25.6337L68.2766 27.1948C68.6631 27.5763 69.1431 27.7633 69.6516 27.7838L69.74 25.592ZM69.8176 25.6337C69.8223 25.6383 69.8453 25.6635 69.8645 25.7102C69.884 25.7575 69.8877 25.7982 69.8873 25.8187L67.6942 25.7704C67.6822 26.3183 67.8902 26.8134 68.2766 27.1948L69.8176 25.6337ZM69.8873 25.8181C69.8867 25.8444 69.8796 25.8895 69.8559 25.9385C69.845 25.961 69.8333 25.9786 69.8234 25.9913C69.8186 25.9975 69.8145 26.002 69.8116 26.0051C69.8088 26.0081 69.8071 26.0095 69.8071 26.0095L68.3603 24.3607C67.9587 24.7131 67.7066 25.1977 67.6942 25.7709L69.8873 25.8181ZM69.8186 25.9993C69.8136 26.0038 69.7957 26.0177 69.7666 26.0284C69.7377 26.0391 69.719 26.0389 69.7208 26.039L69.765 23.8458C69.2335 23.8351 68.7421 24.016 68.3489 24.3709L69.8186 25.9993ZM69.7132 26.0388L73.5217 26.1421L73.5812 23.9493L69.7726 23.846L69.7132 26.0388ZM74.6479 25.0743L74.6949 23.272L72.5021 23.2147L72.455 25.017L74.6479 25.0743ZM73.6282 22.1469L69.8197 22.0436L69.7602 24.2364L73.5688 24.3397L73.6282 22.1469ZM69.8121 22.0435C69.8114 22.0435 69.817 22.0435 69.8275 22.0457C69.8382 22.0479 69.8511 22.0517 69.865 22.0576C69.8788 22.0635 69.8905 22.0701 69.8994 22.0762C69.9081 22.0821 69.9121 22.0861 69.9118 22.0858L68.3707 23.6469C68.746 24.0174 69.2275 24.2257 69.7679 24.2366L69.8121 22.0435ZM69.9118 22.0858C69.9165 22.0904 69.9395 22.1156 69.9587 22.1623C69.9782 22.2097 69.9819 22.2503 69.9815 22.2708L67.7884 22.2225C67.7763 22.7703 67.9844 23.2655 68.3707 23.6469L69.9118 22.0858ZM69.9815 22.2703C69.9809 22.2965 69.9737 22.3416 69.95 22.3906C69.9392 22.4131 69.9275 22.4308 69.9176 22.4434C69.9127 22.4496 69.9087 22.4542 69.9058 22.4572C69.9029 22.4602 69.9013 22.4617 69.9013 22.4616L68.4545 20.8128C68.0529 21.1652 67.8007 21.6498 67.7884 22.223L69.9815 22.2703ZM69.9127 22.4514C69.9078 22.4559 69.8899 22.4698 69.8608 22.4805C69.8319 22.4912 69.8132 22.4911 69.815 22.4911L69.8592 20.2979C69.3277 20.2872 68.8362 20.4681 68.443 20.823L69.9127 22.4514ZM69.8073 22.4909L73.6159 22.5942L73.6753 20.4014L69.8668 20.2981L69.8073 22.4909ZM74.7419 21.529L74.789 19.8764L72.5963 19.814L72.5492 21.4666L74.7419 21.529ZM73.6626 20.9416L77.0473 21.0346L77.1076 18.8418L73.7228 18.7488L73.6626 20.9416ZM77.0468 21.0345C77.4916 21.047 77.896 21.1252 78.2517 21.2564L79.0108 19.1983C78.4143 18.9783 77.7724 18.8604 77.1081 18.8418L77.0468 21.0345ZM78.2543 21.2574C78.7024 21.4213 79.118 21.6873 79.4939 22.0624L81.0434 20.5097C80.4567 19.9243 79.7738 19.4775 79.0081 19.1974L78.2543 21.2574ZM79.4981 22.0666C80.0018 22.5637 80.2808 23.094 80.3881 23.675L82.5452 23.2764C82.3492 22.2152 81.833 21.2891 81.0392 20.5055L79.4981 22.0666ZM82.4196 22.9327L81.6663 21.6107L79.7604 22.6967L80.5137 24.0187L82.4196 22.9327Z" fill="white" mask="url(#path-17-inside-1_59_234)"/>
</svg>
