<svg width="123" height="118" viewBox="0 0 123 118" fill="none" xmlns="http://www.w3.org/2000/svg">
<g clip-path="url(#clip0_19_73)">
<path d="M75.19 52.64L74.65 52.92L74.08 53.24C73.49 53.59 72.91 53.97 72.34 54.37C71.77 54.77 71.19 55.23 70.59 55.72C70.4809 55.8066 70.3421 55.8467 70.2036 55.8317C70.0651 55.8168 69.9381 55.7479 69.85 55.64L67.31 52.73C67.2141 52.6327 67.1604 52.5016 67.1604 52.365C67.1604 52.2284 67.2141 52.0973 67.31 52C67.76 51.59 68.23 51.18 68.71 50.81C69.19 50.44 69.71 50.07 70.23 49.72C70.75 49.37 71.07 49.2 71.5 48.96C71.93 48.72 72.38 48.49 72.81 48.29L73.34 48.04C71.8308 45.5623 69.6355 43.5754 67.02 42.32C65.7191 41.6972 64.3399 41.2532 62.92 41C61.4707 40.7487 59.9944 40.6916 58.53 40.83C57.0741 40.9662 55.6439 41.3027 54.28 41.83C52.9448 42.3418 51.6916 43.0459 50.56 43.92C49.1235 45.04 47.915 46.425 47 48C46.0569 49.6221 45.4006 51.3948 45.06 53.24L44.81 54.57C44.7893 54.6753 44.7371 54.7718 44.6603 54.8468C44.5835 54.9218 44.4858 54.9718 44.38 54.99L43.06 55.22C42.43 55.33 41.83 55.46 41.27 55.61C40.71 55.76 40.18 55.94 39.7 56.13C39.2425 56.301 38.7981 56.5049 38.37 56.74C37.9638 56.9526 37.5729 57.1932 37.2 57.46C36.9206 57.664 36.6534 57.8844 36.4 58.12C35.441 59.014 34.7164 60.1301 34.29 61.37C33.9611 62.3356 33.7988 63.35 33.81 64.37C33.8248 65.3903 33.9969 66.4021 34.32 67.37C34.6432 68.3479 35.1118 69.2716 35.71 70.11C35.9401 70.4264 36.1871 70.7302 36.45 71.02C36.7151 71.2987 36.9955 71.5625 37.29 71.81C37.6037 72.0642 37.9383 72.2916 38.29 72.49C38.6095 72.6887 38.9438 72.8626 39.29 73.01C39.6826 73.1765 40.087 73.3135 40.5 73.42C40.9305 73.5354 41.3681 73.6223 41.81 73.68H80.08C80.9247 73.4775 81.7562 73.2237 82.57 72.92C83.3293 72.6471 84.0651 72.3126 84.77 71.92C85.4127 71.5712 86.019 71.1591 86.58 70.69C87.9256 69.5733 88.8931 68.0679 89.35 66.38C89.6925 65.1969 89.8676 63.9717 89.87 62.74C89.8886 61.4425 89.7373 60.1482 89.42 58.89C89.1382 57.7693 88.6827 56.6997 88.07 55.72C87.89 55.45 87.7 55.19 87.52 54.95C87.34 54.71 87.13 54.47 86.93 54.26C86.106 53.3734 85.1087 52.6654 84 52.18C82.8761 51.7068 81.6694 51.4621 80.45 51.46C79.5722 51.4547 78.6967 51.5486 77.84 51.74C76.9231 51.9489 76.0289 52.247 75.17 52.63L75.19 52.64ZM44.81 42.64L36.81 34.64C34.3738 36.0722 31.5302 36.653 28.7275 36.2909C25.9248 35.9287 23.3222 34.6443 21.33 32.64C18.9701 30.287 17.6306 27.1001 17.6006 23.7678C17.5707 20.4354 18.8528 17.225 21.17 14.83L21.33 14.65C22.5114 13.4671 23.9143 12.5288 25.4586 11.8885C27.0029 11.2483 28.6582 10.9188 30.33 10.9188C32.0017 10.9188 33.6571 11.2483 35.2014 11.8885C36.7457 12.5288 38.1486 13.4671 39.33 14.65C41.3312 16.6399 42.6137 19.2389 42.9758 22.0377C43.3379 24.8365 42.7589 27.6763 41.33 30.11L49.77 38.55C50.649 38.0421 51.5649 37.6008 52.51 37.23C54.3094 36.5291 56.1974 36.0815 58.12 35.9C59.7451 35.7449 61.3826 35.7784 63 36V25C60.7924 24.4349 58.7782 23.2845 57.17 21.67C54.9989 19.2595 53.83 16.1111 53.9021 12.8678C53.9741 9.62455 55.2816 6.53114 57.5576 4.21944C59.8336 1.90774 62.9062 0.552161 66.148 0.429598C69.3897 0.307036 72.556 1.42673 75 3.55999L75.18 3.72999C76.364 4.91068 77.3034 6.31341 77.9444 7.8578C78.5854 9.40218 78.9154 11.0579 78.9154 12.73C78.9154 14.4021 78.5854 16.0578 77.9444 17.6022C77.3034 19.1466 76.364 20.5493 75.18 21.73C73.5739 23.3421 71.5636 24.4923 69.36 25.06V37.94C73.2182 39.8101 76.3733 42.8705 78.36 46.67L88.36 36.78C86.9328 34.3458 86.3548 31.5064 86.7168 28.708C87.0788 25.9097 88.3603 23.3108 90.36 21.32C92.7055 19.0109 95.8564 17.7034 99.1476 17.6736C102.439 17.6437 105.613 18.8938 108 21.16L108.18 21.32C109.363 22.5014 110.301 23.9043 110.941 25.4486C111.582 26.9929 111.911 28.6482 111.911 30.32C111.911 31.9917 111.582 33.6471 110.941 35.1914C110.301 36.7357 109.363 38.1386 108.18 39.32C106.19 41.3173 103.593 42.5974 100.797 42.9593C98.0004 43.3213 95.1631 42.7447 92.73 41.32L86.28 47.82C87.8854 48.566 89.3293 49.6191 90.53 50.92C90.82 51.24 91.11 51.58 91.39 51.92C91.67 52.26 91.92 52.64 92.18 53.03C93.077 54.4203 93.7517 55.9419 94.18 57.54C94.6326 59.2492 94.8513 61.012 94.83 62.78V63H97.83C98.3951 60.7924 99.5455 58.7782 101.16 57.17C103.548 54.8718 106.737 53.5953 110.051 53.6117C113.365 53.6281 116.542 54.9362 118.907 57.2579C121.271 59.5796 122.637 62.732 122.715 66.0451C122.792 69.3581 121.574 72.5707 119.32 75L119.15 75.18C116.761 77.564 113.525 78.9029 110.15 78.9029C106.775 78.9029 103.539 77.564 101.15 75.18C99.5362 73.5791 98.3856 71.5716 97.82 69.37H93.52C93.1104 70.3812 92.5726 71.3357 91.92 72.21C91.3005 73.0376 90.5893 73.7924 89.8 74.46C88.9933 75.1499 88.1189 75.7563 87.19 76.27C86.2268 76.7977 85.2238 77.2491 84.19 77.62C83.0933 78.0168 81.9748 78.3507 80.84 78.62C79.5011 78.8188 78.1525 78.9457 76.8 79L86.08 88.28C88.5162 86.8478 91.3598 86.267 94.1625 86.6291C96.9652 86.9912 99.5677 88.2757 101.56 90.28C103.92 92.633 105.259 95.8198 105.289 99.1522C105.319 102.485 104.037 105.695 101.72 108.09L101.56 108.27C100.379 109.453 98.9757 110.391 97.4314 111.031C95.8871 111.672 94.2317 112.001 92.56 112.001C90.8882 112.001 89.2329 111.672 87.6886 111.031C86.1443 110.391 84.7413 109.453 83.56 108.27C81.5588 106.28 80.2762 103.681 79.9142 100.882C79.5521 98.0834 80.1311 95.2437 81.56 92.81L68 79.14C65.4 79.14 62.65 79.14 59.91 79.03V92.66C62.1153 93.2361 64.1276 94.3889 65.74 96C68.0382 98.3876 69.3147 101.577 69.2983 104.891C69.2819 108.205 67.9738 111.382 65.652 113.747C63.3303 116.111 60.178 117.477 56.8649 117.555C53.5519 117.632 50.3393 116.414 47.91 114.16L47.73 114C46.5471 112.819 45.6088 111.416 44.9686 109.871C44.3283 108.327 43.9988 106.672 43.9988 105C43.9988 103.328 44.3283 101.673 44.9686 100.129C45.6088 98.5843 46.5471 97.1814 47.73 96C49.3414 94.3948 51.3496 93.2458 53.55 92.67V78.87C49.01 78.75 44.9 78.63 42.08 78.63L34.62 86.08C36.0522 88.5162 36.633 91.3598 36.2709 94.1625C35.9087 96.9652 34.6243 99.5677 32.62 101.56C30.267 103.92 27.0801 105.259 23.7478 105.289C20.4154 105.319 17.205 104.037 14.81 101.72L14.63 101.56C13.4471 100.379 12.5088 98.9757 11.8686 97.4314C11.2283 95.8871 10.8988 94.2317 10.8988 92.56C10.8988 90.8882 11.2283 89.2329 11.8686 87.6886C12.5088 86.1443 13.4471 84.7413 14.63 83.56C16.6199 81.5588 19.2189 80.2762 22.0177 79.9142C24.8165 79.5521 27.6563 80.1311 30.09 81.56L35.27 76.39C34.8685 76.1284 34.4844 75.8412 34.12 75.53C33.6762 75.1592 33.2555 74.7618 32.86 74.34C32.4647 73.9176 32.0973 73.47 31.76 73C29.9362 70.4793 28.9467 67.4512 28.93 64.34C28.9177 62.8405 29.1439 61.3485 29.6 59.92H25.06C24.4949 62.1276 23.3445 64.1418 21.73 65.75C20.5586 66.943 19.1637 67.8937 17.6249 68.5477C16.0861 69.2016 14.4336 69.5461 12.7617 69.5614C9.38507 69.5924 6.13448 68.2807 3.72499 65.915C1.3155 63.5493 -0.0555268 60.3233 -0.0864703 56.9467C-0.117414 53.5701 1.19426 50.3195 3.55999 47.91L3.72999 47.73C4.91068 46.546 6.31341 45.6065 7.8578 44.9655C9.40218 44.3246 11.0579 43.9946 12.73 43.9946C14.4021 43.9946 16.0578 44.3246 17.6022 44.9655C19.1466 45.6065 20.5493 46.546 21.73 47.73C23.3421 49.336 24.4923 51.3463 25.06 53.55H34.14L34.34 53.41C34.8848 53.0175 35.4561 52.6633 36.05 52.35C36.6797 52.0166 37.3312 51.7259 38 51.48C38.47 51.3 38.95 51.13 39.45 50.98C39.95 50.83 40.25 50.75 40.66 50.65C41.201 48.5936 42.0578 46.6336 43.2 44.84C43.6931 44.0656 44.2447 43.3302 44.85 42.64H44.81ZM66.14 19.64C67.5054 19.6412 68.8404 19.2367 69.9755 18.4778C71.1106 17.7189 71.9946 16.6399 72.5154 15.3777C73.0361 14.1155 73.1701 12.727 72.9003 11.3885C72.6305 10.05 71.9691 8.82189 71 7.85999L70.88 7.72999C69.5549 6.53541 67.8185 5.90055 66.0354 5.95861C64.2523 6.01667 62.5609 6.76315 61.3163 8.0414C60.0717 9.31965 59.3706 11.0303 59.3601 12.8143C59.3496 14.5984 60.0305 16.3172 61.26 17.61C61.9 18.2476 62.6598 18.7525 63.4955 19.0958C64.3312 19.439 65.2265 19.6137 66.13 19.61L66.14 19.64ZM35.32 28.44C36.554 27.1353 37.2316 25.4014 37.2092 23.6057C37.1868 21.81 36.4661 20.0935 35.2 18.82C33.908 17.5291 32.1564 16.8039 30.33 16.8039C28.5036 16.8039 26.752 17.5291 25.46 18.82L25.34 18.94C24.1054 20.2464 23.4275 21.9819 23.4499 23.7793C23.4723 25.5766 24.1932 27.2948 25.46 28.57C26.7537 29.8615 28.507 30.5869 30.335 30.5869C32.163 30.5869 33.9163 29.8615 35.21 28.57L35.34 28.45L35.32 28.44ZM19.62 56.74C19.6212 55.377 19.2181 54.0443 18.4617 52.9104C17.7054 51.7765 16.6297 50.8925 15.3708 50.3701C14.1119 49.8477 12.7263 49.7104 11.3893 49.9756C10.0524 50.2408 8.82416 50.8966 7.85999 51.86L7.72999 52C6.53542 53.3251 5.90055 55.0614 5.95861 56.8446C6.01667 58.6277 6.76315 60.3191 8.0414 61.5637C9.31965 62.8083 11.0303 63.5094 12.8143 63.5199C14.5984 63.5304 16.3172 62.8495 17.61 61.62C18.2482 60.9824 18.7536 60.2246 19.0969 59.3904C19.4402 58.5561 19.6146 57.6621 19.61 56.76L19.62 56.74ZM28.42 87.56C27.1136 86.3254 25.378 85.6475 23.5807 85.6699C21.7833 85.6923 20.0652 86.4132 18.79 87.68C17.4991 88.972 16.7739 90.7236 16.7739 92.55C16.7739 94.3764 17.4991 96.128 18.79 97.42L18.91 97.54C20.2147 98.774 21.9486 99.4515 23.7443 99.4291C25.54 99.4067 27.2564 98.6861 28.53 97.42C29.8215 96.1263 30.5469 94.373 30.5469 92.545C30.5469 90.717 29.8215 88.9637 28.53 87.67L28.41 87.54L28.42 87.56ZM56.73 98.11C55.3699 98.1127 54.041 98.5179 52.9108 99.2746C51.7807 100.031 50.8997 101.105 50.3789 102.362C49.8582 103.618 49.7209 105.001 49.9845 106.335C50.248 107.669 50.9006 108.896 51.86 109.86L52 110C53.3088 111.276 55.0708 111.979 56.8984 111.956C58.7259 111.932 60.4693 111.184 61.745 109.875C63.0207 108.566 63.7242 106.804 63.7007 104.977C63.6773 103.149 62.9288 101.406 61.62 100.13C60.9799 99.4923 60.2202 98.9874 59.3845 98.6442C58.5488 98.301 57.6534 98.1262 56.75 98.13L56.73 98.11ZM87.56 94.46C86.3254 95.7664 85.6475 97.5019 85.6699 99.2993C85.6923 101.097 86.4132 102.815 87.68 104.09C88.972 105.381 90.7236 106.106 92.55 106.106C94.3764 106.106 96.128 105.381 97.42 104.09L97.54 103.97C98.774 102.665 99.4515 100.931 99.4291 99.1357C99.4067 97.34 98.6861 95.6235 97.42 94.35C96.1263 93.0584 94.373 92.3331 92.545 92.3331C90.717 92.3331 88.9637 93.0584 87.67 94.35L87.54 94.47L87.56 94.46ZM103.26 66.14C103.267 67.4972 103.674 68.8222 104.431 69.9487C105.188 71.0753 106.261 71.9532 107.515 72.4723C108.769 72.9914 110.148 73.1286 111.48 72.8667C112.811 72.6048 114.036 71.9554 115 71L115.13 70.88C116.325 69.5549 116.959 67.8185 116.901 66.0354C116.843 64.2523 116.097 62.5609 114.819 61.3163C113.54 60.0717 111.83 59.3706 110.046 59.3601C108.262 59.3496 106.543 60.0305 105.25 61.26C104.612 61.9 104.107 62.6598 103.764 63.4955C103.421 64.3312 103.246 65.2265 103.25 66.13L103.26 66.14ZM94.46 35.32C95.7647 36.554 97.4986 37.2315 99.2943 37.2091C101.09 37.1867 102.806 36.4661 104.08 35.2C105.371 33.908 106.096 32.1564 106.096 30.33C106.096 28.5036 105.371 26.752 104.08 25.46L103.96 25.34C102.654 24.1054 100.918 23.4275 99.1207 23.4499C97.3233 23.4723 95.6052 24.1932 94.33 25.46C93.0385 26.7537 92.3131 28.507 92.3131 30.335C92.3131 32.163 93.0385 33.9163 94.33 35.21L94.45 35.34L94.46 35.32Z" fill="white"/>
</g>
<defs>
<clipPath id="clip0_19_73">
<rect width="122.88" height="117.72" fill="white"/>
</clipPath>
</defs>
</svg>
