<svg width="34" height="34" viewBox="0 0 34 34" fill="#fff" xmlns="http://www.w3.org/2000/svg">
<g clip-path="url(#clip0_104_184)">
<path fill-rule="evenodd" clip-rule="evenodd" d="M17.6834 6.05931V9.98897H26.9554C28.4578 9.98897 29.6864 11.4238 29.6864 13.1786V17.2084H33.3996C33.7288 17.2084 34 17.5219 34 17.9097V26.0793C34 26.4638 33.7316 26.7805 33.3996 26.7805H29.6864V30.8104C29.6864 32.5652 28.4578 34 26.9554 34H6.75684C5.25439 34 4.02588 32.5652 4.02588 30.8104V26.7805H0.600423C0.268392 26.7805 0 26.4671 0 26.0825V17.9097C0 17.5251 0.268392 17.2084 0.600423 17.2084H4.02588V13.1818C4.02588 11.4271 5.25439 9.99221 6.75684 9.99221H16.0288V6.05931C14.9635 5.65212 14.1971 4.48551 14.1971 3.1056C14.1971 1.3896 15.3869 0 16.8561 0C18.3254 0 19.5151 1.3896 19.5151 3.1056C19.5151 4.48551 18.7459 5.65212 17.6834 6.05931ZM11.3527 25.769H22.6445C23.1951 25.769 23.6462 26.2958 23.6462 26.9389V27.4883C23.6462 28.1314 23.1951 28.6581 22.6445 28.6581H11.3527C10.8021 28.6581 10.3511 28.1314 10.3511 27.4883V26.9389C10.3511 26.2926 10.8021 25.769 11.3527 25.769ZM21.7757 15.3793C23.2616 15.3793 24.4679 16.7851 24.4679 18.5237C24.4679 20.2591 23.2643 21.6649 21.7757 21.6649C20.2871 21.6649 19.0863 20.2591 19.0863 18.5237C19.0835 16.7851 20.2899 15.3793 21.7757 15.3793ZM12.2243 15.3793C13.7101 15.3793 14.9137 16.7851 14.9137 18.5237C14.9137 20.2591 13.7101 21.6649 12.2243 21.6649C10.7384 21.6649 9.53483 20.2591 9.53483 18.5237C9.53483 16.7851 10.7384 15.3793 12.2243 15.3793Z" fill="#EF3239"/>
</g>
<defs>
<clipPath id="clip0_104_184">
<rect width="34" height="34" fill="#EF3239"/>
</clipPath>
</defs>
</svg>
