<svg width="512" height="343" viewBox="0 0 512 343" fill="none" xmlns="http://www.w3.org/2000/svg">
<g clip-path="url(#clip0_23_1832)">
<path fill-rule="evenodd" clip-rule="evenodd" d="M271.14 2.64C321.59 11.47 357.62 41.14 381.68 85.74L386.19 85.29C405.14 83.9 424.8 86.91 442.37 94.13C477 108.33 497.94 136.55 506.81 171.92C513.57 198.81 514.15 228.54 506.02 255.19C493.55 296.2 463.93 317.51 425.01 330.87L424.59 331C416.44 333.76 408.13 336.06 400.03 337.93C360.74 344.86 150.95 341.66 103.85 338.49L101.45 338.23C93.43 337.16 85.5001 335.46 77.9101 333.08C42.5701 322.07 17.4001 298.05 5.78005 262.57C-2.17995 238.21 -1.77995 211.97 6.15005 187.64C12.8301 167.18 22.4501 153.31 35.7801 142.79C51.5401 130.34 73.4001 122.1 92.9701 116.58C115.68 34.94 187.54 -11.94 271.14 2.64ZM326.25 189.57C331.44 189.79 335.12 191.51 337.25 194.74C343.02 203.4 335.14 211.95 329.67 217.97L261.97 277.74C256.17 284.15 247.91 284.15 242.11 277.74L180.86 216.34C175.75 210.57 169.43 202.72 174.74 194.74C176.93 191.51 180.57 189.79 185.75 189.57H220.65V134.14C220.65 126.28 227.12 119.77 235.01 119.77H276.99C284.88 119.77 291.34 126.47 291.34 134.14V189.57H326.25Z" fill="#EF3239"/>
</g>
<defs>
<clipPath id="clip0_23_1832">
<rect width="512" height="342.06" fill="#EF3239"/>
</clipPath>
</defs>
</svg>
