
<svg width="38" height="38" viewBox="0 0 38 38" fill="#EF3239" xmlns="http://www.w3.org/2000/svg">

<path d="M3.19141 11.6343V30.4782C3.19141 30.7693 3.30707 31.0486 3.51295 31.2544C3.71883 31.4603 3.99806 31.576 4.28921 31.576H33.7123C34.0035 31.5758 34.2827 31.4607 34.4886 31.2547C34.6945 31.0487 34.8101 30.7694 34.8101 30.4782V11.6343M3.19141 11.6343H34.8101M3.19141 11.6343V7.52164C3.19141 6.91487 3.6831 6.42383 4.28921 6.42383H33.7123C34.3184 6.42383 34.8101 6.91487 34.8101 7.52098V11.6343" stroke="black" stroke-width="1.5" stroke-miterlimit="10" stroke-linecap="round" stroke-linejoin="round"/>
<path d="M5.45312 15.2852H8.83089M5.45312 18.0091H8.83089M5.45312 20.7337H8.83089M5.45312 23.4582H6.56989M5.45312 26.1822H6.56989" stroke="black" stroke-width="1.5" stroke-miterlimit="10" stroke-linecap="round" stroke-linejoin="round"/>
<path d="M18.662 24.4857C18.3678 24.6328 17.7807 24.78 17.0287 24.78C15.2849 24.78 13.9727 23.6782 13.9727 21.6507C13.9727 19.7146 15.2849 18.4023 17.2027 18.4023C17.9742 18.4023 18.46 18.5678 18.6705 18.6776L18.4783 19.3295C18.1756 19.1824 17.744 19.0725 17.2301 19.0725C15.7812 19.0725 14.8174 19.999 14.8174 21.6225C14.8174 23.1368 15.689 24.1098 17.1935 24.1098C17.68 24.1098 18.1756 24.0084 18.4966 23.8528L18.662 24.4857ZM19.6644 18.5861C20.0685 18.5037 20.6465 18.4573 21.197 18.4573C22.0509 18.4573 22.6008 18.6142 22.9859 18.962C23.2985 19.2373 23.4724 19.6597 23.4724 20.1363C23.4724 20.9537 22.9585 21.4944 22.3072 21.7147V21.7422C22.7845 21.9076 23.069 22.3483 23.2161 22.9904C23.4175 23.8535 23.5646 24.4491 23.6934 24.6878H22.8676C22.7656 24.5132 22.6283 23.9816 22.4543 23.2101C22.2706 22.3568 21.9404 22.0358 21.2153 22.0083H20.4634V24.6884H19.6644V18.5861ZM20.4634 21.4028H21.28C22.1333 21.4028 22.6747 20.9347 22.6747 20.2285C22.6747 19.4308 22.0967 19.081 21.2519 19.0725C20.8662 19.0725 20.5915 19.1092 20.4634 19.1458V21.4028ZM29.816 21.9717C29.7702 21.1093 29.7147 20.0723 29.7245 19.302H29.6963C29.4629 20.0934 29.203 20.8767 28.917 21.6507L27.825 24.6512H27.2196L26.2192 21.7056C25.925 20.834 25.6772 20.0357 25.5032 19.302H25.4849C25.4602 20.2139 25.4205 21.1252 25.3659 22.0358L25.2005 24.6878H24.4394L24.871 18.5037H25.8897L26.9443 21.4944C27.2013 22.2561 27.4125 22.9355 27.5681 23.5775H27.5962C27.7518 22.9538 27.9728 22.2744 28.2474 21.4944L29.3485 18.5037H30.3672L30.753 24.6878H29.971L29.816 21.9717Z" fill="black"/>
<path d="M11.0918 11.6338V31.5761" stroke="black" stroke-width="1.5" stroke-miterlimit="10" stroke-linecap="round" stroke-linejoin="round"/>
</svg>
