<svg width="123" height="86" viewBox="0 0 123 86" fill="none" xmlns="http://www.w3.org/2000/svg">
<g clip-path="url(#clip0_23_1834)">
<path fill-rule="evenodd" clip-rule="evenodd" d="M7.5 0H115.4C119.5 0 122.9 3.4 122.9 7.5V78.1C122.9 82.2 119.5 85.6 115.4 85.6H7.5C3.4 85.6 0 82.2 0 78.1V7.5C0 3.4 3.4 0 7.5 0ZM69.9 63.3H98.4V67.3H69.9V63.3ZM69.9 53.1H109V57.1H69.9V53.1ZM92.1 35H97.7C98 35 98.2 35.2 98.2 35.5V46.5C98.2 46.8 98 47 97.7 47H92.1C91.8 47 91.6 46.8 91.6 46.5V35.5C91.6 35.3 91.8 35 92.1 35ZM70.5 28.3H76.1C76.4 28.3 76.6 28.5 76.6 28.8V46.6C76.6 46.9 76.4 47.1 76.1 47.1H70.5C70.2 47.1 70 46.9 70 46.6V28.8C69.9 28.5 70.2 28.3 70.5 28.3ZM81.3 24.5H86.9C87.2 24.5 87.4 24.7 87.4 25V46.6C87.4 46.9 87.2 47.1 86.9 47.1H81.3C81 47.1 80.8 46.9 80.8 46.6V25C80.8 24.7 81 24.5 81.3 24.5ZM39.3 48.2L56.3 48.5C56.3 54.6 53.3 60.2 48.3 63.6L39.3 48.2ZM37.6 45.3L37.4 25.5V24.2L38.7 24.3C40.3 24.4 41.9 24.7 43.4 25.1C44.9 25.5 46.3 26.1 47.7 26.8C54.6 30.4 59.4 37.6 59.8 45.8L59.9 47.1H58.6L38.9 46.5H37.8L37.6 45.3ZM39.8 26.7L40 44.1L57.3 44.6C56.6 37.8 52.4 31.9 46.6 28.8C45.4 28.2 44.1 27.7 42.8 27.3C41.7 27.1 40.8 26.9 39.8 26.7ZM35.9 47.2L45.6 64C42.6 65.7 39.3 66.6 35.9 66.6C25.2 66.6 16.5 57.9 16.5 47.2C16.5 36.8 24.7 28.2 35.1 27.8L35.9 47.2ZM115.6 14.1H7.2V78.5H115.6V14.1Z" fill="#EF3239"/>
</g>
<defs>
<clipPath id="clip0_23_1834">
<rect width="122.9" height="85.6" fill="#EF3239"/>
</clipPath>
</defs>
</svg>
