<svg width="64" height="64" viewBox="0 0 64 64" fill="none" xmlns="http://www.w3.org/2000/svg">
<g clip-path="url(#clip0_5_66)">
<path d="M32 64C14.35 64 0 49.658 0 32.013C0 14.342 14.35 0 32 0C49.65 0 64 14.342 64 31.987C64 49.632 49.65 64 32 64ZM58.975 36.368C58.05 36.068 50.525 33.84 41.95 35.192C45.525 44.992 46.975 53.012 47.25 54.665C53.4 50.535 57.775 43.976 58.975 36.368ZM42.675 57.192C42.275 54.789 40.675 46.429 36.85 36.468C36.8 36.493 36.725 36.518 36.675 36.518C21.25 41.898 15.725 52.588 15.225 53.588C19.85 57.192 25.675 59.345 32 59.345C35.775 59.37 39.4 58.595 42.675 57.192ZM11.7 50.3C12.325 49.25 19.825 36.834 33.925 32.254C34.275 32.129 34.65 32.029 35 31.929C34.3142 30.3594 33.5721 28.8151 32.775 27.299C19.125 31.379 5.875 31.204 4.675 31.179C4.675 31.454 4.65 31.729 4.65 32.005C4.675 39.038 7.325 45.444 11.7 50.3ZM5.25 26.43C6.475 26.455 17.725 26.505 30.525 23.1C26 15.043 21.1 8.285 20.4 7.3C12.725 10.913 7.025 17.97 5.25 26.43ZM25.6 5.456C29.348 10.5572 32.7554 15.9002 35.8 21.45C45.525 17.796 49.625 12.29 50.125 11.588C45.1323 7.14804 38.6814 4.69866 32 4.706C29.8451 4.71221 27.6979 4.96383 25.6 5.456ZM53.15 14.742C52.575 15.518 48 21.4 37.9 25.53L39.725 29.485L40.325 30.887C49.425 29.737 58.45 31.587 59.35 31.763C59.2854 25.5485 57.0977 19.543 53.15 14.743V14.742Z" fill="white"/>
</g>
<defs>
<clipPath id="clip0_5_66">
<rect width="64" height="64" fill="white"/>
</clipPath>
</defs>
</svg>
