<svg width="123" height="101" viewBox="0 0 123 101" fill="#EF3239" xmlns="http://www.w3.org/2000/svg">
<g clip-path="url(#clip0_19_75)">
<path d="M97.124 19.813C96.856 19.545 96.643 19.384 96.375 19.277C96.161 19.17 95.893 19.116 95.571 19.116C95.249 19.116 94.982 19.17 94.768 19.277C94.554 19.384 94.286 19.545 94.072 19.759L94.018 19.813L87.967 25.863C86.789 27.041 84.915 27.202 83.576 26.238C82.881 25.81 82.183 25.381 81.381 24.953C80.525 24.525 79.721 24.096 78.972 23.722C78.168 23.347 77.312 22.972 76.455 22.651C75.705 22.383 74.849 22.062 73.831 21.74C72.386 21.258 71.475 19.919 71.475 18.474V9.21C71.475 8.889 71.421 8.567 71.315 8.354C71.208 8.14 71.047 7.872 70.833 7.711C70.619 7.497 70.405 7.336 70.19 7.229C69.976 7.122 69.655 7.069 69.334 7.069H57.661C57.339 7.069 57.072 7.122 56.858 7.176C56.644 7.283 56.376 7.444 56.108 7.712C55.894 7.926 55.733 8.14 55.68 8.355C55.573 8.569 55.519 8.89 55.519 9.211V17.725C55.519 19.439 54.287 20.831 52.681 21.152C51.77 21.366 50.914 21.58 50.164 21.795C49.307 22.063 48.504 22.33 47.647 22.652C46.844 22.973 45.987 23.294 45.184 23.723C44.328 24.098 43.578 24.526 42.828 24.901C41.436 25.65 39.829 25.382 38.759 24.312L32.065 17.672C32.012 17.618 32.012 17.618 32.012 17.565C31.797 17.351 31.583 17.19 31.369 17.083C31.154 16.976 30.94 16.976 30.619 16.976C30.298 16.976 30.03 17.03 29.816 17.137C29.548 17.244 29.334 17.405 29.066 17.673L20.927 25.865C20.659 26.133 20.499 26.347 20.391 26.615C20.284 26.829 20.231 27.097 20.231 27.418C20.231 27.74 20.284 28.007 20.391 28.222C20.498 28.436 20.659 28.704 20.873 28.918V28.972L26.924 35.023C28.102 36.201 28.262 38.075 27.299 39.414C26.871 40.11 26.442 40.806 26.014 41.609C25.586 42.466 25.157 43.269 24.783 44.019C24.408 44.822 24.033 45.679 23.712 46.536C23.444 47.286 23.123 48.142 22.801 49.16C22.319 50.606 20.98 51.516 19.535 51.516H10.271C9.95 51.516 9.628 51.569 9.415 51.676C9.2 51.783 8.986 51.944 8.772 52.105C8.557 52.319 8.397 52.534 8.343 52.748C8.236 52.962 8.182 53.283 8.182 53.604V54.549C5.826 55.268 3.545 56.32 1.382 57.722V53.497C1.382 52.266 1.596 51.141 2.025 50.016C2.453 48.946 3.149 47.982 4.006 47.072C4.862 46.215 5.88 45.519 6.951 45.091C8.022 44.663 9.2 44.448 10.431 44.448H17.285C17.339 44.287 17.446 44.073 17.499 43.913C17.874 42.949 18.303 41.985 18.731 41.021C19.213 40.003 19.641 39.04 20.123 38.183L20.284 37.861L16.161 33.685C15.304 32.828 14.608 31.865 14.18 30.74C13.698 29.615 13.484 28.437 13.484 27.259C13.484 26.028 13.698 24.904 14.18 23.779C14.661 22.655 15.304 21.691 16.161 20.834L24.3 12.641V12.588C25.156 11.731 26.12 11.088 27.191 10.607C28.316 10.125 29.44 9.911 30.672 9.911C31.903 9.911 33.081 10.179 34.152 10.607C35.223 11.088 36.186 11.731 36.99 12.641L41.863 17.46C42.024 17.406 42.184 17.3 42.291 17.246C43.201 16.817 44.165 16.443 45.183 16.015C46.147 15.64 47.164 15.319 48.182 14.997C48.343 14.943 48.45 14.89 48.61 14.89V9.049C48.61 7.818 48.825 6.639 49.306 5.569C49.735 4.498 50.431 3.534 51.287 2.678L51.341 2.624C52.197 1.768 53.161 1.124 54.233 0.696C55.305 0.268 56.483 0 57.661 0H69.334C70.565 0 71.69 0.214 72.814 0.643C73.939 1.072 74.903 1.768 75.759 2.624C76.615 3.48 77.312 4.498 77.74 5.569C78.168 6.64 78.383 7.818 78.383 9.049V15.903C78.543 15.957 78.757 16.064 78.918 16.117C79.882 16.492 80.846 16.921 81.81 17.349C82.827 17.831 83.791 18.259 84.648 18.741L84.969 18.902L89.145 14.779C90.002 13.922 90.966 13.226 92.09 12.798C93.215 12.316 94.393 12.102 95.57 12.102C96.801 12.102 97.926 12.316 99.05 12.798L99.051 12.904C100.175 13.386 101.139 14.029 101.995 14.885L110.187 23.024H110.241C111.098 23.881 111.74 24.845 112.222 25.916C112.703 27.041 112.918 28.165 112.918 29.396C112.918 30.627 112.649 31.806 112.222 32.876C111.74 33.947 111.098 34.911 110.187 35.714L105.369 40.587C105.422 40.748 105.529 40.908 105.583 41.069C106.011 41.98 106.386 42.944 106.761 43.854C106.761 43.908 106.815 43.961 106.815 44.015C107.19 44.925 107.511 45.942 107.833 47.014L107.939 47.389H113.83C115.061 47.389 116.239 47.603 117.31 48.085C118.381 48.513 119.345 49.21 120.202 50.066L120.256 50.12C121.112 50.977 121.755 51.94 122.184 53.012C122.612 54.083 122.879 55.261 122.879 56.439V58.188H121.21C118.747 55.932 115.946 54.108 112.885 52.838C112.648 52.728 112.406 52.625 112.157 52.53C108.136 50.999 104.618 50.353 101.472 50.345C101.361 49.936 101.25 49.519 101.139 49.102C100.871 48.299 100.604 47.442 100.229 46.532C100.229 46.479 100.175 46.425 100.175 46.371C99.854 45.515 99.532 44.765 99.211 44.015C98.836 43.212 98.461 42.409 98.033 41.659C97.283 40.266 97.551 38.66 98.622 37.589L105.262 30.896C105.262 30.842 105.316 30.842 105.368 30.842C105.583 30.628 105.743 30.414 105.85 30.199C105.957 29.985 105.957 29.771 105.957 29.449C105.957 29.127 105.903 28.86 105.796 28.646C105.69 28.378 105.528 28.164 105.261 27.896L97.069 19.757L97.124 19.813ZM27.334 95.706C22.929 99.05 17.984 101.704 10.723 98.941C6.015 97.156 2.156 93.027 0 87.825C18.757 96.326 25.473 71.927 3.263 71.192C10.042 63.03 20.04 63.096 28.118 69.082C31.937 71.906 34.085 73.324 36.284 73.943C37.487 74.299 38.695 74.367 40.222 74.37C45.382 74.388 72.43 73.799 77.905 73.684C88.214 73.482 93.426 57.631 108.089 63.218C112.797 65.003 116.655 69.132 118.812 74.334C100.055 65.833 93.339 90.232 115.549 90.967C108.77 99.129 98.773 99.064 90.695 93.077C87.155 90.445 84.92 87.35 77.936 87.546C73.092 87.752 46.1 88.067 41.244 88.393C39.314 88.509 38.033 88.7 36.814 89.175C34.61 90.016 32.613 91.73 27.402 95.702L27.334 95.706ZM62.052 34.591C63.82 34.591 65.586 34.752 67.3 35.126C68.959 35.448 70.619 35.983 72.279 36.679C73.832 37.375 75.331 38.179 76.723 39.089C78.115 39.999 79.4 41.07 80.578 42.248C81.756 43.426 82.827 44.711 83.737 46.157C84.701 47.549 85.504 49.048 86.146 50.601C86.2 50.707 86.2 50.815 86.253 50.869C86.807 52.207 87.241 53.585 87.556 54.933C86.026 55.95 84.564 57.061 83.131 58.186H81.266C81.211 57.781 81.143 57.376 81.059 56.973C80.791 55.741 80.47 54.617 80.041 53.545C79.987 53.492 79.987 53.439 79.935 53.331C79.399 52.1 78.81 50.976 78.115 49.958C77.419 48.94 76.669 47.977 75.812 47.12C74.955 46.264 73.991 45.46 72.974 44.818C71.956 44.122 70.831 43.533 69.6 42.998C68.476 42.516 67.244 42.141 65.959 41.873C64.728 41.605 63.389 41.498 62.05 41.498C60.711 41.498 59.426 41.605 58.141 41.873C56.91 42.141 55.786 42.462 54.714 42.891C54.66 42.945 54.607 42.945 54.5 42.998C53.268 43.533 52.144 44.122 51.126 44.818C50.108 45.514 49.145 46.264 48.288 47.12C47.431 47.977 46.628 48.941 45.985 49.958C45.289 50.976 44.7 52.1 44.165 53.331C43.683 54.456 43.308 55.687 43.04 56.973C42.954 57.367 42.885 57.773 42.831 58.186H35.939C36.026 57.308 36.16 56.438 36.347 55.581C36.668 53.921 37.204 52.261 37.9 50.602C38.596 49.049 39.4 47.549 40.31 46.158C41.22 44.765 42.291 43.48 43.469 42.249C44.647 41.071 45.932 40 47.324 39.09C48.716 38.126 50.215 37.323 51.768 36.68C51.875 36.627 51.983 36.627 52.036 36.573C53.589 35.93 55.195 35.448 56.748 35.127C58.461 34.806 60.228 34.592 61.995 34.592L62.052 34.591Z" fill="#EF3239"/>
</g>
<defs>
<clipPath id="clip0_19_75">
<rect width="122.88" height="100.094" fill="#EF3239"/>
</clipPath>
</defs>
</svg>
