<svg width="137" height="107" viewBox="0 0 137 107" fill="none" xmlns="http://www.w3.org/2000/svg">
<ellipse cx="59" cy="55.5" rx="52" ry="51.5" fill="#D9D9D9" fill-opacity="0.21"/>
<circle cx="96" cy="15" r="15" fill="#FC3D45"/>
<path fill-rule="evenodd" clip-rule="evenodd" d="M82.1012 9.30078C90.741 13.5509 98.018 20.1106 103.108 28.1644C100.993 29.3051 98.572 29.9524 96 29.9524C87.7157 29.9524 81 23.2367 81 14.9524C81 12.9531 81.3912 11.0451 82.1012 9.30078Z" fill="#82171B"/>
<path d="M9.342 76V42.034H1.566V35.77H16.686V76H9.342ZM40.8953 76.648C37.7273 76.648 34.9193 75.784 32.4713 74.056C30.0593 72.328 28.1693 69.898 26.8013 66.766C25.4693 63.634 24.8033 59.998 24.8033 55.858C24.8033 51.682 25.4693 48.046 26.8013 44.95C28.1693 41.854 30.0593 39.442 32.4713 37.714C34.8833 35.986 37.6733 35.122 40.8413 35.122C44.0813 35.122 46.9073 35.986 49.3193 37.714C51.7673 39.442 53.6573 41.872 54.9893 45.004C56.3573 48.1 57.0413 51.718 57.0413 55.858C57.0413 59.998 56.3573 63.634 54.9893 66.766C53.6573 69.862 51.7853 72.292 49.3733 74.056C46.9613 75.784 44.1353 76.648 40.8953 76.648ZM40.8953 69.952C43.6673 69.952 45.8273 68.692 47.3753 66.172C48.9233 63.652 49.6973 60.214 49.6973 55.858C49.6973 51.502 48.9053 48.082 47.3213 45.598C45.7733 43.078 43.6133 41.818 40.8413 41.818C38.1053 41.818 35.9633 43.06 34.4153 45.544C32.9033 48.028 32.1473 51.466 32.1473 55.858C32.1473 60.214 32.9213 63.652 34.4693 66.172C36.0173 68.692 38.1593 69.952 40.8953 69.952ZM79.1277 76.648C75.9597 76.648 73.1517 75.784 70.7037 74.056C68.2917 72.328 66.4017 69.898 65.0337 66.766C63.7017 63.634 63.0357 59.998 63.0357 55.858C63.0357 51.682 63.7017 48.046 65.0337 44.95C66.4017 41.854 68.2917 39.442 70.7037 37.714C73.1157 35.986 75.9057 35.122 79.0737 35.122C82.3137 35.122 85.1397 35.986 87.5517 37.714C89.9997 39.442 91.8897 41.872 93.2217 45.004C94.5897 48.1 95.2737 51.718 95.2737 55.858C95.2737 59.998 94.5897 63.634 93.2217 66.766C91.8897 69.862 90.0177 72.292 87.6057 74.056C85.1937 75.784 82.3677 76.648 79.1277 76.648ZM79.1277 69.952C81.8997 69.952 84.0597 68.692 85.6077 66.172C87.1557 63.652 87.9297 60.214 87.9297 55.858C87.9297 51.502 87.1377 48.082 85.5537 45.598C84.0057 43.078 81.8457 41.818 79.0737 41.818C76.3377 41.818 74.1957 43.06 72.6477 45.544C71.1357 48.028 70.3797 51.466 70.3797 55.858C70.3797 60.214 71.1537 63.652 72.7017 66.172C74.2497 68.692 76.3917 69.952 79.1277 69.952ZM113.04 76V65.524H102.564V59.422H113.04V49H119.142V59.422H129.564V65.524H119.142V76H113.04Z" fill="white"/>
</svg>
