<svg width="137" height="62" viewBox="0 0 137 62" fill="none" xmlns="http://www.w3.org/2000/svg">
<path d="M2.08889 26.2432C2.08889 26.2432 4.46327 31.1182 14.0253 33.7457C23.5874 36.3732 32.8913 38.2092 31.188 49.9854C31.188 49.9854 30.8912 45.2527 27.82 43.575C27.82 43.575 25.9617 50.935 21.4453 52.0747C21.4453 52.0747 24.1035 49.5263 24.9681 44.398C24.9681 44.398 21.2904 55.082 14.8383 55.2086C14.8383 55.2086 19.5096 52.1222 21.4711 45.3477C21.4711 45.3477 15.4706 58.6275 8.46358 55.2086C8.46358 55.2086 13.4317 54.718 19.8064 42.8944C19.8064 42.8944 23.1099 42.0713 25.252 42.4828C25.252 42.4828 22.9809 41.7072 18.8386 42.467C14.6963 43.2267 10.8509 41.2482 9.81853 39.1589C11.8431 39.9462 13.9725 40.2472 16.09 40.0453C19.6258 39.7129 23.1357 40.1086 24.3745 40.5834C24.3745 40.5834 22.0905 39.523 18.7096 39.6812C15.3286 39.8395 6.94088 38.8265 4.69554 33.35C4.69554 33.35 11.4445 37.5603 22.5679 38.0984C22.5679 38.0984 1.48239 35.3443 2.08889 26.2432Z" fill="white"/>
<path d="M1.24961 0C1.24961 0 -2.80232 9.82927 4.90151 19.0729C12.6053 28.3165 20.5931 32.3369 20.5931 32.3369C20.5931 32.3369 4.90151 25.5308 0.0108003 14.1503C0.0108003 14.1503 -0.879592 26.0214 13.5086 31.8462C27.8969 37.671 29.4067 38.0666 30.9294 41.8021C30.9294 41.8021 31.7552 38.9214 29.4841 35.5183C29.4841 35.5183 30.1293 35.7716 30.839 37.2594C30.839 37.2594 33.5876 31.2447 36.8782 33.2232C36.8661 32.8827 36.7638 32.5563 36.5868 32.2935C36.4099 32.0308 36.1679 31.8459 35.8975 31.7671C34.9297 31.4822 34.3748 31.4505 33.949 30.6433C34.2034 30.6579 34.4524 30.7389 34.6794 30.8808C34.9063 31.0228 35.106 31.2224 35.2652 31.4663L35.8588 31.6088C35.8588 31.6088 35.6136 29.6144 33.7038 29.2187C31.794 28.823 29.3163 29.9785 28.284 28.5381C28.284 28.5381 28.155 30.4217 30.2454 31.039C30.2454 31.039 29.3034 31.3872 28.2324 30.1051C28.2324 30.1051 27.342 30.7699 26.4129 32.3527C24.5248 30.9721 22.5533 29.7709 20.5156 28.7597C17.3283 27.2244 4.47567 19.9118 1.24961 0Z" fill="white"/>
<path d="M127.971 39.4356H125.095V45.4596H119.821V22.8291H128.343C133.424 22.8291 136.627 26.031 136.627 31.2047C136.627 34.5333 135.301 36.9754 132.977 38.3502L137 45.4596H131.353L127.971 39.4356ZM128.03 27.8581H125.095V34.4971H128.03C130.206 34.4971 131.293 33.267 131.293 31.2047C131.293 29.1425 130.206 27.8581 128.03 27.8581Z" fill="white"/>
<path d="M116.9 40.5029V45.4596H101.926V22.8291H116.543V27.7676H107.141V31.5846H115.425V36.3784H107.141V40.5029H116.9Z" fill="white"/>
<path d="M93.5377 37.3372V45.4596H88.2633V37.2468L81.1562 22.8291H86.7286L91.1389 31.8198L95.564 22.8291H100.675L93.5377 37.3372Z" fill="white"/>
<path d="M69.2064 22.8291H74.4808V40.3763H83.3609V45.4596H69.2064V22.8291Z" fill="white"/>
<path d="M57.3773 27.7676V32.7424H65.6018V37.699H57.3773V45.4596H52.1029V22.8291H66.7193V27.7676H57.3773Z" fill="white"/>
<path d="M123.672 57.7795H120.657C120.657 58.0128 120.696 58.2436 120.772 58.458C120.847 58.6724 120.958 58.8658 121.098 59.0263C121.237 59.1869 121.402 59.3114 121.582 59.392C121.762 59.4726 121.954 59.5078 122.146 59.4954C122.36 59.5002 122.573 59.4473 122.768 59.3405C122.964 59.2337 123.137 59.0756 123.277 58.8777L123.465 59.1522C123.299 59.3827 123.093 59.5657 122.861 59.6883C122.63 59.8109 122.379 59.87 122.127 59.8614C121.888 59.8742 121.65 59.8269 121.427 59.7225C121.204 59.6181 121.001 59.4589 120.831 59.2548C120.662 59.0507 120.528 58.8061 120.44 58.5365C120.352 58.2669 120.31 57.978 120.318 57.688C120.318 56.4069 121.053 55.5146 122.014 55.5146C122.975 55.5146 123.691 56.4069 123.691 57.6652C123.691 57.7109 123.672 57.7338 123.672 57.7795ZM120.657 57.4592H123.352C123.313 57.0587 123.154 56.6896 122.906 56.4217C122.657 56.1538 122.337 56.0059 122.005 56.0059C121.672 56.0059 121.352 56.1538 121.104 56.4217C120.855 56.6896 120.696 57.0587 120.657 57.4592Z" fill="white"/>
<path d="M120.073 55.5605L118.491 59.8158H118.132L116.55 55.5605H116.908L118.321 59.3811L119.734 55.5605H120.073Z" fill="white"/>
<path d="M112.781 57.6882C112.785 57.2638 112.892 56.8503 113.089 56.4997C113.285 56.1491 113.563 55.877 113.887 55.7178C114.211 55.5585 114.567 55.5192 114.909 55.6047C115.252 55.6902 115.565 55.8968 115.811 56.1985C116.057 56.5001 116.224 56.8833 116.291 57.2999C116.358 57.7164 116.321 58.1476 116.187 58.5392C116.052 58.9308 115.825 59.2654 115.534 59.5007C115.243 59.736 114.902 59.8615 114.552 59.8616C114.316 59.8713 114.08 59.8216 113.861 59.7155C113.641 59.6094 113.441 59.4493 113.275 59.2452C113.109 59.0411 112.979 58.7974 112.894 58.5294C112.809 58.2615 112.77 57.975 112.781 57.6882ZM115.965 57.6882C115.965 56.6129 115.362 55.8808 114.552 55.8808C113.742 55.8808 113.139 56.6129 113.139 57.6882C113.139 58.7634 113.742 59.4955 114.552 59.4955C115.362 59.4955 115.965 58.7634 115.965 57.6882Z" fill="white"/>
<path d="M109.389 54.0967H109.747V59.45H112.46V59.8161H109.389V54.0967Z" fill="white"/>
<path d="M106.129 55.5605V59.8158H105.808V58.9007C105.687 59.2021 105.496 59.4537 105.258 59.6245C105.02 59.7953 104.746 59.8777 104.47 59.8615C103.585 59.8615 103.001 59.2439 103.001 58.0542V55.5605H103.34V58.0085C103.34 58.9693 103.773 59.4955 104.508 59.4955C105.243 59.4955 105.789 58.8321 105.789 57.8254V55.5605H106.129Z" fill="white"/>
<path d="M98.4788 57.6882C98.4825 57.2638 98.5895 56.8503 98.7864 56.4997C98.9832 56.1491 99.2612 55.877 99.5851 55.7178C99.9091 55.5585 100.265 55.5192 100.607 55.6047C100.949 55.6902 101.263 55.8968 101.509 56.1985C101.755 56.5001 101.922 56.8833 101.988 57.2999C102.055 57.7164 102.019 58.1476 101.885 58.5392C101.75 58.9308 101.523 59.2654 101.232 59.5007C100.941 59.736 100.6 59.8615 100.25 59.8616C100.014 59.8713 99.7781 59.8216 99.5583 59.7155C99.3386 59.6094 99.1392 59.4493 98.9729 59.2452C98.8065 59.0411 98.6767 58.7974 98.5917 58.5294C98.5067 58.2615 98.4682 57.975 98.4788 57.6882ZM101.663 57.6882C101.663 56.6129 101.06 55.8808 100.25 55.8808C99.4397 55.8808 98.8368 56.6129 98.8368 57.6882C98.8368 58.7634 99.4397 59.4955 100.25 59.4955C101.06 59.4955 101.663 58.7634 101.663 57.6882Z" fill="white"/>
<path d="M98.2346 55.5605L96.4257 60.4106C96.1431 61.1885 95.8039 61.4401 95.3328 61.4401C95.1833 61.4436 95.0347 61.411 94.8956 61.3442C94.7565 61.2775 94.6297 61.1779 94.5226 61.0512L94.6922 60.7538C94.772 60.8627 94.8711 60.9481 94.9821 61.0036C95.0931 61.0591 95.213 61.0832 95.3328 61.0741C95.672 61.0741 95.8981 60.8911 96.1242 60.3191L96.3127 59.8158L94.7298 55.5605H95.069L96.4822 59.3811L97.8955 55.5605H98.2346Z" fill="white"/>
<path d="M92.7512 59.5413C92.5453 59.7506 92.2848 59.8641 92.0163 59.8615C91.4134 59.8615 91.0742 59.404 91.0742 58.6948V55.9037H90.4147V55.5605H91.0742V54.6226H91.4133V55.5605H92.5251V55.9037H91.4133V58.649C91.4133 59.1981 91.6206 59.4955 92.054 59.4955C92.2537 59.508 92.4496 59.426 92.6005 59.2667L92.7512 59.5413Z" fill="white"/>
<path d="M89.604 57.1162V59.8158H89.2836V59.0608C89.0575 59.5412 88.643 59.8615 88.0212 59.8615C87.3993 59.8615 86.7587 59.3582 86.7587 58.6261C86.7587 57.8941 87.0978 57.4365 88.0777 57.4365H89.2836V57.0933C89.2836 56.2926 88.9256 55.8808 88.2284 55.8808C87.7879 55.8778 87.3607 56.0642 87.0225 56.407L86.8529 56.1325C87.2447 55.7212 87.7483 55.5011 88.2661 55.5148C89.1329 55.5148 89.604 56.0638 89.604 57.1162ZM89.2836 58.5575V57.7568H88.0777C87.3428 57.7568 87.0978 58.1228 87.0978 58.6261C87.0978 59.1294 87.4559 59.5184 88.0777 59.5184C88.3366 59.5337 88.5928 59.449 88.8095 59.2763C89.0262 59.1037 89.1922 58.852 89.2836 58.5575Z" fill="white"/>
<path d="M85.6851 57.3223V59.816H85.3459V57.3681C85.3459 56.3844 84.9314 55.881 84.2153 55.881C83.4993 55.881 82.8775 56.5216 82.8775 57.5511V59.816H82.5383V53.7534H82.8775V56.453C83.1225 55.8582 83.5935 55.515 84.253 55.515C84.9125 55.515 85.6851 56.1327 85.6851 57.3223Z" fill="white"/>
<path d="M81.747 55.5605L80.428 59.8158H80.1077L78.9206 56.1096L77.7335 59.8158H77.4132L76.0753 55.5605H76.3956L77.5827 59.3583L78.7699 55.5605H79.0713L80.2584 59.3583L81.4455 55.5605H81.747Z" fill="white"/>
<path d="M70.4418 57.688C70.4418 56.4069 71.1766 55.5146 72.1941 55.5146C73.2116 55.5146 73.9465 56.4069 73.9465 57.688C73.9465 58.2523 73.7619 58.7935 73.4333 59.1925C73.1046 59.5915 72.6589 59.8157 72.1941 59.8157C71.7294 59.8157 71.2837 59.5915 70.955 59.1925C70.6264 58.7935 70.4418 58.2523 70.4418 57.688ZM73.6073 57.688C73.6073 56.6128 73.0044 55.8807 72.1941 55.8807C71.3839 55.8807 70.7809 56.6128 70.7809 57.688C70.7809 58.7633 71.3839 59.4954 72.1941 59.4954C73.0044 59.4954 73.6073 58.7633 73.6073 57.688Z" fill="white"/>
<path d="M65.3524 54.0962H67.2178C68.7253 54.0962 69.724 55.2858 69.724 56.9559C69.724 58.626 68.7253 59.8156 67.2178 59.8156H65.3524V54.0962ZM67.199 59.4496C68.5368 59.4496 69.3848 58.4201 69.3848 56.9559C69.3848 55.4917 68.5368 54.4622 67.199 54.4622H65.7104V59.4496H67.199Z" fill="white"/>
</svg>
