<svg width="116" height="123" viewBox="0 0 116 123" fill="none" xmlns="http://www.w3.org/2000/svg">
<g clip-path="url(#clip0_23_1837)">
<path fill-rule="evenodd" clip-rule="evenodd" d="M25.38 57H90.26V37.34H69.59C67.42 37.34 64.4 36.17 62.97 34.74C61.54 33.31 60.67 30.73 60.67 28.57V7.64H8.15001C7.97001 7.64 7.83001 7.73 7.74001 7.82C7.59001 7.92 7.55001 8.05 7.55001 8.24V114.69C7.55001 114.83 7.64001 115.01 7.73001 115.1C7.82001 115.24 8.01001 115.28 8.14001 115.28C30.92 115.28 66.23 115.28 89.65 115.28C89.83 115.28 89.82 115.19 89.92 115.1C90.06 115.01 90.25 114.82 90.25 114.69V103.53H25.38C21.24 103.53 17.82 100.13 17.82 95.97V64.55C17.82 60.4 21.22 57 25.38 57ZM61.89 88.45H53.01L51.73 92.63H43.73L53.28 67.27H61.86L71.36 92.63H63.15L61.89 88.45ZM60.23 82.96L57.46 73.85L54.68 82.96H60.23ZM75.4 67.27H83.26V92.63H75.4V67.27ZM97.79 57H107.72C111.88 57 115.28 60.41 115.28 64.56V95.98C115.28 100.13 111.87 103.54 107.72 103.54H97.79V117.09C97.79 118.7 97.14 120.13 96.09 121.19C95.03 122.25 93.6 122.89 91.99 122.89C62.55 122.89 35.4 122.89 5.81001 122.89C4.20001 122.89 2.77001 122.25 1.71001 121.19C0.65001 120.13 0.0100098 118.7 0.0100098 117.09V5.85C0.0100098 4.24 0.66001 2.81 1.71001 1.75C2.77001 0.69 4.24001 0.05 5.81001 0.05H64.53C64.66 0 64.8 0 64.94 0C65.58 0 66.23 0.28 66.69 0.69H66.78C66.87 0.74 66.92 0.78 67.01 0.87L97 31.23C97.51 31.74 97.88 32.43 97.88 33.21C97.88 33.44 97.83 33.62 97.79 33.86V57ZM67.52 27.97V8.94L88.95 30.64H70.19C69.45 30.64 68.81 30.32 68.3 29.86C67.84 29.4 67.52 28.71 67.52 27.97Z" fill="#EF3239"/>
</g>
<defs>
<clipPath id="clip0_23_1837">
<rect width="115.28" height="122.88" fill="#EF3239"/>
</clipPath>
</defs>
</svg>
