<svg width="145" height="56" viewBox="0 0 145 56" fill="none" xmlns="http://www.w3.org/2000/svg">
<g filter="url(#filter0_d_59_268)">
<path d="M28.9802 29.893C28.9802 29.9895 28.9157 30.0667 28.835 30.0667H20.0564C19.9757 30.0667 19.9112 29.9895 19.9112 29.893V29.5264C18.83 29.8737 17.7165 30.0667 16.5708 30.0667C16.5385 30.0667 16.5062 30.0667 16.474 30.0667C13.1336 30.0474 10.003 28.465 7.64698 25.6281C5.29096 22.7913 4 19.0281 4 15.0334C4 11.0386 5.29096 7.27545 7.64698 4.4386C10.003 1.60176 13.1336 0.0385966 16.474 0C16.5062 0 16.5385 0 16.5708 0C19.4109 0 22.0897 1.1 24.3166 3.20352C24.72 3.57018 25.0912 3.99475 25.4462 4.40001C26.5112 5.6737 26.5112 7.71931 25.4462 8.993C24.9137 9.62984 24.2198 9.93862 23.5259 9.93862C22.832 9.93862 22.1381 9.62984 21.6056 8.993C20.5405 7.71931 20.5405 5.6737 21.6056 4.40001C22.3156 3.55089 23.3161 3.28071 24.2036 3.55088C24.1714 3.53158 24.1391 3.49299 24.1068 3.45439C21.9283 1.40877 19.3141 0.328073 16.5385 0.328073C16.5062 0.328073 16.474 0.328073 16.4578 0.328073C12.6656 0.424565 9.56729 7.00528 9.56729 15.0141C9.56729 23.0036 12.6656 29.5843 16.4578 29.7001C16.4901 29.7001 16.5224 29.7001 16.5385 29.7001C17.6681 29.7001 18.7977 29.5071 19.8789 29.1404V19.1825C19.8789 16.9825 18.3781 15.1878 16.5385 15.1878C16.4578 15.1878 16.3933 15.1106 16.3933 15.0141C16.3933 14.9176 16.4578 14.8404 16.5385 14.8404H25.3171C25.3978 14.8404 25.4623 14.9176 25.4623 15.0141V25.7053C25.4623 27.9053 26.9631 29.7001 28.8027 29.7001C28.9157 29.7194 28.9802 29.7965 28.9802 29.893Z" fill="url(#paint0_linear_59_268)"/>
<path d="M44.2622 30.0667H35.4836H35.4675H31.998C31.9173 30.0667 31.8528 29.9895 31.8528 29.893C31.8528 29.7965 31.9173 29.7194 31.998 29.7194C33.8376 29.7194 35.3384 27.9246 35.3384 25.7246V4.34211C35.3384 2.14211 33.8376 0.347373 31.998 0.347373C31.9173 0.347373 31.8528 0.270175 31.8528 0.173683C31.8528 0.0771919 31.9173 0 31.998 0H44.2622C44.3429 0 44.4074 0.0771919 44.4074 0.173683C44.4074 0.270175 44.3429 0.347373 44.2622 0.347373C42.4226 0.347373 40.9218 2.14211 40.9218 4.34211V25.7246C40.9218 27.9246 42.4226 29.7194 44.2622 29.7194C44.3429 29.7194 44.4074 29.7965 44.4074 29.893C44.4074 29.9895 44.3429 30.0667 44.2622 30.0667Z" fill="url(#paint1_linear_59_268)"/>
<path d="M72.5847 0.173683C72.5847 0.270175 72.5202 0.347373 72.4395 0.347373C70.5998 0.347373 69.0991 2.14211 69.0991 4.34211V27.8474L70.0028 29.7966C70.0351 29.8544 70.0351 29.9123 70.0028 29.9702C69.9705 30.0281 69.9221 30.0474 69.8737 30.0474H63.8061C63.7577 30.0474 63.7093 30.0088 63.677 29.9509L51.0417 2.83685V25.7053C51.0417 27.9053 52.5425 29.7001 54.3821 29.7001C54.4628 29.7001 54.5273 29.7773 54.5273 29.8738C54.5273 29.9702 54.4628 30.0474 54.3821 30.0474H50.8965H50.8803H47.4109C47.3302 30.0474 47.2656 29.9702 47.2656 29.8738C47.2656 29.7773 47.3302 29.7001 47.4109 29.7001C49.2505 29.7001 50.7512 27.9053 50.7512 25.7053V2.2L49.8476 0.250881C49.8153 0.192986 49.8153 0.135087 49.8476 0.077192C49.8798 0.0192971 49.9283 0 49.9767 0H56.0442C56.0926 0 56.141 0.0385966 56.1733 0.0964914L68.8086 27.2299V4.34211C68.8086 2.14211 67.3079 0.347373 65.4683 0.347373C65.3876 0.347373 65.323 0.270175 65.323 0.173683C65.323 0.077192 65.3876 0 65.4683 0H72.4395C72.5202 0 72.5847 0.077192 72.5847 0.173683Z" fill="url(#paint2_linear_59_268)"/>
<path d="M84.9401 4.43861L79.5987 12.3895L85.7953 25.6281C86.8443 27.886 89.2164 29.7001 91.0883 29.7001C91.169 29.7001 91.2335 29.7773 91.2335 29.8738C91.2335 29.9702 91.169 30.0474 91.0883 30.0474H78.0495C77.9689 30.0474 77.9043 29.9702 77.9043 29.8738C77.9043 29.7773 77.9689 29.7001 78.0495 29.7001C78.8403 29.7001 79.4373 29.372 79.7278 28.7545C80.0828 28.0211 80.0021 26.9597 79.4696 25.8211L75.8065 17.986L73.0632 22.0579V29.8738C73.0632 29.9702 72.9986 30.0474 72.9179 30.0474H64.1394C64.0587 30.0474 63.9941 29.9702 63.9941 29.8738C63.9941 29.7773 64.0587 29.7001 64.1394 29.7001C65.979 29.7001 67.4798 27.9053 67.4798 25.7053V4.34211C67.4798 2.14211 65.979 0.347373 64.1394 0.347373C64.0587 0.347373 63.9941 0.270175 63.9941 0.173683C63.9941 0.077192 64.0587 0 64.1394 0H76.4036C76.4842 0 76.5488 0.077192 76.5488 0.173683C76.5488 0.270175 76.4842 0.347373 76.4036 0.347373C74.5639 0.347373 73.0632 2.14211 73.0632 4.34211V21.5176L75.7258 17.5807L79.3082 12.2544L84.7141 4.20703C85.521 2.99124 85.8276 1.83334 85.5372 1.1193C85.3274 0.617549 84.8433 0.347373 84.1171 0.347373C84.0364 0.347373 83.9718 0.270175 83.9718 0.173683C83.9718 0.077192 84.0364 0 84.1171 0H91.0883C91.169 0 91.2335 0.077192 91.2335 0.173683C91.2335 0.270175 91.169 0.347373 91.0883 0.347373C89.2164 0.347373 86.457 2.18071 84.9401 4.43861Z" fill="url(#paint3_linear_59_268)"/>
<path d="M114.795 29.893C114.795 29.9895 114.73 30.0667 114.649 30.0667H105.871C105.79 30.0667 105.726 29.9895 105.726 29.893V29.5264C104.644 29.8737 103.531 30.0667 102.385 30.0667C102.353 30.0667 102.321 30.0667 102.288 30.0667C98.948 30.0474 95.8174 28.465 93.4614 25.6281C91.1054 22.7913 89.8145 19.0281 89.8145 15.0334C89.8145 11.0386 91.1054 7.27545 93.4614 4.4386C95.8174 1.60176 98.948 0.0385966 102.288 0C102.321 0 102.353 0 102.385 0C105.225 0 107.904 1.1 110.131 3.20352C110.534 3.57018 110.922 3.99475 111.277 4.40001C112.342 5.6737 112.342 7.71931 111.277 8.993C110.744 9.62984 110.05 9.93861 109.356 9.93861C108.663 9.93861 107.969 9.62984 107.436 8.993C106.371 7.71931 106.371 5.6737 107.436 4.40001C108.146 3.55089 109.147 3.28071 110.034 3.55088C110.002 3.53158 109.97 3.49299 109.937 3.45439C107.759 1.40877 105.145 0.328073 102.369 0.328073C102.337 0.328073 102.305 0.328073 102.288 0.328073C98.4962 0.424565 95.3979 7.00528 95.3979 15.0141C95.3979 23.0036 98.4801 29.5843 102.288 29.7001C102.321 29.7001 102.353 29.7001 102.369 29.7001C103.499 29.7001 104.628 29.5071 105.709 29.1404V19.1825C105.709 16.9825 104.209 15.1877 102.369 15.1877C102.288 15.1877 102.224 15.1106 102.224 15.0141C102.224 14.9176 102.288 14.8404 102.369 14.8404H111.148C111.228 14.8404 111.293 14.9176 111.293 15.0141V25.7053C111.293 27.9053 112.794 29.7001 114.633 29.7001C114.73 29.7194 114.795 29.7965 114.795 29.893Z" fill="url(#paint4_linear_59_268)"/>
<path d="M137.353 4.4386C139.709 7.27545 141 11.0386 141 15.0334C141 19.0281 139.709 22.7913 137.353 25.6281C134.997 28.465 131.866 30.0281 128.526 30.0667C128.493 30.0667 128.461 30.0667 128.429 30.0667C128.397 30.0667 128.364 30.0667 128.332 30.0667C124.992 30.0474 121.861 28.465 119.505 25.6281C117.149 22.7913 115.858 19.0281 115.858 15.0334C115.858 11.0386 117.149 7.27545 119.505 4.4386C121.861 1.60176 124.992 0.0385966 128.332 0C128.397 0 128.461 0 128.526 0C131.866 0.0385966 134.997 1.62106 137.353 4.4386ZM128.348 29.7194C128.381 29.7194 128.413 29.7194 128.429 29.7194C128.461 29.7194 128.493 29.7194 128.51 29.7194C131.898 29.6229 134.722 24.393 135.287 17.6C135.352 16.7702 135.4 15.9018 135.4 15.0334C135.4 7.04387 132.318 0.463162 128.51 0.347373C128.477 0.347373 128.445 0.347373 128.413 0.347373C128.381 0.347373 128.348 0.347373 128.332 0.347373C124.943 0.443864 122.119 5.6737 121.555 12.4667C121.49 13.2965 121.442 14.1649 121.442 15.0334C121.458 23.0229 124.54 29.6229 128.348 29.7194Z" fill="url(#paint5_linear_59_268)"/>
<path d="M26.6975 40.2178H24.9869C24.9547 40.2178 24.9062 40.2564 24.9062 40.3143V46.4125C24.9062 46.4704 24.9385 46.509 24.9869 46.509C25.0353 46.509 25.0838 46.4704 25.0838 46.4125V44.4827H26.6975C27.6818 44.4827 28.4725 43.5178 28.4725 42.3406C28.4725 41.1634 27.6818 40.2178 26.6975 40.2178ZM26.6975 44.2704H25.0838V40.4108H26.6975C27.585 40.4108 28.3112 41.2792 28.3112 42.3406C28.3112 43.402 27.585 44.2704 26.6975 44.2704Z" fill="url(#paint6_linear_59_268)"/>
<path d="M24.9929 46.9925C24.7186 46.9925 24.5088 46.7416 24.5088 46.4135V40.3153C24.5088 39.9872 24.7186 39.7363 24.9929 39.7363H26.7034C27.8976 39.7363 28.8819 40.9135 28.8819 42.3416C28.8819 43.789 27.8976 44.9662 26.7034 44.9662H25.4932V46.4135C25.477 46.7416 25.2672 46.9925 24.9929 46.9925ZM25.477 43.789H26.6873C27.3489 43.789 27.8976 43.1328 27.8976 42.3416C27.8976 41.5504 27.3651 40.8942 26.6873 40.8942H25.477V43.789Z" fill="url(#paint7_linear_59_268)"/>
<path d="M32.939 40.2727C32.9228 40.2341 32.8905 40.2148 32.8583 40.2148H32.2128C32.1805 40.2148 32.1482 40.2341 32.1321 40.2727L30.2279 46.371C30.2118 46.4096 30.2441 46.4868 30.2763 46.5061C30.3086 46.5254 30.3732 46.4868 30.3893 46.4482L30.6798 45.5026H34.3913L34.6818 46.4482C34.6979 46.4868 34.7302 46.5061 34.7624 46.5061H34.7947C34.8431 46.4868 34.8593 46.4289 34.8431 46.371L32.939 40.2727ZM30.7604 45.2903L32.2935 40.4078H32.8099L34.3429 45.2903H30.7604Z" fill="url(#paint8_linear_59_268)"/>
<path d="M30.3074 46.9866C30.2428 46.9866 30.1622 46.9673 30.0976 46.9287C30.0008 46.8708 29.9201 46.7743 29.8717 46.6586C29.8071 46.5042 29.8071 46.3305 29.8556 46.1761L31.7759 40.0392L31.8081 40.0006C31.905 39.827 32.0663 39.7305 32.2277 39.7305H32.8732C33.0346 39.7305 33.1959 39.827 33.2928 40.0006L33.325 40.0392L35.2453 46.1761C35.2937 46.3112 35.2937 46.4656 35.2453 46.6007C35.1969 46.7551 35.1001 46.8708 34.971 46.948L34.9065 46.9866H34.7935C34.6321 46.9866 34.4708 46.8901 34.3739 46.7165L34.3417 46.6779L34.1319 45.9831H30.9852L30.7754 46.6586C30.6624 46.8708 30.4849 46.9866 30.3074 46.9866ZM31.3402 44.8059H33.7446L32.5343 40.9656L31.3402 44.8059Z" fill="url(#paint9_linear_59_268)"/>
<path d="M41.6793 40.2148C41.6308 40.2148 41.5824 40.2534 41.5824 40.3113V46.3131H41.292L37.9193 40.2534C37.9032 40.2341 37.887 40.2148 37.8548 40.2148H37.4352C37.3868 40.2148 37.3384 40.2534 37.3384 40.3113V46.4096C37.3384 46.4675 37.3707 46.5061 37.4352 46.5061C37.4675 46.5061 37.5159 46.4675 37.5159 46.4096V40.4271H37.8225L41.1951 46.4675C41.2113 46.4868 41.2274 46.5061 41.2597 46.5061H41.6793C41.7277 46.5061 41.7599 46.4675 41.7599 46.4096V40.3113C41.7599 40.2534 41.7277 40.2148 41.6793 40.2148Z" fill="url(#paint10_linear_59_268)"/>
<path d="M41.6801 46.9866H41.2605C41.083 46.9866 40.9378 46.8901 40.841 46.7165L37.9202 41.4673V46.4077C37.9202 46.7358 37.7104 46.9866 37.436 46.9866C37.1617 46.9866 36.9358 46.7358 36.9358 46.4077V40.3094C36.9358 39.9813 37.1456 39.7305 37.436 39.7305H37.8556C38.0331 39.7305 38.1784 39.827 38.2752 40.0006L41.196 45.2498V40.3287C41.196 40.0007 41.4058 39.7498 41.6962 39.7498C41.9706 39.7498 42.1803 40.0007 42.1803 40.3287V46.427C42.1642 46.7357 41.9544 46.9866 41.6801 46.9866Z" fill="url(#paint11_linear_59_268)"/>
<path d="M50.812 40.2776C50.7959 40.239 50.7636 40.2197 50.7313 40.2197H50.0858C50.0536 40.2197 50.0213 40.239 50.0051 40.2776L48.101 46.3759C48.0848 46.4145 48.1171 46.4917 48.1494 46.511C48.1817 46.5303 48.2462 46.4917 48.2623 46.4531L48.5528 45.5075H52.2643L52.5548 46.4531C52.5709 46.4917 52.6032 46.511 52.6355 46.511H52.6678C52.7162 46.4917 52.7323 46.4338 52.7162 46.3759L50.812 40.2776ZM48.6174 45.2952L50.1504 40.4127H50.6668L52.1998 45.2952H48.6174Z" fill="url(#paint12_linear_59_268)"/>
<path d="M48.1846 46.9937C48.12 46.9937 48.0393 46.9744 47.9748 46.9358C47.8618 46.8586 47.765 46.7428 47.7166 46.5884C47.6843 46.4533 47.6843 46.3182 47.7327 46.2025L49.653 40.0656L49.6853 40.027C49.7821 39.8533 49.9435 39.7568 50.1049 39.7568H50.7504C50.9117 39.7568 51.0731 39.8533 51.1699 40.027L51.2022 40.0656L53.1225 46.2025C53.1709 46.3375 53.1709 46.4919 53.1225 46.627C53.0741 46.7814 52.9773 46.8972 52.8482 46.9744L52.7836 47.013H52.6707C52.5093 47.013 52.3479 46.9165 52.2511 46.7428L52.2188 46.7042L52.009 46.0095H48.8623L48.6525 46.6849C48.5396 46.8779 48.3621 46.9937 48.1846 46.9937ZM49.2012 44.813H51.6056L50.3953 40.9726L49.2012 44.813Z" fill="url(#paint13_linear_59_268)"/>
<path d="M56.3965 43.264C55.7511 43.264 55.2185 42.6078 55.2185 41.8359C55.2185 41.064 55.7511 40.4271 56.3965 40.4271H57.2518C57.3002 40.4271 57.3325 40.3885 57.3325 40.3113C57.3325 40.2534 57.3002 40.2148 57.2518 40.2148H56.3965C55.6542 40.2148 55.041 40.9289 55.041 41.8359C55.041 42.7429 55.6542 43.4763 56.3965 43.4763C57.0582 43.4763 57.5907 44.1131 57.5907 44.885C57.5907 45.657 57.0582 46.3131 56.3965 46.3131H55.5574C55.509 46.3131 55.4606 46.3517 55.4606 46.4096C55.4606 46.4675 55.4929 46.5061 55.5574 46.5061H56.3965C57.155 46.5061 57.7682 45.792 57.7682 44.885C57.752 43.978 57.1388 43.264 56.3965 43.264Z" fill="url(#paint14_linear_59_268)"/>
<path d="M56.3974 46.9866H55.5582C55.2839 46.9866 55.058 46.7358 55.058 46.4077C55.058 46.0796 55.2678 45.8287 55.5582 45.8287H56.3974C56.8331 45.8287 57.1881 45.4042 57.1881 44.8831C57.1881 44.3621 56.8331 43.9568 56.3974 43.9568C55.4291 43.9568 54.6384 43.0112 54.6384 41.834C54.6384 40.6761 55.4291 39.7305 56.3974 39.7305H57.2526C57.527 39.7305 57.7367 39.9813 57.7367 40.3094C57.7367 40.6375 57.527 40.9077 57.2526 40.9077H56.3974C55.9617 40.9077 55.6228 41.3322 55.6228 41.834C55.6228 42.355 55.9778 42.7796 56.3974 42.7796C57.3656 42.7796 58.1725 43.7252 58.1725 44.8831C58.1725 46.041 57.3656 46.9866 56.3974 46.9866Z" fill="url(#paint15_linear_59_268)"/>
<path d="M60.5165 40.2119C60.4681 40.2119 60.4358 40.2505 60.4358 40.3084V46.4067C60.4358 46.4646 60.4681 46.5032 60.5165 46.5032C60.565 46.5032 60.6134 46.4646 60.6134 46.4067V40.3084C60.6134 40.2505 60.5811 40.2119 60.5165 40.2119Z" fill="url(#paint16_linear_59_268)"/>
<path d="M60.5176 46.9866C60.2431 46.9866 60.0332 46.7358 60.0332 46.4077V40.3094C60.0332 39.9813 60.2431 39.7305 60.5176 39.7305C60.792 39.7305 61.018 39.9813 61.018 40.3094V46.4077C61.018 46.7358 60.8082 46.9866 60.5176 46.9866Z" fill="url(#paint17_linear_59_268)"/>
<path d="M65.9717 40.2776C65.9555 40.239 65.9233 40.2197 65.891 40.2197H65.2455C65.2132 40.2197 65.181 40.239 65.1648 40.2776L63.2606 46.3759C63.2445 46.4145 63.2768 46.4917 63.309 46.511C63.3413 46.5303 63.4059 46.4917 63.422 46.4531L63.7125 45.5075H67.424L67.7145 46.4531C67.7306 46.4917 67.7629 46.511 67.7952 46.511H67.8274C67.8758 46.4917 67.892 46.4338 67.8759 46.3759L65.9717 40.2776ZM63.7932 45.2952L65.3262 40.4127H65.8426L67.3756 45.2952H63.7932Z" fill="url(#paint18_linear_59_268)"/>
<path d="M63.3432 46.9937C63.2787 46.9937 63.198 46.9744 63.1335 46.9358C63.0205 46.8586 62.9237 46.7428 62.8753 46.5884C62.843 46.4533 62.843 46.3182 62.8914 46.2025L64.8117 40.0656L64.844 40.027C64.9408 39.8533 65.1022 39.7568 65.2636 39.7568H65.909C66.0704 39.7568 66.2318 39.8533 66.3286 40.027L66.3609 40.0656L68.2812 46.2025C68.3296 46.3375 68.3296 46.4919 68.2812 46.627C68.2328 46.7814 68.136 46.8972 68.0069 46.9744L67.9423 47.013H67.8132C67.6519 47.013 67.4905 46.9165 67.3937 46.7428L67.3614 46.7042L67.1516 46.0095H64.0049L63.7951 46.6849C63.7144 46.8779 63.5369 46.9937 63.3432 46.9937ZM64.376 44.813H66.7804L65.5702 40.9726L64.376 44.813Z" fill="url(#paint19_linear_59_268)"/>
<path d="M74.7298 40.2148C74.6814 40.2148 74.633 40.2534 74.633 40.3113V46.3131H74.3425L70.9698 40.2534C70.9537 40.2341 70.9376 40.2148 70.9053 40.2148H70.4857C70.4373 40.2148 70.3889 40.2534 70.3889 40.3113V46.4096C70.3889 46.4675 70.4212 46.5061 70.4857 46.5061C70.518 46.5061 70.5664 46.4675 70.5664 46.4096V40.4271H70.873L74.2457 46.4675C74.2618 46.4868 74.278 46.5061 74.3102 46.5061H74.7298C74.7782 46.5061 74.8105 46.4675 74.8105 46.4096V40.3113C74.8105 40.2534 74.7782 40.2148 74.7298 40.2148Z" fill="url(#paint20_linear_59_268)"/>
<path d="M74.7306 46.9866H74.3111C74.1336 46.9866 73.9883 46.8901 73.8915 46.7165L70.9707 41.4673V46.4077C70.9707 46.7358 70.7609 46.9866 70.4866 46.9866C70.2122 46.9866 69.9863 46.7358 69.9863 46.4077V40.3094C69.9863 39.9813 70.1961 39.7305 70.4866 39.7305H70.9061C71.0836 39.7305 71.2289 39.827 71.3257 40.0006L74.2465 45.2498V40.3287C74.2465 40.0007 74.4563 39.7498 74.7468 39.7498C75.0211 39.7498 75.2309 40.0007 75.2309 40.3287V46.427C75.2147 46.7357 75.005 46.9866 74.7306 46.9866Z" fill="url(#paint21_linear_59_268)"/>
<path d="M83.8059 43.1917C84.3546 42.825 84.7096 42.1303 84.7096 41.339V40.3162C84.7096 40.2583 84.6773 40.2197 84.6289 40.2197C84.5805 40.2197 84.5321 40.2583 84.5321 40.3162V41.339C84.5321 42.4004 83.8059 43.2689 82.9184 43.2689H81.3047V40.3162C81.3047 40.2583 81.2724 40.2197 81.2079 40.2197C81.1595 40.2197 81.1272 40.2583 81.1272 40.3162V46.4145C81.1272 46.4724 81.1595 46.511 81.2079 46.511C81.2563 46.511 81.3047 46.4724 81.3047 46.4145V43.4811H82.9184C83.1766 43.4811 83.4348 43.4039 83.6446 43.2882L84.6451 46.4531C84.6612 46.4917 84.6935 46.511 84.7258 46.511H84.758C84.8065 46.4917 84.8226 46.4338 84.8064 46.3759L83.8059 43.1917Z" fill="url(#paint22_linear_59_268)"/>
<path d="M84.8386 46.9937H84.7256C84.5642 46.9937 84.4029 46.8972 84.3061 46.7235L84.2738 46.6849L83.4024 43.906C83.241 43.9446 83.0796 43.9832 82.9183 43.9832H81.708V46.434C81.708 46.7621 81.4982 47.013 81.2077 47.013C80.9334 47.013 80.7236 46.7621 80.7236 46.434V40.3358C80.7236 40.0077 80.9334 39.7568 81.2077 39.7568C81.4821 39.7568 81.708 40.0077 81.708 40.3358V42.806H82.9183C83.5799 42.806 84.1286 42.1498 84.1286 41.3586V40.3358C84.1286 40.0077 84.3383 39.7568 84.6288 39.7568C84.9031 39.7568 85.1129 40.0077 85.1129 40.3358V41.3586C85.1129 42.1691 84.8063 42.9025 84.2899 43.3849L85.1775 46.2025C85.2259 46.3375 85.2259 46.4919 85.1775 46.627C85.1291 46.7814 85.0322 46.8972 84.9031 46.9744L84.8386 46.9937Z" fill="url(#paint23_linear_59_268)"/>
<path d="M87.6608 40.2148C87.6124 40.2148 87.5801 40.2534 87.5801 40.3113V46.4096C87.5801 46.4675 87.6124 46.5061 87.6608 46.5061C87.7092 46.5061 87.7577 46.4675 87.7577 46.4096V40.3113C87.7577 40.2534 87.7092 40.2148 87.6608 40.2148Z" fill="url(#paint24_linear_59_268)"/>
<path d="M87.6618 46.9866C87.3874 46.9866 87.1775 46.7358 87.1775 46.4077V40.3094C87.1775 39.9813 87.3874 39.7305 87.6618 39.7305C87.9363 39.7305 88.1623 39.9813 88.1623 40.3094V46.4077C88.1623 46.7358 87.9524 46.9866 87.6618 46.9866Z" fill="url(#paint25_linear_59_268)"/>
<path d="M93.9285 40.2148H90.5236C90.4751 40.2148 90.4429 40.2534 90.4429 40.3113C90.4429 40.3692 90.4751 40.4271 90.5236 40.4271H92.1373V46.4096C92.1373 46.4675 92.1695 46.5061 92.218 46.5061C92.2664 46.5061 92.3148 46.4675 92.3148 46.4096V40.4271H93.9285C93.9608 40.4271 94.0092 40.3885 94.0092 40.3113C94.0092 40.2534 93.9769 40.2148 93.9285 40.2148Z" fill="url(#paint26_linear_59_268)"/>
<path d="M92.2188 46.9866C91.9445 46.9866 91.7347 46.7358 91.7347 46.4077V40.9077H90.5244C90.2501 40.9077 90.0403 40.6568 90.0403 40.3094C90.0403 39.9813 90.2501 39.7305 90.5244 39.7305H93.9293C94.2037 39.7305 94.4134 39.9813 94.4134 40.3094C94.4134 40.6375 94.2037 40.9077 93.9293 40.9077H92.7191V46.4077C92.7191 46.7358 92.4931 46.9866 92.2188 46.9866Z" fill="url(#paint27_linear_59_268)"/>
<path d="M98.2605 40.2965C98.8253 40.2965 99.3578 40.6632 99.6483 41.2614C99.6644 41.3 99.729 41.3193 99.7612 41.3C99.7935 41.2807 99.8096 41.2035 99.7935 41.1649C99.4708 40.5088 98.8737 40.1035 98.2443 40.1035C97.26 40.1035 96.4531 41.0684 96.4531 42.2456V44.5228C96.4531 45.7 97.26 46.6649 98.2443 46.6649C98.8737 46.6649 99.4708 46.2597 99.7935 45.6035C99.8096 45.5649 99.8096 45.4877 99.7612 45.4684C99.729 45.4298 99.6644 45.4491 99.6483 45.507C99.3739 46.086 98.8253 46.4719 98.2605 46.4719C97.3729 46.4719 96.6468 45.6035 96.6468 44.5421V42.2649C96.6468 41.1649 97.3729 40.2965 98.2605 40.2965Z" fill="url(#paint28_linear_59_268)"/>
<path d="M98.2715 47.1269C97.0613 47.1269 96.0769 45.9497 96.0769 44.5024V42.2252C96.0769 40.7778 97.0613 39.6006 98.2715 39.6006C99.0461 39.6006 99.7723 40.1023 100.16 40.8936L100.176 40.9322C100.305 41.2216 100.208 41.5883 99.9659 41.7234C99.9014 41.762 99.8207 41.7813 99.74 41.7813C99.5625 41.7813 99.4011 41.6655 99.3205 41.4918C99.0945 41.048 98.7072 40.7778 98.2715 40.7778C97.6099 40.7778 97.0613 41.4339 97.0613 42.2252V44.5024C97.0613 45.2936 97.6099 45.9497 98.2715 45.9497C98.6911 45.9497 99.1107 45.6602 99.3205 45.2357L99.3527 45.1778C99.5141 44.9269 99.8046 44.869 100.014 45.0234C100.224 45.1778 100.305 45.5059 100.192 45.776L100.176 45.7953C99.7723 46.6252 99.0461 47.1269 98.2715 47.1269Z" fill="url(#paint29_linear_59_268)"/>
<path d="M106.238 40.2148C106.206 40.2148 106.157 40.2534 106.157 40.3113V43.264H102.93V40.3113C102.93 40.2534 102.897 40.2148 102.849 40.2148C102.801 40.2148 102.752 40.2534 102.752 40.3113V46.4096C102.752 46.4675 102.784 46.5061 102.849 46.5061C102.881 46.5061 102.93 46.4675 102.93 46.4096V43.4763H106.157V46.4096C106.157 46.4675 106.189 46.5061 106.238 46.5061C106.286 46.5061 106.335 46.4675 106.335 46.4096V40.3113C106.335 40.2534 106.286 40.2148 106.238 40.2148Z" fill="url(#paint30_linear_59_268)"/>
<path d="M106.239 46.9866C105.964 46.9866 105.755 46.7358 105.755 46.4077V43.9568H103.334V46.4077C103.334 46.7358 103.124 46.9866 102.85 46.9866C102.576 46.9866 102.35 46.7358 102.35 46.4077V40.3094C102.35 39.9813 102.559 39.7305 102.85 39.7305C103.124 39.7305 103.334 39.9813 103.334 40.3094V42.7796H105.755V40.3094C105.755 39.9813 105.964 39.7305 106.239 39.7305C106.513 39.7305 106.739 39.9813 106.739 40.3094V46.4077C106.739 46.7358 106.513 46.9866 106.239 46.9866Z" fill="url(#paint31_linear_59_268)"/>
<path d="M111.904 40.4271C111.952 40.4271 111.984 40.3885 111.984 40.3113C111.984 40.2534 111.952 40.2148 111.904 40.2148H109.354C109.305 40.2148 109.273 40.2534 109.273 40.3113V46.4096C109.273 46.4675 109.305 46.5061 109.354 46.5061H111.904C111.952 46.5061 111.984 46.4675 111.984 46.4096C111.984 46.3517 111.952 46.3131 111.904 46.3131H109.435V43.4763H111.048C111.097 43.4763 111.145 43.4377 111.145 43.3605C111.145 43.2833 111.113 43.264 111.048 43.264H109.435V40.4271H111.904Z" fill="url(#paint32_linear_59_268)"/>
<path d="M111.904 46.9866H109.355C109.08 46.9866 108.871 46.7358 108.871 46.4077V40.3094C108.871 39.9813 109.08 39.7305 109.355 39.7305H111.904C112.179 39.7305 112.388 39.9813 112.388 40.3094C112.388 40.6375 112.179 40.9077 111.904 40.9077H109.839V42.7796H111.049C111.323 42.7796 111.549 43.0305 111.549 43.3585C111.549 43.6866 111.323 43.9568 111.049 43.9568H109.839V45.8287H111.904C112.179 45.8287 112.388 46.0796 112.388 46.4077C112.388 46.7358 112.179 46.9866 111.904 46.9866Z" fill="url(#paint33_linear_59_268)"/>
<path d="M119.175 40.2148C119.127 40.2148 119.079 40.2534 119.079 40.3113V46.3131H118.788L115.415 40.2534C115.399 40.2341 115.383 40.2148 115.351 40.2148H114.931C114.883 40.2148 114.834 40.2534 114.834 40.3113V46.4096C114.834 46.4675 114.867 46.5061 114.931 46.5061C114.964 46.5061 115.012 46.4675 115.012 46.4096V40.4271H115.319L118.691 46.4675C118.707 46.4868 118.723 46.5061 118.756 46.5061H119.175C119.224 46.5061 119.256 46.4675 119.256 46.4096V40.3113C119.256 40.2534 119.224 40.2148 119.175 40.2148Z" fill="url(#paint34_linear_59_268)"/>
<path d="M119.176 46.9866H118.757C118.579 46.9866 118.434 46.8901 118.337 46.7165L115.416 41.4673V46.4077C115.416 46.7358 115.206 46.9866 114.932 46.9866C114.658 46.9866 114.432 46.7358 114.432 46.4077V40.3094C114.432 39.9813 114.642 39.7305 114.932 39.7305H115.352C115.529 39.7305 115.674 39.827 115.771 40.0006L118.692 45.2498V40.3287C118.692 40.0007 118.902 39.7498 119.192 39.7498C119.467 39.7498 119.676 40.0007 119.676 40.3287V46.427C119.66 46.7357 119.451 46.9866 119.176 46.9866Z" fill="url(#paint35_linear_59_268)"/>
</g>
<defs>
<filter id="filter0_d_59_268" x="0" y="0" width="145" height="55.127" filterUnits="userSpaceOnUse" color-interpolation-filters="sRGB">
<feFlood flood-opacity="0" result="BackgroundImageFix"/>
<feColorMatrix in="SourceAlpha" type="matrix" values="0 0 0 0 0 0 0 0 0 0 0 0 0 0 0 0 0 0 127 0" result="hardAlpha"/>
<feOffset dy="4"/>
<feGaussianBlur stdDeviation="2"/>
<feComposite in2="hardAlpha" operator="out"/>
<feColorMatrix type="matrix" values="0 0 0 0 0 0 0 0 0 0 0 0 0 0 0 0 0 0 0.25 0"/>
<feBlend mode="normal" in2="BackgroundImageFix" result="effect1_dropShadow_59_268"/>
<feBlend mode="normal" in="SourceGraphic" in2="effect1_dropShadow_59_268" result="shape"/>
</filter>
<linearGradient id="paint0_linear_59_268" x1="3.99842" y1="15.0362" x2="28.9835" y2="15.0362" gradientUnits="userSpaceOnUse">
<stop stop-color="#A4812D"/>
<stop offset="0.1869" stop-color="#B59140"/>
<stop offset="0.3555" stop-color="#C39F52"/>
<stop offset="0.3662" stop-color="#C4A053"/>
<stop offset="0.9038" stop-color="#EFD995"/>
<stop offset="1" stop-color="#F4E3B9"/>
</linearGradient>
<linearGradient id="paint1_linear_59_268" x1="31.8411" y1="15.0362" x2="44.4028" y2="15.0362" gradientUnits="userSpaceOnUse">
<stop stop-color="#A4812D"/>
<stop offset="0.1869" stop-color="#B59140"/>
<stop offset="0.3555" stop-color="#C39F52"/>
<stop offset="0.3662" stop-color="#C4A053"/>
<stop offset="0.9038" stop-color="#EFD995"/>
<stop offset="1" stop-color="#F4E3B9"/>
</linearGradient>
<linearGradient id="paint2_linear_59_268" x1="47.2637" y1="15.0362" x2="72.586" y2="15.0362" gradientUnits="userSpaceOnUse">
<stop stop-color="#A4812D"/>
<stop offset="0.1869" stop-color="#B59140"/>
<stop offset="0.3555" stop-color="#C39F52"/>
<stop offset="0.3662" stop-color="#C4A053"/>
<stop offset="0.9038" stop-color="#EFD995"/>
<stop offset="1" stop-color="#F4E3B9"/>
</linearGradient>
<linearGradient id="paint3_linear_59_268" x1="63.9993" y1="15.0362" x2="91.2347" y2="15.0362" gradientUnits="userSpaceOnUse">
<stop stop-color="#A4812D"/>
<stop offset="0.1869" stop-color="#B59140"/>
<stop offset="0.3555" stop-color="#C39F52"/>
<stop offset="0.3662" stop-color="#C4A053"/>
<stop offset="0.9038" stop-color="#EFD995"/>
<stop offset="1" stop-color="#F4E3B9"/>
</linearGradient>
<linearGradient id="paint4_linear_59_268" x1="89.8083" y1="15.0362" x2="114.793" y2="15.0362" gradientUnits="userSpaceOnUse">
<stop stop-color="#A4812D"/>
<stop offset="0.1869" stop-color="#B59140"/>
<stop offset="0.3555" stop-color="#C39F52"/>
<stop offset="0.3662" stop-color="#C4A053"/>
<stop offset="0.9038" stop-color="#EFD995"/>
<stop offset="1" stop-color="#F4E3B9"/>
</linearGradient>
<linearGradient id="paint5_linear_59_268" x1="115.865" y1="15.0359" x2="141.001" y2="15.0359" gradientUnits="userSpaceOnUse">
<stop stop-color="#A4812D"/>
<stop offset="0.1869" stop-color="#B59140"/>
<stop offset="0.3555" stop-color="#C39F52"/>
<stop offset="0.3662" stop-color="#C4A053"/>
<stop offset="0.9038" stop-color="#EFD995"/>
<stop offset="1" stop-color="#F4E3B9"/>
</linearGradient>
<linearGradient id="paint6_linear_59_268" x1="24.906" y1="43.366" x2="28.4727" y2="43.366" gradientUnits="userSpaceOnUse">
<stop stop-color="#A4812D"/>
<stop offset="0.1869" stop-color="#B59140"/>
<stop offset="0.3555" stop-color="#C39F52"/>
<stop offset="0.3662" stop-color="#C4A053"/>
<stop offset="0.9038" stop-color="#EFD995"/>
<stop offset="1" stop-color="#F4E3B9"/>
</linearGradient>
<linearGradient id="paint7_linear_59_268" x1="24.5085" y1="43.3674" x2="28.8822" y2="43.3674" gradientUnits="userSpaceOnUse">
<stop stop-color="#A4812D"/>
<stop offset="0.1869" stop-color="#B59140"/>
<stop offset="0.3555" stop-color="#C39F52"/>
<stop offset="0.3662" stop-color="#C4A053"/>
<stop offset="0.9038" stop-color="#EFD995"/>
<stop offset="1" stop-color="#F4E3B9"/>
</linearGradient>
<linearGradient id="paint8_linear_59_268" x1="30.2233" y1="43.3656" x2="34.8494" y2="43.3656" gradientUnits="userSpaceOnUse">
<stop stop-color="#A4812D"/>
<stop offset="0.1869" stop-color="#B59140"/>
<stop offset="0.3555" stop-color="#C39F52"/>
<stop offset="0.3662" stop-color="#C4A053"/>
<stop offset="0.9038" stop-color="#EFD995"/>
<stop offset="1" stop-color="#F4E3B9"/>
</linearGradient>
<linearGradient id="paint9_linear_59_268" x1="29.8206" y1="43.3616" x2="35.2819" y2="43.3616" gradientUnits="userSpaceOnUse">
<stop stop-color="#A4812D"/>
<stop offset="0.1869" stop-color="#B59140"/>
<stop offset="0.3555" stop-color="#C39F52"/>
<stop offset="0.3662" stop-color="#C4A053"/>
<stop offset="0.9038" stop-color="#EFD995"/>
<stop offset="1" stop-color="#F4E3B9"/>
</linearGradient>
<linearGradient id="paint10_linear_59_268" x1="37.338" y1="43.3631" x2="41.7602" y2="43.3631" gradientUnits="userSpaceOnUse">
<stop stop-color="#A4812D"/>
<stop offset="0.1869" stop-color="#B59140"/>
<stop offset="0.3555" stop-color="#C39F52"/>
<stop offset="0.3662" stop-color="#C4A053"/>
<stop offset="0.9038" stop-color="#EFD995"/>
<stop offset="1" stop-color="#F4E3B9"/>
</linearGradient>
<linearGradient id="paint11_linear_59_268" x1="36.9354" y1="43.3616" x2="42.1806" y2="43.3616" gradientUnits="userSpaceOnUse">
<stop stop-color="#A4812D"/>
<stop offset="0.1869" stop-color="#B59140"/>
<stop offset="0.3555" stop-color="#C39F52"/>
<stop offset="0.3662" stop-color="#C4A053"/>
<stop offset="0.9038" stop-color="#EFD995"/>
<stop offset="1" stop-color="#F4E3B9"/>
</linearGradient>
<linearGradient id="paint12_linear_59_268" x1="48.0963" y1="43.3705" x2="52.7225" y2="43.3705" gradientUnits="userSpaceOnUse">
<stop stop-color="#A4812D"/>
<stop offset="0.1869" stop-color="#B59140"/>
<stop offset="0.3555" stop-color="#C39F52"/>
<stop offset="0.3662" stop-color="#C4A053"/>
<stop offset="0.9038" stop-color="#EFD995"/>
<stop offset="1" stop-color="#F4E3B9"/>
</linearGradient>
<linearGradient id="paint13_linear_59_268" x1="47.6937" y1="43.3879" x2="53.1591" y2="43.3879" gradientUnits="userSpaceOnUse">
<stop stop-color="#A4812D"/>
<stop offset="0.1869" stop-color="#B59140"/>
<stop offset="0.3555" stop-color="#C39F52"/>
<stop offset="0.3662" stop-color="#C4A053"/>
<stop offset="0.9038" stop-color="#EFD995"/>
<stop offset="1" stop-color="#F4E3B9"/>
</linearGradient>
<linearGradient id="paint14_linear_59_268" x1="55.0408" y1="43.3631" x2="57.7683" y2="43.3631" gradientUnits="userSpaceOnUse">
<stop stop-color="#A4812D"/>
<stop offset="0.1869" stop-color="#B59140"/>
<stop offset="0.3555" stop-color="#C39F52"/>
<stop offset="0.3662" stop-color="#C4A053"/>
<stop offset="0.9038" stop-color="#EFD995"/>
<stop offset="1" stop-color="#F4E3B9"/>
</linearGradient>
<linearGradient id="paint15_linear_59_268" x1="54.6382" y1="43.3616" x2="58.1726" y2="43.3616" gradientUnits="userSpaceOnUse">
<stop stop-color="#A4812D"/>
<stop offset="0.1869" stop-color="#B59140"/>
<stop offset="0.3555" stop-color="#C39F52"/>
<stop offset="0.3662" stop-color="#C4A053"/>
<stop offset="0.9038" stop-color="#EFD995"/>
<stop offset="1" stop-color="#F4E3B9"/>
</linearGradient>
<linearGradient id="paint16_linear_59_268" x1="60.4358" y1="43.3601" x2="60.6134" y2="43.3601" gradientUnits="userSpaceOnUse">
<stop stop-color="#A4812D"/>
<stop offset="0.1869" stop-color="#B59140"/>
<stop offset="0.3555" stop-color="#C39F52"/>
<stop offset="0.3662" stop-color="#C4A053"/>
<stop offset="0.9038" stop-color="#EFD995"/>
<stop offset="1" stop-color="#F4E3B9"/>
</linearGradient>
<linearGradient id="paint17_linear_59_268" x1="60.0331" y1="43.3616" x2="61.0181" y2="43.3616" gradientUnits="userSpaceOnUse">
<stop stop-color="#A4812D"/>
<stop offset="0.1869" stop-color="#B59140"/>
<stop offset="0.3555" stop-color="#C39F52"/>
<stop offset="0.3662" stop-color="#C4A053"/>
<stop offset="0.9038" stop-color="#EFD995"/>
<stop offset="1" stop-color="#F4E3B9"/>
</linearGradient>
<linearGradient id="paint18_linear_59_268" x1="63.256" y1="43.3705" x2="67.8821" y2="43.3705" gradientUnits="userSpaceOnUse">
<stop stop-color="#A4812D"/>
<stop offset="0.1869" stop-color="#B59140"/>
<stop offset="0.3555" stop-color="#C39F52"/>
<stop offset="0.3662" stop-color="#C4A053"/>
<stop offset="0.9038" stop-color="#EFD995"/>
<stop offset="1" stop-color="#F4E3B9"/>
</linearGradient>
<linearGradient id="paint19_linear_59_268" x1="62.8524" y1="43.3879" x2="68.3178" y2="43.3879" gradientUnits="userSpaceOnUse">
<stop stop-color="#A4812D"/>
<stop offset="0.1869" stop-color="#B59140"/>
<stop offset="0.3555" stop-color="#C39F52"/>
<stop offset="0.3662" stop-color="#C4A053"/>
<stop offset="0.9038" stop-color="#EFD995"/>
<stop offset="1" stop-color="#F4E3B9"/>
</linearGradient>
<linearGradient id="paint20_linear_59_268" x1="70.3886" y1="43.3631" x2="74.8107" y2="43.3631" gradientUnits="userSpaceOnUse">
<stop stop-color="#A4812D"/>
<stop offset="0.1869" stop-color="#B59140"/>
<stop offset="0.3555" stop-color="#C39F52"/>
<stop offset="0.3662" stop-color="#C4A053"/>
<stop offset="0.9038" stop-color="#EFD995"/>
<stop offset="1" stop-color="#F4E3B9"/>
</linearGradient>
<linearGradient id="paint21_linear_59_268" x1="69.9859" y1="43.3616" x2="75.2311" y2="43.3616" gradientUnits="userSpaceOnUse">
<stop stop-color="#A4812D"/>
<stop offset="0.1869" stop-color="#B59140"/>
<stop offset="0.3555" stop-color="#C39F52"/>
<stop offset="0.3662" stop-color="#C4A053"/>
<stop offset="0.9038" stop-color="#EFD995"/>
<stop offset="1" stop-color="#F4E3B9"/>
</linearGradient>
<linearGradient id="paint22_linear_59_268" x1="81.1269" y1="43.368" x2="84.8127" y2="43.368" gradientUnits="userSpaceOnUse">
<stop stop-color="#A4812D"/>
<stop offset="0.1869" stop-color="#B59140"/>
<stop offset="0.3555" stop-color="#C39F52"/>
<stop offset="0.3662" stop-color="#C4A053"/>
<stop offset="0.9038" stop-color="#EFD995"/>
<stop offset="1" stop-color="#F4E3B9"/>
</linearGradient>
<linearGradient id="paint23_linear_59_268" x1="80.7233" y1="43.3879" x2="85.214" y2="43.3879" gradientUnits="userSpaceOnUse">
<stop stop-color="#A4812D"/>
<stop offset="0.1869" stop-color="#B59140"/>
<stop offset="0.3555" stop-color="#C39F52"/>
<stop offset="0.3662" stop-color="#C4A053"/>
<stop offset="0.9038" stop-color="#EFD995"/>
<stop offset="1" stop-color="#F4E3B9"/>
</linearGradient>
<linearGradient id="paint24_linear_59_268" x1="87.5801" y1="43.3631" x2="87.7577" y2="43.3631" gradientUnits="userSpaceOnUse">
<stop stop-color="#A4812D"/>
<stop offset="0.1869" stop-color="#B59140"/>
<stop offset="0.3555" stop-color="#C39F52"/>
<stop offset="0.3662" stop-color="#C4A053"/>
<stop offset="0.9038" stop-color="#EFD995"/>
<stop offset="1" stop-color="#F4E3B9"/>
</linearGradient>
<linearGradient id="paint25_linear_59_268" x1="87.1774" y1="43.3616" x2="88.1624" y2="43.3616" gradientUnits="userSpaceOnUse">
<stop stop-color="#A4812D"/>
<stop offset="0.1869" stop-color="#B59140"/>
<stop offset="0.3555" stop-color="#C39F52"/>
<stop offset="0.3662" stop-color="#C4A053"/>
<stop offset="0.9038" stop-color="#EFD995"/>
<stop offset="1" stop-color="#F4E3B9"/>
</linearGradient>
<linearGradient id="paint26_linear_59_268" x1="90.4426" y1="43.3631" x2="94.0094" y2="43.3631" gradientUnits="userSpaceOnUse">
<stop stop-color="#A4812D"/>
<stop offset="0.1869" stop-color="#B59140"/>
<stop offset="0.3555" stop-color="#C39F52"/>
<stop offset="0.3662" stop-color="#C4A053"/>
<stop offset="0.9038" stop-color="#EFD995"/>
<stop offset="1" stop-color="#F4E3B9"/>
</linearGradient>
<linearGradient id="paint27_linear_59_268" x1="90.0399" y1="43.3616" x2="94.4137" y2="43.3616" gradientUnits="userSpaceOnUse">
<stop stop-color="#A4812D"/>
<stop offset="0.1869" stop-color="#B59140"/>
<stop offset="0.3555" stop-color="#C39F52"/>
<stop offset="0.3662" stop-color="#C4A053"/>
<stop offset="0.9038" stop-color="#EFD995"/>
<stop offset="1" stop-color="#F4E3B9"/>
</linearGradient>
<linearGradient id="paint28_linear_59_268" x1="96.4529" y1="43.3869" x2="99.8033" y2="43.3869" gradientUnits="userSpaceOnUse">
<stop stop-color="#A4812D"/>
<stop offset="0.1869" stop-color="#B59140"/>
<stop offset="0.3555" stop-color="#C39F52"/>
<stop offset="0.3662" stop-color="#C4A053"/>
<stop offset="0.9038" stop-color="#EFD995"/>
<stop offset="1" stop-color="#F4E3B9"/>
</linearGradient>
<linearGradient id="paint29_linear_59_268" x1="96.0766" y1="43.3669" x2="100.243" y2="43.3669" gradientUnits="userSpaceOnUse">
<stop stop-color="#A4812D"/>
<stop offset="0.1869" stop-color="#B59140"/>
<stop offset="0.3555" stop-color="#C39F52"/>
<stop offset="0.3662" stop-color="#C4A053"/>
<stop offset="0.9038" stop-color="#EFD995"/>
<stop offset="1" stop-color="#F4E3B9"/>
</linearGradient>
<linearGradient id="paint30_linear_59_268" x1="102.752" y1="43.3631" x2="106.335" y2="43.3631" gradientUnits="userSpaceOnUse">
<stop stop-color="#A4812D"/>
<stop offset="0.1869" stop-color="#B59140"/>
<stop offset="0.3555" stop-color="#C39F52"/>
<stop offset="0.3662" stop-color="#C4A053"/>
<stop offset="0.9038" stop-color="#EFD995"/>
<stop offset="1" stop-color="#F4E3B9"/>
</linearGradient>
<linearGradient id="paint31_linear_59_268" x1="102.349" y1="43.3616" x2="106.739" y2="43.3616" gradientUnits="userSpaceOnUse">
<stop stop-color="#A4812D"/>
<stop offset="0.1869" stop-color="#B59140"/>
<stop offset="0.3555" stop-color="#C39F52"/>
<stop offset="0.3662" stop-color="#C4A053"/>
<stop offset="0.9038" stop-color="#EFD995"/>
<stop offset="1" stop-color="#F4E3B9"/>
</linearGradient>
<linearGradient id="paint32_linear_59_268" x1="109.273" y1="43.3631" x2="111.984" y2="43.3631" gradientUnits="userSpaceOnUse">
<stop stop-color="#A4812D"/>
<stop offset="0.1869" stop-color="#B59140"/>
<stop offset="0.3555" stop-color="#C39F52"/>
<stop offset="0.3662" stop-color="#C4A053"/>
<stop offset="0.9038" stop-color="#EFD995"/>
<stop offset="1" stop-color="#F4E3B9"/>
</linearGradient>
<linearGradient id="paint33_linear_59_268" x1="108.87" y1="43.3616" x2="112.389" y2="43.3616" gradientUnits="userSpaceOnUse">
<stop stop-color="#A4812D"/>
<stop offset="0.1869" stop-color="#B59140"/>
<stop offset="0.3555" stop-color="#C39F52"/>
<stop offset="0.3662" stop-color="#C4A053"/>
<stop offset="0.9038" stop-color="#EFD995"/>
<stop offset="1" stop-color="#F4E3B9"/>
</linearGradient>
<linearGradient id="paint34_linear_59_268" x1="114.834" y1="43.3631" x2="119.256" y2="43.3631" gradientUnits="userSpaceOnUse">
<stop stop-color="#A4812D"/>
<stop offset="0.1869" stop-color="#B59140"/>
<stop offset="0.3555" stop-color="#C39F52"/>
<stop offset="0.3662" stop-color="#C4A053"/>
<stop offset="0.9038" stop-color="#EFD995"/>
<stop offset="1" stop-color="#F4E3B9"/>
</linearGradient>
<linearGradient id="paint35_linear_59_268" x1="114.431" y1="43.3616" x2="119.677" y2="43.3616" gradientUnits="userSpaceOnUse">
<stop stop-color="#A4812D"/>
<stop offset="0.1869" stop-color="#B59140"/>
<stop offset="0.3555" stop-color="#C39F52"/>
<stop offset="0.3662" stop-color="#C4A053"/>
<stop offset="0.9038" stop-color="#EFD995"/>
<stop offset="1" stop-color="#F4E3B9"/>
</linearGradient>
</defs>
</svg>
