<svg width="46" height="46" viewBox="0 0 46 46" fill="none" xmlns="http://www.w3.org/2000/svg">
<path d="M23.0002 42.1667C33.5857 42.1667 42.1669 33.5855 42.1669 23C42.1669 12.4146 33.5857 3.83334 23.0002 3.83334C12.4147 3.83334 3.8335 12.4146 3.8335 23C3.8335 33.5855 12.4147 42.1667 23.0002 42.1667Z" stroke="white" stroke-width="2" stroke-linecap="round" stroke-linejoin="round"/>
<path d="M3.8335 23H42.1669" stroke="white" stroke-width="2" stroke-linecap="round" stroke-linejoin="round"/>
<path d="M23.0002 3.83334C27.7943 9.08185 30.5188 15.8931 30.6669 23C30.5188 30.1069 27.7943 36.9182 23.0002 42.1667C18.2061 36.9182 15.4816 30.1069 15.3335 23C15.4816 15.8931 18.2061 9.08185 23.0002 3.83334Z" stroke="white" stroke-width="2" stroke-linecap="round" stroke-linejoin="round"/>
<path d="M43.5 8.33337C43.5 14.1667 36 19.1667 36 19.1667C36 19.1667 28.5 14.1667 28.5 8.33337C28.5 6.34425 29.2902 4.43659 30.6967 3.03007C32.1032 1.62355 34.0109 0.833374 36 0.833374C37.9891 0.833374 39.8968 1.62355 41.3033 3.03007C42.7098 4.43659 43.5 6.34425 43.5 8.33337Z" fill="white" stroke="black" stroke-width="1.5" stroke-linecap="round" stroke-linejoin="round"/>
<path d="M36 10.8333C37.3807 10.8333 38.5 9.71406 38.5 8.33334C38.5 6.95263 37.3807 5.83334 36 5.83334C34.6193 5.83334 33.5 6.95263 33.5 8.33334C33.5 9.71406 34.6193 10.8333 36 10.8333Z" fill="black" stroke="black" stroke-width="2" stroke-linecap="round" stroke-linejoin="round"/>
</svg>
