<svg width="144" height="162" viewBox="0 0 144 162" fill="none" xmlns="http://www.w3.org/2000/svg">
<g filter="url(#filter0_d_69_69)">
<path d="M66.4623 149.77C99.6526 149.77 126.559 118.428 126.559 79.7658C126.559 41.1036 99.6526 9.76172 66.4623 9.76172C33.272 9.76172 6.36597 41.1036 6.36597 79.7658C6.36597 118.428 33.272 149.77 66.4623 149.77Z" fill="white"/>
<path d="M111.391 73.2046C111.391 70.227 110.021 64.2718 106.124 60.9296C108.705 58.4381 110.074 54.8529 110.074 50.6599C110.074 39.4787 103.701 32.7943 93.009 32.7943H70.7823V46.3454H93.009C97.1699 46.3454 98.276 49.323 98.276 50.903C98.276 51.8145 98.276 54.6098 93.009 54.6098H70.7823V81.469H74.2585V58.8027H93.009C100.91 58.8027 101.752 53.2729 101.752 50.903C101.752 47.3785 99.4347 42.1525 93.009 42.1525H74.2585V37.048H93.009C98.118 37.048 106.651 38.8103 106.651 50.7207C106.651 54.6706 105.018 57.5874 101.858 59.2889L97.5386 61.598L102.068 63.178C106.229 64.6364 107.967 70.4701 107.967 73.2654C107.967 82.6236 103.069 87.1204 93.009 87.1204H91.2709H66.358V55.7036H43.7627V69.0724H55.192V75.5746C52.1372 78.3091 49.7143 78.856 46.8702 78.856C36.8102 78.856 33.2287 70.5916 33.2287 62.8134C33.2287 52.1791 38.601 45.3124 46.8702 45.3124C50.5044 45.3124 54.5073 47.1962 57.0355 50.1738L58.2995 51.6322L65.9367 42.1525L64.7253 40.694C59.985 34.9211 53.6646 31.7612 46.9228 31.7612C29.5418 31.7612 21.5886 47.8646 21.5886 62.8742C21.5886 77.276 28.225 92.711 46.9228 92.711H48.661V88.518H46.9228C26.6449 88.518 25.0648 68.9509 25.0648 62.9349C25.0648 49.5661 31.8066 36.015 46.9228 36.015C52.1898 36.015 57.0881 38.2026 61.0384 42.274L58.1942 45.8593C55.0867 42.9424 50.9258 41.1802 46.9755 41.1802C36.9156 41.1802 29.8578 50.113 29.8578 62.9349C29.8578 72.2931 34.3347 83.1705 46.9755 83.1705C51.3471 83.1705 54.56 81.7728 58.1415 78.3699L58.8262 77.7622V65.001H47.3969V60.0789H63.0398V87.3027V91.4956H66.516H91.4289H93.167H94.9051V91.4349C108.441 90.5841 111.391 81.1652 111.391 73.2046Z" fill="#9B7030"/>
<path d="M103.067 73.1445C103.067 66.6424 97.0629 63.604 93.0073 63.604H79.0498V81.7735H92.9547C97.6423 81.7735 103.067 79.5251 103.067 73.1445ZM82.526 67.797H93.0073C95.6935 67.797 99.6437 69.6808 99.6437 73.1445C99.6437 77.459 93.692 77.5805 93.0073 77.5805H82.526V67.797Z" fill="#9B7030"/>
<path d="M29.0166 140.29C27.9632 140.473 26.3305 141.263 26.7518 143.025C27.0152 144.058 27.6999 144.24 28.5953 144.483C31.6501 145.334 32.4402 145.091 39.814 147.218C49.4526 150.013 51.5594 150.986 51.5594 150.986C51.5594 150.986 34.4943 139.318 29.0166 140.29Z" fill="#9B7030"/>
<path d="M28.542 149.833C28.8054 150.562 29.5954 151.352 36.6005 151.595C42.2889 151.777 46.0284 151.656 48.4512 152.02C47.6085 151.899 44.4483 150.866 34.7571 148.496C30.6488 147.402 27.91 148.01 28.542 149.833Z" fill="#9B7030"/>
<path d="M121.03 22.7088C108.494 8.91462 90.9026 0.285645 71.4147 0.285645C48.5033 0.285645 28.1201 12.2568 15.5847 30.6086C-2.16508 56.5563 -1.11169 97.8782 19.1135 118.235C5.05069 97.149 3.57593 68.3452 16.0587 45.4359C20.325 37.6576 25.9606 30.9124 32.6497 25.6864C42.341 18.0905 54.1917 13.6545 66.9905 13.6545C76.313 13.6545 85.1616 16.0244 93.0094 20.2781C103.859 26.1118 113.024 35.4092 118.765 47.0766C139.201 89.0061 108.336 130.875 92.4827 129.599C87.321 128.505 82.8441 129.781 79.4732 129.052C71.1514 127.29 70.256 124.19 67.9912 124.677C67.9912 124.677 65.0417 125.224 67.0958 129.416C68.8866 131.908 71.3094 133.306 73.8376 134.278C76.2604 135.25 77.8931 137.802 77.6298 139.625C77.6298 139.625 64.5677 149.166 53.0856 141.935C42.0249 135.007 35.9152 129.963 30.5956 131.118C30.2269 131.179 29.8582 131.361 29.5949 131.543C28.1728 132.516 28.0148 134.582 29.9635 135.615C31.3856 136.344 36.3893 135.736 51.5582 148.923C59.4587 155.79 69.94 156.215 79.7366 155.425C109.126 152.994 140.412 122.064 140.412 73.4497C140.36 53.8218 132.986 35.8954 121.03 22.7088Z" fill="#9B7030"/>
<path d="M53.4527 139.626C53.4527 139.626 48.2384 128.323 61.6166 119.147C61.6166 119.147 67.5683 124.92 65.4088 132.394C64.4607 135.676 62.4593 139.808 56.3496 141.388C56.3496 141.388 62.4066 136.405 60.8265 127.047C60.8792 126.986 59.1937 136.77 53.4527 139.626Z" fill="#619F43"/>
<path d="M49.0321 137.507C49.0321 137.507 43.7615 134.223 43.6034 129.115C43.4453 123.46 48.6104 121.454 48.6104 121.454C48.6104 121.454 53.5647 125.224 51.8254 131.122C51.5619 131.973 50.0862 134.953 50.0862 134.953C50.0862 134.953 48.3996 130.94 48.6104 127.291C48.6631 127.291 47.4509 129.48 49.0321 137.507Z" fill="#97CA54"/>
<path d="M26.6217 98.4V97.8315L28.6745 97.8282V99.6264C28.3594 99.8777 28.0343 100.067 27.6994 100.195C27.3644 100.321 27.0206 100.383 26.668 100.383C26.192 100.383 25.759 100.282 25.3689 100.079C24.981 99.8744 24.6879 99.5791 24.4896 99.1934C24.2913 98.8077 24.1921 98.3769 24.1921 97.9009C24.1921 97.4293 24.2902 96.9897 24.4863 96.582C24.6846 96.1721 24.9689 95.8679 25.3392 95.6696C25.7094 95.4713 26.1358 95.3721 26.6184 95.3721C26.9688 95.3721 27.2851 95.4294 27.5671 95.544C27.8514 95.6564 28.074 95.814 28.2349 96.0167C28.3957 96.2194 28.5181 96.4839 28.6018 96.81L28.0233 96.9687C27.9506 96.7219 27.8602 96.528 27.7523 96.3869C27.6443 96.2459 27.49 96.1335 27.2895 96.0498C27.0889 95.9638 26.8663 95.9208 26.6217 95.9208C26.3286 95.9208 26.0752 95.966 25.8614 96.0564C25.6477 96.1445 25.4747 96.2613 25.3425 96.4068C25.2124 96.5522 25.1111 96.712 25.0383 96.8861C24.9149 97.1858 24.8532 97.5108 24.8532 97.8612C24.8532 98.2932 24.927 98.6546 25.0747 98.9455C25.2246 99.2364 25.4416 99.4523 25.7259 99.5934C26.0102 99.7344 26.3121 99.8049 26.6316 99.8049C26.9093 99.8049 27.1804 99.752 27.4448 99.6463C27.7093 99.5383 27.9098 99.4237 28.0465 99.3025V98.4H26.6217ZM32.8032 95.4547H33.4445V98.2546C33.4445 98.7416 33.3894 99.1284 33.2793 99.4149C33.1691 99.7014 32.9696 99.935 32.6809 100.116C32.3944 100.294 32.0176 100.383 31.5504 100.383C31.0964 100.383 30.7251 100.305 30.4364 100.149C30.1477 99.9923 29.9417 99.7664 29.8183 99.4711C29.6949 99.1736 29.6332 98.7681 29.6332 98.2546V95.4547H30.2744V98.2513C30.2744 98.6722 30.313 98.9829 30.3901 99.1835C30.4695 99.3818 30.6039 99.535 30.7934 99.643C30.9852 99.7509 31.2187 99.8049 31.4942 99.8049C31.9658 99.8049 32.3019 99.6981 32.5024 99.4843C32.703 99.2705 32.8032 98.8595 32.8032 98.2513V95.4547ZM34.5156 100.301V95.4547H36.3436C36.6653 95.4547 36.911 95.4702 37.0807 95.501C37.3187 95.5407 37.5182 95.6167 37.679 95.7291C37.8399 95.8393 37.9688 95.9947 38.0658 96.1952C38.165 96.3957 38.2145 96.6161 38.2145 96.8563C38.2145 97.2684 38.0834 97.6177 37.8212 97.9042C37.5589 98.1885 37.0851 98.3306 36.3998 98.3306H35.1568V100.301H34.5156ZM35.1568 97.7588H36.4097C36.824 97.7588 37.1182 97.6816 37.2923 97.5274C37.4664 97.3731 37.5534 97.156 37.5534 96.8762C37.5534 96.6734 37.5016 96.5004 37.3981 96.3572C37.2967 96.2117 37.1623 96.1159 36.9948 96.0696C36.8868 96.0409 36.6873 96.0266 36.3965 96.0266H35.1568V97.7588ZM40.264 100.301V96.0266H38.6674V95.4547H42.5085V96.0266H40.9053V100.301H40.264ZM42.135 100.301L43.9961 95.4547H44.6869L46.6703 100.301H45.9398L45.3745 98.8331H43.3482L42.816 100.301H42.135ZM43.5333 98.3108H45.1762L44.6704 96.9687C44.5162 96.561 44.4016 96.2261 44.3266 95.9638C44.2649 96.2745 44.1779 96.5831 44.0655 96.8894L43.5333 98.3108ZM48.6636 100.301V95.4547H50.4817C50.8519 95.4547 51.1483 95.5043 51.3709 95.6035C51.5957 95.7005 51.7709 95.8514 51.8965 96.0564C52.0243 96.2591 52.0882 96.4718 52.0882 96.6943C52.0882 96.9015 52.032 97.0965 51.9196 97.2794C51.8073 97.4624 51.6376 97.61 51.4106 97.7224C51.7037 97.8083 51.9285 97.9549 52.0849 98.162C52.2436 98.3692 52.3229 98.6138 52.3229 98.8959C52.3229 99.1229 52.2744 99.3344 52.1775 99.5306C52.0827 99.7245 51.9648 99.8744 51.8238 99.9801C51.6827 100.086 51.5053 100.166 51.2916 100.221C51.08 100.274 50.82 100.301 50.5115 100.301H48.6636ZM49.3049 97.491H50.3528C50.6371 97.491 50.8409 97.4723 50.9643 97.4348C51.1274 97.3863 51.2497 97.3059 51.3312 97.1935C51.415 97.0811 51.4569 96.9401 51.4569 96.7704C51.4569 96.6095 51.4183 96.4685 51.3412 96.3473C51.264 96.2238 51.1538 96.1401 51.0106 96.096C50.8674 96.0498 50.6216 96.0266 50.2734 96.0266H49.3049V97.491ZM49.3049 99.7289H50.5115C50.7186 99.7289 50.8641 99.7212 50.9478 99.7058C51.0954 99.6793 51.2189 99.6352 51.318 99.5735C51.4172 99.5118 51.4987 99.4226 51.5626 99.3058C51.6265 99.1868 51.6585 99.0502 51.6585 98.8959C51.6585 98.7152 51.6122 98.5587 51.5197 98.4265C51.4271 98.2921 51.2982 98.1984 51.1329 98.1455C50.9698 98.0904 50.734 98.0629 50.4255 98.0629H49.3049V99.7289ZM53.2154 100.301V95.4547H55.3641C55.796 95.4547 56.1244 95.4988 56.3492 95.587C56.574 95.6729 56.7536 95.8261 56.888 96.0464C57.0224 96.2668 57.0896 96.5103 57.0896 96.777C57.0896 97.1208 56.9783 97.4106 56.7558 97.6464C56.5332 97.8822 56.1894 98.032 55.7244 98.0959C55.8941 98.1775 56.023 98.2579 56.1112 98.3372C56.2985 98.5091 56.4759 98.724 56.6434 98.9818L57.4863 100.301H56.6797L56.0384 99.2926C55.8511 99.0017 55.6969 98.7791 55.5757 98.6248C55.4545 98.4706 55.3454 98.3626 55.2484 98.3009C55.1536 98.2392 55.0567 98.1962 54.9575 98.172C54.8848 98.1565 54.7658 98.1488 54.6005 98.1488H53.8567V100.301H53.2154ZM53.8567 97.5935H55.2352C55.5283 97.5935 55.7575 97.5637 55.9228 97.5042C56.088 97.4425 56.2136 97.3456 56.2996 97.2133C56.3855 97.0789 56.4285 96.9335 56.4285 96.777C56.4285 96.5478 56.3448 96.3594 56.1773 96.2117C56.012 96.0641 55.7498 95.9903 55.3905 95.9903H53.8567V97.5935ZM57.5656 100.301L59.4267 95.4547H60.1176L62.101 100.301H61.3704L60.8052 98.8331H58.7788L58.2466 100.301H57.5656ZM58.9639 98.3108H60.6068L60.1011 96.9687C59.9468 96.561 59.8322 96.2261 59.7573 95.9638C59.6956 96.2745 59.6085 96.5831 59.4961 96.8894L58.9639 98.3108ZM62.6067 100.301V95.4547H63.2645L65.8099 99.2595V95.4547H66.4247V100.301H65.7669L63.2216 96.4927V100.301H62.6067ZM67.5056 100.301V95.4547H69.175C69.5518 95.4547 69.8394 95.4779 70.0378 95.5242C70.3154 95.5881 70.5523 95.7038 70.7485 95.8712C71.0041 96.0872 71.1947 96.3638 71.3203 96.701C71.4482 97.0359 71.5121 97.4194 71.5121 97.8513C71.5121 98.2193 71.4691 98.5455 71.3831 98.8298C71.2972 99.1141 71.187 99.3499 71.0526 99.5372C70.9182 99.7223 70.7705 99.8688 70.6096 99.9768C70.451 100.083 70.2581 100.163 70.0311 100.218C69.8064 100.273 69.5474 100.301 69.2543 100.301H67.5056ZM68.1469 99.7289H69.1816C69.5011 99.7289 69.7513 99.6992 69.932 99.6397C70.1149 99.5802 70.2603 99.4964 70.3683 99.3884C70.5204 99.2364 70.6383 99.0325 70.722 98.7769C70.808 98.5191 70.8509 98.2072 70.8509 97.8414C70.8509 97.3345 70.7672 96.9456 70.5997 96.6745C70.4344 96.4013 70.2328 96.2183 69.9948 96.1258C69.8229 96.0597 69.5463 96.0266 69.1651 96.0266H68.1469V99.7289ZM72.1798 98.7438L72.7847 98.6909C72.8134 98.9334 72.8795 99.1328 72.9831 99.2893C73.0888 99.4435 73.2519 99.5691 73.4723 99.6661C73.6927 99.7609 73.9406 99.8082 74.2161 99.8082C74.4607 99.8082 74.6766 99.7719 74.864 99.6992C75.0513 99.6264 75.1901 99.5273 75.2805 99.4017C75.373 99.2738 75.4193 99.135 75.4193 98.9851C75.4193 98.8331 75.3752 98.7009 75.2871 98.5885C75.1989 98.4739 75.0535 98.378 74.8507 98.3009C74.7207 98.2502 74.4331 98.172 73.988 98.0662C73.5428 97.9582 73.231 97.8568 73.0525 97.7621C72.8211 97.6409 72.6481 97.491 72.5335 97.3125C72.4211 97.1318 72.3649 96.9301 72.3649 96.7076C72.3649 96.463 72.4343 96.2349 72.5732 96.0233C72.712 95.8095 72.9147 95.6476 73.1814 95.5374C73.4481 95.4272 73.7445 95.3721 74.0706 95.3721C74.4298 95.3721 74.7461 95.4305 75.0193 95.5473C75.2948 95.6619 75.5064 95.8316 75.654 96.0564C75.8017 96.2811 75.881 96.5357 75.892 96.82L75.2772 96.8662C75.2441 96.5599 75.1317 96.3285 74.94 96.1721C74.7505 96.0156 74.4695 95.9374 74.0971 95.9374C73.7092 95.9374 73.426 96.009 73.2475 96.1522C73.0712 96.2933 72.9831 96.4641 72.9831 96.6646C72.9831 96.8387 73.0459 96.9819 73.1715 97.0943C73.2949 97.2067 73.6166 97.3224 74.1367 97.4414C74.659 97.5582 75.0171 97.6607 75.2111 97.7488C75.4931 97.8789 75.7014 98.0441 75.8358 98.2447C75.9702 98.443 76.0375 98.6722 76.0375 98.9323C76.0375 99.1901 75.9636 99.4336 75.816 99.6628C75.6683 99.8898 75.4557 100.067 75.178 100.195C74.9025 100.321 74.5918 100.383 74.2458 100.383C73.8073 100.383 73.4392 100.32 73.1417 100.192C72.8464 100.064 72.6139 99.8722 72.4442 99.6165C72.2768 99.3587 72.1886 99.0678 72.1798 98.7438Z" fill="#619F43"/>
</g>
<defs>
<filter id="filter0_d_69_69" x="0.047791" y="0.285645" width="143.373" height="161.446" filterUnits="userSpaceOnUse" color-interpolation-filters="sRGB">
<feFlood flood-opacity="0" result="BackgroundImageFix"/>
<feColorMatrix in="SourceAlpha" type="matrix" values="0 0 0 0 0 0 0 0 0 0 0 0 0 0 0 0 0 0 127 0" result="hardAlpha"/>
<feOffset dy="3.00885"/>
<feGaussianBlur stdDeviation="1.50442"/>
<feComposite in2="hardAlpha" operator="out"/>
<feColorMatrix type="matrix" values="0 0 0 0 0 0 0 0 0 0 0 0 0 0 0 0 0 0 0.25 0"/>
<feBlend mode="normal" in2="BackgroundImageFix" result="effect1_dropShadow_69_69"/>
<feBlend mode="normal" in="SourceGraphic" in2="effect1_dropShadow_69_69" result="shape"/>
</filter>
</defs>
</svg>
