<svg width="93" height="92" viewBox="0 0 93 92" fill="none" xmlns="http://www.w3.org/2000/svg">
<g filter="url(#filter0_d_59_93)">
<path d="M43.0061 81.7491C63.9476 81.7491 80.924 64.609 80.924 43.4656C80.924 22.3222 63.9476 5.18213 43.0061 5.18213C22.0646 5.18213 5.08813 22.3222 5.08813 43.4656C5.08813 64.609 22.0646 81.7491 43.0061 81.7491Z" fill="white"/>
<path d="M71.3538 39.8776C71.3538 38.2492 70.4897 34.9925 68.0305 33.1647C69.6589 31.8022 70.523 29.8415 70.523 27.5485C70.523 21.4337 66.5019 17.7782 59.7557 17.7782H45.7317V25.189H59.7557C62.3811 25.189 63.079 26.8174 63.079 27.6814C63.079 28.1799 63.079 29.7086 59.7557 29.7086H45.7317V44.3972H47.9251V32.0016H59.7557C64.7406 32.0016 65.2723 28.9775 65.2723 27.6814C65.2723 25.7539 63.8101 22.896 59.7557 22.896H47.9251V20.1045H59.7557C62.9793 20.1045 68.3629 21.0682 68.3629 27.5817C68.3629 29.7418 67.3327 31.3369 65.3387 32.2674L62.6137 33.5303L65.4717 34.3943C68.097 35.1919 69.1937 38.3822 69.1937 39.9108C69.1937 45.0286 66.1031 47.4878 59.7557 47.4878H58.6591H42.9402V30.3067H28.6836V37.6178H35.895V41.1737C33.9675 42.6691 32.4389 42.9682 30.6443 42.9682C24.297 42.9682 22.0372 38.4486 22.0372 34.1949C22.0372 28.3793 25.4269 24.624 30.6443 24.624C32.9373 24.624 35.463 25.6542 37.0581 27.2826L37.8557 28.0802L42.6744 22.896L41.91 22.0984C38.9191 18.9413 34.9313 17.2133 30.6776 17.2133C19.7109 17.2133 14.6929 26.0198 14.6929 34.2281C14.6929 42.1042 18.8801 50.5452 30.6776 50.5452H31.7742V48.2521H30.6776C17.8832 48.2521 16.8862 37.5514 16.8862 34.2614C16.8862 26.9503 21.1399 19.5395 30.6776 19.5395C34.0008 19.5395 37.0914 20.7359 39.5838 22.9624L37.7892 24.9231C35.8285 23.328 33.2032 22.3642 30.7108 22.3642C24.3634 22.3642 19.9103 27.2494 19.9103 34.2614C19.9103 39.3791 22.7351 45.3277 30.7108 45.3277C33.4691 45.3277 35.4962 44.5634 37.756 42.7024L38.188 42.37V35.3913H30.9766V32.6995H40.8466V47.5875V49.8805H43.0399H58.7588H59.8554H60.9521V49.8473C69.4928 49.382 71.3538 44.231 71.3538 39.8776Z" fill="#9B7030"/>
<path d="M66.1019 39.8449C66.1019 36.2891 62.3134 34.6274 59.7545 34.6274H50.948V44.5639H59.7213C62.679 44.5639 66.1019 43.3343 66.1019 39.8449ZM53.1413 36.9205H59.7545C61.4494 36.9205 63.9418 37.9507 63.9418 39.8449C63.9418 42.2044 60.1865 42.2708 59.7545 42.2708H53.1413V36.9205Z" fill="#9B7030"/>
<path d="M19.3796 76.5653C18.715 76.665 17.6848 77.097 17.9506 78.0607C18.1168 78.6257 18.5488 78.7254 19.1137 78.8583C21.0412 79.3236 21.5397 79.1906 26.1922 80.3538C32.2737 81.8824 33.603 82.4142 33.603 82.4142C33.603 82.4142 22.8357 76.0336 19.3796 76.5653Z" fill="#9B7030"/>
<path d="M19.0801 81.7835C19.2463 82.1823 19.7448 82.6143 24.1646 82.7473C27.7537 82.847 30.1132 82.7805 31.6419 82.9799C31.1102 82.9134 29.1162 82.3485 23.0015 81.0524C20.4094 80.4542 18.6813 80.7866 19.0801 81.7835Z" fill="#9B7030"/>
<path d="M77.4354 12.2627C69.5262 4.71897 58.4266 0 46.1307 0C31.6747 0 18.8138 6.54674 10.9046 16.5829C-0.294659 30.773 0.369983 53.3709 13.1311 64.5037C4.25815 52.9721 3.32765 37.2201 11.2037 24.6915C13.8955 20.4378 17.4513 16.749 21.6718 13.8911C27.7865 9.73703 35.2638 7.31108 43.3392 7.31108C49.2213 7.31108 54.8043 8.60714 59.7559 10.9334C66.6017 14.1237 72.3841 19.2082 76.0064 25.5888C88.9005 48.519 69.4265 71.416 59.4236 70.7181C56.1668 70.1199 53.3421 70.8178 51.2152 70.419C45.9645 69.4553 45.3996 67.7605 43.9706 68.0263C43.9706 68.0263 42.1096 68.3254 43.4057 70.6184C44.5356 71.9809 46.0642 72.7453 47.6594 73.277C49.1881 73.8087 50.2183 75.2045 50.0521 76.2014C50.0521 76.2014 41.8105 81.4189 34.5659 77.4643C27.5871 73.6758 23.7322 70.9175 20.3758 71.5489C20.1431 71.5822 19.9105 71.6818 19.7444 71.7815C18.8471 72.3133 18.7474 73.4432 19.977 74.0081C20.8742 74.4069 24.0313 74.0746 33.6022 81.286C38.587 85.0412 45.2002 85.2738 51.3814 84.8418C69.9249 83.5125 89.6649 66.5973 89.6649 40.0116C89.6316 29.2776 84.9791 19.4741 77.4354 12.2627Z" fill="#9B7030"/>
<path d="M34.7973 76.2016C34.7973 76.2016 31.5073 70.0204 39.9483 65.0023C39.9483 65.0023 43.7036 68.1594 42.341 72.2469C41.7429 74.0415 40.48 76.3013 36.6251 77.1653C36.6251 77.1653 40.4468 74.4403 39.4498 69.3225C39.4831 69.2893 38.4196 74.6397 34.7973 76.2016Z" fill="#619F43"/>
<path d="M32.008 75.043C32.008 75.043 28.6826 73.2472 28.5828 70.4539C28.483 67.3612 31.742 66.2638 31.742 66.2638C31.742 66.2638 34.8679 68.3256 33.7705 71.5513C33.6043 72.0168 32.6731 73.6463 32.6731 73.6463C32.6731 73.6463 31.609 71.4515 31.742 69.4562C31.7752 69.4562 31.0104 70.6534 32.008 75.043Z" fill="#97CA54"/>
<path d="M18.8981 55.5137V54.9451L20.9509 54.9418V56.7401C20.6358 56.9913 20.3107 57.1808 19.9757 57.3086C19.6408 57.4343 19.297 57.4971 18.9444 57.4971C18.4684 57.4971 18.0353 57.3957 17.6453 57.193C17.2574 56.988 16.9643 56.6927 16.766 56.307C16.5676 55.9214 16.4685 55.4906 16.4685 55.0145C16.4685 54.5429 16.5665 54.1033 16.7627 53.6956C16.961 53.2857 17.2453 52.9816 17.6155 52.7833C17.9857 52.5849 18.4122 52.4857 18.8948 52.4857C19.2452 52.4857 19.5614 52.543 19.8435 52.6576C20.1278 52.77 20.3504 52.9276 20.5112 53.1303C20.6721 53.3331 20.7944 53.5975 20.8782 53.9237L20.2997 54.0824C20.227 53.8355 20.1366 53.6416 20.0286 53.5006C19.9206 53.3595 19.7664 53.2471 19.5658 53.1634C19.3653 53.0775 19.1427 53.0345 18.8981 53.0345C18.605 53.0345 18.3516 53.0797 18.1378 53.17C17.924 53.2582 17.751 53.375 17.6188 53.5204C17.4888 53.6659 17.3874 53.8256 17.3147 53.9997C17.1913 54.2994 17.1296 54.6245 17.1296 54.9749C17.1296 55.4068 17.2034 55.7682 17.3511 56.0591C17.5009 56.35 17.718 56.566 18.0023 56.707C18.2866 56.8481 18.5885 56.9186 18.908 56.9186C19.1857 56.9186 19.4567 56.8657 19.7212 56.7599C19.9856 56.6519 20.1862 56.5373 20.3228 56.4161V55.5137H18.8981ZM25.0796 52.5684H25.7209V55.3682C25.7209 55.8553 25.6658 56.242 25.5556 56.5285C25.4454 56.815 25.246 57.0486 24.9573 57.2293C24.6708 57.4078 24.294 57.4971 23.8268 57.4971C23.3728 57.4971 23.0015 57.4188 22.7128 57.2624C22.4241 57.1059 22.218 56.88 22.0946 56.5847C21.9712 56.2872 21.9095 55.8817 21.9095 55.3682V52.5684H22.5508V55.3649C22.5508 55.7859 22.5894 56.0966 22.6665 56.2971C22.7458 56.4955 22.8803 56.6486 23.0698 56.7566C23.2615 56.8646 23.4951 56.9186 23.7706 56.9186C24.2422 56.9186 24.5783 56.8117 24.7788 56.5979C24.9793 56.3842 25.0796 55.9732 25.0796 55.3649V52.5684ZM26.7919 57.4144V52.5684H28.6199C28.9417 52.5684 29.1874 52.5838 29.3571 52.6147C29.5951 52.6543 29.7945 52.7304 29.9554 52.8428C30.1163 52.9529 30.2452 53.1083 30.3422 53.3088C30.4413 53.5094 30.4909 53.7298 30.4909 53.97C30.4909 54.3821 30.3598 54.7314 30.0975 55.0179C29.8353 55.3021 29.3615 55.4443 28.6761 55.4443H27.4332V57.4144H26.7919ZM27.4332 54.8724H28.686C29.1003 54.8724 29.3945 54.7953 29.5686 54.641C29.7427 54.4868 29.8298 54.2697 29.8298 53.9898C29.8298 53.7871 29.778 53.6141 29.6744 53.4708C29.573 53.3254 29.4386 53.2295 29.2711 53.1832C29.1632 53.1546 28.9637 53.1403 28.6728 53.1403H27.4332V54.8724ZM32.5404 57.4144V53.1403H30.9438V52.5684H34.7849V53.1403H33.1817V57.4144H32.5404ZM34.4114 57.4144L36.2724 52.5684H36.9633L38.9467 57.4144H38.2161L37.6509 55.9467H35.6245L35.0923 57.4144H34.4114ZM35.8097 55.4244H37.4525L36.9468 54.0824C36.7925 53.6747 36.6779 53.3397 36.603 53.0775C36.5413 53.3882 36.4543 53.6967 36.3419 54.003L35.8097 55.4244ZM40.94 57.4144V52.5684H42.7581C43.1283 52.5684 43.4247 52.618 43.6473 52.7171C43.8721 52.8141 44.0473 52.9651 44.1729 53.17C44.3007 53.3728 44.3646 53.5854 44.3646 53.808C44.3646 54.0151 44.3084 54.2102 44.196 54.3931C44.0836 54.576 43.9139 54.7237 43.6869 54.836C43.98 54.922 44.2048 55.0685 44.3613 55.2757C44.52 55.4828 44.5993 55.7275 44.5993 56.0095C44.5993 56.2365 44.5508 56.4481 44.4539 56.6442C44.3591 56.8381 44.2412 56.988 44.1002 57.0938C43.9591 57.1996 43.7817 57.28 43.5679 57.3351C43.3564 57.388 43.0963 57.4144 42.7878 57.4144H40.94ZM41.5813 54.6047H42.6291C42.9134 54.6047 43.1173 54.5859 43.2407 54.5485C43.4038 54.5 43.5261 54.4195 43.6076 54.3071C43.6914 54.1948 43.7332 54.0537 43.7332 53.884C43.7332 53.7232 43.6947 53.5821 43.6175 53.4609C43.5404 53.3375 43.4302 53.2538 43.287 53.2097C43.1437 53.1634 42.898 53.1403 42.5498 53.1403H41.5813V54.6047ZM41.5813 56.8426H42.7878C42.995 56.8426 43.1404 56.8348 43.2242 56.8194C43.3718 56.793 43.4952 56.7489 43.5944 56.6872C43.6936 56.6255 43.7751 56.5362 43.839 56.4194C43.9029 56.3004 43.9349 56.1638 43.9349 56.0095C43.9349 55.8288 43.8886 55.6724 43.796 55.5401C43.7035 55.4057 43.5746 55.3121 43.4093 55.2592C43.2462 55.2041 43.0104 55.1765 42.7019 55.1765H41.5813V56.8426ZM45.4918 57.4144V52.5684H47.6405C48.0724 52.5684 48.4008 52.6125 48.6255 52.7006C48.8503 52.7866 49.0299 52.9397 49.1644 53.1601C49.2988 53.3805 49.366 53.624 49.366 53.8906C49.366 54.2344 49.2547 54.5242 49.0321 54.76C48.8096 54.9958 48.4658 55.1457 48.0008 55.2096C48.1705 55.2911 48.2994 55.3716 48.3875 55.4509C48.5749 55.6228 48.7523 55.8376 48.9197 56.0955L49.7627 57.4144H48.9561L48.3148 56.4062C48.1275 56.1153 47.9732 55.8927 47.852 55.7385C47.7308 55.5842 47.6217 55.4762 47.5248 55.4145C47.43 55.3528 47.333 55.3099 47.2339 55.2856C47.1612 55.2702 47.0422 55.2625 46.8769 55.2625H46.1331V57.4144H45.4918ZM46.1331 54.7071H47.5116C47.8046 54.7071 48.0338 54.6774 48.1991 54.6179C48.3644 54.5562 48.49 54.4592 48.576 54.327C48.6619 54.1926 48.7049 54.0471 48.7049 53.8906C48.7049 53.6614 48.6211 53.473 48.4537 53.3254C48.2884 53.1777 48.0261 53.1039 47.6669 53.1039H46.1331V54.7071ZM49.842 57.4144L51.7031 52.5684H52.394L54.3773 57.4144H53.6468L53.0815 55.9467H51.0552L50.523 57.4144H49.842ZM51.2403 55.4244H52.8832L52.3774 54.0824C52.2232 53.6747 52.1086 53.3397 52.0336 53.0775C51.9719 53.3882 51.8849 53.6967 51.7725 54.003L51.2403 55.4244ZM54.8831 57.4144V52.5684H55.5409L58.0862 56.3732V52.5684H58.7011V57.4144H58.0433L55.4979 53.6064V57.4144H54.8831ZM59.782 57.4144V52.5684H61.4514C61.8282 52.5684 62.1158 52.5915 62.3141 52.6378C62.5918 52.7017 62.8287 52.8174 63.0248 52.9849C63.2805 53.2009 63.4711 53.4774 63.5967 53.8146C63.7245 54.1496 63.7884 54.533 63.7884 54.965C63.7884 55.333 63.7455 55.6591 63.6595 55.9434C63.5736 56.2277 63.4634 56.4635 63.3289 56.6508C63.1945 56.8359 63.0469 56.9825 62.886 57.0905C62.7273 57.1963 62.5345 57.2767 62.3075 57.3318C62.0827 57.3869 61.8238 57.4144 61.5307 57.4144H59.782ZM60.4233 56.8426H61.458C61.7775 56.8426 62.0276 56.8128 62.2083 56.7533C62.3913 56.6938 62.5367 56.6101 62.6447 56.5021C62.7967 56.35 62.9146 56.1462 62.9984 55.8905C63.0843 55.6327 63.1273 55.3209 63.1273 54.955C63.1273 54.4482 63.0436 54.0592 62.8761 53.7882C62.7108 53.5149 62.5092 53.332 62.2711 53.2394C62.0993 53.1733 61.8227 53.1403 61.4414 53.1403H60.4233V56.8426ZM64.4562 55.8575L65.0611 55.8046C65.0897 56.047 65.1559 56.2464 65.2594 56.4029C65.3652 56.5572 65.5283 56.6828 65.7487 56.7797C65.969 56.8745 66.217 56.9219 66.4924 56.9219C66.737 56.9219 66.953 56.8855 67.1403 56.8128C67.3276 56.7401 67.4665 56.6409 67.5568 56.5153C67.6494 56.3875 67.6957 56.2486 67.6957 56.0988C67.6957 55.9467 67.6516 55.8145 67.5634 55.7021C67.4753 55.5875 67.3298 55.4917 67.1271 55.4145C66.9971 55.3638 66.7095 55.2856 66.2643 55.1798C65.8192 55.0718 65.5074 54.9705 65.3288 54.8757C65.0975 54.7545 64.9245 54.6047 64.8099 54.4261C64.6975 54.2454 64.6413 54.0438 64.6413 53.8212C64.6413 53.5766 64.7107 53.3485 64.8495 53.137C64.9884 52.9232 65.1911 52.7612 65.4578 52.651C65.7244 52.5408 66.0208 52.4857 66.347 52.4857C66.7062 52.4857 67.0224 52.5441 67.2957 52.6609C67.5712 52.7755 67.7827 52.9452 67.9304 53.17C68.078 53.3948 68.1574 53.6493 68.1684 53.9336L67.5535 53.9799C67.5205 53.6736 67.4081 53.4422 67.2164 53.2857C67.0268 53.1292 66.7459 53.051 66.3734 53.051C65.9856 53.051 65.7024 53.1226 65.5239 53.2659C65.3476 53.4069 65.2594 53.5777 65.2594 53.7782C65.2594 53.9523 65.3222 54.0956 65.4478 54.208C65.5713 54.3204 65.893 54.4361 66.4131 54.5551C66.9354 54.6719 67.2935 54.7743 67.4874 54.8625C67.7695 54.9925 67.9778 55.1578 68.1122 55.3583C68.2466 55.5567 68.3138 55.7859 68.3138 56.0459C68.3138 56.3037 68.24 56.5473 68.0923 56.7764C67.9447 57.0034 67.732 57.1808 67.4544 57.3086C67.1789 57.4343 66.8682 57.4971 66.5222 57.4971C66.0836 57.4971 65.7156 57.4332 65.4181 57.3053C65.1228 57.1775 64.8903 56.9858 64.7206 56.7302C64.5531 56.4723 64.465 56.1814 64.4562 55.8575Z" fill="#619F43"/>
</g>
<defs>
<filter id="filter0_d_59_93" x="-0.00884962" y="0" width="92.6825" height="91.0177" filterUnits="userSpaceOnUse" color-interpolation-filters="sRGB">
<feFlood flood-opacity="0" result="BackgroundImageFix"/>
<feColorMatrix in="SourceAlpha" type="matrix" values="0 0 0 0 0 0 0 0 0 0 0 0 0 0 0 0 0 0 127 0" result="hardAlpha"/>
<feOffset dy="3.00885"/>
<feGaussianBlur stdDeviation="1.50442"/>
<feComposite in2="hardAlpha" operator="out"/>
<feColorMatrix type="matrix" values="0 0 0 0 0 0 0 0 0 0 0 0 0 0 0 0 0 0 0.25 0"/>
<feBlend mode="normal" in2="BackgroundImageFix" result="effect1_dropShadow_59_93"/>
<feBlend mode="normal" in="SourceGraphic" in2="effect1_dropShadow_59_93" result="shape"/>
</filter>
</defs>
</svg>
