<svg width="200" height="124" viewBox="0 0 200 124" fill="none" xmlns="http://www.w3.org/2000/svg">
<path d="M101.5 20.6641L151.296 98.1641H51.7035L101.5 20.6641Z" fill="#D9D9D9" fill-opacity="0.3"/>
<path d="M123.5 16.1719L147.316 53.2371H99.6843L123.5 16.1719Z" fill="#FC3D45"/>
<path fill-rule="evenodd" clip-rule="evenodd" d="M122.444 53.2382L111.072 35.5391L99.6992 53.2382H122.444Z" fill="#82171B"/>
<path d="M27.342 86.5469V52.5809H19.566V46.3169H34.686V86.5469H27.342ZM58.8953 87.1949C55.6913 87.1949 52.8833 86.3309 50.4713 84.6029C48.0593 82.8749 46.1693 80.4449 44.8013 77.3129C43.4693 74.1809 42.8033 70.5449 42.8033 66.4049C42.8033 62.2289 43.4693 58.5929 44.8013 55.4969C46.1333 52.4009 48.0053 49.9889 50.4173 48.2609C52.8293 46.5329 55.6373 45.6689 58.8413 45.6689C62.1173 45.6689 64.9433 46.5329 67.3193 48.2609C69.7313 49.9889 71.6213 52.4189 72.9893 55.5509C74.3573 58.6469 75.0413 62.2649 75.0413 66.4049C75.0413 70.5449 74.3573 74.1809 72.9893 77.3129C71.6573 80.4089 69.7853 82.8389 67.3733 84.6029C64.9613 86.3309 62.1353 87.1949 58.8953 87.1949ZM58.9493 80.4989C60.7853 80.4989 62.3513 79.9409 63.6473 78.8249C64.9433 77.6729 65.9333 76.0529 66.6173 73.9649C67.3373 71.8409 67.6973 69.3209 67.6973 66.4049C67.6973 63.4889 67.3373 60.9869 66.6173 58.8989C65.9333 56.7749 64.9253 55.1549 63.5933 54.0389C62.2973 52.9229 60.7133 52.3649 58.8413 52.3649C57.0413 52.3649 55.4933 52.9229 54.1973 54.0389C52.9013 55.1549 51.8933 56.7749 51.1733 58.8989C50.4893 60.9869 50.1473 63.4889 50.1473 66.4049C50.1473 69.2849 50.4893 71.7869 51.1733 73.9109C51.8933 75.9989 52.9013 77.6189 54.1973 78.7709C55.5293 79.9229 57.1133 80.4989 58.9493 80.4989ZM97.1277 87.1949C93.9237 87.1949 91.1157 86.3309 88.7037 84.6029C86.2917 82.8749 84.4017 80.4449 83.0337 77.3129C81.7017 74.1809 81.0357 70.5449 81.0357 66.4049C81.0357 62.2289 81.7017 58.5929 83.0337 55.4969C84.3657 52.4009 86.2377 49.9889 88.6497 48.2609C91.0617 46.5329 93.8697 45.6689 97.0737 45.6689C100.35 45.6689 103.176 46.5329 105.552 48.2609C107.964 49.9889 109.854 52.4189 111.222 55.5509C112.59 58.6469 113.274 62.2649 113.274 66.4049C113.274 70.5449 112.59 74.1809 111.222 77.3129C109.89 80.4089 108.018 82.8389 105.606 84.6029C103.194 86.3309 100.368 87.1949 97.1277 87.1949ZM97.1817 80.4989C99.0177 80.4989 100.584 79.9409 101.88 78.8249C103.176 77.6729 104.166 76.0529 104.85 73.9649C105.57 71.8409 105.93 69.3209 105.93 66.4049C105.93 63.4889 105.57 60.9869 104.85 58.8989C104.166 56.7749 103.158 55.1549 101.826 54.0389C100.53 52.9229 98.9457 52.3649 97.0737 52.3649C95.2737 52.3649 93.7257 52.9229 92.4297 54.0389C91.1337 55.1549 90.1257 56.7749 89.4057 58.8989C88.7217 60.9869 88.3797 63.4889 88.3797 66.4049C88.3797 69.2849 88.7217 71.7869 89.4057 73.9109C90.1257 75.9989 91.1337 77.6189 92.4297 78.7709C93.7617 79.9229 95.3457 80.4989 97.1817 80.4989ZM135.36 87.1949C132.156 87.1949 129.348 86.3309 126.936 84.6029C124.524 82.8749 122.634 80.4449 121.266 77.3129C119.934 74.1809 119.268 70.5449 119.268 66.4049C119.268 62.2289 119.934 58.5929 121.266 55.4969C122.598 52.4009 124.47 49.9889 126.882 48.2609C129.294 46.5329 132.102 45.6689 135.306 45.6689C138.582 45.6689 141.408 46.5329 143.784 48.2609C146.196 49.9889 148.086 52.4189 149.454 55.5509C150.822 58.6469 151.506 62.2649 151.506 66.4049C151.506 70.5449 150.822 74.1809 149.454 77.3129C148.122 80.4089 146.25 82.8389 143.838 84.6029C141.426 86.3309 138.6 87.1949 135.36 87.1949ZM135.414 80.4989C137.25 80.4989 138.816 79.9409 140.112 78.8249C141.408 77.6729 142.398 76.0529 143.082 73.9649C143.802 71.8409 144.162 69.3209 144.162 66.4049C144.162 63.4889 143.802 60.9869 143.082 58.8989C142.398 56.7749 141.39 55.1549 140.058 54.0389C138.762 52.9229 137.178 52.3649 135.306 52.3649C133.506 52.3649 131.958 52.9229 130.662 54.0389C129.366 55.1549 128.358 56.7749 127.638 58.8989C126.954 60.9869 126.612 63.4889 126.612 66.4049C126.612 69.2849 126.954 71.7869 127.638 73.9109C128.358 75.9989 129.366 77.6189 130.662 78.7709C131.994 79.9229 133.578 80.4989 135.414 80.4989ZM169.273 86.5469V76.0709H158.797V69.9689H169.273V59.5469H175.375V69.9689H185.797V76.0709H175.375V86.5469H169.273Z" fill="white"/>
</svg>
