<svg width="200" height="124" viewBox="0 0 200 124" fill="none" xmlns="http://www.w3.org/2000/svg">
<ellipse cx="98" cy="63.5" rx="52" ry="51.5" fill="#D9D9D9" fill-opacity="0.21"/>
<circle cx="135" cy="23" r="15" fill="#FC3D45"/>
<path fill-rule="evenodd" clip-rule="evenodd" d="M121.101 17.3008C129.741 21.5509 137.018 28.1106 142.108 36.1644C139.993 37.3051 137.572 37.9524 135 37.9524C126.716 37.9524 120 31.2367 120 22.9524C120 20.9531 120.391 19.0451 121.101 17.3008Z" fill="#82171B"/>
<path d="M48.342 84V50.034H40.566V43.77H55.686V84H48.342ZM79.8953 84.648C76.7273 84.648 73.9193 83.784 71.4713 82.056C69.0593 80.328 67.1693 77.898 65.8013 74.766C64.4693 71.634 63.8033 67.998 63.8033 63.858C63.8033 59.682 64.4693 56.046 65.8013 52.95C67.1693 49.854 69.0593 47.442 71.4713 45.714C73.8833 43.986 76.6733 43.122 79.8413 43.122C83.0813 43.122 85.9073 43.986 88.3193 45.714C90.7673 47.442 92.6573 49.872 93.9893 53.004C95.3573 56.1 96.0413 59.718 96.0413 63.858C96.0413 67.998 95.3573 71.634 93.9893 74.766C92.6573 77.862 90.7853 80.292 88.3733 82.056C85.9613 83.784 83.1353 84.648 79.8953 84.648ZM79.8953 77.952C82.6673 77.952 84.8273 76.692 86.3753 74.172C87.9233 71.652 88.6973 68.214 88.6973 63.858C88.6973 59.502 87.9053 56.082 86.3213 53.598C84.7733 51.078 82.6133 49.818 79.8413 49.818C77.1053 49.818 74.9633 51.06 73.4153 53.544C71.9033 56.028 71.1473 59.466 71.1473 63.858C71.1473 68.214 71.9213 71.652 73.4693 74.172C75.0173 76.692 77.1593 77.952 79.8953 77.952ZM118.128 84.648C114.96 84.648 112.152 83.784 109.704 82.056C107.292 80.328 105.402 77.898 104.034 74.766C102.702 71.634 102.036 67.998 102.036 63.858C102.036 59.682 102.702 56.046 104.034 52.95C105.402 49.854 107.292 47.442 109.704 45.714C112.116 43.986 114.906 43.122 118.074 43.122C121.314 43.122 124.14 43.986 126.552 45.714C129 47.442 130.89 49.872 132.222 53.004C133.59 56.1 134.274 59.718 134.274 63.858C134.274 67.998 133.59 71.634 132.222 74.766C130.89 77.862 129.018 80.292 126.606 82.056C124.194 83.784 121.368 84.648 118.128 84.648ZM118.128 77.952C120.9 77.952 123.06 76.692 124.608 74.172C126.156 71.652 126.93 68.214 126.93 63.858C126.93 59.502 126.138 56.082 124.554 53.598C123.006 51.078 120.846 49.818 118.074 49.818C115.338 49.818 113.196 51.06 111.648 53.544C110.136 56.028 109.38 59.466 109.38 63.858C109.38 68.214 110.154 71.652 111.702 74.172C113.25 76.692 115.392 77.952 118.128 77.952ZM152.04 84V73.524H141.564V67.422H152.04V57H158.142V67.422H168.564V73.524H158.142V84H152.04Z" fill="white"/>
</svg>
