<svg width="200" height="124" viewBox="0 0 200 124" fill="none" xmlns="http://www.w3.org/2000/svg">
<path d="M99.5 20L108.593 47.6393H138.018L114.212 64.7214L123.305 92.3607L99.5 75.2786L75.6947 92.3607L84.7875 64.7214L60.9822 47.6393H90.4072L99.5 20Z" fill="#414141"/>
<path d="M117 19L121.49 32.649H136.021L124.265 41.0846L128.756 54.7336L117 46.2981L105.244 54.7336L109.735 41.0846L97.9789 32.649H112.51L117 19Z" fill="#FC3D45"/>
<path fill-rule="evenodd" clip-rule="evenodd" d="M128.658 54.7221L128.465 54.8606L118.89 47.9903H126.443L128.658 54.7221ZM115.152 47.9903H108.614L108.107 46.4482L105.265 55.0846L115.152 47.9903ZM105.438 38.3376L103.682 33H98L105.438 38.3376Z" fill="#82171B"/>
<path d="M40.342 81V47.034H32.566V40.77H47.686V81H40.342ZM71.8953 81.648C68.7273 81.648 65.9193 80.784 63.4713 79.056C61.0593 77.328 59.1693 74.898 57.8013 71.766C56.4693 68.634 55.8033 64.998 55.8033 60.858C55.8033 56.682 56.4693 53.046 57.8013 49.95C59.1693 46.854 61.0593 44.442 63.4713 42.714C65.8833 40.986 68.6733 40.122 71.8413 40.122C75.0813 40.122 77.9073 40.986 80.3193 42.714C82.7673 44.442 84.6573 46.872 85.9893 50.004C87.3573 53.1 88.0413 56.718 88.0413 60.858C88.0413 64.998 87.3573 68.634 85.9893 71.766C84.6573 74.862 82.7853 77.292 80.3733 79.056C77.9613 80.784 75.1353 81.648 71.8953 81.648ZM71.8953 74.952C74.6673 74.952 76.8273 73.692 78.3753 71.172C79.9233 68.652 80.6973 65.214 80.6973 60.858C80.6973 56.502 79.9053 53.082 78.3213 50.598C76.7733 48.078 74.6133 46.818 71.8413 46.818C69.1053 46.818 66.9633 48.06 65.4153 50.544C63.9033 53.028 63.1473 56.466 63.1473 60.858C63.1473 65.214 63.9213 68.652 65.4693 71.172C67.0173 73.692 69.1593 74.952 71.8953 74.952ZM110.128 81.648C106.96 81.648 104.152 80.784 101.704 79.056C99.2917 77.328 97.4017 74.898 96.0337 71.766C94.7017 68.634 94.0357 64.998 94.0357 60.858C94.0357 56.682 94.7017 53.046 96.0337 49.95C97.4017 46.854 99.2917 44.442 101.704 42.714C104.116 40.986 106.906 40.122 110.074 40.122C113.314 40.122 116.14 40.986 118.552 42.714C121 44.442 122.89 46.872 124.222 50.004C125.59 53.1 126.274 56.718 126.274 60.858C126.274 64.998 125.59 68.634 124.222 71.766C122.89 74.862 121.018 77.292 118.606 79.056C116.194 80.784 113.368 81.648 110.128 81.648ZM110.128 74.952C112.9 74.952 115.06 73.692 116.608 71.172C118.156 68.652 118.93 65.214 118.93 60.858C118.93 56.502 118.138 53.082 116.554 50.598C115.006 48.078 112.846 46.818 110.074 46.818C107.338 46.818 105.196 48.06 103.648 50.544C102.136 53.028 101.38 56.466 101.38 60.858C101.38 65.214 102.154 68.652 103.702 71.172C105.25 73.692 107.392 74.952 110.128 74.952ZM133.132 81V40.77H140.476V58.644L155.596 40.77H164.83L150.898 57.294L165.316 81H156.676L145.876 63.288L140.476 69.714V81H133.132Z" fill="white"/>
</svg>
