<svg width="200" height="124" viewBox="0 0 200 124" fill="none" xmlns="http://www.w3.org/2000/svg">
<rect x="58.4434" y="23" width="83" height="83" fill="#414141"/>
<rect x="124" y="12" width="27" height="27" fill="#FC3D45"/>
<path fill-rule="evenodd" clip-rule="evenodd" d="M141.443 39H124V23H141.443V39Z" fill="#82171B"/>
<path d="M150.498 54.8733C148.674 50.5707 145.643 46.9239 141.824 44.3408C139.914 43.0494 137.805 42.0241 135.552 41.3219C133.3 40.6197 130.903 40.2419 128.435 40.2422C124.888 40.239 121.54 40.9917 118.484 42.2456C115.805 43.3422 113.339 44.8101 111.034 46.4905C107.001 49.4359 103.432 53.0288 100.024 56.704C99.9128 56.8236 99.8044 56.9441 99.694 57.0643C99.6701 57.0382 99.6463 57.0118 99.6225 56.9857C97.7118 54.9149 95.7482 52.869 93.6855 50.9428C90.5903 48.057 87.2705 45.4257 83.515 43.4619C81.6384 42.482 79.6513 41.6748 77.551 41.114C75.4518 40.5529 73.2404 40.2419 70.9513 40.2425C67.6593 40.2419 64.4982 40.9146 61.6311 42.1303C57.3285 43.9544 53.6817 46.9859 51.0986 50.8048C49.8072 52.7144 48.7819 54.8239 48.0797 57.0766C47.3775 59.329 46.9997 61.7254 47 64.1941C46.9994 67.486 47.6721 70.6472 48.8878 73.5143C50.7119 77.8163 53.7437 81.4631 57.5623 84.0462C59.4719 85.3376 61.5814 86.3628 63.8341 87.0651C66.0865 87.7673 68.4829 88.1451 70.9516 88.1448C74.4977 88.1477 77.8464 87.3952 80.9026 86.1414C83.5813 85.0447 86.0471 83.5769 88.3525 81.8965C92.3854 78.9511 95.9545 75.3582 99.3626 71.683C99.4734 71.5634 99.5818 71.4429 99.6922 71.323C99.716 71.3491 99.7398 71.3755 99.7637 71.4016C101.674 73.4724 103.638 75.5183 105.701 77.4445C108.796 80.3303 112.116 82.9616 115.871 84.9254C117.748 85.9047 119.735 86.7125 121.835 87.2733C123.934 87.8344 126.146 88.1454 128.435 88.1448C131.727 88.1454 134.888 87.4724 137.755 86.257C142.058 84.4329 145.704 81.4014 148.288 77.5825C149.579 75.6729 150.604 73.5634 151.306 71.3107C152.009 69.0583 152.386 66.6619 152.386 64.1935C152.387 60.9015 151.714 57.7404 150.498 54.8733ZM92.5816 64.9055C90.7587 66.8816 88.9515 68.7588 87.1483 70.4415C84.4444 72.9696 81.7506 75.0438 79.0828 76.4322C77.7478 77.1287 76.4208 77.6591 75.08 78.0171C73.7381 78.3748 72.3818 78.5635 70.9519 78.5641C68.9608 78.5635 67.0853 78.1616 65.3691 77.4356C62.7966 76.347 60.5886 74.5146 59.0356 72.2163C58.2588 71.0674 57.6458 69.805 57.2267 68.4602C56.8076 67.1148 56.581 65.6874 56.581 64.1938C56.5816 62.2027 56.9834 60.3273 57.7095 58.6113C58.7981 56.0391 60.6305 53.8308 62.9291 52.2778C64.0777 51.501 65.3404 50.888 66.6858 50.4689C68.0311 50.0498 69.4585 49.8232 70.9522 49.8232C73.1632 49.826 75.2091 50.2712 77.2756 51.1132C79.0791 51.8501 80.8877 52.9037 82.7089 54.2321C85.8976 56.5517 89.0986 59.7151 92.3338 63.2139C92.6318 63.5357 92.9319 63.8673 93.2308 64.1944C93.0148 64.4302 92.7977 64.6717 92.5816 64.9055ZM141.678 69.7766C140.589 72.3491 138.757 74.557 136.458 76.1101C135.309 76.8869 134.047 77.4999 132.701 77.919C131.356 78.3381 129.929 78.5647 128.435 78.5647C126.224 78.5618 124.178 78.1166 122.111 77.2747C120.308 76.5378 118.499 75.4841 116.678 74.1557C113.489 71.8362 110.288 68.6728 107.053 65.174C106.755 64.8521 106.455 64.5202 106.156 64.1935C106.373 63.9568 106.59 63.7153 106.805 63.4818C108.628 61.5057 110.436 59.6285 112.239 57.9458C114.943 55.4177 117.636 53.3435 120.304 51.9551C121.639 51.2586 122.966 50.7282 124.307 50.3702C125.649 50.0125 127.005 49.8237 128.435 49.8232C130.426 49.8237 132.302 50.2256 134.018 50.9517C136.59 52.0403 138.798 53.8727 140.351 56.1713C141.128 57.3201 141.741 58.5826 142.16 59.9274C142.579 61.2727 142.806 62.7001 142.806 64.1938C142.806 66.1846 142.404 68.06 141.678 69.7766Z" fill="white"/>
</svg>
