<svg width="38" height="38" viewBox="0 0 38 38" fill="#EF3239" xmlns="http://www.w3.org/2000/svg">

<path d="M11.926 20.228V30H9.966V20.228H11.926ZM19.3785 30.098C18.4638 30.098 17.6238 29.8833 16.8585 29.454C16.0932 29.0247 15.4865 28.432 15.0385 27.676C14.5905 26.9107 14.3665 26.0473 14.3665 25.086C14.3665 24.134 14.5905 23.28 15.0385 22.524C15.4865 21.7587 16.0932 21.1613 16.8585 20.732C17.6238 20.3027 18.4638 20.088 19.3785 20.088C20.3025 20.088 21.1425 20.3027 21.8985 20.732C22.6638 21.1613 23.2658 21.7587 23.7045 22.524C24.1525 23.28 24.3765 24.134 24.3765 25.086C24.3765 26.0473 24.1525 26.9107 23.7045 27.676C23.2658 28.432 22.6638 29.0247 21.8985 29.454C21.1332 29.8833 20.2932 30.098 19.3785 30.098ZM19.3785 28.348C19.9665 28.348 20.4845 28.2173 20.9325 27.956C21.3805 27.6853 21.7305 27.3027 21.9825 26.808C22.2345 26.3133 22.3605 25.7393 22.3605 25.086C22.3605 24.4327 22.2345 23.8633 21.9825 23.378C21.7305 22.8833 21.3805 22.5053 20.9325 22.244C20.4845 21.9827 19.9665 21.852 19.3785 21.852C18.7905 21.852 18.2678 21.9827 17.8105 22.244C17.3625 22.5053 17.0125 22.8833 16.7605 23.378C16.5085 23.8633 16.3825 24.4327 16.3825 25.086C16.3825 25.7393 16.5085 26.3133 16.7605 26.808C17.0125 27.3027 17.3625 27.6853 17.8105 27.956C18.2678 28.2173 18.7905 28.348 19.3785 28.348ZM33.4647 20.228V21.81H30.8607V30H28.9007V21.81H26.2967V20.228H33.4647Z" fill="#EF3239"/>
<path d="M9.08398 13.3218C11.8841 10.8523 15.4131 9.5 19.0573 9.5C22.7015 9.5 26.2305 10.8523 29.0307 13.3218" stroke="red" stroke-width="2" stroke-linecap="round" stroke-linejoin="round"/>
<path d="M4.01172 9.50016C12.5769 1.50516 25.4232 1.50516 33.9884 9.50016" stroke="red" stroke-width="2" stroke-linecap="round" stroke-linejoin="round"/>
<path d="M14.084 17.085C15.5222 16.0031 17.2427 15.4219 19.0069 15.4219C20.7711 15.4219 22.4916 16.0031 23.9298 17.085" stroke="red" stroke-width="2" stroke-linecap="round" stroke-linejoin="round"/>

</svg>
