<svg width="158" height="86" viewBox="0 0 158 86" fill="none" xmlns="http://www.w3.org/2000/svg">
<path d="M43.2421 84.9995H43.068C42.6326 84.9262 42.285 84.4856 42.3721 84.119L47.0677 65.8542C47.1548 65.4876 47.6766 65.1943 48.1112 65.267C48.5459 65.3403 48.8935 65.7809 48.8071 66.1475L44.1114 84.339C44.025 84.7795 43.5897 84.9995 43.2421 84.9995Z" fill="white"/>
<path d="M43.2421 84.9995H43.068C42.6326 84.9262 42.285 84.4856 42.3721 84.119L47.0677 65.8542C47.1548 65.4876 47.6766 65.1943 48.1112 65.267C48.5459 65.3403 48.8935 65.7809 48.8071 66.1475L44.1114 84.339C44.025 84.7795 43.5897 84.9995 43.2421 84.9995Z" fill="black" fill-opacity="0.2"/>
<path d="M43.2421 84.9995H43.068C42.6326 84.9262 42.285 84.4856 42.3721 84.119L47.0677 65.8542C47.1548 65.4876 47.6766 65.1943 48.1112 65.267C48.5459 65.3403 48.8935 65.7809 48.8071 66.1475L44.1114 84.339C44.025 84.7795 43.5897 84.9995 43.2421 84.9995Z" stroke="white" stroke-width="1.14714"/>
<path d="M43.2421 84.9995H43.068C42.6326 84.9262 42.285 84.4856 42.3721 84.119L47.0677 65.8542C47.1548 65.4876 47.6766 65.1943 48.1112 65.267C48.5459 65.3403 48.8935 65.7809 48.8071 66.1475L44.1114 84.339C44.025 84.7795 43.5897 84.9995 43.2421 84.9995Z" stroke="black" stroke-opacity="0.2" stroke-width="1.14714"/>
<path d="M108.257 84.9996C107.83 84.9996 107.488 84.779 107.402 84.4104L103.042 66.5128C102.957 66.1443 103.213 65.7024 103.726 65.6291C104.154 65.5558 104.667 65.7764 104.752 66.2183L109.112 84.1158C109.197 84.4844 108.941 84.9262 108.428 84.9996H108.257Z" fill="white"/>
<path d="M108.257 84.9996C107.83 84.9996 107.488 84.779 107.402 84.4104L103.042 66.5128C102.957 66.1443 103.213 65.7024 103.726 65.6291C104.154 65.5558 104.667 65.7764 104.752 66.2183L109.112 84.1158C109.197 84.4844 108.941 84.9262 108.428 84.9996H108.257Z" fill="black" fill-opacity="0.2"/>
<path d="M108.257 84.9996C107.83 84.9996 107.488 84.779 107.402 84.4104L103.042 66.5128C102.957 66.1443 103.213 65.7024 103.726 65.6291C104.154 65.5558 104.667 65.7764 104.752 66.2183L109.112 84.1158C109.197 84.4844 108.941 84.9262 108.428 84.9996H108.257Z" stroke="white" stroke-width="1.14714"/>
<path d="M108.257 84.9996C107.83 84.9996 107.488 84.779 107.402 84.4104L103.042 66.5128C102.957 66.1443 103.213 65.7024 103.726 65.6291C104.154 65.5558 104.667 65.7764 104.752 66.2183L109.112 84.1158C109.197 84.4844 108.941 84.9262 108.428 84.9996H108.257Z" stroke="black" stroke-opacity="0.2" stroke-width="1.14714"/>
<path d="M80.0462 48.3586H79.9585C78.2892 48.3586 76.6193 47.6555 75.3892 46.5132C75.0383 46.1623 75.0383 45.634 75.3022 45.2831C75.653 44.9322 76.1807 44.9322 76.5322 45.1954C77.4984 46.0746 78.7285 46.5132 79.9585 46.5132C81.1886 46.5132 82.5063 46.0739 83.3849 45.2831C83.7364 44.9322 84.3517 45.0193 84.6149 45.3708C84.9664 45.7217 84.8787 46.3371 84.5272 46.6009C83.2965 47.8316 81.7156 48.3586 80.0462 48.3586Z" fill="white"/>
<path d="M80.0462 48.3586H79.9585C78.2892 48.3586 76.6193 47.6555 75.3892 46.5132C75.0383 46.1623 75.0383 45.634 75.3022 45.2831C75.653 44.9322 76.1807 44.9322 76.5322 45.1954C77.4984 46.0746 78.7285 46.5132 79.9585 46.5132C81.1886 46.5132 82.5063 46.0739 83.3849 45.2831C83.7364 44.9322 84.3517 45.0193 84.6149 45.3708C84.9664 45.7217 84.8787 46.3371 84.5272 46.6009C83.2965 47.8316 81.7156 48.3586 80.0462 48.3586Z" fill="black" fill-opacity="0.2"/>
<path d="M80.0462 48.3586H79.9585C78.2892 48.3586 76.6193 47.6555 75.3892 46.5132C75.0383 46.1623 75.0383 45.634 75.3022 45.2831C75.653 44.9322 76.1807 44.9322 76.5322 45.1954C77.4984 46.0746 78.7285 46.5132 79.9585 46.5132C81.1886 46.5132 82.5063 46.0739 83.3849 45.2831C83.7364 44.9322 84.3517 45.0193 84.6149 45.3708C84.9664 45.7217 84.8787 46.3371 84.5272 46.6009C83.2965 47.8316 81.7156 48.3586 80.0462 48.3586Z" stroke="white" stroke-width="1.14714"/>
<path d="M80.0462 48.3586H79.9585C78.2892 48.3586 76.6193 47.6555 75.3892 46.5132C75.0383 46.1623 75.0383 45.634 75.3022 45.2831C75.653 44.9322 76.1807 44.9322 76.5322 45.1954C77.4984 46.0746 78.7285 46.5132 79.9585 46.5132C81.1886 46.5132 82.5063 46.0739 83.3849 45.2831C83.7364 44.9322 84.3517 45.0193 84.6149 45.3708C84.9664 45.7217 84.8787 46.3371 84.5272 46.6009C83.2965 47.8316 81.7156 48.3586 80.0462 48.3586Z" stroke="black" stroke-opacity="0.2" stroke-width="1.14714"/>
<path d="M71.8743 48.3587C70.2044 48.3587 68.6234 47.7434 67.305 46.6894C66.9541 46.3385 66.8658 45.8102 67.2173 45.4594C67.5688 45.1085 68.0965 45.0201 68.4474 45.3716C69.4142 46.1624 70.6443 46.6017 71.8743 46.6017C73.1044 46.6017 74.3344 46.0747 75.3007 45.2839C75.6515 44.933 76.2669 45.0208 76.5307 45.3716C76.8816 45.7232 76.7945 46.3385 76.443 46.6017C75.2129 47.744 73.5436 48.3587 71.8743 48.4471C71.9621 48.3587 71.8743 48.3587 71.8743 48.3587Z" fill="white"/>
<path d="M71.8743 48.3587C70.2044 48.3587 68.6234 47.7434 67.305 46.6894C66.9541 46.3385 66.8658 45.8102 67.2173 45.4594C67.5688 45.1085 68.0965 45.0201 68.4474 45.3716C69.4142 46.1624 70.6443 46.6017 71.8743 46.6017C73.1044 46.6017 74.3344 46.0747 75.3007 45.2839C75.6515 44.933 76.2669 45.0208 76.5307 45.3716C76.8816 45.7232 76.7945 46.3385 76.443 46.6017C75.2129 47.744 73.5436 48.3587 71.8743 48.4471C71.9621 48.3587 71.8743 48.3587 71.8743 48.3587Z" fill="black" fill-opacity="0.2"/>
<path d="M71.8743 48.3587C70.2044 48.3587 68.6234 47.7434 67.305 46.6894C66.9541 46.3385 66.8658 45.8102 67.2173 45.4594C67.5688 45.1085 68.0965 45.0201 68.4474 45.3716C69.4142 46.1624 70.6443 46.6017 71.8743 46.6017C73.1044 46.6017 74.3344 46.0747 75.3007 45.2839C75.6515 44.933 76.2669 45.0208 76.5307 45.3716C76.8816 45.7232 76.7945 46.3385 76.443 46.6017C75.2129 47.744 73.5436 48.3587 71.8743 48.4471C71.9621 48.3587 71.8743 48.3587 71.8743 48.3587Z" stroke="white" stroke-width="1.14714"/>
<path d="M71.8743 48.3587C70.2044 48.3587 68.6234 47.7434 67.305 46.6894C66.9541 46.3385 66.8658 45.8102 67.2173 45.4594C67.5688 45.1085 68.0965 45.0201 68.4474 45.3716C69.4142 46.1624 70.6443 46.6017 71.8743 46.6017C73.1044 46.6017 74.3344 46.0747 75.3007 45.2839C75.6515 44.933 76.2669 45.0208 76.5307 45.3716C76.8816 45.7232 76.7945 46.3385 76.443 46.6017C75.2129 47.744 73.5436 48.3587 71.8743 48.4471C71.9621 48.3587 71.8743 48.3587 71.8743 48.3587Z" stroke="black" stroke-opacity="0.2" stroke-width="1.14714"/>
<path d="M77.2344 72.2572C77.2344 72.9852 76.6446 73.575 75.9166 73.575C75.1887 73.575 74.5989 72.9852 74.5989 72.2572C74.5989 71.5293 75.1887 70.9395 75.9166 70.9395C76.6446 70.9395 77.2344 71.5293 77.2344 72.2572Z" fill="white"/>
<path d="M77.2344 72.2572C77.2344 72.9852 76.6446 73.575 75.9166 73.575C75.1887 73.575 74.5989 72.9852 74.5989 72.2572C74.5989 71.5293 75.1887 70.9395 75.9166 70.9395C76.6446 70.9395 77.2344 71.5293 77.2344 72.2572Z" fill="black" fill-opacity="0.2"/>
<path d="M77.2344 72.2572C77.2344 72.9852 76.6446 73.575 75.9166 73.575C75.1887 73.575 74.5989 72.9852 74.5989 72.2572C74.5989 71.5293 75.1887 70.9395 75.9166 70.9395C76.6446 70.9395 77.2344 71.5293 77.2344 72.2572Z" stroke="white" stroke-width="1.14714"/>
<path d="M77.2344 72.2572C77.2344 72.9852 76.6446 73.575 75.9166 73.575C75.1887 73.575 74.5989 72.9852 74.5989 72.2572C74.5989 71.5293 75.1887 70.9395 75.9166 70.9395C76.6446 70.9395 77.2344 71.5293 77.2344 72.2572Z" stroke="black" stroke-opacity="0.2" stroke-width="1.14714"/>
<path d="M75.9166 66.1058L75.4767 65.842C71.5234 63.7335 67.4817 61.5365 63.8793 58.5494C62.4731 57.4071 61.5062 56.0016 60.8038 54.5078C59.2222 51.1685 60.1008 48.6207 60.8038 46.3367C61.2431 45.1066 61.594 43.9643 61.594 42.6465C60.8038 41.5042 58.0799 36.9362 58.8707 29.8184C59.2216 26.743 61.8578 24.459 64.9332 24.459H86.7226C89.798 24.459 92.4335 26.743 92.7851 29.8184C93.5759 36.9349 90.8526 41.5919 90.0618 42.6465C90.1495 43.9643 90.5011 45.1066 90.8526 46.3367C91.5557 48.6214 92.4336 51.0808 90.8526 54.5078C90.1496 56.001 89.0956 57.4071 87.7772 58.5494C84.2631 61.5365 80.1331 63.7335 76.1791 65.842L75.9166 66.1058ZM65.0216 26.3044C62.8247 26.3044 60.9793 27.9737 60.7161 30.0822C59.8369 37.4625 63.2639 41.8551 63.2639 41.9435L63.4394 42.2073V42.4705C63.4394 44.1404 63.0001 45.5459 62.4731 46.9514C61.7701 49.1483 61.1554 51.0808 62.3854 53.8047C63.0008 55.1225 63.8793 56.2648 65.0216 57.231C68.2725 60.0433 72.1381 62.0635 75.8282 64.0843C79.6061 62.0635 83.3846 60.0427 86.6348 57.231C87.7772 56.2648 88.6557 55.1225 89.271 53.8047C90.5011 51.0814 89.8864 49.1483 89.1833 46.9514C88.7441 45.5459 88.2171 44.1398 88.2171 42.4705V42.2073L88.3925 41.9435C88.3925 41.9435 91.7318 37.4632 90.9403 30.0822C90.6772 27.8853 88.8318 26.3044 86.6348 26.3044H65.0216Z" fill="white"/>
<path d="M75.9166 66.1058L75.4767 65.842C71.5234 63.7335 67.4817 61.5365 63.8793 58.5494C62.4731 57.4071 61.5062 56.0016 60.8038 54.5078C59.2222 51.1685 60.1008 48.6207 60.8038 46.3367C61.2431 45.1066 61.594 43.9643 61.594 42.6465C60.8038 41.5042 58.0799 36.9362 58.8707 29.8184C59.2216 26.743 61.8578 24.459 64.9332 24.459H86.7226C89.798 24.459 92.4335 26.743 92.7851 29.8184C93.5759 36.9349 90.8526 41.5919 90.0618 42.6465C90.1495 43.9643 90.5011 45.1066 90.8526 46.3367C91.5557 48.6214 92.4336 51.0808 90.8526 54.5078C90.1496 56.001 89.0956 57.4071 87.7772 58.5494C84.2631 61.5365 80.1331 63.7335 76.1791 65.842L75.9166 66.1058ZM65.0216 26.3044C62.8247 26.3044 60.9793 27.9737 60.7161 30.0822C59.8369 37.4625 63.2639 41.8551 63.2639 41.9435L63.4394 42.2073V42.4705C63.4394 44.1404 63.0001 45.5459 62.4731 46.9514C61.7701 49.1483 61.1554 51.0808 62.3854 53.8047C63.0008 55.1225 63.8793 56.2648 65.0216 57.231C68.2725 60.0433 72.1381 62.0635 75.8282 64.0843C79.6061 62.0635 83.3846 60.0427 86.6348 57.231C87.7772 56.2648 88.6557 55.1225 89.271 53.8047C90.5011 51.0814 89.8864 49.1483 89.1833 46.9514C88.7441 45.5459 88.2171 44.1398 88.2171 42.4705V42.2073L88.3925 41.9435C88.3925 41.9435 91.7318 37.4632 90.9403 30.0822C90.6772 27.8853 88.8318 26.3044 86.6348 26.3044H65.0216Z" fill="black" fill-opacity="0.2"/>
<path d="M75.9166 66.1058L75.4767 65.842C71.5234 63.7335 67.4817 61.5365 63.8793 58.5494C62.4731 57.4071 61.5062 56.0016 60.8038 54.5078C59.2222 51.1685 60.1008 48.6207 60.8038 46.3367C61.2431 45.1066 61.594 43.9643 61.594 42.6465C60.8038 41.5042 58.0799 36.9362 58.8707 29.8184C59.2216 26.743 61.8578 24.459 64.9332 24.459H86.7226C89.798 24.459 92.4335 26.743 92.7851 29.8184C93.5759 36.9349 90.8526 41.5919 90.0618 42.6465C90.1495 43.9643 90.5011 45.1066 90.8526 46.3367C91.5557 48.6214 92.4336 51.0808 90.8526 54.5078C90.1496 56.001 89.0956 57.4071 87.7772 58.5494C84.2631 61.5365 80.1331 63.7335 76.1791 65.842L75.9166 66.1058ZM65.0216 26.3044C62.8247 26.3044 60.9793 27.9737 60.7161 30.0822C59.8369 37.4625 63.2639 41.8551 63.2639 41.9435L63.4394 42.2073V42.4705C63.4394 44.1404 63.0001 45.5459 62.4731 46.9514C61.7701 49.1483 61.1554 51.0808 62.3854 53.8047C63.0008 55.1225 63.8793 56.2648 65.0216 57.231C68.2725 60.0433 72.1381 62.0635 75.8282 64.0843C79.6061 62.0635 83.3846 60.0427 86.6348 57.231C87.7772 56.2648 88.6557 55.1225 89.271 53.8047C90.5011 51.0814 89.8864 49.1483 89.1833 46.9514C88.7441 45.5459 88.2171 44.1398 88.2171 42.4705V42.2073L88.3925 41.9435C88.3925 41.9435 91.7318 37.4632 90.9403 30.0822C90.6772 27.8853 88.8318 26.3044 86.6348 26.3044H65.0216Z" stroke="white" stroke-width="1.14714"/>
<path d="M75.9166 66.1058L75.4767 65.842C71.5234 63.7335 67.4817 61.5365 63.8793 58.5494C62.4731 57.4071 61.5062 56.0016 60.8038 54.5078C59.2222 51.1685 60.1008 48.6207 60.8038 46.3367C61.2431 45.1066 61.594 43.9643 61.594 42.6465C60.8038 41.5042 58.0799 36.9362 58.8707 29.8184C59.2216 26.743 61.8578 24.459 64.9332 24.459H86.7226C89.798 24.459 92.4335 26.743 92.7851 29.8184C93.5759 36.9349 90.8526 41.5919 90.0618 42.6465C90.1495 43.9643 90.5011 45.1066 90.8526 46.3367C91.5557 48.6214 92.4336 51.0808 90.8526 54.5078C90.1496 56.001 89.0956 57.4071 87.7772 58.5494C84.2631 61.5365 80.1331 63.7335 76.1791 65.842L75.9166 66.1058ZM65.0216 26.3044C62.8247 26.3044 60.9793 27.9737 60.7161 30.0822C59.8369 37.4625 63.2639 41.8551 63.2639 41.9435L63.4394 42.2073V42.4705C63.4394 44.1404 63.0001 45.5459 62.4731 46.9514C61.7701 49.1483 61.1554 51.0808 62.3854 53.8047C63.0008 55.1225 63.8793 56.2648 65.0216 57.231C68.2725 60.0433 72.1381 62.0635 75.8282 64.0843C79.6061 62.0635 83.3846 60.0427 86.6348 57.231C87.7772 56.2648 88.6557 55.1225 89.271 53.8047C90.5011 51.0814 89.8864 49.1483 89.1833 46.9514C88.7441 45.5459 88.2171 44.1398 88.2171 42.4705V42.2073L88.3925 41.9435C88.3925 41.9435 91.7318 37.4632 90.9403 30.0822C90.6772 27.8853 88.8318 26.3044 86.6348 26.3044H65.0216Z" stroke="black" stroke-opacity="0.2" stroke-width="1.14714"/>
<path d="M93.3135 15.849C92.7866 15.849 92.435 15.409 92.435 14.9698C92.4357 8.29257 85.1425 2.75704 76.1806 2.75704C67.2181 2.75704 59.9261 8.29257 59.9261 14.9698C59.9261 15.4968 59.4869 15.849 59.047 15.849C58.6077 15.849 58.1685 15.409 58.1685 14.9698C58.1691 7.23861 66.2518 1 76.1799 1C86.108 1 94.1914 7.23861 94.1914 14.9698C94.1914 15.4968 93.7521 15.849 93.3129 15.849H93.3135Z" fill="white"/>
<path d="M93.3135 15.849C92.7866 15.849 92.435 15.409 92.435 14.9698C92.4357 8.29257 85.1425 2.75704 76.1806 2.75704C67.2181 2.75704 59.9261 8.29257 59.9261 14.9698C59.9261 15.4968 59.4869 15.849 59.047 15.849C58.6077 15.849 58.1685 15.409 58.1685 14.9698C58.1691 7.23861 66.2518 1 76.1799 1C86.108 1 94.1914 7.23861 94.1914 14.9698C94.1914 15.4968 93.7521 15.849 93.3129 15.849H93.3135Z" fill="black" fill-opacity="0.2"/>
<path d="M93.3135 15.849C92.7866 15.849 92.435 15.409 92.435 14.9698C92.4357 8.29257 85.1425 2.75704 76.1806 2.75704C67.2181 2.75704 59.9261 8.29257 59.9261 14.9698C59.9261 15.4968 59.4869 15.849 59.047 15.849C58.6077 15.849 58.1685 15.409 58.1685 14.9698C58.1691 7.23861 66.2518 1 76.1799 1C86.108 1 94.1914 7.23861 94.1914 14.9698C94.1914 15.4968 93.7521 15.849 93.3129 15.849H93.3135Z" stroke="white" stroke-width="1.14714"/>
<path d="M93.3135 15.849C92.7866 15.849 92.435 15.409 92.435 14.9698C92.4357 8.29257 85.1425 2.75704 76.1806 2.75704C67.2181 2.75704 59.9261 8.29257 59.9261 14.9698C59.9261 15.4968 59.4869 15.849 59.047 15.849C58.6077 15.849 58.1685 15.409 58.1685 14.9698C58.1691 7.23861 66.2518 1 76.1799 1C86.108 1 94.1914 7.23861 94.1914 14.9698C94.1914 15.4968 93.7521 15.849 93.3129 15.849H93.3135Z" stroke="black" stroke-opacity="0.2" stroke-width="1.14714"/>
<path d="M88.5675 75.2399V63.4664C88.5675 62.9394 89.0068 62.5872 89.4467 62.5872C89.9736 62.5872 90.3252 63.0271 90.3252 63.4664V72.8675C105.35 68.1234 108.337 59.513 108.776 58.0192L94.3662 22.2594C93.6631 20.5024 92.0816 19.4484 90.2368 19.4484H61.6819C59.8365 19.4484 58.1678 20.5908 57.5525 22.2601L43.582 57.9321C44.0213 59.4253 47.0961 68.0357 62.0328 72.7804V63.4677C62.0328 62.94 62.472 62.5885 62.9119 62.5885C63.4389 62.5885 63.7904 63.0277 63.7904 63.4677V75.2405L62.6481 74.8896C44.1974 69.4418 41.9127 58.5475 41.825 58.1082L41.7373 57.8444L41.825 57.5812L55.8832 21.6454C56.8494 19.1853 59.1341 17.6921 61.6819 17.6921L90.2368 17.6914C92.7846 17.6914 95.0699 19.2723 96.0362 21.6447L110.621 57.8437L110.533 58.1082C110.445 58.5475 108.161 69.5302 89.7098 74.8896L88.5675 75.2399Z" fill="white"/>
<path d="M88.5675 75.2399V63.4664C88.5675 62.9394 89.0068 62.5872 89.4467 62.5872C89.9736 62.5872 90.3252 63.0271 90.3252 63.4664V72.8675C105.35 68.1234 108.337 59.513 108.776 58.0192L94.3662 22.2594C93.6631 20.5024 92.0816 19.4484 90.2368 19.4484H61.6819C59.8365 19.4484 58.1678 20.5908 57.5525 22.2601L43.582 57.9321C44.0213 59.4253 47.0961 68.0357 62.0328 72.7804V63.4677C62.0328 62.94 62.472 62.5885 62.9119 62.5885C63.4389 62.5885 63.7904 63.0277 63.7904 63.4677V75.2405L62.6481 74.8896C44.1974 69.4418 41.9127 58.5475 41.825 58.1082L41.7373 57.8444L41.825 57.5812L55.8832 21.6454C56.8494 19.1853 59.1341 17.6921 61.6819 17.6921L90.2368 17.6914C92.7846 17.6914 95.0699 19.2723 96.0362 21.6447L110.621 57.8437L110.533 58.1082C110.445 58.5475 108.161 69.5302 89.7098 74.8896L88.5675 75.2399Z" fill="black" fill-opacity="0.2"/>
<path d="M88.5675 75.2399V63.4664C88.5675 62.9394 89.0068 62.5872 89.4467 62.5872C89.9736 62.5872 90.3252 63.0271 90.3252 63.4664V72.8675C105.35 68.1234 108.337 59.513 108.776 58.0192L94.3662 22.2594C93.6631 20.5024 92.0816 19.4484 90.2368 19.4484H61.6819C59.8365 19.4484 58.1678 20.5908 57.5525 22.2601L43.582 57.9321C44.0213 59.4253 47.0961 68.0357 62.0328 72.7804V63.4677C62.0328 62.94 62.472 62.5885 62.9119 62.5885C63.4389 62.5885 63.7904 63.0277 63.7904 63.4677V75.2405L62.6481 74.8896C44.1974 69.4418 41.9127 58.5475 41.825 58.1082L41.7373 57.8444L41.825 57.5812L55.8832 21.6454C56.8494 19.1853 59.1341 17.6921 61.6819 17.6921L90.2368 17.6914C92.7846 17.6914 95.0699 19.2723 96.0362 21.6447L110.621 57.8437L110.533 58.1082C110.445 58.5475 108.161 69.5302 89.7098 74.8896L88.5675 75.2399Z" stroke="white" stroke-width="1.14714"/>
<path d="M88.5675 75.2399V63.4664C88.5675 62.9394 89.0068 62.5872 89.4467 62.5872C89.9736 62.5872 90.3252 63.0271 90.3252 63.4664V72.8675C105.35 68.1234 108.337 59.513 108.776 58.0192L94.3662 22.2594C93.6631 20.5024 92.0816 19.4484 90.2368 19.4484H61.6819C59.8365 19.4484 58.1678 20.5908 57.5525 22.2601L43.582 57.9321C44.0213 59.4253 47.0961 68.0357 62.0328 72.7804V63.4677C62.0328 62.94 62.472 62.5885 62.9119 62.5885C63.4389 62.5885 63.7904 63.0277 63.7904 63.4677V75.2405L62.6481 74.8896C44.1974 69.4418 41.9127 58.5475 41.825 58.1082L41.7373 57.8444L41.825 57.5812L55.8832 21.6454C56.8494 19.1853 59.1341 17.6921 61.6819 17.6921L90.2368 17.6914C92.7846 17.6914 95.0699 19.2723 96.0362 21.6447L110.621 57.8437L110.533 58.1082C110.445 58.5475 108.161 69.5302 89.7098 74.8896L88.5675 75.2399Z" stroke="black" stroke-opacity="0.2" stroke-width="1.14714"/>
<path d="M157.23 43.7188H0V76.3853H157.23V43.7188Z" fill="#30322F"/>
<path d="M157.23 43.7188H0V76.3853H157.23V43.7188Z" fill="black" fill-opacity="0.2"/>
<path d="M18.1715 66.5284H11.6697V63.9092H13.0484L10.314 60.2328H8.47645V63.9092H9.73988V66.5284H3.78931V63.9092H5.39773V54.2135H3.78931V51.5943H9.80862V54.2135H8.47645V57.7289H10.3598L13.0019 54.2135H11.7156V51.5943H17.9188V54.2135H16.2417L12.6805 58.6938L16.6325 63.9092H18.1715V66.5284ZM34.2728 54.2135H32.9406V60.348C32.9406 61.4046 32.7409 62.4232 32.3429 63.4039C31.9449 64.3838 31.2785 65.1877 30.3443 65.8162C29.4095 66.4439 28.1461 66.7582 26.5534 66.7582C24.2864 66.7582 22.6858 66.1376 21.7517 64.8971C20.8175 63.6408 20.3501 62.2091 20.3501 60.6007V54.2135H19.0173V51.5943H25.1747V54.2135H23.4288V60.5091C23.4288 61.5349 23.6737 62.3852 24.164 63.0589C24.6694 63.7174 25.5197 64.0467 26.7144 64.0467C27.8934 64.0467 28.7438 63.7102 29.2642 63.0359C29.8003 62.3623 30.0687 61.4662 30.0687 60.348V54.2135H28.3222V51.5943H34.2728V54.2135ZM57.3334 54.2135H56.1387L52.0263 66.5284H49.8438L46.3291 56.8785H46.2139L42.8595 66.5284H40.6312L36.2661 54.2135H34.9791V51.5943H40.9297V54.2135H39.551L41.7801 61.4275H41.9175L44.5825 54.2135H43.4107V51.5943H49.3613V54.2135H48.3047L50.9468 61.5657H51.0843L53.0606 54.2135H51.4522V51.5943H57.3334V54.2135ZM71.6043 66.5284H65.6537V63.9092H66.8484L66.2966 62.3925H61.2193L60.5993 63.9092H62.0002V66.5284H56.119V63.9092H57.4748L61.7476 54.2135H59.6802V51.5943H64.8034L70.1798 63.9092H71.6043V66.5284ZM65.4698 60.187L63.9072 55.983H63.7697L62.0925 60.187H65.4698ZM78.7843 66.5284H72.4894V63.9092H74.0971V54.2135H72.4894V51.5943H78.7843V54.2135H77.1758V63.9092H78.7843V66.5284ZM94.1209 56.6494L91.5018 56.8785L91.0429 54.2135H88.6764V63.9092H91.1116V66.5284H83.2999V63.9092H85.5977V54.2135H83.2312L82.7716 56.8785L80.1525 56.6494L80.612 51.5943H93.6614L94.1209 56.6494ZM101.826 66.5284H95.531V63.9092H97.1394V54.2135H95.531V51.5943H101.826V54.2135H100.218V63.9092H101.826V66.5284ZM120.736 62.0939C120.736 63.2886 120.33 64.3302 119.519 65.2185C118.722 66.0918 117.466 66.5284 115.751 66.5284H107.894V63.9092H109.501V54.2135H107.894V51.5943H115.659C117.022 51.5943 118.117 51.9164 118.944 52.5593C119.786 53.1877 120.208 54.0302 120.208 55.0868C120.208 55.8678 119.97 56.5492 119.496 57.1319C119.021 57.7138 118.355 58.0732 117.497 58.2113V58.303C118.569 58.4562 119.373 58.8778 119.909 59.5671C120.461 60.2564 120.736 61.0982 120.736 62.0939ZM116.899 55.8907C116.899 55.2171 116.693 54.7726 116.279 54.5585C115.881 54.3287 115.406 54.2135 114.855 54.2135H112.58V57.706H114.625C115.498 57.706 116.096 57.5299 116.417 57.1777C116.738 56.8255 116.899 56.3961 116.899 55.8907ZM117.428 61.9794C117.428 60.7231 116.67 60.0954 115.154 60.0954H112.58V63.9092H114.947C116.601 63.9092 117.428 63.2657 117.428 61.9794ZM137.096 59.0381C137.096 61.1519 136.415 62.9672 135.051 64.4833C133.703 66.0001 131.819 66.7582 129.4 66.7582C126.964 66.7582 125.095 66.0001 123.793 64.4833C122.492 62.9672 121.841 61.1676 121.841 59.0846C121.841 56.9093 122.53 55.0789 123.909 53.5936C125.287 52.1076 127.148 51.3652 129.491 51.3652C131.881 51.3652 133.742 52.1233 135.074 53.6394C136.422 55.1405 137.096 56.94 137.096 59.0381ZM133.765 59.1304C133.765 57.5377 133.397 56.2966 132.662 55.4082C131.926 54.5199 130.862 54.076 129.468 54.076C127.982 54.076 126.895 54.5507 126.206 55.5005C125.516 56.4347 125.172 57.6065 125.172 59.0152C125.172 60.3788 125.509 61.5578 126.183 62.5535C126.857 63.5492 127.982 64.0467 129.56 64.0467C131.015 64.0467 132.08 63.595 132.754 62.6916C133.427 61.7725 133.765 60.5857 133.765 59.1304ZM152.096 56.6494L149.477 56.8785L149.017 54.2135H146.652V63.9092H149.087V66.5284H141.275V63.9092H143.573V54.2135H141.206L140.747 56.8785L138.128 56.6494L138.587 51.5943H151.637L152.096 56.6494Z" fill="white"/>
<path d="M18.1715 66.5284H11.6697V63.9092H13.0484L10.314 60.2328H8.47645V63.9092H9.73988V66.5284H3.78931V63.9092H5.39773V54.2135H3.78931V51.5943H9.80862V54.2135H8.47645V57.7289H10.3598L13.0019 54.2135H11.7156V51.5943H17.9188V54.2135H16.2417L12.6805 58.6938L16.6325 63.9092H18.1715V66.5284ZM34.2728 54.2135H32.9406V60.348C32.9406 61.4046 32.7409 62.4232 32.3429 63.4039C31.9449 64.3838 31.2785 65.1877 30.3443 65.8162C29.4095 66.4439 28.1461 66.7582 26.5534 66.7582C24.2864 66.7582 22.6858 66.1376 21.7517 64.8971C20.8175 63.6408 20.3501 62.2091 20.3501 60.6007V54.2135H19.0173V51.5943H25.1747V54.2135H23.4288V60.5091C23.4288 61.5349 23.6737 62.3852 24.164 63.0589C24.6694 63.7174 25.5197 64.0467 26.7144 64.0467C27.8934 64.0467 28.7438 63.7102 29.2642 63.0359C29.8003 62.3623 30.0687 61.4662 30.0687 60.348V54.2135H28.3222V51.5943H34.2728V54.2135ZM57.3334 54.2135H56.1387L52.0263 66.5284H49.8438L46.3291 56.8785H46.2139L42.8595 66.5284H40.6312L36.2661 54.2135H34.9791V51.5943H40.9297V54.2135H39.551L41.7801 61.4275H41.9175L44.5825 54.2135H43.4107V51.5943H49.3613V54.2135H48.3047L50.9468 61.5657H51.0843L53.0606 54.2135H51.4522V51.5943H57.3334V54.2135ZM71.6043 66.5284H65.6537V63.9092H66.8484L66.2966 62.3925H61.2193L60.5993 63.9092H62.0002V66.5284H56.119V63.9092H57.4748L61.7476 54.2135H59.6802V51.5943H64.8034L70.1798 63.9092H71.6043V66.5284ZM65.4698 60.187L63.9072 55.983H63.7697L62.0925 60.187H65.4698ZM78.7843 66.5284H72.4894V63.9092H74.0971V54.2135H72.4894V51.5943H78.7843V54.2135H77.1758V63.9092H78.7843V66.5284ZM94.1209 56.6494L91.5018 56.8785L91.0429 54.2135H88.6764V63.9092H91.1116V66.5284H83.2999V63.9092H85.5977V54.2135H83.2312L82.7716 56.8785L80.1525 56.6494L80.612 51.5943H93.6614L94.1209 56.6494ZM101.826 66.5284H95.531V63.9092H97.1394V54.2135H95.531V51.5943H101.826V54.2135H100.218V63.9092H101.826V66.5284ZM120.736 62.0939C120.736 63.2886 120.33 64.3302 119.519 65.2185C118.722 66.0918 117.466 66.5284 115.751 66.5284H107.894V63.9092H109.501V54.2135H107.894V51.5943H115.659C117.022 51.5943 118.117 51.9164 118.944 52.5593C119.786 53.1877 120.208 54.0302 120.208 55.0868C120.208 55.8678 119.97 56.5492 119.496 57.1319C119.021 57.7138 118.355 58.0732 117.497 58.2113V58.303C118.569 58.4562 119.373 58.8778 119.909 59.5671C120.461 60.2564 120.736 61.0982 120.736 62.0939ZM116.899 55.8907C116.899 55.2171 116.693 54.7726 116.279 54.5585C115.881 54.3287 115.406 54.2135 114.855 54.2135H112.58V57.706H114.625C115.498 57.706 116.096 57.5299 116.417 57.1777C116.738 56.8255 116.899 56.3961 116.899 55.8907ZM117.428 61.9794C117.428 60.7231 116.67 60.0954 115.154 60.0954H112.58V63.9092H114.947C116.601 63.9092 117.428 63.2657 117.428 61.9794ZM137.096 59.0381C137.096 61.1519 136.415 62.9672 135.051 64.4833C133.703 66.0001 131.819 66.7582 129.4 66.7582C126.964 66.7582 125.095 66.0001 123.793 64.4833C122.492 62.9672 121.841 61.1676 121.841 59.0846C121.841 56.9093 122.53 55.0789 123.909 53.5936C125.287 52.1076 127.148 51.3652 129.491 51.3652C131.881 51.3652 133.742 52.1233 135.074 53.6394C136.422 55.1405 137.096 56.94 137.096 59.0381ZM133.765 59.1304C133.765 57.5377 133.397 56.2966 132.662 55.4082C131.926 54.5199 130.862 54.076 129.468 54.076C127.982 54.076 126.895 54.5507 126.206 55.5005C125.516 56.4347 125.172 57.6065 125.172 59.0152C125.172 60.3788 125.509 61.5578 126.183 62.5535C126.857 63.5492 127.982 64.0467 129.56 64.0467C131.015 64.0467 132.08 63.595 132.754 62.6916C133.427 61.7725 133.765 60.5857 133.765 59.1304ZM152.096 56.6494L149.477 56.8785L149.017 54.2135H146.652V63.9092H149.087V66.5284H141.275V63.9092H143.573V54.2135H141.206L140.747 56.8785L138.128 56.6494L138.587 51.5943H151.637L152.096 56.6494Z" fill="black" fill-opacity="0.2"/>
</svg>
