<svg width="38" height="38" viewBox="0 0 38 38" fill="none" xmlns="http://www.w3.org/2000/svg">
<path d="M19.3226 32.578C20.8271 31.6316 22.1791 30.4845 23.357 29.2054C25.9155 26.4323 27.6419 23.0432 28.3334 19.7178C29.0201 16.4349 28.6958 13.2181 27.1769 10.7353C26.7453 10.0225 26.2041 9.37112 25.5603 8.78581C23.7147 7.12194 21.6021 6.32895 19.4752 6.30771C17.241 6.29119 14.9757 7.12194 12.9728 8.70085C12.1192 9.37584 11.4158 10.1523 10.8697 11.009C9.46292 13.1992 9.0361 15.918 9.50107 18.7619C9.9708 21.6483 11.3562 24.6669 13.5642 27.4023C15.0997 29.3092 17.0311 31.0793 19.3297 32.5732L19.3226 32.578ZM18.9983 9.99418C20.6793 9.99418 22.2054 10.6692 23.3046 11.7619C24.4086 12.8546 25.0905 14.358 25.0905 16.0242C25.0905 17.6881 24.4086 19.1986 23.3046 20.2866C22.2006 21.3793 20.6817 22.0543 18.9983 22.0543C17.3173 22.0543 15.7912 21.3793 14.692 20.2866C13.588 19.1938 12.906 17.6905 12.906 16.0242C12.906 14.3604 13.588 12.8499 14.692 11.7619C15.796 10.6692 17.3149 9.99418 18.9983 9.99418ZM22.4271 12.6304C21.552 11.7643 20.3336 11.2214 18.9983 11.2214C17.6558 11.2214 16.4446 11.7572 15.5695 12.6304C14.6944 13.4966 14.146 14.7026 14.146 16.0242C14.146 17.353 14.6872 18.5519 15.5695 19.4181C16.4446 20.2842 17.663 20.827 18.9983 20.827C20.3407 20.827 21.552 20.2913 22.4271 19.4181C23.3022 18.5519 23.8506 17.3459 23.8506 16.0242C23.8482 14.6955 23.3093 13.4966 22.4271 12.6304ZM24.337 30.081C23.0018 31.5253 21.4543 32.821 19.7065 33.8713C19.4966 34.0271 19.1986 34.0483 18.9601 33.8972C16.3849 32.2759 14.227 30.3264 12.5245 28.2118C10.1806 25.3018 8.6999 22.0732 8.19678 18.9626C7.68413 15.8095 8.1634 12.7791 9.74905 10.3057C10.3762 9.33099 11.1726 8.4436 12.1502 7.67657C14.3844 5.91593 16.9429 4.9837 19.4847 5.00022C21.9359 5.02146 24.3537 5.92065 26.452 7.81581C27.1888 8.479 27.804 9.22951 28.3071 10.0532C30.012 12.831 30.3792 16.3806 29.6329 19.968C28.8913 23.5175 27.0577 27.1261 24.3442 30.0692L24.337 30.081Z" fill="#EF3239"/>
</svg>
