<?xml version="1.0" encoding="UTF-8"?>
<svg width="780px" height="166px" viewBox="0 0 780 166" version="1.1" xmlns="http://www.w3.org/2000/svg" xmlns:xlink="http://www.w3.org/1999/xlink">
    <!-- Generator: Sketch 62 (91390) - https://sketch.com -->
    <title>grappus-logo</title>
    <desc>Created with Sketch.</desc>
    <g id="Page-1" stroke="none" stroke-width="1" fill="none" fill-rule="evenodd">
        <g id="grappus-logo" fill="#FFFFFF" fill-rule="nonzero">
            <path d="M53.6904877,1.38912134 C62.2127873,1.38912134 69.1855779,2.85541609 74.6088595,5.78800558 C79.8571965,8.62599541 83.5092651,11.8253592 85.5650654,15.3860968 L85.7653245,15.7433752 L85.7653245,3.47280335 L119.467146,3.47280335 L119.467146,104.1841 C119.467146,122.088331 114.276291,136.867039 103.89458,148.520223 C93.5128696,160.173408 78.0952548,166 57.6417357,166 C41.8367437,166 28.7046547,161.948396 18.2454688,153.845188 C7.78628285,145.74198 1.70445993,136.133891 0,125.020921 C0.444562049,125.020973 0.884995943,125.021025 1.32130168,125.021075 L9.87688357,125.021969 C10.0661394,125.021986 10.2543631,125.022003 10.4415548,125.02202 L32.7969099,125.02202 L32.8942526,125.021995 L32.8942526,125.021995 L35.0437864,125.021075 C35.1126864,125.021025 35.1774583,125.020973 35.238102,125.020921 C36.4634306,126.697322 37.9375078,128.75487 39.6286933,130.114365 C44.044794,133.664342 49.5068133,135.439331 56.0147512,135.439331 C74.8831226,135.439331 84.4116502,125.833348 84.6003339,106.621383 L84.6031927,106.036262 L84.6031927,100.711297 C78.8700093,109.354719 68.5657743,113.67643 53.6904877,113.67643 C38.3503483,113.67643 25.5668989,108.351464 15.3401393,97.7015342 C5.11337978,87.0516039 0,73.7006044 0,57.6485356 C0,42.213854 5.07464205,28.9786146 15.2239262,17.9428173 C25.3732103,6.90701999 38.1953974,1.38912134 53.6904877,1.38912134 Z M382.794715,0.694560669 C399.219511,0.694560669 412.274125,6.28963273 421.958556,17.4797768 C431.642987,28.669921 436.485203,43.0627615 436.485203,60.6582985 C436.485203,78.2538354 431.333086,92.7238494 421.028851,104.06834 C410.724616,115.412831 397.515051,121.085077 381.400157,121.085077 C366.834772,121.085077 356.375586,117.226406 350.022599,109.509066 L350.022599,109.509066 L350.022599,162.527197 L314.693794,162.527197 L314.693794,3.47280335 L348.860468,3.47280335 L348.860468,15.2803347 L349.112528,14.9058101 C351.769921,11.0532442 356.063264,7.74386913 361.992557,4.9776848 C368.113117,2.12226871 375.04717,0.694560669 382.794715,0.694560669 Z M511.25515,0.694560669 C527.679946,0.694560669 540.734559,6.28963273 550.418991,17.4797768 C560.103422,28.669921 564.945638,43.0627615 564.945638,60.6582985 C564.945638,78.2538354 559.79352,92.7238494 549.489285,104.06834 C539.18505,115.412831 525.975486,121.085077 509.860592,121.085077 C495.295207,121.085077 484.836021,117.226406 478.483034,109.509066 L478.483034,109.509066 L478.483034,162.527197 L443.154229,162.527197 L443.154229,3.47280335 L477.320902,3.47280335 L477.320902,15.2803347 L477.572963,14.9058101 C480.230355,11.0532442 484.523698,7.74386913 490.452991,4.9776848 C496.573552,2.12226871 503.507605,0.694560669 511.25515,0.694560669 Z M731.220229,0 C746.250467,0 757.523145,3.58856346 765.038264,10.7656904 C772.553383,17.9428173 776.698319,25.7759182 777.473074,34.264993 L777.473074,34.264993 L776.236091,34.2641467 C775.623916,34.2637332 775.021216,34.2633344 774.42799,34.2629501 L773.25417,34.262201 C773.060638,34.2620794 772.86816,34.2619594 772.676734,34.2618411 L771.540811,34.2611504 C771.353596,34.2610385 771.167434,34.2609282 770.982324,34.2608196 L769.884299,34.2601873 C769.7034,34.2600851 769.523554,34.2599846 769.34476,34.2598857 L767.764043,34.2590393 C767.591566,34.2589502 767.420141,34.2588626 767.249769,34.2587767 L765.744847,34.2580471 C765.580791,34.2579709 765.417788,34.2578963 765.255838,34.2578233 L763.362966,34.2570256 C763.209438,34.2569656 763.056962,34.2569072 762.905539,34.2568505 L760.293616,34.2560041 C760.154825,34.2559668 760.017087,34.2559312 759.880402,34.2558971 L752.661963,34.2558971 C752.569491,34.2559312 752.478072,34.2559668 752.387706,34.2560041 L750.874807,34.2568505 C750.797073,34.2569072 750.720392,34.2569656 750.644764,34.2570256 L749.787754,34.2578233 C749.720547,34.2578963 749.654393,34.2579709 749.589292,34.2580471 L749.031803,34.2587767 C748.973018,34.2588626 748.915286,34.2589502 748.858606,34.2590393 L748.376912,34.2598857 C748.326549,34.2599846 748.277238,34.2600851 748.22898,34.2601873 L747.952065,34.2608196 C747.908018,34.2609282 747.865023,34.2610385 747.823081,34.2611504 L747.584063,34.2618411 C747.546332,34.2619594 747.509654,34.2620794 747.474029,34.262201 L747.272908,34.2629501 C747.178664,34.2633344 747.093894,34.2637332 747.018598,34.2641467 L746.88064,34.264993 C746.07515,32.4478671 744.855261,30.7893579 743.422613,29.4030683 C740.710972,26.7791725 736.798462,25.4672245 731.685082,25.4672245 C728.276162,25.4672245 725.332095,26.3933054 722.852881,28.2454672 C720.373666,30.097629 719.134059,32.4900046 719.134059,35.4225941 C719.134059,40.0529986 722.155602,42.9084147 728.198687,43.9888424 L728.198687,43.9888424 L743.538826,46.9986053 C755.160144,49.3138075 763.992345,53.7126918 770.03543,60.195258 C776.078516,66.6778243 779.100058,74.3179916 779.100058,83.1157601 C779.100058,93.7656904 775.071335,102.910739 767.013888,110.550907 C758.956441,118.191074 747.645025,122.011158 733.07964,122.011158 C724.557341,122.011158 717.003484,120.776383 710.418071,118.306834 C703.832657,115.837285 698.796753,112.634589 695.310358,108.698745 C691.823962,104.762901 689.189797,100.865644 687.407862,97.0069735 C685.625926,93.1483031 684.580008,89.4439795 684.270106,85.8940028 C687.646829,85.8972843 690.751754,85.8999825 693.584879,85.9020972 L694.63456,85.9028629 C694.807384,85.902986 694.979146,85.9031068 695.149846,85.9032253 L696.161305,85.9039089 C696.327758,85.9040183 696.49315,85.9041254 696.65748,85.9042302 L697.630717,85.9048318 C697.7908,85.9049276 697.949821,85.905021 698.107781,85.9051121 L699.50075,85.905871 C699.652339,85.9059485 699.802866,85.9060237 699.952332,85.9060966 L701.694958,85.9068623 C701.83593,85.906917 701.975841,85.9069694 702.114689,85.9070195 L709.737084,85.9070195 C709.829218,85.9069694 709.920289,85.906917 710.010299,85.9068623 L711.039452,85.9060966 C711.120968,85.9060237 711.201423,85.9059485 711.280815,85.905871 L711.966681,85.9051121 C712.039704,85.905021 712.111664,85.9049276 712.182563,85.9048318 L712.595215,85.9042302 C712.661867,85.9041254 712.727457,85.9040183 712.791986,85.9039089 L713.166416,85.9032253 C713.226698,85.9031068 713.285918,85.902986 713.344076,85.9028629 L713.680285,85.9020972 C714.542866,85.8999825 715.133649,85.8972843 715.452632,85.8940028 C716.294246,88.0054644 717.548391,89.8710017 719.250272,91.5662483 C722.271815,94.5760112 726.649178,96.0808926 732.382361,96.0808926 C736.720986,96.0808926 740.052431,95.116225 742.376694,93.1868898 C744.700958,91.2575546 745.86309,88.9037657 745.86309,86.125523 C745.86309,81.4951185 742.066793,78.3310088 734.474198,76.6331939 L734.474198,76.6331939 L721.225896,73.623431 C709.449628,71.1538819 700.772377,66.7935844 695.194145,60.5425384 C689.615912,54.2914923 686.826796,46.8442585 686.826796,38.2008368 C686.826796,27.5509066 691.049208,18.5216179 699.494032,11.1129707 C707.938856,3.70432357 718.514255,0 731.220229,0 Z M256.821933,0 C274.331385,0 287.231048,4.16736402 295.520921,12.5020921 C303.810794,20.8368201 307.955731,31.4867503 307.955731,44.4518828 L307.955731,44.4518828 L307.955731,118.538354 L276.345747,118.538354 L276.345747,118.538354 L276.345747,105.573222 C269.682858,116.377499 258.836295,121.779637 243.806057,121.779637 C231.564936,121.779637 221.841767,118.345421 214.63655,111.476987 C207.431333,104.608554 203.828724,96.3895862 203.828724,86.8200837 C203.828724,77.0962343 207.005218,69.2631334 213.358205,63.320781 C219.711192,57.3784286 227.92359,53.6355184 237.995398,52.0920502 L237.995398,52.0920502 L265.189282,47.9246862 C270.767514,47.1529521 273.55663,44.5290563 273.55663,40.0529986 C273.55663,36.5030219 272.045859,33.5318457 269.024317,31.13947 C266.002774,28.7470944 261.857837,27.5509066 256.589507,27.5509066 C250.701372,27.5509066 246.014108,29.2101348 242.527712,32.5285914 C240.707868,34.2607737 239.31695,36.111191 238.362598,38.2008368 C238.126498,38.2146584 236.729529,38.2237807 234.171691,38.2282036 L233.708257,38.2289353 C233.629009,38.2290491 233.548758,38.2291589 233.467502,38.2292646 L232.967916,38.22985 C232.882644,38.2299394 232.796367,38.2300248 232.709086,38.2301061 L231.61351,38.2308866 C231.518195,38.2309354 231.421876,38.2309801 231.324553,38.2310207 L228.103592,38.2310207 C227.986184,38.2309801 227.867773,38.2309354 227.748357,38.2308866 L226.267164,38.2301061 C226.139714,38.2300248 226.01126,38.2299394 225.881802,38.22985 L225.093003,38.2292646 C224.959528,38.2291589 224.825049,38.2290491 224.689566,38.2289353 L223.864615,38.2282036 C219.12161,38.2237807 213.217734,38.2146584 206.152988,38.2008368 C206.927742,28.6313343 211.692483,19.8721525 220.447209,11.9232915 C229.201935,3.9744305 241.326843,0 256.821933,0 Z M606.699536,3.47280335 L606.699536,68.7615063 C606.699536,74.6266853 608.287783,79.4114365 611.464277,83.1157601 C614.64077,86.8200837 619.25056,88.6722455 625.293645,88.6722455 C631.181779,88.6722455 635.869044,86.8586704 639.355439,83.2315202 C642.841834,79.6043701 644.585032,74.8582055 644.585032,68.9930265 L644.585032,68.9930265 L644.585032,3.47280335 L679.913838,3.47280335 L679.913838,118.538354 L646.212017,118.538354 L646.212017,118.538354 L646.212017,106.962343 C643.4229,111.592748 639.16175,115.104138 633.428567,117.496513 C627.695384,119.888889 621.652299,121.085077 615.299312,121.085077 C601.663632,121.085077 590.933282,116.801953 583.108262,108.235704 C575.283241,99.6694561 571.370731,88.9809391 571.370731,76.1701534 L571.370731,76.1701534 L571.370731,3.47280335 L606.699536,3.47280335 Z M192.999037,2.31520223 C196.562908,2.31520223 199.661926,2.70106927 202.296091,3.47280335 L202.296091,3.47280335 L202.296091,37.7080597 L202.296091,37.7080597 L190.899985,37.7080597 C182.647174,37.7080597 176.76793,39.5899582 171.732026,44.6834031 C166.696121,49.776848 164.178169,57.6485356 164.178169,68.2984658 L164.178169,68.2984658 L164.178169,118.538354 L128.849363,118.538354 L128.849363,3.47280335 L163.016037,3.47280335 L163.016037,18.9846583 C165.805154,13.1194793 170.066303,8.87494189 175.799487,6.25104603 C181.53267,3.62715016 187.265854,2.31520223 192.999037,2.31520223 Z M273.55663,68.2984658 L251.708553,71.7712692 L251.29863,71.8395761 C242.894662,73.2958572 238.692677,77.5176256 238.692677,84.5048815 C238.692677,87.7461646 239.816071,90.5244073 242.062859,92.8396095 C244.309648,95.1548117 247.757305,96.3124128 252.405832,96.3124128 C258.448917,96.3124128 263.484822,94.5374245 267.513545,90.9874477 C271.542269,87.4374709 273.55663,81.572292 273.55663,73.3919107 L273.55663,73.3919107 L273.55663,68.2984658 Z M375.589498,32.4128312 C368.306806,32.4128312 362.147508,34.8823803 357.111603,39.8214784 C352.075699,44.7605765 349.557747,51.7833566 349.557747,60.8898187 C349.557747,69.9962808 352.075699,77.0576476 357.111603,82.0739191 C362.147508,87.0901906 368.306806,89.5983264 375.589498,89.5983264 C383.027142,89.5983264 389.225178,87.1287773 394.183607,82.1896792 C399.296986,77.0962343 401.853676,69.9962808 401.853676,60.8898187 C401.853676,51.7833566 399.335724,44.7605765 394.29982,39.8214784 C389.263916,34.8823803 383.027142,32.4128312 375.589498,32.4128312 Z M504.049933,32.4128312 C496.767241,32.4128312 490.607942,34.8823803 485.572038,39.8214784 C480.536134,44.7605765 478.018182,51.7833566 478.018182,60.8898187 C478.018182,69.9962808 480.536134,77.0576476 485.572038,82.0739191 C490.607942,87.0901906 496.767241,89.5983264 504.049933,89.5983264 C511.487576,89.5983264 517.685613,87.1287773 522.644041,82.1896792 C527.757421,77.0962343 530.314111,69.9962808 530.314111,60.8898187 C530.314111,51.7833566 527.796159,44.7605765 522.760255,39.8214784 C517.72435,34.8823803 511.487576,32.4128312 504.049933,32.4128312 Z M60.1984255,32.181311 C53.3805858,32.181311 47.5311892,34.5351 42.6502358,39.2426778 C37.7692824,43.9502557 35.3288057,50.0855416 35.3288057,57.6485356 C35.3288057,65.3658763 37.6530692,71.539749 42.3015963,76.1701534 C46.9501234,80.8005579 52.9157331,83.1157601 60.1984255,83.1157601 C67.4811179,83.1157601 73.4079899,80.8005579 77.9790416,76.1701534 C82.5500932,71.539749 84.835619,65.3658763 84.835619,57.6485356 C84.835619,50.0855416 82.43388,43.9502557 77.630402,39.2426778 C72.8269241,34.5351 67.0162652,32.181311 60.1984255,32.181311 Z" id="Combined-Shape"></path>
        </g>
    </g>
</svg>