<svg width="38" height="38" viewBox="0 0 38 38" fill="none" xmlns="http://www.w3.org/2000/svg">
<path fill-rule="evenodd" clip-rule="evenodd" d="M11.0103 12.0631H14.0555C14.0194 12.1497 13.9876 12.2392 13.9602 12.3301L12.7735 16.2858C12.6579 16.6719 12.6297 17.042 12.6695 17.3978L12.6731 17.4346L12.1672 17.9816C11.9439 18.1836 11.7568 18.395 11.6057 18.6101C11.5335 18.7125 11.4692 18.8164 11.4113 18.9225H11.0103C10.8773 18.9225 10.7653 18.8013 10.7653 18.6534V12.3323C10.7653 12.1843 10.8751 12.0631 11.0103 12.0631ZM18.6509 30.2875C18.6488 30.2586 18.6488 30.2305 18.6517 30.2023C17.8358 30.2334 17.0112 30.1915 16.2763 30.1085C15.2927 29.9967 14.4068 29.7723 13.7441 29.4302C13.2361 29.1676 12.848 28.8306 12.629 28.4179C12.3963 27.977 12.358 27.4733 12.5676 26.909C12.7085 26.528 12.9672 26.1182 13.3611 25.6802C13.3856 25.4038 13.421 25.1231 13.4666 24.8366C13.5208 24.5011 13.5909 24.1677 13.6769 23.8379L13.6841 23.7824C13.8091 23.1568 13.9732 22.5817 14.1423 21.9907L14.1748 21.8767L13.3054 21.5599C13.0583 21.4776 12.8538 21.3391 12.7027 21.1609L12.6796 21.1298C12.5495 20.966 12.4628 20.7734 12.4281 20.5641C12.3927 20.3534 12.4086 20.1239 12.4838 19.893C12.5857 19.5755 12.8003 19.2494 13.1428 18.9543L14.2167 17.7932C14.0375 17.4721 13.9659 17.1099 14.0946 16.6791L15.2812 12.7234C15.386 12.3712 15.6266 12.0927 15.9294 11.9303C16.0653 11.8574 16.2134 11.8077 16.3673 11.7846L15.6721 11.1965C15.4842 11.0384 15.4604 10.7563 15.6194 10.5687L15.6916 10.5009C21.707 5.96208 27.0186 5.8055 30.8639 7.83099C33.1106 9.01512 34.85 10.9468 35.9319 13.1844C36.9826 15.3593 37.4162 17.8286 37.0968 20.1882C37.3858 20.3642 37.6171 20.6139 37.7732 20.9033C37.9958 21.3167 38.0666 21.8139 37.9314 22.2966L37.9105 22.3659C37.758 22.8436 37.4249 23.2217 37.0093 23.4454C36.7051 23.6092 36.3561 23.6907 36.0005 23.6698C34.6824 26.1939 32.2347 28.2844 28.4386 29.2874C28.456 29.5342 28.4798 29.7773 28.5087 30.0176C28.646 31.1397 28.9105 32.1925 29.2834 33.1818C29.3708 33.412 29.2538 33.6688 29.0232 33.7554C28.7927 33.8427 28.5347 33.7258 28.448 33.4957C28.0491 32.4378 27.7673 31.3165 27.6213 30.1259C27.476 28.9388 27.4645 27.6775 27.6032 26.3332C27.6154 26.2157 27.6737 26.1078 27.7654 26.0331C27.8571 25.9585 27.9747 25.9231 28.0925 25.9349C28.3374 25.9601 28.5159 26.1788 28.4914 26.4234C28.422 27.0952 28.3931 27.7453 28.4003 28.376C31.7094 27.4553 33.8838 25.6405 35.0994 23.4505L28.0686 21.3492C27.7629 22.1227 27.1949 22.7346 26.5004 23.1077C25.7272 23.5241 24.7928 23.6475 23.8895 23.3776L21.1181 22.5485L21.1087 22.547L21.0632 22.5326L21.0538 22.5297L17.1167 21.3528C16.4584 21.1565 16.2669 20.6226 16.0645 20.0568C15.9597 19.7632 15.8492 19.4565 15.6678 19.2703C15.5406 19.1397 15.3773 18.999 15.2111 18.8561C15.0702 18.7356 14.9271 18.6122 14.7912 18.4845L13.7426 19.6152C13.5208 19.8014 13.3885 19.9919 13.3329 20.1651C13.3033 20.2574 13.296 20.344 13.3083 20.4176C13.3177 20.4754 13.3401 20.528 13.3719 20.5713L13.3842 20.585C13.4312 20.6406 13.4998 20.6853 13.5851 20.7149C14.3395 20.961 15.1453 21.2814 15.899 21.5556L15.5948 22.3933L15.0167 22.1826L15.0022 22.2346C14.8541 22.7548 14.7088 23.2628 14.5946 23.7947C14.8223 23.9974 15.055 24.1497 15.2942 24.2478C15.5753 24.3633 15.8745 24.4051 16.1874 24.3661C16.4324 24.3358 16.6557 24.5105 16.6853 24.7551C16.7149 24.9997 16.5408 25.2227 16.2958 25.2523C15.8297 25.3107 15.3823 25.2472 14.9545 25.0719C14.7594 24.991 14.5694 24.8864 14.3844 24.7601L14.3468 24.9752C14.2984 25.2753 14.2629 25.5849 14.2398 25.901C14.2316 26.0102 14.1835 26.1127 14.1047 26.1889C13.7441 26.572 13.5172 26.9148 13.4059 27.2157C13.2917 27.5245 13.3047 27.7865 13.4189 28.0022C13.5468 28.2447 13.8041 28.4583 14.1538 28.6379C14.7153 28.928 15.4944 29.1221 16.3746 29.2224C17.2157 29.317 18.1834 29.3559 19.1055 29.283C19.8549 29.2239 20.5703 29.0911 21.1513 28.8573C21.7172 28.63 22.111 28.0888 22.4463 27.6277L22.7079 27.2741C23.1264 26.7127 23.8541 25.735 24.4972 25.4897C24.7278 25.4023 24.9858 25.5178 25.0732 25.748C25.1614 25.9789 25.0457 26.2365 24.8145 26.3245C24.4127 26.4775 23.7854 27.321 23.4248 27.8045L23.1697 28.1509C22.7643 28.7072 22.2895 29.3595 21.483 29.6842C20.9049 29.9166 20.2314 30.0616 19.5282 30.1388C19.5355 30.1641 19.5398 30.1901 19.542 30.2175C19.5752 30.6375 19.5991 31.468 19.5759 32.2351C19.5586 32.8065 19.5138 33.3463 19.4278 33.6688C19.4127 33.7255 19.3865 33.7786 19.3508 33.8251C19.3151 33.8716 19.2706 33.9107 19.2198 33.94C19.169 33.9694 19.1129 33.9884 19.0547 33.9961C18.9966 34.0038 18.9374 34 18.8807 33.9849C18.643 33.9214 18.5013 33.6768 18.5649 33.4387C18.6329 33.1825 18.6697 32.7149 18.6849 32.2105C18.7066 31.4897 18.6834 30.6945 18.6509 30.2875ZM21.8595 19.9176C22.0025 19.9607 22.1225 20.0587 22.1934 20.19C22.2642 20.3213 22.2801 20.4753 22.2375 20.6182C22.1945 20.761 22.0965 20.8809 21.9651 20.9516C21.8337 21.0224 21.6796 21.0382 21.5365 20.9956C21.238 20.9061 21.0689 20.593 21.1578 20.2957C21.2474 19.9977 21.5611 19.8295 21.8595 19.9176ZM19.3006 19.1534C19.3715 19.1745 19.4376 19.2093 19.495 19.2559C19.5524 19.3025 19.6 19.36 19.6352 19.425C19.6703 19.49 19.6922 19.5613 19.6996 19.6349C19.7071 19.7084 19.6999 19.7826 19.6785 19.8533C19.5897 20.1506 19.2753 20.3195 18.9776 20.2307C18.6798 20.1413 18.51 19.8288 18.5996 19.5308C18.6207 19.46 18.6556 19.394 18.7023 19.3367C18.7489 19.2794 18.8065 19.2318 18.8716 19.1967C18.9367 19.1617 19.0082 19.1398 19.0818 19.1324C19.1554 19.1249 19.2298 19.1321 19.3006 19.1534ZM14.9336 17.0153L14.9321 17.0283V17.0312L14.9314 17.0406V17.0918L14.9321 17.1048L14.9336 17.1099V17.1171L14.935 17.1294V17.1301L14.9372 17.1431L14.9379 17.1488L14.9394 17.1553L14.9415 17.1683V17.169L14.9444 17.1813L14.9466 17.1885L14.9473 17.1936L14.9545 17.2196L14.9574 17.2282L14.9581 17.2318L14.9632 17.2448L14.9639 17.2477L14.9675 17.2578L14.9712 17.2672L14.9726 17.2708L14.9769 17.2838L14.9791 17.2874L14.9827 17.296L14.9878 17.3069L14.9885 17.309L14.9943 17.322L14.9964 17.3264L15.0008 17.335L15.0066 17.3458V17.3473L15.0138 17.3603L15.0167 17.3653L15.0203 17.3733L15.0275 17.3855L15.0347 17.3985L15.0391 17.405L15.0427 17.4115L15.0499 17.4238L15.0514 17.4252L15.0586 17.4368L15.0637 17.4447L15.0665 17.4497L15.0767 17.4642L15.0839 17.475L15.0904 17.4844L15.0933 17.488L15.102 17.501L15.1041 17.5039L15.1113 17.5132L15.1193 17.5233L15.1207 17.5262L15.141 17.5515L15.1496 17.5623L15.1511 17.5645L15.1612 17.5767L15.1655 17.5818L15.1713 17.5897L15.1822 17.602V17.6027L15.193 17.615L15.1988 17.6215L15.2038 17.628L15.2154 17.641L15.2494 17.6785L15.2508 17.6799L15.2617 17.6915L15.2689 17.6994L15.2732 17.7037L15.2848 17.7167L15.2877 17.7189L15.2971 17.729L15.3065 17.7384L15.3094 17.742L15.3224 17.7543L15.326 17.7579L15.3346 17.7672L15.3455 17.7773L15.3469 17.7795L15.3599 17.7925L15.365 17.7968L15.373 17.8048L15.3845 17.8163L15.386 17.817L15.399 17.83C15.5218 17.9484 15.6584 18.0645 15.7914 18.1793C15.9728 18.3344 16.1505 18.4874 16.3081 18.649C16.6268 18.9773 16.7698 19.3757 16.9064 19.7567C17.0307 20.1037 17.1485 20.4321 17.3718 20.4984L21.3255 21.6804L21.3291 21.6811L21.3327 21.6826L21.337 21.6833L21.3414 21.6847C22.0091 21.8846 22.7 21.793 23.2738 21.4841C23.8454 21.1767 24.3007 20.6536 24.5016 19.989L25.7424 15.8514C25.7763 15.7345 25.7604 15.6126 25.7062 15.5116C25.6535 15.4149 25.5646 15.3355 25.454 15.2994L25.4483 15.298L25.4432 15.2965L25.4316 15.2929L25.4208 15.2893L17.8986 13.0408L16.9715 12.7638L16.6925 12.6801C16.5787 12.6469 16.4564 12.6599 16.3522 12.7161C16.2517 12.7703 16.1708 12.8626 16.1368 12.9781L14.9502 16.9338C14.9422 16.9612 14.9372 16.9886 14.9336 17.0153ZM29.1598 17.7506L36.2354 19.8663C36.4811 17.7398 36.0735 15.5282 35.1275 13.5719C34.1252 11.4981 32.5187 9.71145 30.4476 8.61969C26.9788 6.79263 22.1804 6.91386 16.6795 10.8811L18.1834 12.1562C18.1978 12.1721 18.2116 12.1894 18.2231 12.2067L25.6867 14.4386L25.6983 14.4414L25.7142 14.4465L28.5022 15.2792C28.8549 15.3846 29.1338 15.6256 29.2971 15.9272C29.459 16.2281 29.5074 16.5918 29.4019 16.9439L29.1598 17.7506ZM27.346 20.6918L27.3488 20.681L27.3517 20.6702L28.1756 17.9231L28.1835 17.8978L28.5463 16.6892C28.581 16.5723 28.5644 16.4511 28.5102 16.3493C28.4544 16.2458 28.3598 16.1685 28.2471 16.1343L26.6515 15.6573C26.6594 15.8052 26.6421 15.9568 26.598 16.1061L25.3492 20.2704C25.0732 21.158 24.4625 21.8579 23.6965 22.2692C23.6481 22.2959 23.599 22.3212 23.5491 22.345L24.1446 22.5225C24.813 22.7224 25.5046 22.6307 26.0777 22.3226C26.65 22.0145 27.1068 21.4885 27.3069 20.821L27.346 20.6918ZM28.904 18.605L28.336 20.4984L35.499 22.6401C37.1669 23.0976 37.5477 21.3968 36.463 20.8903C36.3467 20.8361 36.2238 20.7892 36.093 20.7546L28.904 18.605ZM1.00072 29.2903L1 4.34501C0.999983 4.2796 1.01859 4.21554 1.05365 4.1603C1.08871 4.10505 1.13878 4.0609 1.19802 4.03298C1.25726 4.00507 1.32322 3.99455 1.38822 4.00266C1.45322 4.01076 1.51457 4.03715 1.56512 4.07874C3.76778 5.63304 6.66347 6.5509 9.76657 6.97519C12.7165 7.37928 15.8492 7.33743 18.7586 6.97303C18.2441 7.22703 17.7238 7.50989 17.1984 7.82378C14.7175 8.02582 12.134 7.99263 9.67551 7.65637C9.08149 7.57555 8.49397 7.4767 7.91728 7.35908V24.7717C9.26866 24.4029 10.693 24.2449 12.1586 24.3265C12.1412 24.421 12.1246 24.5191 12.108 24.6209L12.0494 25.0076C10.4444 24.9268 8.89215 25.1505 7.43889 25.6325C5.21237 26.3714 3.21278 27.7208 1.60125 29.519C1.47479 29.6597 1.25727 29.672 1.11635 29.5457C1.08042 29.5134 1.05159 29.4741 1.03168 29.4301C1.01178 29.3861 1.00124 29.3385 1.00072 29.2903ZM7.22642 24.9802V7.20754C5.18419 6.72985 3.2901 6.00538 1.69086 4.99011V28.428C3.2677 26.8571 5.15167 25.6686 7.22353 24.9817L7.22642 24.9802ZM3.28071 8.44362L5.30198 9.96617C5.44652 10.0744 5.62574 10.1285 5.62574 10.3205V20.4977C5.62574 20.6897 5.44218 20.7387 5.30198 20.852L3.28071 22.4835C3.14124 22.5954 2.95768 22.3233 2.95768 22.1285V8.79792C2.95768 8.60309 3.13762 8.3361 3.28071 8.44362ZM11.063 20.7517H9.66973C9.50424 20.7517 9.35104 20.6825 9.2383 20.5699C9.11834 20.4523 9.04319 20.2841 9.04319 20.0994V10.967C9.04319 10.7823 9.11762 10.6163 9.23614 10.4973C9.34887 10.3854 9.50207 10.3154 9.66973 10.3154H14.2181C14.1579 10.5082 14.13 10.7096 14.1358 10.9114H9.66973C9.64155 10.9114 9.61698 10.9215 9.60108 10.9374C9.59168 10.9461 9.58663 10.9576 9.58663 10.967V20.0994C9.58663 20.1095 9.59168 20.1196 9.60036 20.1283C9.61698 20.1463 9.64155 20.1564 9.66973 20.1564H11.037C11.0233 20.3541 11.0327 20.5547 11.063 20.7517Z" fill="#EF3239"/>
</svg>
