<svg width="38" height="38" viewBox="0 0 38 38" fill="none" xmlns="http://www.w3.org/2000/svg">

<path d="M5.1875 12.625C4.90571 12.625 4.63546 12.5131 4.4362 12.3138C4.23694 12.1145 4.125 11.8443 4.125 11.5625V7.3125C4.125 6.46712 4.46083 5.65637 5.0586 5.0586C5.65637 4.46083 6.46712 4.125 7.3125 4.125H11.5625C11.8443 4.125 12.1145 4.23694 12.3138 4.4362C12.5131 4.63546 12.625 4.90571 12.625 5.1875C12.625 5.46929 12.5131 5.73954 12.3138 5.9388C12.1145 6.13806 11.8443 6.25 11.5625 6.25H7.3125C7.03071 6.25 6.76046 6.36194 6.5612 6.5612C6.36194 6.76046 6.25 7.03071 6.25 7.3125V11.5625C6.25 11.8443 6.13806 12.1145 5.9388 12.3138C5.73954 12.5131 5.46929 12.625 5.1875 12.625ZM11.5625 33.875H7.3125C6.46712 33.875 5.65637 33.5392 5.0586 32.9414C4.46083 32.3436 4.125 31.5329 4.125 30.6875V26.4375C4.125 26.1557 4.23694 25.8855 4.4362 25.6862C4.63546 25.4869 4.90571 25.375 5.1875 25.375C5.46929 25.375 5.73954 25.4869 5.9388 25.6862C6.13806 25.8855 6.25 26.1557 6.25 26.4375V30.6875C6.25 30.9693 6.36194 31.2395 6.5612 31.4388C6.76046 31.6381 7.03071 31.75 7.3125 31.75H11.5625C11.8443 31.75 12.1145 31.8619 12.3138 32.0612C12.5131 32.2605 12.625 32.5307 12.625 32.8125C12.625 33.0943 12.5131 33.3645 12.3138 33.5638C12.1145 33.7631 11.8443 33.875 11.5625 33.875ZM32.8125 12.625C32.5307 12.625 32.2605 12.5131 32.0612 12.3138C31.8619 12.1145 31.75 11.8443 31.75 11.5625V7.3125C31.75 7.03071 31.6381 6.76046 31.4388 6.5612C31.2395 6.36194 30.9693 6.25 30.6875 6.25H26.4375C26.1557 6.25 25.8855 6.13806 25.6862 5.9388C25.4869 5.73954 25.375 5.46929 25.375 5.1875C25.375 4.90571 25.4869 4.63546 25.6862 4.4362C25.8855 4.23694 26.1557 4.125 26.4375 4.125H30.6875C31.5329 4.125 32.3436 4.46083 32.9414 5.0586C33.5392 5.65637 33.875 6.46712 33.875 7.3125V11.5625C33.875 11.8443 33.7631 12.1145 33.5638 12.3138C33.3645 12.5131 33.0943 12.625 32.8125 12.625ZM30.6875 33.875H26.4375C26.1557 33.875 25.8855 33.7631 25.6862 33.5638C25.4869 33.3645 25.375 33.0943 25.375 32.8125C25.375 32.5307 25.4869 32.2605 25.6862 32.0612C25.8855 31.8619 26.1557 31.75 26.4375 31.75H30.6875C30.9693 31.75 31.2395 31.6381 31.4388 31.4388C31.6381 31.2395 31.75 30.9693 31.75 30.6875V26.4375C31.75 26.1557 31.8619 25.8855 32.0612 25.6862C32.2605 25.4869 32.5307 25.375 32.8125 25.375C33.0943 25.375 33.3645 25.4869 33.5638 25.6862C33.7631 25.8855 33.875 26.1557 33.875 26.4375V30.6875C33.875 31.5329 33.5392 32.3436 32.9414 32.9414C32.3436 33.5392 31.5329 33.875 30.6875 33.875Z" fill="#EF3239"/>
<path d="M10.93 22.07C10.2767 22.07 9.67667 21.9167 9.13 21.61C8.58333 21.3033 8.15 20.88 7.83 20.34C7.51 19.7933 7.35 19.1767 7.35 18.49C7.35 17.81 7.51 17.2 7.83 16.66C8.15 16.1133 8.58333 15.6867 9.13 15.38C9.67667 15.0733 10.2767 14.92 10.93 14.92C11.59 14.92 12.19 15.0733 12.73 15.38C13.2767 15.6867 13.7067 16.1133 14.02 16.66C14.34 17.2 14.5 17.81 14.5 18.49C14.5 19.1767 14.34 19.7933 14.02 20.34C13.7067 20.88 13.2767 21.3033 12.73 21.61C12.1833 21.9167 11.5833 22.07 10.93 22.07ZM10.93 20.82C11.35 20.82 11.72 20.7267 12.04 20.54C12.36 20.3467 12.61 20.0733 12.79 19.72C12.97 19.3667 13.06 18.9567 13.06 18.49C13.06 18.0233 12.97 17.6167 12.79 17.27C12.61 16.9167 12.36 16.6467 12.04 16.46C11.72 16.2733 11.35 16.18 10.93 16.18C10.51 16.18 10.1367 16.2733 9.81 16.46C9.49 16.6467 9.24 16.9167 9.06 17.27C8.88 17.6167 8.79 18.0233 8.79 18.49C8.79 18.9567 8.88 19.3667 9.06 19.72C9.24 20.0733 9.49 20.3467 9.81 20.54C10.1367 20.7267 10.51 20.82 10.93 20.82ZM15.9016 18.5C15.9016 17.8133 16.0549 17.2 16.3616 16.66C16.6749 16.1133 17.0982 15.69 17.6316 15.39C18.1716 15.0833 18.7749 14.93 19.4416 14.93C20.2216 14.93 20.9049 15.13 21.4916 15.53C22.0782 15.93 22.4882 16.4833 22.7216 17.19H21.1116C20.9516 16.8567 20.7249 16.6067 20.4316 16.44C20.1449 16.2733 19.8116 16.19 19.4316 16.19C19.0249 16.19 18.6616 16.2867 18.3416 16.48C18.0282 16.6667 17.7816 16.9333 17.6016 17.28C17.4282 17.6267 17.3416 18.0333 17.3416 18.5C17.3416 18.96 17.4282 19.3667 17.6016 19.72C17.7816 20.0667 18.0282 20.3367 18.3416 20.53C18.6616 20.7167 19.0249 20.81 19.4316 20.81C19.8116 20.81 20.1449 20.7267 20.4316 20.56C20.7249 20.3867 20.9516 20.1333 21.1116 19.8H22.7216C22.4882 20.5133 22.0782 21.07 21.4916 21.47C20.9116 21.8633 20.2282 22.06 19.4416 22.06C18.7749 22.06 18.1716 21.91 17.6316 21.61C17.0982 21.3033 16.6749 20.88 16.3616 20.34C16.0549 19.8 15.9016 19.1867 15.9016 18.5ZM28.2173 22L26.6773 19.28H26.0173V22H24.6173V15.02H27.2373C27.7773 15.02 28.2373 15.1167 28.6173 15.31C28.9973 15.4967 29.2807 15.7533 29.4673 16.08C29.6607 16.4 29.7573 16.76 29.7573 17.16C29.7573 17.62 29.624 18.0367 29.3573 18.41C29.0907 18.7767 28.694 19.03 28.1673 19.17L29.8373 22H28.2173ZM26.0173 18.23H27.1873C27.5673 18.23 27.8507 18.14 28.0373 17.96C28.224 17.7733 28.3173 17.5167 28.3173 17.19C28.3173 16.87 28.224 16.6233 28.0373 16.45C27.8507 16.27 27.5673 16.18 27.1873 16.18H26.0173V18.23Z" fill="#EF3239"/>

</svg>
