<svg width="92" height="66" viewBox="0 0 92 66" fill="none" xmlns="http://www.w3.org/2000/svg">
<path fill-rule="evenodd" clip-rule="evenodd" d="M53.3262 15.3791L53.3325 15.3917L53.3923 15.3728L53.3262 15.3791Z" fill="white"/>
<g filter="url(#filter0_d_59_184)">
<path fill-rule="evenodd" clip-rule="evenodd" d="M86.5562 14.9122C86.2332 15.4311 85.9774 15.839 85.68 16.3114C82.7253 16.7874 79.7611 17.2669 76.7968 17.7429C71.4758 18.5982 66.1548 19.4535 60.8338 20.298C54.464 21.3108 48.0814 22.2269 41.7307 23.3578C39.7929 23.7013 37.9063 24.528 36.0484 25.2795C29.8608 27.7881 23.6956 30.3683 17.393 32.9736C17.2267 32.5441 17.0412 32.0538 16.8174 31.4705C21.2398 29.4164 25.5727 27.4052 29.9024 25.394C29.8768 25.3081 29.848 25.2258 29.8225 25.1399C24.7349 26.1348 19.6442 27.1296 14.4351 28.1496C14.3519 27.5591 14.288 27.101 14.2017 26.4712C16.1363 26.0203 18.0261 25.5658 19.9192 25.1399C26.5608 23.6476 33.2312 22.2734 39.8409 20.6165C42.0537 20.0618 44.1386 18.8236 46.2619 17.8467C57.6841 12.5789 69.0999 7.29684 80.5157 2.01835C81.9163 1.37062 83.3169 0.719306 84.8646 0C85.2483 1.06285 85.6033 2.04698 86.0126 3.18856C84.1068 4.0367 82.2841 4.85979 80.4486 5.65782C71.8499 9.40823 63.2481 13.1515 54.6431 16.8912C54.237 17.0665 53.8181 17.2025 53.4024 17.3456L53.3352 17.3528L53.3416 17.3671L53.3128 17.3779L53.3608 17.4208L53.3416 17.3671L53.4024 17.3456C53.8213 17.3063 54.2657 17.3456 54.6463 17.1882C64.8118 13.0227 74.9677 8.83207 85.1268 4.65223C85.3027 4.58065 85.485 4.53055 85.8815 4.40172C85.6321 5.05661 85.4466 5.54331 85.2515 6.05863C76.7488 9.38318 68.2749 12.697 59.7978 16.0108C59.8138 16.0752 59.8298 16.1396 59.8457 16.2041C68.6522 14.2394 77.4555 12.2747 86.3547 10.2886C86.553 11.466 86.7257 12.4787 86.9239 13.6597C84.9222 14.0748 82.9876 14.4899 81.0498 14.8764C74.261 16.2327 67.4723 17.5783 60.6835 18.931C57.7736 19.5107 54.8669 20.0905 51.957 20.6845C51.7843 20.7239 51.6308 20.8599 51.4677 20.9636C56.2899 20.1191 61.112 19.2853 65.931 18.4264C72.4735 17.2633 79.0128 16.0824 85.5553 14.9193C85.8207 14.8728 86.0989 14.9122 86.5562 14.9122Z" fill="white"/>
</g>
<g filter="url(#filter1_d_59_184)">
<path fill-rule="evenodd" clip-rule="evenodd" d="M57.8429 9.88127C55.9083 10.7437 53.98 11.6276 52.0358 12.465C48.1123 14.1542 44.2782 16.2835 40.2267 17.3928C31.5194 19.7762 22.7001 21.6657 13.9064 23.6411C12.8735 23.8737 11.7127 23.3799 10.3729 23.1902C11.345 30.3725 13.6154 36.9 17.5326 42.7117C21.4785 48.5663 26.5277 52.7963 32.6577 55.6342C32.0182 57.1801 31.6313 58.7512 30.7263 60.0001C30.608 59.9428 30.4897 59.8892 30.3714 59.8319C30.3714 58.7583 30.3714 57.6811 30.3714 56.5252C28.9548 55.9133 27.551 55.3908 26.2112 54.718C13.1581 48.1691 5.86734 36.6853 3.31557 21.154C3.25161 20.7675 3.18127 20.381 3.1301 19.9945C2.72719 17.06 3.18446 16.0222 5.57635 14.6516C8.9851 12.6941 12.6944 11.8495 16.423 11.098C24.9449 9.38384 33.5563 8.86851 42.1869 8.92219C47.2553 8.9544 52.3236 9.35163 57.392 9.58424C57.5295 9.5914 57.667 9.61645 57.8045 9.63076C57.8141 9.72381 57.8301 9.80254 57.8429 9.88127ZM12.9439 43.1411L12.9694 43.1304L12.8895 43.1053L12.9439 43.1411Z" fill="white"/>
</g>
<path d="M85.873 44.5598C85.4125 45.2075 84.8145 45.8016 84.0855 46.342C84.0151 46.3885 83.8776 46.4851 83.673 46.6318C83.4651 46.7786 83.2668 46.8501 83.0718 46.8501C82.9631 46.8501 82.8735 46.8072 82.8032 46.7213C82.7328 46.6354 82.7009 46.4851 82.7009 46.2704C82.7009 46.0843 82.7392 45.8911 82.816 45.6907C82.8927 45.4903 82.9822 45.297 83.0846 45.1109C83.1869 44.9248 83.2988 44.7531 83.4139 44.592C83.5323 44.431 83.6314 44.2878 83.7145 44.1626C83.852 43.9622 84.0439 43.7188 84.2933 43.4325C84.5427 43.1462 84.8081 42.8778 85.0895 42.6238C85.3709 42.3697 85.6555 42.155 85.9369 41.976C86.2183 41.8007 86.4646 41.7112 86.6692 41.7112C86.8067 41.7112 86.9314 41.772 87.0401 41.8973C87.0273 42.0226 86.9922 42.1657 86.9378 42.3375C86.6884 43.1713 86.3335 43.9121 85.873 44.5598ZM85.243 49.0474C85.1471 49.4804 85.0672 49.8633 85.0064 50.2033C84.9456 50.5433 84.8849 50.8761 84.8305 51.2089C84.7762 51.5417 84.7122 51.8817 84.6451 52.2396C84.5747 52.5938 84.4852 52.9875 84.3765 53.4205C84.2518 53.9 84.1047 54.3402 83.932 54.7518C83.7593 55.1597 83.5738 55.514 83.3724 55.8146C83.1741 56.1152 82.9695 56.3514 82.7616 56.5196C82.5538 56.6878 82.3683 56.7737 82.202 56.7737C82.0357 56.7737 81.8982 56.6699 81.7895 56.4624C81.6808 56.2548 81.6232 55.9112 81.6232 55.4317C81.6232 54.7374 81.7479 54.0647 81.9942 53.4062C82.2436 52.7513 82.5538 52.1215 82.9343 51.5203C83.3116 50.919 83.7209 50.3608 84.1526 49.8419C84.5875 49.3266 84.9904 48.8649 85.3613 48.4641L85.243 49.0474ZM82.1413 47.6124C82.2916 47.7054 82.4642 47.752 82.6593 47.752C82.8384 47.752 83.027 47.7197 83.2285 47.6589C83.4267 47.5981 83.6218 47.5193 83.8073 47.4263C83.9927 47.3333 84.1654 47.233 84.3253 47.1257C84.482 47.0183 84.6099 46.9253 84.709 46.8466C85.2878 46.3849 85.7771 45.866 86.1768 45.297C86.0936 45.6048 86.0073 45.9197 85.9178 46.2346C85.8282 46.5495 85.7483 46.8645 85.6811 47.1722C85.1567 47.6661 84.6195 48.2243 84.0695 48.8506C83.5195 49.4769 83.0078 50.1461 82.541 50.8618C82.0709 51.5775 81.6904 52.3398 81.393 53.1414C81.0956 53.943 80.9485 54.7697 80.9485 55.6178C80.9485 56.1582 81.07 56.6341 81.3099 57.0528C81.5497 57.468 81.9398 57.6755 82.477 57.6755C82.8064 57.6755 83.1198 57.5467 83.4171 57.2926C83.7145 57.0385 83.9799 56.7093 84.2134 56.3085C84.4468 55.9077 84.6515 55.4603 84.8241 54.9665C84.9968 54.4726 85.1311 53.9967 85.227 53.5314C85.4605 52.4507 85.6939 51.3878 85.9305 50.3393C86.164 49.2908 86.3974 48.2351 86.634 47.1722C88.0538 45.7372 89.6047 44.4882 91.2835 43.4254C91.4338 43.3323 91.5105 43.2643 91.5105 43.2178C91.5105 43.157 91.4562 43.1248 91.3443 43.1248C91.2611 43.1248 91.1652 43.1391 91.0533 43.1713C90.9414 43.2035 90.8454 43.25 90.7623 43.3109C90.0748 43.7439 89.4096 44.1876 88.7669 44.6421C88.1274 45.0966 87.4942 45.5869 86.8771 46.1094C87.0849 45.2612 87.312 44.4238 87.5582 43.6007C87.8076 42.7776 88.025 41.9331 88.2201 41.0671V40.9991C88.2201 40.906 88.1817 40.838 88.105 40.7915C88.0282 40.745 87.9355 40.7235 87.8268 40.7235C87.5933 40.7235 87.4271 40.7808 87.3311 40.8953C87.2352 41.0098 87.1872 41.1529 87.1872 41.3247C87.021 41.2496 86.8579 41.2102 86.6916 41.2102C86.4006 41.2102 86.0808 41.2889 85.7291 41.4428C85.3773 41.5967 85.0192 41.8078 84.6547 42.0798C84.2901 42.3482 83.932 42.6667 83.5802 43.0282C83.2285 43.3896 82.9183 43.7689 82.6497 44.1626C82.3811 44.5562 82.1636 44.9606 81.9974 45.3757C81.8311 45.7909 81.7479 46.1917 81.7479 46.5782C81.7479 46.7786 81.7671 46.9575 81.8087 47.1114C81.879 47.3511 81.991 47.5193 82.1413 47.6124ZM70.7862 42.409C70.6839 43.0568 70.5592 43.7403 70.4153 44.456C70.2714 45.1718 70.1179 45.8839 69.9612 46.5853C69.8013 47.2867 69.6542 47.8915 69.5167 48.3997L69.5071 48.4355L69.4975 48.4713C69.4975 48.5786 69.5807 48.6323 69.7469 48.6323C69.8972 48.6323 70.0603 48.5965 70.233 48.5285C70.4057 48.4605 70.5112 48.3854 70.5528 48.3102C70.7446 47.9559 70.9749 47.548 71.2467 47.0827C71.5153 46.6211 71.7967 46.1523 72.0941 45.6835C72.3915 45.2147 72.6952 44.7531 73.0022 44.3057C73.3124 43.8584 73.6098 43.4612 73.8912 43.114C74.1726 42.7669 74.438 42.4878 74.6874 42.2695C74.9368 42.0548 75.1415 41.9438 75.3078 41.9438C75.4325 41.9438 75.5412 42.0476 75.6371 42.2552C75.7331 42.4627 75.8226 42.7347 75.9057 43.0639C75.9889 43.3967 76.072 43.7582 76.1551 44.1518C76.2383 44.5455 76.3214 44.932 76.4046 45.3077C76.4877 45.6871 76.5741 46.0306 76.6636 46.3384C76.7531 46.6462 76.8523 46.8716 76.9642 47.0076C77.1976 47.3154 77.447 47.5265 77.7092 47.6446C77.9714 47.7591 78.2401 47.8164 78.5151 47.8164C78.8732 47.8164 79.2377 47.7341 79.6119 47.573C79.9828 47.412 80.3409 47.2152 80.6863 46.9825C81.0316 46.7499 81.345 46.5066 81.6264 46.2418C81.9078 45.9805 82.1477 45.7408 82.3395 45.526C82.4099 45.4473 82.4419 45.3936 82.4419 45.365L82.4003 45.3435C82.3587 45.3435 82.2851 45.3614 82.1828 45.4008C82.0805 45.4401 81.9782 45.4759 81.8823 45.5046C81.8279 45.5368 81.6328 45.6656 81.3034 45.8982C80.9741 46.1308 80.4848 46.4064 79.8357 46.732C79.6438 46.8251 79.4712 46.8895 79.3177 46.9289C79.1674 46.9682 79.0299 46.9933 78.9052 47.0112C78.6845 47.0112 78.5055 46.9539 78.368 46.8394C78.2305 46.7249 78.1089 46.5746 78.0066 46.3885C77.9043 46.2024 77.818 45.9913 77.7476 45.7515C77.6772 45.5117 77.6037 45.2612 77.5206 45C77.3959 44.6135 77.2935 44.1948 77.2104 43.7403C77.1272 43.2858 77.0249 42.8707 76.9002 42.4914C76.7755 42.112 76.6124 41.7971 76.4142 41.543C76.2127 41.2889 75.9409 41.1601 75.5988 41.1601C75.2406 41.1601 74.8569 41.314 74.4508 41.6217C74.0447 41.9295 73.6386 42.3196 73.2324 42.7884C72.8263 43.2572 72.4298 43.7689 72.0429 44.3165C71.656 44.864 71.3138 45.3757 71.01 45.8553C71.1891 44.9141 71.3522 43.9801 71.4961 43.0568C71.64 42.1299 71.7135 41.1816 71.7135 40.2118C71.7135 40.1652 71.7007 40.1438 71.672 40.1438C71.6304 40.1438 71.5696 40.1831 71.4865 40.2583C71.4034 40.337 71.3266 40.4193 71.2595 40.5124C71.1763 40.6197 71.0868 40.7378 70.9909 40.8595C70.9557 41.2424 70.8885 41.7613 70.7862 42.409ZM65.4013 39.1919C65.6219 39.1919 65.8361 39.0881 66.0408 38.8805C66.2486 38.6729 66.351 38.4153 66.351 38.1075C66.351 37.9859 66.319 37.8964 66.2582 37.8427C66.1975 37.789 66.1239 37.7532 66.0408 37.7389C65.7658 37.7389 65.5356 37.8642 65.3469 38.1075C65.1614 38.3545 65.0687 38.6085 65.0687 38.8698C65.0687 39.038 65.1359 39.1382 65.2766 39.1704C65.3053 39.1847 65.3469 39.1919 65.4013 39.1919ZM68.9891 46.0843C68.6373 46.3312 68.2792 46.5495 67.9147 46.7428C67.5501 46.936 67.192 47.0935 66.8402 47.2187C66.4885 47.344 66.1559 47.4048 65.8393 47.4048C65.4268 47.4048 65.139 47.233 64.9824 46.8859C64.8225 46.5388 64.7457 46.1022 64.7457 45.5797C64.7457 45.1932 64.7777 44.7853 64.8385 44.3522C64.8992 43.9192 64.976 43.5041 65.0655 43.1033C65.155 42.7025 65.2414 42.3375 65.3245 42.0047C65.4077 41.6718 65.4684 41.4142 65.51 41.2317L65.5196 41.1744L65.5292 41.1386C65.5292 41.0456 65.4812 40.9991 65.3853 40.9991C65.2734 40.9991 65.1518 41.0492 65.0143 41.1494C64.8768 41.2496 64.7937 41.3605 64.7649 41.4858C64.7233 41.6718 64.6498 41.9295 64.5475 42.2623C64.4451 42.5951 64.3428 42.9673 64.2469 43.3824C64.151 43.7976 64.0646 44.2342 63.9879 44.6886C63.9111 45.1431 63.8728 45.5797 63.8728 45.9948C63.8728 46.6426 63.9975 47.1722 64.2437 47.5802C64.4931 47.9881 64.96 48.1921 65.6475 48.1921C66.0344 48.1921 66.4373 48.117 66.8562 47.9738C67.2751 47.8271 67.6972 47.6303 68.1161 47.3834C68.535 47.1364 68.9475 46.8501 69.3472 46.5281C69.7469 46.206 70.1339 45.866 70.5048 45.5117C70.6295 45.3901 70.6903 45.2898 70.6903 45.2111C70.6903 45.1503 70.6487 45.1181 70.5656 45.1181C70.3865 45.1181 70.185 45.204 69.9676 45.3722C69.667 45.6012 69.3376 45.841 68.9891 46.0843ZM60.6271 34.0708C61.0396 32.9221 61.5224 31.802 62.0724 30.7069C62.1556 30.553 62.2483 30.3884 62.3507 30.2095C62.453 30.0341 62.5681 29.8695 62.6928 29.7228C62.8175 29.5761 62.9358 29.4544 63.0541 29.3542C63.1725 29.254 63.278 29.2039 63.3739 29.2039C63.5242 29.2039 63.6425 29.2862 63.7257 29.4472C63.8088 29.6083 63.8504 29.823 63.8504 30.0842C63.8504 30.2524 63.8312 30.4313 63.7896 30.6174C63.6393 31.3582 63.4283 32.1169 63.1597 32.897C62.8911 33.6772 62.632 34.3643 62.3858 34.9655C62.1364 35.5524 61.8646 36.1715 61.5704 36.8264C61.273 37.4813 60.9596 38.1397 60.6303 38.8054C60.3009 39.4674 59.9524 40.1116 59.5878 40.7378C59.2233 41.3641 58.8396 41.9367 58.4398 42.4627C58.507 42.1084 58.5869 41.7076 58.6765 41.2603C58.766 40.813 58.8555 40.3656 58.9451 39.9183C59.0346 39.471 59.1274 39.0415 59.2233 38.6336C59.3192 38.2256 59.4088 37.8749 59.4919 37.5815C59.8341 36.3862 60.2146 35.2196 60.6271 34.0708ZM57.1544 45.1038C57.1544 45.1718 57.1544 45.2469 57.1544 45.3221C57.1544 46.231 57.3398 46.9575 57.714 47.4979C58.0849 48.0382 58.6317 48.3066 59.348 48.3066C59.6774 48.3066 60.0355 48.2243 60.4224 48.0633C60.8094 47.9023 61.1931 47.6947 61.58 47.437C61.9669 47.1829 62.3347 46.9038 62.6864 46.6032C63.0382 46.3026 63.3483 46.0127 63.6169 45.7372C63.8855 45.458 64.103 45.2075 64.2693 44.9857C64.4356 44.7638 64.5187 44.6027 64.5187 44.5133C64.5187 44.4524 64.4835 44.4202 64.4164 44.4202C64.3204 44.4202 64.1797 44.499 63.9943 44.6529C63.8088 44.8067 63.5914 44.9964 63.3451 45.2183C63.0989 45.4402 62.8271 45.6871 62.5329 45.9591C62.2387 46.2275 61.9317 46.4744 61.6152 46.6998C61.2986 46.9217 60.982 47.1114 60.6687 47.2653C60.3521 47.4191 60.0515 47.4979 59.7637 47.4979C59.5718 47.4979 59.3864 47.4513 59.2073 47.3583C59.0282 47.2653 58.8683 47.1078 58.7244 46.8859C58.5805 46.664 58.4622 46.3742 58.3727 46.0199C58.2832 45.6656 58.2384 45.2326 58.2384 44.7244C58.2384 44.5562 58.2416 44.3809 58.248 44.2055C58.2544 44.0266 58.264 43.8691 58.28 43.7296C58.8012 43.1427 59.3064 42.4949 59.7925 41.7864C60.2817 41.0778 60.739 40.3442 61.1739 39.5891C61.6056 38.834 62.0053 38.0682 62.3698 37.288C62.7344 36.5079 63.0605 35.7564 63.3483 35.0335C63.473 34.7257 63.6041 34.3535 63.7512 33.9241C63.8951 33.4911 64.0294 33.0402 64.1542 32.5714C64.2789 32.1026 64.3844 31.6338 64.4739 31.1721C64.5635 30.7105 64.6082 30.2918 64.6082 29.9232C64.6082 29.5224 64.5411 29.1896 64.4132 28.9283C64.2821 28.6671 64.0518 28.5347 63.7193 28.5347C63.4283 28.5347 63.1725 28.5991 62.9454 28.7315C62.7184 28.8639 62.5105 29.0285 62.3251 29.2289C62.1396 29.4293 61.9701 29.6584 61.8198 29.9124C61.6695 30.1665 61.5224 30.4099 61.3849 30.6425C60.8765 31.5228 60.432 32.4855 60.0515 33.534C59.671 34.5826 59.3256 35.5917 59.009 36.5651C58.8587 36.9981 58.6925 37.5493 58.5134 38.2185C58.3343 38.8877 58.1553 39.6105 57.9762 40.38C57.7971 41.1529 57.634 41.9295 57.4901 42.7168C57.3462 43.5041 57.2439 44.227 57.1895 44.8926C57.164 44.9606 57.1544 45.0322 57.1544 45.1038ZM46.2342 42.409C46.1319 43.0568 46.0072 43.7403 45.8633 44.456C45.7194 45.1718 45.5659 45.8839 45.4092 46.5853C45.2493 47.2867 45.1022 47.8915 44.9647 48.3997L44.9551 48.4355L44.9455 48.4713C44.9455 48.5786 45.0287 48.6323 45.1949 48.6323C45.3452 48.6323 45.5083 48.5965 45.681 48.5285C45.8537 48.4605 45.9592 48.3854 46.0008 48.3102C46.1926 47.9559 46.4229 47.548 46.6947 47.0827C46.9633 46.6211 47.2447 46.1523 47.5421 45.6835C47.8395 45.2147 48.1432 44.7531 48.4502 44.3057C48.7604 43.8584 49.0578 43.4612 49.3392 43.114C49.6206 42.7669 49.886 42.4878 50.1354 42.2695C50.3848 42.0548 50.5895 41.9438 50.7558 41.9438C50.8805 41.9438 50.9892 42.0476 51.0851 42.2552C51.1811 42.4627 51.2706 42.7347 51.3537 43.0639C51.4369 43.3967 51.52 43.7582 51.6031 44.1518C51.6863 44.5455 51.7694 44.932 51.8526 45.3077C51.9357 45.6871 52.022 46.0306 52.1116 46.3384C52.2011 46.6462 52.3002 46.8716 52.4122 47.0076C52.6456 47.3154 52.895 47.5265 53.1572 47.6446C53.4195 47.7591 53.6881 47.8164 53.9631 47.8164C54.3212 47.8164 54.6857 47.7341 55.0599 47.573C55.4308 47.412 55.789 47.2152 56.1343 46.9825C56.4797 46.7499 56.793 46.5066 57.0744 46.2418C57.3558 45.9805 57.5957 45.7408 57.7875 45.526C57.8579 45.4473 57.8898 45.3936 57.8898 45.365L57.8483 45.3435C57.8067 45.3435 57.7332 45.3614 57.6308 45.4008C57.5285 45.4401 57.4262 45.4759 57.3302 45.5046C57.2759 45.5368 57.0808 45.6656 56.7515 45.8982C56.4221 46.1308 55.9328 46.4064 55.2837 46.732C55.0919 46.8251 54.9192 46.8895 54.7657 46.9289C54.6154 46.9682 54.4779 46.9933 54.3532 47.0112C54.1325 47.0112 53.9535 46.9539 53.816 46.8394C53.6785 46.7249 53.557 46.5746 53.4546 46.3885C53.3523 46.2024 53.266 45.9913 53.1956 45.7515C53.1253 45.5117 53.0517 45.2612 52.9686 45C52.8439 44.6135 52.7415 44.1948 52.6584 43.7403C52.5753 43.2858 52.4729 42.8707 52.3482 42.4914C52.2235 42.112 52.0604 41.7971 51.8622 41.543C51.6639 41.2889 51.3889 41.1601 51.0468 41.1601C50.6886 41.1601 50.3049 41.314 49.8988 41.6217C49.4927 41.9295 49.0866 42.3196 48.6805 42.7884C48.2743 43.2572 47.8778 43.7689 47.4909 44.3165C47.104 44.864 46.7618 45.3757 46.458 45.8553C46.6371 44.9141 46.8002 43.9801 46.9441 43.0568C47.088 42.1299 47.1615 41.1816 47.1615 40.2118C47.1615 40.1652 47.1487 40.1438 47.12 40.1438C47.0784 40.1438 47.0176 40.1831 46.9345 40.2583C46.8514 40.337 46.7746 40.4193 46.7075 40.5124C46.6243 40.6197 46.5348 40.7378 46.4389 40.8595C46.4005 41.2424 46.3365 41.7613 46.2342 42.409ZM40.8493 39.1919C41.0699 39.1919 41.2841 39.0881 41.4888 38.8805C41.6967 38.6729 41.799 38.4153 41.799 38.1075C41.799 37.9859 41.767 37.8964 41.7063 37.8427C41.6455 37.789 41.5719 37.7532 41.4888 37.7389C41.2138 37.7389 40.9836 37.8642 40.7949 38.1075C40.6094 38.3545 40.5167 38.6085 40.5167 38.8698C40.5167 39.038 40.5839 39.1382 40.7246 39.1704C40.7533 39.1847 40.7949 39.1919 40.8493 39.1919ZM44.4339 46.0843C44.0821 46.3312 43.724 46.5495 43.3595 46.7428C42.9949 46.936 42.6368 47.0935 42.285 47.2187C41.9333 47.344 41.6007 47.4048 41.2842 47.4048C40.8716 47.4048 40.5839 47.233 40.4272 46.8859C40.2673 46.5388 40.1905 46.1022 40.1905 45.5797C40.1905 45.1932 40.2225 44.7853 40.2833 44.3522C40.344 43.9192 40.4208 43.5041 40.5103 43.1033C40.5998 42.7025 40.6862 42.3375 40.7693 42.0047C40.8525 41.6718 40.9132 41.4142 40.9548 41.2317L40.9644 41.1744L40.974 41.1386C40.974 41.0456 40.926 40.9991 40.8301 40.9991C40.7182 40.9991 40.5966 41.0492 40.4591 41.1494C40.3216 41.2496 40.2385 41.3605 40.2097 41.4858C40.1681 41.6718 40.0946 41.9295 39.9923 42.2623C39.8899 42.5951 39.7876 42.9673 39.6917 43.3824C39.5958 43.7976 39.5094 44.2342 39.4327 44.6886C39.3559 45.1431 39.3176 45.5797 39.3176 45.9948C39.3176 46.6426 39.4423 47.1722 39.6885 47.5802C39.9379 47.9881 40.4048 48.1921 41.0923 48.1921C41.4792 48.1921 41.8821 48.117 42.301 47.9738C42.7199 47.8271 43.142 47.6303 43.5609 47.3834C43.9798 47.1364 44.3923 46.8501 44.792 46.5281C45.1917 46.206 45.5787 45.866 45.9496 45.5117C46.0743 45.3901 46.1351 45.2898 46.1351 45.2111C46.1351 45.1503 46.0935 45.1181 46.0104 45.1181C45.8313 45.1181 45.6298 45.204 45.4124 45.3722C45.1118 45.6012 44.7856 45.841 44.4339 46.0843ZM36.2925 49.1727C35.5826 48.6395 34.9399 48.006 34.3611 47.2653C35.0646 46.8322 35.669 46.2525 36.1806 45.5189C36.689 44.7853 37.1047 43.9872 37.4213 43.1248C37.7379 42.2623 37.9713 41.3784 38.1248 40.4766C38.2751 39.5748 38.3518 38.7302 38.3518 37.9429C38.3518 35.9246 37.9329 34.1388 37.092 32.5893C36.251 31.0397 35.0454 29.7335 33.4753 28.6671C33.3922 28.6349 33.3251 28.6206 33.2675 28.6206C33.0884 28.6206 32.903 28.6707 32.7079 28.7709C32.516 28.8711 32.4201 28.9605 32.4201 29.0357L32.4617 29.1037C33.2195 29.6297 33.8942 30.1987 34.4858 30.8143C35.0774 31.4298 35.5762 32.1169 35.9855 32.872C36.3917 33.6271 36.6986 34.4681 36.9065 35.3949C37.1143 36.3182 37.2167 37.3524 37.2167 38.494C37.2167 39.2348 37.1559 40.0006 37.0312 40.7951C36.9065 41.5895 36.7146 42.3554 36.4524 43.0961C36.1902 43.8369 35.8576 44.5276 35.4515 45.1646C35.0454 45.8052 34.553 46.342 33.9742 46.7714C33.8495 46.5853 33.7184 46.3742 33.5809 46.1344C33.4434 45.8946 33.3059 45.6692 33.1684 45.4509C33.0309 45.2362 32.8998 45.0501 32.775 44.8962C32.6503 44.7423 32.5416 44.6636 32.4457 44.6636C32.2954 44.6636 32.1419 44.703 31.9916 44.7781C31.8413 44.8568 31.7646 44.9463 31.7646 45.0572L31.7838 45.1252C31.95 45.4795 32.1483 45.8302 32.3817 46.1773C32.6152 46.5245 32.871 46.8752 33.146 47.2295C32.7878 47.3547 32.4521 47.4156 32.1387 47.4156C31.6846 47.4156 31.2721 47.3118 30.8948 47.1042C30.5175 46.8967 30.1913 46.5996 29.9163 46.2131C29.6413 45.8266 29.427 45.3578 29.2672 44.8032C29.1105 44.2485 29.0305 43.6222 29.0305 42.9279C29.0305 41.8937 29.1648 40.8488 29.4334 39.7931C29.7021 38.7374 30.0506 37.6888 30.4759 36.6474C30.9012 35.6061 31.384 34.5969 31.9213 33.6163C32.4585 32.6358 32.9957 31.7089 33.5329 30.8286C33.5617 30.7677 33.5745 30.7284 33.5745 30.7141C33.5745 30.621 33.4785 30.5745 33.2835 30.5745C33.146 30.5745 33.0021 30.6031 32.8486 30.6568C32.6983 30.7105 32.5928 30.7749 32.5384 30.8536C32.014 31.7018 31.48 32.6072 30.9364 33.5698C30.3928 34.5325 29.9003 35.5273 29.4558 36.5544C29.0145 37.5815 28.6532 38.6228 28.3718 39.6893C28.0904 40.7521 27.9497 41.8114 27.9497 42.8564C27.9497 43.6115 28.0328 44.3057 28.1991 44.9391C28.3654 45.5726 28.6052 46.1201 28.9218 46.5817C29.2384 47.0434 29.6285 47.4012 30.089 47.6589C30.5494 47.913 31.0835 48.0418 31.691 48.0418C32.2155 48.0418 32.7655 47.9416 33.3442 47.7412L33.5105 47.6732C34.1565 48.414 34.8696 49.0653 35.6498 49.6272C36.4268 50.189 37.2103 50.5397 37.9937 50.6793C38.1184 50.6793 38.2719 50.6256 38.4574 50.5182C38.6428 50.4109 38.7356 50.3035 38.7356 50.1962C38.7356 50.1353 38.6652 50.096 38.5277 50.0816C37.7475 50.0101 37.0024 49.7059 36.2925 49.1727Z" fill="white"/>
<path d="M85.873 44.5598C85.4125 45.2075 84.8145 45.8016 84.0855 46.342C84.0151 46.3885 83.8776 46.4851 83.673 46.6318C83.4651 46.7786 83.2668 46.8501 83.0718 46.8501C82.9631 46.8501 82.8735 46.8072 82.8032 46.7213C82.7328 46.6354 82.7009 46.4851 82.7009 46.2704C82.7009 46.0843 82.7392 45.8911 82.816 45.6907C82.8927 45.4903 82.9822 45.297 83.0846 45.1109C83.1869 44.9248 83.2988 44.7531 83.4139 44.592C83.5323 44.431 83.6314 44.2878 83.7145 44.1626C83.852 43.9622 84.0439 43.7188 84.2933 43.4325C84.5427 43.1462 84.8081 42.8778 85.0895 42.6238C85.3709 42.3697 85.6555 42.155 85.9369 41.976C86.2183 41.8007 86.4646 41.7112 86.6692 41.7112C86.8067 41.7112 86.9314 41.772 87.0401 41.8973C87.0273 42.0226 86.9922 42.1657 86.9378 42.3375C86.6884 43.1713 86.3335 43.9121 85.873 44.5598ZM85.243 49.0474C85.1471 49.4804 85.0672 49.8633 85.0064 50.2033C84.9456 50.5433 84.8849 50.8761 84.8305 51.2089C84.7762 51.5417 84.7122 51.8817 84.6451 52.2396C84.5747 52.5938 84.4852 52.9875 84.3765 53.4205C84.2517 53.9001 84.1046 54.3402 83.932 54.7518C83.7593 55.1597 83.5738 55.514 83.3724 55.8146C83.1741 56.1152 82.9695 56.3514 82.7616 56.5196C82.5538 56.6878 82.3683 56.7737 82.202 56.7737C82.0357 56.7737 81.8982 56.6699 81.7895 56.4624C81.6808 56.2548 81.6232 55.9112 81.6232 55.4317C81.6232 54.7374 81.7479 54.0647 81.9942 53.4062C82.2436 52.7513 82.5538 52.1215 82.9343 51.5203C83.3116 50.919 83.7209 50.3608 84.1526 49.8419C84.5875 49.3266 84.9904 48.8649 85.3613 48.4641L85.243 49.0474ZM82.1413 47.6124C82.2916 47.7054 82.4642 47.752 82.6593 47.752C82.8384 47.752 83.027 47.7197 83.2285 47.6589C83.4267 47.5981 83.6218 47.5193 83.8073 47.4263C83.9927 47.3333 84.1654 47.2331 84.3253 47.1257C84.482 47.0183 84.6099 46.9253 84.709 46.8466C85.2878 46.3849 85.7771 45.866 86.1768 45.297C86.0936 45.6048 86.0073 45.9197 85.9178 46.2346C85.8282 46.5495 85.7483 46.8645 85.6811 47.1722C85.1567 47.6661 84.6195 48.2243 84.0695 48.8506C83.5195 49.4769 83.0078 50.1461 82.541 50.8618C82.0709 51.5775 81.6904 52.3398 81.393 53.1414C81.0956 53.943 80.9485 54.7697 80.9485 55.6178C80.9485 56.1582 81.07 56.6341 81.3098 57.0528C81.5497 57.468 81.9398 57.6755 82.477 57.6755C82.8064 57.6755 83.1198 57.5467 83.4171 57.2926C83.7145 57.0385 83.9799 56.7093 84.2134 56.3085C84.4468 55.9077 84.6514 55.4603 84.8241 54.9665C84.9968 54.4726 85.1311 53.9967 85.227 53.5315C85.4605 52.4507 85.6939 51.3878 85.9305 50.3393C86.164 49.2908 86.3974 48.2351 86.634 47.1722C88.0538 45.7372 89.6047 44.4882 91.2835 43.4254C91.4338 43.3323 91.5105 43.2643 91.5105 43.2178C91.5105 43.157 91.4562 43.1248 91.3443 43.1248C91.2611 43.1248 91.1652 43.1391 91.0533 43.1713C90.9414 43.2035 90.8454 43.25 90.7623 43.3109C90.0748 43.7439 89.4096 44.1876 88.7669 44.6421C88.1274 45.0966 87.4942 45.5869 86.8771 46.1094C87.0849 45.2612 87.312 44.4238 87.5582 43.6007C87.8076 42.7776 88.025 41.9331 88.2201 41.0671V40.9991C88.2201 40.906 88.1817 40.838 88.105 40.7915C88.0282 40.745 87.9355 40.7235 87.8268 40.7235C87.5933 40.7235 87.4271 40.7808 87.3311 40.8953C87.2352 41.0098 87.1872 41.1529 87.1872 41.3247C87.021 41.2496 86.8579 41.2102 86.6916 41.2102C86.4006 41.2102 86.0808 41.2889 85.7291 41.4428C85.3773 41.5967 85.0192 41.8078 84.6547 42.0798C84.2901 42.3482 83.932 42.6667 83.5802 43.0282C83.2285 43.3896 82.9183 43.7689 82.6497 44.1626C82.3811 44.5562 82.1636 44.9606 81.9974 45.3757C81.8311 45.7909 81.7479 46.1917 81.7479 46.5782C81.7479 46.7786 81.7671 46.9575 81.8087 47.1114C81.879 47.3511 81.991 47.5193 82.1413 47.6124ZM70.7862 42.409C70.6839 43.0568 70.5592 43.7403 70.4153 44.456C70.2714 45.1718 70.1179 45.8839 69.9612 46.5853C69.8013 47.2867 69.6542 47.8915 69.5167 48.3997L69.5071 48.4355L69.4975 48.4713C69.4975 48.5786 69.5807 48.6323 69.7469 48.6323C69.8972 48.6323 70.0603 48.5965 70.233 48.5285C70.4057 48.4605 70.5112 48.3854 70.5528 48.3102C70.7446 47.9559 70.9749 47.548 71.2467 47.0827C71.5153 46.6211 71.7967 46.1523 72.0941 45.6835C72.3914 45.2147 72.6952 44.7531 73.0022 44.3057C73.3124 43.8584 73.6098 43.4612 73.8912 43.114C74.1726 42.7669 74.438 42.4878 74.6874 42.2695C74.9368 42.0548 75.1415 41.9438 75.3078 41.9438C75.4325 41.9438 75.5412 42.0476 75.6371 42.2552C75.7331 42.4627 75.8226 42.7347 75.9057 43.0639C75.9889 43.3967 76.072 43.7582 76.1551 44.1518C76.2383 44.5455 76.3214 44.932 76.4046 45.3077C76.4877 45.6871 76.5741 46.0306 76.6636 46.3384C76.7531 46.6462 76.8523 46.8716 76.9642 47.0076C77.1976 47.3154 77.447 47.5265 77.7092 47.6446C77.9714 47.7591 78.2401 47.8164 78.5151 47.8164C78.8732 47.8164 79.2377 47.7341 79.6119 47.573C79.9828 47.412 80.3409 47.2152 80.6863 46.9825C81.0316 46.7499 81.345 46.5066 81.6264 46.2418C81.9078 45.9805 82.1477 45.7408 82.3395 45.526C82.4099 45.4473 82.4418 45.3936 82.4418 45.365L82.4003 45.3435C82.3587 45.3435 82.2851 45.3614 82.1828 45.4008C82.0805 45.4402 81.9782 45.4759 81.8823 45.5046C81.8279 45.5368 81.6328 45.6656 81.3034 45.8982C80.9741 46.1308 80.4848 46.4064 79.8357 46.732C79.6438 46.8251 79.4712 46.8895 79.3177 46.9289C79.1674 46.9682 79.0299 46.9933 78.9052 47.0112C78.6845 47.0112 78.5055 46.9539 78.368 46.8394C78.2304 46.7249 78.1089 46.5746 78.0066 46.3885C77.9043 46.2024 77.8179 45.9913 77.7476 45.7515C77.6772 45.5117 77.6037 45.2612 77.5206 45C77.3959 44.6135 77.2935 44.1948 77.2104 43.7403C77.1272 43.2858 77.0249 42.8707 76.9002 42.4914C76.7755 42.112 76.6124 41.7971 76.4142 41.543C76.2127 41.2889 75.9409 41.1601 75.5987 41.1601C75.2406 41.1601 74.8569 41.314 74.4508 41.6217C74.0447 41.9295 73.6386 42.3196 73.2324 42.7884C72.8263 43.2572 72.4298 43.7689 72.0429 44.3165C71.656 44.864 71.3138 45.3757 71.01 45.8553C71.1891 44.9141 71.3522 43.9801 71.4961 43.0568C71.64 42.1299 71.7135 41.1816 71.7135 40.2118C71.7135 40.1652 71.7007 40.1438 71.672 40.1438C71.6304 40.1438 71.5696 40.1831 71.4865 40.2583C71.4034 40.337 71.3266 40.4193 71.2595 40.5124C71.1763 40.6197 71.0868 40.7378 70.9908 40.8595C70.9557 41.2424 70.8885 41.7613 70.7862 42.409ZM65.4013 39.1919C65.6219 39.1919 65.8361 39.0881 66.0408 38.8805C66.2486 38.6729 66.351 38.4153 66.351 38.1075C66.351 37.9859 66.319 37.8964 66.2582 37.8427C66.1975 37.789 66.1239 37.7532 66.0408 37.7389C65.7658 37.7389 65.5356 37.8642 65.3469 38.1075C65.1614 38.3545 65.0687 38.6085 65.0687 38.8698C65.0687 39.038 65.1358 39.1382 65.2766 39.1704C65.3053 39.1847 65.3469 39.1919 65.4013 39.1919ZM68.9891 46.0843C68.6373 46.3312 68.2792 46.5495 67.9147 46.7428C67.5501 46.936 67.192 47.0935 66.8402 47.2187C66.4885 47.344 66.1559 47.4048 65.8393 47.4048C65.4268 47.4048 65.139 47.2331 64.9824 46.8859C64.8225 46.5388 64.7457 46.1022 64.7457 45.5797C64.7457 45.1932 64.7777 44.7853 64.8385 44.3522C64.8992 43.9192 64.976 43.5041 65.0655 43.1033C65.155 42.7025 65.2414 42.3375 65.3245 42.0047C65.4077 41.6718 65.4684 41.4142 65.51 41.2317L65.5196 41.1744L65.5292 41.1386C65.5292 41.0456 65.4812 40.9991 65.3853 40.9991C65.2733 40.9991 65.1518 41.0492 65.0143 41.1494C64.8768 41.2496 64.7937 41.3605 64.7649 41.4858C64.7233 41.6718 64.6498 41.9295 64.5475 42.2623C64.4451 42.5951 64.3428 42.9673 64.2469 43.3824C64.151 43.7976 64.0646 44.2342 63.9879 44.6886C63.9111 45.1431 63.8727 45.5797 63.8727 45.9948C63.8727 46.6426 63.9975 47.1722 64.2437 47.5802C64.4931 47.9881 64.96 48.1921 65.6475 48.1921C66.0344 48.1921 66.4373 48.117 66.8562 47.9738C67.2751 47.8271 67.6972 47.6303 68.1161 47.3834C68.535 47.1364 68.9475 46.8501 69.3472 46.5281C69.7469 46.206 70.1339 45.866 70.5048 45.5117C70.6295 45.3901 70.6903 45.2898 70.6903 45.2111C70.6903 45.1503 70.6487 45.1181 70.5656 45.1181C70.3865 45.1181 70.185 45.204 69.9676 45.3722C69.667 45.6012 69.3376 45.841 68.9891 46.0843ZM60.6271 34.0708C61.0396 32.9221 61.5224 31.802 62.0724 30.7069C62.1556 30.553 62.2483 30.3884 62.3506 30.2095C62.453 30.0341 62.5681 29.8695 62.6928 29.7228C62.8175 29.5761 62.9358 29.4544 63.0541 29.3542C63.1725 29.254 63.278 29.2039 63.3739 29.2039C63.5242 29.2039 63.6425 29.2862 63.7257 29.4472C63.8088 29.6083 63.8504 29.823 63.8504 30.0842C63.8504 30.2524 63.8312 30.4313 63.7896 30.6174C63.6393 31.3582 63.4283 32.1169 63.1597 32.897C62.8911 33.6772 62.632 34.3643 62.3858 34.9655C62.1364 35.5524 61.8646 36.1715 61.5704 36.8264C61.273 37.4813 60.9596 38.1397 60.6303 38.8054C60.3009 39.4674 59.9524 40.1116 59.5878 40.7378C59.2233 41.3641 58.8396 41.9367 58.4398 42.4627C58.507 42.1084 58.5869 41.7076 58.6765 41.2603C58.766 40.813 58.8555 40.3656 58.9451 39.9183C59.0346 39.471 59.1274 39.0416 59.2233 38.6336C59.3192 38.2256 59.4088 37.8749 59.4919 37.5815C59.8341 36.3862 60.2146 35.2196 60.6271 34.0708ZM57.1544 45.1038C57.1544 45.1718 57.1544 45.2469 57.1544 45.3221C57.1544 46.231 57.3398 46.9575 57.714 47.4979C58.0849 48.0382 58.6317 48.3066 59.348 48.3066C59.6774 48.3066 60.0355 48.2243 60.4224 48.0633C60.8094 47.9023 61.1931 47.6947 61.58 47.437C61.9669 47.1829 62.3347 46.9038 62.6864 46.6032C63.0382 46.3026 63.3483 46.0127 63.6169 45.7372C63.8855 45.458 64.103 45.2075 64.2693 44.9857C64.4356 44.7638 64.5187 44.6028 64.5187 44.5133C64.5187 44.4524 64.4835 44.4202 64.4164 44.4202C64.3204 44.4202 64.1797 44.499 63.9943 44.6529C63.8088 44.8067 63.5914 44.9964 63.3451 45.2183C63.0989 45.4402 62.8271 45.6871 62.5329 45.9591C62.2387 46.2275 61.9317 46.4744 61.6152 46.6998C61.2986 46.9217 60.982 47.1114 60.6687 47.2653C60.3521 47.4191 60.0515 47.4979 59.7637 47.4979C59.5718 47.4979 59.3864 47.4513 59.2073 47.3583C59.0282 47.2653 58.8683 47.1078 58.7244 46.8859C58.5805 46.664 58.4622 46.3742 58.3727 46.0199C58.2832 45.6656 58.2384 45.2326 58.2384 44.7244C58.2384 44.5562 58.2416 44.3809 58.248 44.2055C58.2544 44.0266 58.264 43.8691 58.28 43.7296C58.8012 43.1427 59.3064 42.4949 59.7925 41.7864C60.2817 41.0778 60.739 40.3442 61.1739 39.5891C61.6056 38.834 62.0053 38.0682 62.3698 37.288C62.7344 36.5079 63.0605 35.7564 63.3483 35.0335C63.473 34.7257 63.6041 34.3535 63.7512 33.9241C63.8951 33.4911 64.0294 33.0402 64.1541 32.5714C64.2789 32.1026 64.3844 31.6338 64.4739 31.1721C64.5635 30.7105 64.6082 30.2918 64.6082 29.9232C64.6082 29.5224 64.5411 29.1896 64.4132 28.9283C64.2821 28.6671 64.0518 28.5347 63.7193 28.5347C63.4283 28.5347 63.1725 28.5991 62.9454 28.7315C62.7184 28.8639 62.5105 29.0285 62.3251 29.2289C62.1396 29.4293 61.9701 29.6584 61.8198 29.9124C61.6695 30.1665 61.5224 30.4099 61.3849 30.6425C60.8765 31.5228 60.432 32.4855 60.0515 33.534C59.671 34.5826 59.3256 35.5917 59.009 36.5651C58.8587 36.9981 58.6925 37.5493 58.5134 38.2185C58.3343 38.8877 58.1552 39.6105 57.9762 40.38C57.7971 41.1529 57.634 41.9295 57.4901 42.7168C57.3462 43.5041 57.2439 44.227 57.1895 44.8926C57.164 44.9606 57.1544 45.0322 57.1544 45.1038ZM46.2342 42.409C46.1319 43.0568 46.0072 43.7403 45.8633 44.456C45.7194 45.1718 45.5659 45.8839 45.4092 46.5853C45.2493 47.2867 45.1022 47.8915 44.9647 48.3997L44.9551 48.4355L44.9455 48.4713C44.9455 48.5786 45.0287 48.6323 45.1949 48.6323C45.3452 48.6323 45.5083 48.5965 45.681 48.5285C45.8537 48.4605 45.9592 48.3854 46.0008 48.3102C46.1926 47.9559 46.4229 47.548 46.6947 47.0827C46.9633 46.6211 47.2447 46.1523 47.5421 45.6835C47.8395 45.2147 48.1432 44.7531 48.4502 44.3057C48.7604 43.8584 49.0578 43.4612 49.3392 43.114C49.6206 42.7669 49.886 42.4878 50.1354 42.2695C50.3848 42.0548 50.5895 41.9438 50.7558 41.9438C50.8805 41.9438 50.9892 42.0476 51.0851 42.2552C51.1811 42.4627 51.2706 42.7347 51.3537 43.0639C51.4369 43.3967 51.52 43.7582 51.6031 44.1518C51.6863 44.5455 51.7694 44.932 51.8526 45.3077C51.9357 45.6871 52.022 46.0306 52.1116 46.3384C52.2011 46.6462 52.3002 46.8716 52.4122 47.0076C52.6456 47.3154 52.895 47.5265 53.1572 47.6446C53.4195 47.7591 53.6881 47.8164 53.9631 47.8164C54.3212 47.8164 54.6857 47.7341 55.0599 47.573C55.4308 47.412 55.789 47.2152 56.1343 46.9825C56.4797 46.7499 56.793 46.5066 57.0744 46.2418C57.3558 45.9805 57.5957 45.7408 57.7875 45.526C57.8579 45.4473 57.8898 45.3936 57.8898 45.365L57.8483 45.3435C57.8067 45.3435 57.7332 45.3614 57.6308 45.4008C57.5285 45.4402 57.4262 45.4759 57.3302 45.5046C57.2759 45.5368 57.0808 45.6656 56.7515 45.8982C56.4221 46.1308 55.9328 46.4064 55.2837 46.732C55.0919 46.8251 54.9192 46.8895 54.7657 46.9289C54.6154 46.9682 54.4779 46.9933 54.3532 47.0112C54.1325 47.0112 53.9535 46.9539 53.816 46.8394C53.6785 46.7249 53.5569 46.5746 53.4546 46.3885C53.3523 46.2024 53.266 45.9913 53.1956 45.7515C53.1253 45.5117 53.0517 45.2612 52.9686 45C52.8439 44.6135 52.7415 44.1948 52.6584 43.7403C52.5753 43.2858 52.4729 42.8707 52.3482 42.4914C52.2235 42.112 52.0604 41.7971 51.8622 41.543C51.6639 41.2889 51.3889 41.1601 51.0468 41.1601C50.6886 41.1601 50.3049 41.314 49.8988 41.6217C49.4927 41.9295 49.0866 42.3196 48.6804 42.7884C48.2743 43.2572 47.8778 43.7689 47.4909 44.3165C47.104 44.864 46.7618 45.3757 46.458 45.8553C46.6371 44.9141 46.8002 43.9801 46.9441 43.0568C47.088 42.1299 47.1615 41.1816 47.1615 40.2118C47.1615 40.1652 47.1487 40.1438 47.12 40.1438C47.0784 40.1438 47.0176 40.1831 46.9345 40.2583C46.8514 40.337 46.7746 40.4193 46.7075 40.5124C46.6243 40.6197 46.5348 40.7378 46.4389 40.8595C46.4005 41.2424 46.3365 41.7613 46.2342 42.409ZM40.8493 39.1919C41.0699 39.1919 41.2841 39.0881 41.4888 38.8805C41.6967 38.6729 41.799 38.4153 41.799 38.1075C41.799 37.9859 41.767 37.8964 41.7063 37.8427C41.6455 37.789 41.5719 37.7532 41.4888 37.7389C41.2138 37.7389 40.9836 37.8642 40.7949 38.1075C40.6094 38.3545 40.5167 38.6085 40.5167 38.8698C40.5167 39.038 40.5839 39.1382 40.7246 39.1704C40.7533 39.1847 40.7949 39.1919 40.8493 39.1919ZM44.4339 46.0843C44.0821 46.3312 43.724 46.5495 43.3595 46.7428C42.9949 46.936 42.6368 47.0935 42.285 47.2187C41.9333 47.344 41.6007 47.4048 41.2842 47.4048C40.8716 47.4048 40.5839 47.2331 40.4272 46.8859C40.2673 46.5388 40.1905 46.1022 40.1905 45.5797C40.1905 45.1932 40.2225 44.7853 40.2833 44.3522C40.344 43.9192 40.4208 43.5041 40.5103 43.1033C40.5998 42.7025 40.6862 42.3375 40.7693 42.0047C40.8525 41.6718 40.9132 41.4142 40.9548 41.2317L40.9644 41.1744L40.974 41.1386C40.974 41.0456 40.926 40.9991 40.8301 40.9991C40.7182 40.9991 40.5966 41.0492 40.4591 41.1494C40.3216 41.2496 40.2385 41.3605 40.2097 41.4858C40.1681 41.6718 40.0946 41.9295 39.9923 42.2623C39.8899 42.5951 39.7876 42.9673 39.6917 43.3824C39.5958 43.7976 39.5094 44.2342 39.4327 44.6886C39.3559 45.1431 39.3176 45.5797 39.3176 45.9948C39.3176 46.6426 39.4423 47.1722 39.6885 47.5802C39.9379 47.9881 40.4048 48.1921 41.0923 48.1921C41.4792 48.1921 41.8821 48.117 42.301 47.9738C42.7199 47.8271 43.142 47.6303 43.5609 47.3834C43.9798 47.1364 44.3923 46.8501 44.792 46.5281C45.1917 46.206 45.5787 45.866 45.9496 45.5117C46.0743 45.3901 46.1351 45.2898 46.1351 45.2111C46.1351 45.1503 46.0935 45.1181 46.0104 45.1181C45.8313 45.1181 45.6298 45.204 45.4124 45.3722C45.1118 45.6012 44.7856 45.841 44.4339 46.0843ZM36.2925 49.1727C35.5826 48.6395 34.9399 48.006 34.3611 47.2653C35.0646 46.8322 35.669 46.2525 36.1806 45.5189C36.689 44.7853 37.1047 43.9872 37.4213 43.1248C37.7379 42.2623 37.9713 41.3784 38.1248 40.4766C38.2751 39.5748 38.3518 38.7302 38.3518 37.9429C38.3518 35.9246 37.9329 34.1388 37.092 32.5893C36.251 31.0397 35.0454 29.7335 33.4753 28.6671C33.3922 28.6349 33.3251 28.6206 33.2675 28.6206C33.0884 28.6206 32.903 28.6707 32.7079 28.7709C32.516 28.8711 32.4201 28.9605 32.4201 29.0357L32.4617 29.1037C33.2195 29.6297 33.8942 30.1987 34.4858 30.8143C35.0774 31.4298 35.5762 32.1169 35.9855 32.872C36.3917 33.6271 36.6986 34.4681 36.9065 35.3949C37.1143 36.3182 37.2167 37.3524 37.2167 38.494C37.2167 39.2348 37.1559 40.0006 37.0312 40.7951C36.9065 41.5895 36.7146 42.3554 36.4524 43.0961C36.1902 43.8369 35.8576 44.5276 35.4515 45.1646C35.0454 45.8052 34.553 46.342 33.9742 46.7714C33.8495 46.5853 33.7184 46.3742 33.5809 46.1344C33.4434 45.8946 33.3059 45.6692 33.1684 45.4509C33.0309 45.2362 32.8998 45.0501 32.775 44.8962C32.6503 44.7423 32.5416 44.6636 32.4457 44.6636C32.2954 44.6636 32.1419 44.703 31.9916 44.7781C31.8413 44.8568 31.7646 44.9463 31.7646 45.0572L31.7838 45.1252C31.95 45.4795 32.1483 45.8302 32.3817 46.1773C32.6152 46.5245 32.871 46.8752 33.146 47.2295C32.7878 47.3547 32.4521 47.4156 32.1387 47.4156C31.6846 47.4156 31.2721 47.3118 30.8948 47.1042C30.5175 46.8967 30.1913 46.5996 29.9163 46.2131C29.6413 45.8266 29.427 45.3578 29.2672 44.8032C29.1105 44.2485 29.0305 43.6222 29.0305 42.928C29.0305 41.8937 29.1648 40.8488 29.4334 39.7931C29.7021 38.7374 30.0506 37.6888 30.4759 36.6474C30.9012 35.6061 31.384 34.5969 31.9213 33.6163C32.4585 32.6358 32.9957 31.7089 33.5329 30.8286C33.5617 30.7677 33.5745 30.7284 33.5745 30.7141C33.5745 30.621 33.4785 30.5745 33.2835 30.5745C33.146 30.5745 33.0021 30.6031 32.8486 30.6568C32.6983 30.7105 32.5928 30.7749 32.5384 30.8536C32.014 31.7018 31.48 32.6072 30.9364 33.5698C30.3928 34.5325 29.9003 35.5273 29.4558 36.5544C29.0145 37.5815 28.6532 38.6228 28.3718 39.6893C28.0904 40.7521 27.9497 41.8114 27.9497 42.8564C27.9497 43.6115 28.0328 44.3057 28.1991 44.9391C28.3654 45.5726 28.6052 46.1201 28.9218 46.5817C29.2384 47.0434 29.6285 47.4012 30.089 47.6589C30.5494 47.913 31.0835 48.0418 31.691 48.0418C32.2155 48.0418 32.7655 47.9416 33.3442 47.7412L33.5105 47.6732C34.1565 48.414 34.8696 49.0653 35.6498 49.6272C36.4268 50.189 37.2103 50.5397 37.9937 50.6793C38.1184 50.6793 38.2719 50.6256 38.4574 50.5182C38.6428 50.4109 38.7356 50.3035 38.7356 50.1962C38.7356 50.1353 38.6652 50.096 38.5277 50.0816C37.7475 50.0101 37.0024 49.7059 36.2925 49.1727Z" fill="white"/>
<path d="M77.5064 54.1981H79.4346V53.8259H77.8454V52.3336H79.4346V51.9614H77.8454V50.7733H79.4506V50.4012H77.5064V54.1981ZM74.3663 54.1981V51.3244L76.6047 54.1981H76.6814V50.4047H76.3488V53.3142L74.0913 50.4047H74.0177V54.1981H74.3663ZM72.8985 54.1981H73.2375V50.4047H72.8985V54.1981ZM70.7081 54.1122C70.8744 54.2339 71.063 54.2983 71.2677 54.2983C71.5363 54.2983 71.7601 54.1981 71.9488 53.9941C72.1343 53.7901 72.2302 53.5539 72.2302 53.2784C72.2302 53.0887 72.1758 52.899 72.0671 52.7094C71.9584 52.5197 71.7569 52.305 71.4627 52.0616C71.2133 51.8577 71.0694 51.7324 71.0247 51.6823C70.9447 51.5928 70.8872 51.507 70.8552 51.4282C70.8232 51.3495 70.8104 51.2708 70.8104 51.1885C70.8104 51.0525 70.8552 50.9379 70.9415 50.8449C71.0279 50.7519 71.1398 50.7053 71.2773 50.7053C71.3828 50.7053 71.4819 50.734 71.5715 50.7948C71.661 50.8556 71.7697 50.9809 71.8976 51.1706L72.1758 50.9344C72.0223 50.6982 71.872 50.5336 71.7345 50.4441C71.5938 50.3546 71.4468 50.3117 71.2869 50.3117C71.1366 50.3117 70.9959 50.3511 70.868 50.4298C70.7401 50.5085 70.6409 50.6159 70.5706 50.7519C70.5002 50.8878 70.4651 51.0381 70.4651 51.2028C70.4651 51.4103 70.5258 51.6036 70.6441 51.7825C70.7145 51.8899 70.8904 52.0616 71.1718 52.3014C71.4532 52.5376 71.645 52.7416 71.7537 52.9098C71.8305 53.0315 71.8689 53.1567 71.8689 53.282C71.8689 53.3929 71.8433 53.5002 71.7889 53.6005C71.7377 53.7007 71.661 53.7794 71.5619 53.8402C71.4627 53.9011 71.354 53.9297 71.2421 53.9297C70.9767 53.9297 70.7433 53.7221 70.5386 53.3034L70.2508 53.4967C70.3851 53.783 70.5386 53.9869 70.7081 54.1122ZM69.477 54.1981H69.8159V50.4047H69.477V54.1981ZM66.4487 52.6951C66.4487 53.0815 66.4711 53.3464 66.5127 53.4931C66.5798 53.7329 66.711 53.9261 66.9028 54.0728C67.0979 54.2196 67.3313 54.2911 67.6063 54.2911C67.8589 54.2911 68.0732 54.2124 68.2522 54.0585C68.4281 53.9046 68.5464 53.7221 68.6072 53.5146C68.6679 53.307 68.6967 53.0315 68.6967 52.6915V50.4012H68.3578V52.6915C68.3578 52.9921 68.345 53.1889 68.3226 53.2855C68.2906 53.4179 68.2395 53.5325 68.1723 53.6291C68.102 53.7221 68.0156 53.7973 67.9133 53.851C67.811 53.9046 67.7022 53.9297 67.5903 53.9297C67.4624 53.9297 67.3313 53.8975 67.2034 53.8295C67.0755 53.7615 66.9828 53.6756 66.9188 53.5754C66.858 53.4752 66.8197 53.3499 66.8005 53.1996C66.7909 53.1317 66.7877 52.9635 66.7877 52.6915V50.4012H66.4487V52.6951ZM65.1281 50.5192C64.8723 50.3797 64.5877 50.3081 64.2711 50.3081C63.7467 50.3081 63.3118 50.4978 62.9632 50.8771C62.6147 51.2564 62.442 51.7252 62.442 52.2799C62.442 52.8096 62.5859 53.2569 62.8737 53.6327C63.2159 54.0764 63.6859 54.2947 64.2775 54.2947C64.5877 54.2947 64.8723 54.2303 65.1249 54.0979C65.3775 53.9655 65.5886 53.7794 65.758 53.5396L65.4894 53.3142C65.1697 53.7293 64.7731 53.9368 64.2967 53.9368C63.865 53.9368 63.5068 53.783 63.2222 53.4716C62.9377 53.1603 62.797 52.7774 62.797 52.3121C62.797 52.008 62.8609 51.7288 62.9856 51.4855C63.1135 51.2421 63.2926 51.0453 63.5228 50.8986C63.7531 50.7519 64.0025 50.6803 64.2743 50.6803C64.5205 50.6803 64.7476 50.7375 64.9554 50.8485C65.1633 50.9594 65.3391 51.124 65.4862 51.3388L65.7548 51.1097C65.5918 50.8556 65.3839 50.6588 65.1281 50.5192ZM58.1507 54.1981V51.3244L60.3891 54.1981H60.4658V50.4047H60.1333V53.3142L57.8757 50.4047H57.8021V54.1981H58.1507ZM56.2289 52.5841H55.0713L55.6533 51.2099L56.2289 52.5841ZM55.6085 50.4047L54.0065 54.1981H54.3838L54.9114 52.9491H56.3728L56.9068 54.1981H57.2713L55.6885 50.4047H55.6085ZM51.2276 52.6951C51.2276 53.0815 51.2468 53.3464 51.2884 53.4931C51.3556 53.7329 51.4867 53.9261 51.6817 54.0728C51.8768 54.2196 52.1102 54.2911 52.3852 54.2911C52.6378 54.2911 52.8521 54.2124 53.028 54.0585C53.2038 53.9046 53.3254 53.7221 53.3829 53.5146C53.4437 53.307 53.4724 53.0315 53.4724 52.6915V50.4012H53.1335V52.6915C53.1335 52.9921 53.1207 53.1889 53.0983 53.2855C53.0663 53.4179 53.0152 53.5325 52.9448 53.6291C52.8745 53.7221 52.7913 53.7973 52.6858 53.851C52.5803 53.9046 52.4748 53.9297 52.3628 53.9297C52.2349 53.9297 52.107 53.8975 51.9791 53.8295C51.8512 53.7615 51.7553 53.6756 51.6945 53.5754C51.6338 53.4752 51.5954 53.3499 51.5762 53.1996C51.5666 53.1317 51.5634 52.9635 51.5634 52.6915V50.4012H51.2245V52.6951H51.2276ZM47.9852 54.1981H48.3241V52.3658H50.0509V54.1981H50.3899V50.4047H50.0509V51.9972H48.3241V50.4047H47.9852V54.1981ZM46.6837 50.5192C46.4279 50.3797 46.1433 50.3081 45.8267 50.3081C45.3023 50.3081 44.8674 50.4978 44.5189 50.8771C44.1703 51.2564 43.9976 51.7252 43.9976 52.2799C43.9976 52.8096 44.1415 53.2569 44.4293 53.6327C44.7715 54.0764 45.2383 54.2947 45.8331 54.2947C46.1465 54.2947 46.4279 54.2303 46.6805 54.0979C46.9331 53.9655 47.1442 53.7794 47.3137 53.5396L47.0451 53.3142C46.7253 53.7293 46.3288 53.9368 45.8523 53.9368C45.4206 53.9368 45.0625 53.783 44.7779 53.4716C44.4933 53.1603 44.3526 52.7774 44.3526 52.3121C44.3526 52.008 44.4165 51.7288 44.5413 51.4855C44.6692 51.2421 44.8482 51.0453 45.0785 50.8986C45.3087 50.7519 45.5581 50.6803 45.8299 50.6803C46.0762 50.6803 46.3032 50.7375 46.511 50.8485C46.7189 50.9594 46.8948 51.124 47.0419 51.3388L47.3105 51.1097C47.1474 50.8556 46.9395 50.6588 46.6837 50.5192ZM43.0383 54.1981H43.3773V50.4047H43.0383V54.1981ZM40.8479 54.1122C41.0142 54.2339 41.2028 54.2983 41.4075 54.2983C41.6761 54.2983 41.9031 54.1981 42.0886 53.9941C42.2741 53.7901 42.37 53.5539 42.37 53.2784C42.37 53.0887 42.3156 52.899 42.2069 52.7094C42.0982 52.5197 41.8967 52.305 41.6026 52.0616C41.3563 51.8577 41.2092 51.7324 41.1645 51.6823C41.0845 51.5928 41.027 51.507 40.995 51.4282C40.963 51.3495 40.9502 51.2708 40.9502 51.1885C40.9502 51.0525 40.995 50.9379 41.0813 50.8449C41.1677 50.7519 41.2796 50.7053 41.4171 50.7053C41.5226 50.7053 41.6217 50.734 41.7113 50.7948C41.8008 50.8556 41.9095 50.9809 42.0374 51.1706L42.3156 50.9344C42.159 50.6982 42.0119 50.5336 41.8744 50.4441C41.7337 50.3546 41.5866 50.3117 41.4267 50.3117C41.2764 50.3117 41.1357 50.3511 41.0078 50.4298C40.8799 50.5085 40.7807 50.6159 40.7104 50.7519C40.64 50.8878 40.6049 51.0381 40.6049 51.2028C40.6049 51.4103 40.6656 51.6036 40.7839 51.7825C40.8543 51.8899 41.0302 52.0616 41.3116 52.3014C41.593 52.5376 41.7848 52.7416 41.8936 52.9098C41.9703 53.0315 42.0087 53.1567 42.0087 53.282C42.0087 53.3929 41.9831 53.5002 41.9287 53.6005C41.8776 53.7007 41.8008 53.7794 41.7017 53.8402C41.6026 53.9011 41.4938 53.9297 41.3819 53.9297C41.1165 53.9297 40.8831 53.7221 40.6784 53.3034L40.3906 53.4967C40.5249 53.783 40.6816 53.9869 40.8479 54.1122Z" fill="white"/>
<defs>
<filter id="filter0_d_59_184" x="11.5728" y="0" width="77.98" height="38.2314" filterUnits="userSpaceOnUse" color-interpolation-filters="sRGB">
<feFlood flood-opacity="0" result="BackgroundImageFix"/>
<feColorMatrix in="SourceAlpha" type="matrix" values="0 0 0 0 0 0 0 0 0 0 0 0 0 0 0 0 0 0 127 0" result="hardAlpha"/>
<feOffset dy="2.6289"/>
<feGaussianBlur stdDeviation="1.31445"/>
<feComposite in2="hardAlpha" operator="out"/>
<feColorMatrix type="matrix" values="0 0 0 0 0 0 0 0 0 0 0 0 0 0 0 0 0 0 0.25 0"/>
<feBlend mode="normal" in2="BackgroundImageFix" result="effect1_dropShadow_59_184"/>
<feBlend mode="normal" in="SourceGraphic" in2="effect1_dropShadow_59_184" result="shape"/>
</filter>
<filter id="filter1_d_59_184" x="0.371099" y="8.91846" width="60.1006" height="56.3393" filterUnits="userSpaceOnUse" color-interpolation-filters="sRGB">
<feFlood flood-opacity="0" result="BackgroundImageFix"/>
<feColorMatrix in="SourceAlpha" type="matrix" values="0 0 0 0 0 0 0 0 0 0 0 0 0 0 0 0 0 0 127 0" result="hardAlpha"/>
<feOffset dy="2.6289"/>
<feGaussianBlur stdDeviation="1.31445"/>
<feComposite in2="hardAlpha" operator="out"/>
<feColorMatrix type="matrix" values="0 0 0 0 0 0 0 0 0 0 0 0 0 0 0 0 0 0 0.25 0"/>
<feBlend mode="normal" in2="BackgroundImageFix" result="effect1_dropShadow_59_184"/>
<feBlend mode="normal" in="SourceGraphic" in2="effect1_dropShadow_59_184" result="shape"/>
</filter>
</defs>
</svg>
