<svg width="132" height="54" viewBox="0 0 132 54" fill="none" xmlns="http://www.w3.org/2000/svg">
<path d="M45.2842 40.5693H46.8726C48.0798 40.5693 48.6559 41.0834 48.6559 42.0878C48.6559 42.9443 48.3134 43.3257 47.6671 43.5052C47.9786 43.6142 48.1811 43.9101 48.3602 44.4552L48.8509 45.9581H47.8305L47.3555 44.4318C47.1612 43.8322 46.982 43.7076 46.6002 43.7076H46.2264V45.9581H45.2842V40.5693ZM46.8884 42.9834C47.4801 42.9834 47.6672 42.711 47.6672 42.1267C47.6672 41.5816 47.457 41.3637 46.8805 41.3637H46.2265V42.9834H46.8884Z" fill="white"/>
<path d="M53.6267 45.4362L54.164 45.3507V41.1769L53.6267 41.0834V40.5693H55.6515V41.0834L55.114 41.1769V45.3507L55.6515 45.4362V45.9581H53.6267V45.4362Z" fill="white"/>
<path d="M60.4651 45.5376L60.8156 44.8291C61.2128 45.1174 61.5709 45.2574 62.0614 45.2574C62.6845 45.2574 62.9415 44.9696 62.9415 44.5021C62.9415 43.9569 62.6379 43.8014 62.0692 43.5988C61.1739 43.2872 60.691 42.9368 60.691 41.9558C60.691 40.9511 61.3295 40.4683 62.2952 40.4683C62.9181 40.4683 63.2996 40.6007 63.6735 40.8421L63.323 41.5587C63.0038 41.3486 62.7465 41.2629 62.365 41.2629C61.9059 41.2629 61.6332 41.4652 61.6332 41.9013C61.6332 42.3528 61.8046 42.501 62.373 42.7033C63.2218 42.9914 63.9149 43.2953 63.9149 44.4322C63.9149 45.3431 63.4788 46.0595 62.1393 46.0595C61.462 46.0595 60.8386 45.8339 60.4651 45.5376Z" fill="white"/>
<path d="M69.8035 41.3792H68.5808V40.5693H71.9526V41.3792H70.7301V45.9581H69.8035V41.3792Z" fill="white"/>
<path d="M76.6343 43.2797C76.6343 41.3872 77.3507 40.4683 78.7055 40.4683C80.0606 40.4683 80.7691 41.372 80.7691 43.2564C80.7691 45.1717 80.0916 46.0595 78.7135 46.0595C77.3351 46.0595 76.6343 45.1952 76.6343 43.2797ZM79.749 43.2716C79.749 41.8155 79.4842 41.2317 78.7055 41.2317C77.9267 41.2317 77.6543 41.808 77.6543 43.2484C77.6543 44.7124 77.9267 45.3042 78.7055 45.3042C79.4842 45.3042 79.749 44.7281 79.749 43.2716Z" fill="white"/>
<path d="M85.9495 40.5693H87.5382C88.7451 40.5693 89.3215 41.0834 89.3215 42.0878C89.3215 42.9443 88.979 43.3257 88.3323 43.5052C88.644 43.6142 88.8466 43.9101 89.0255 44.4552L89.5162 45.9581H88.496L88.021 44.4318C87.8263 43.8322 87.6471 43.7076 87.2657 43.7076H86.8918V45.9581H85.9495V40.5693H85.9495ZM87.5537 42.9834C88.1457 42.9834 88.3323 42.711 88.3323 42.1267C88.3323 41.5816 88.1222 41.3637 87.546 41.3637H86.8918V42.9834H87.5537Z" fill="white"/>
<path d="M95.632 40.5693H96.6288L98.1628 45.9581H97.1505L96.8079 44.6264H95.3438L94.9858 45.9581H94.0278L95.632 40.5693ZM95.5464 43.8869H96.6209L96.3872 42.9678C96.216 42.306 96.1616 41.971 96.107 41.6285H96.0916C96.0368 41.9788 95.9746 42.3216 95.7958 42.9678L95.5464 43.8869Z" fill="white"/>
<path d="M103.079 40.5694H103.99L105.299 43.2951C105.501 43.7312 105.68 44.2139 105.797 44.58H105.805C105.766 44.237 105.703 43.6376 105.703 43.1001V40.5693H106.568V45.9581H105.61L104.395 43.3885C104.099 42.7731 103.975 42.3839 103.85 42.0023H103.835C103.874 42.3216 103.936 42.9443 103.936 43.5908V45.9581H103.079V40.5694H103.079Z" fill="white"/>
<path d="M112.8 41.3792H111.577V40.5693H114.949V41.3792H113.726V45.9581H112.8V41.3792H112.8Z" fill="white"/>
<path d="M119.974 40.5693H122.793V41.3716H120.916V42.7498H122.419V43.5363H120.916V45.1481H122.91V45.9581H119.974V40.5693H119.974Z" fill="white"/>
<path d="M41.4312 51.2742C34.4017 47.662 28.4118 44.0941 24.119 37.2423C23.5545 36.3411 23.0484 35.4141 22.6005 34.4686C24.0833 33.751 25.5227 32.963 26.9049 32.1525C31.8518 29.2518 36.5348 25.5912 40.2413 21.1974C42.8218 18.1386 45.4941 14.0442 44.6312 9.84533C43.9454 6.51075 41.2775 4.83524 38.2593 4.32593C38.9949 3.80338 39.5935 3.13252 39.6816 2.23118C39.8516 0.498181 37.2941 0.0961422 36.1217 0.0252733C33.805 -0.115194 31.4368 0.348892 29.2105 0.945671C23.5815 2.45433 18.2569 5.30351 13.4831 8.59638C13.4464 8.62165 13.4088 8.64833 13.3718 8.67413C12.9868 8.70171 12.6013 8.7272 12.2172 8.74851C10.8225 8.82536 9.42456 8.82767 8.02916 8.75187C6.68026 8.67838 6.68789 10.7716 8.02916 10.8446C8.85432 10.8895 9.68202 10.908 10.5115 10.9053C4.50724 16.0775 -2.03153 24.8072 0.598167 32.3028C2.10189 36.5854 7.51469 38.0204 11.9018 37.6701C14.4709 37.4644 16.9992 36.7877 19.439 35.8466C19.9529 36.9801 20.5666 38.0836 21.2836 39.1455C25.8746 45.9469 33.4941 50.1857 40.8751 53.2926C42.1184 53.8156 42.6123 51.8816 41.4312 51.2742ZM33.5295 2.20726C34.5501 2.08959 35.5801 2.07038 36.6041 2.15157C36.8843 2.17437 37.1638 2.24815 37.4233 2.36111C36.5685 3.41667 34.209 4.10009 32.9251 4.53397C32.4808 4.6411 32.0499 4.76856 31.6404 4.9162C31.2982 5.0397 30.96 5.17613 30.6254 5.32018C26.5318 6.65137 22.2518 7.61587 17.9579 8.1974C22.6593 5.36399 28.0194 2.84441 33.5295 2.20726ZM18.5998 33.7066C17.286 34.1496 15.9399 34.513 14.559 34.7827C11.0945 35.4599 6.35126 35.4615 4.23924 31.0722C2.73477 27.9483 3.71236 22.977 6.10456 19.6833C8.64523 16.188 11.165 13.2492 14.3018 10.7429C17.8525 10.4598 21.4021 9.82799 24.8632 9.0201C24.2469 9.55909 23.6576 10.1249 23.1007 10.7118C20.774 13.1618 19.5094 16.1717 18.5358 19.3682C17.0774 24.1545 17.0718 29.1246 18.5998 33.7066ZM21.6745 16.7613C23.1013 13.2127 26.503 9.53576 30.4361 7.55779C31.7321 7.1722 33.0167 6.74294 34.2761 6.25135C35.6255 6.01601 36.9835 6.02058 38.2994 6.33784C40.4769 6.86323 42.3102 8.57313 42.6863 10.7937C42.994 12.6109 42.1123 14.5793 41.265 16.1241C38.6557 20.8862 34.1634 24.6938 29.7985 27.791C27.2491 29.5998 24.5755 31.2068 21.7524 32.4691C19.8319 27.3458 19.6443 21.8078 21.6745 16.7613Z" fill="white"/>
<path d="M120.153 22.2318C120.068 22.2621 119.993 22.3008 119.925 22.3438C118.621 22.0596 117.29 22.688 116.17 23.6274C114.583 24.5475 112.879 25.0172 110.987 24.7519C109.414 24.531 107.924 23.9171 106.342 23.7371C103.569 23.4222 101.772 25.1208 100.52 27.3234C100.087 24.7812 98.9226 22.7465 96.3532 24.166C95.1716 24.8184 96.1441 25.946 97.3268 25.2931L97.3285 25.2833C98.8882 24.4212 98.6296 31.7625 98.4319 32.5336C98.096 33.8467 100.042 34.3711 100.451 33.0905C101.193 30.7614 102.241 28.2462 103.92 26.3425C104.877 25.2579 107.091 24.7818 108.136 25.3869C110.389 26.6934 112.161 26.8505 113.95 26.2634C112.634 28.4262 111.362 31.8725 113.532 33.7076C115.255 35.1658 117.074 34.8708 118.67 33.8389L118.671 33.8406C120.928 32.4548 122.154 30.2888 122.683 29.1254C122.689 29.1148 122.695 29.1034 122.701 29.0918C123.812 26.8548 124.375 20.7139 120.153 22.2318ZM121.417 26.3263C121.407 26.4037 121.396 26.4823 121.386 26.5607L121.385 26.5611C121.385 26.5611 121.091 28.7549 119.824 30.5051C119.806 30.5297 119.79 30.551 119.773 30.575C119.187 31.2994 118.485 31.9543 117.737 32.4303C116.929 32.9428 115.428 33.2633 114.975 32.1953C114.035 29.9822 117.774 22.4839 120.227 24.8681C120.66 25.2888 121.171 25.2052 121.52 24.9022C121.555 25.4014 121.457 26.0228 121.417 26.3263Z" fill="white"/>
<path d="M94.4974 26.527C93.7575 27.161 92.279 29.6911 91.2297 30.8446C90.5572 31.5853 87.9082 33.7904 87.7676 30.4709C87.6929 28.6941 87.9522 26.7998 88.4931 25.142C88.9122 23.8529 89.3366 22.565 89.7706 21.2803C90.3028 20.3044 90.805 19.3097 91.2868 18.3024C92.6159 18.3164 93.9451 18.3272 95.2746 18.3343C100.537 18.3612 107.602 18.3528 112.862 18.1636C116.007 18.0502 119.503 18.1094 122.543 17.1679C123.828 16.7707 124.302 13.621 123.009 14.0216C120.034 14.9431 113.542 16.1176 110.465 16.2281C105.173 16.4186 99.6592 16.7311 94.3637 16.703C93.5864 16.6991 92.8125 16.69 92.04 16.6788C93.0889 14.3569 94.0487 11.9795 95.0027 9.59676C95.4621 8.45037 93.7012 7.8376 93.0903 8.79022C91.5115 11.2545 90.2883 13.9045 89.2294 16.6233C86.0442 16.5461 82.8876 16.4251 79.7345 16.3011C80.7572 14.0149 81.7874 11.7316 82.9215 9.49801C83.5482 8.2646 81.9168 7.38906 81.1144 8.44163C79.3073 10.8125 78.2191 13.4819 77.1685 16.201C72.6168 16.0254 68.0543 15.8711 63.3999 15.8686C62.0498 15.8681 62.0498 17.9608 63.3999 17.9619C67.7472 17.9642 72.0936 18.0183 76.4399 18.0844C76.3569 18.2965 76.2731 18.5089 76.1881 18.7209C75.9179 19.396 75.663 20.0739 75.4184 20.7548C75.4105 20.7711 75.4023 20.7874 75.3949 20.8038C73.7697 25.6074 68.0059 31.9786 66.2956 31.4329C64.9757 31.0117 65.1672 29.0295 65.1672 29.0295L65.1804 29.0374C65.1808 29.0325 65.1808 29.0278 65.1811 29.0232C65.5031 28.308 65.9214 27.2852 65.9969 27.0729C66.0972 26.7915 66.2583 26.4496 66.0572 26.2284C65.9707 26.1331 65.7651 26.0568 65.5588 26.0005C65.9353 24.8986 65.6182 23.615 64.6294 22.9168C63.7668 22.308 62.5683 22.9621 61.865 23.4883C60.0233 24.866 58.4071 26.9575 57.2697 29.0963C55.6398 30.1698 52.722 31.9759 50.9257 30.4392C49.504 29.223 50.2349 26.8236 51.0059 25.4859C51.5849 24.4807 50.1478 23.2901 49.3628 24.218C47.4789 26.4407 45.7975 28.9568 43.6012 30.8745C42.7348 31.6303 41.2022 33.022 41.0782 32.5465C40.9363 32.0028 41.4103 31.2058 41.6792 30.7123C42.5311 29.1437 43.9383 26.927 43.4199 25.0419C42.7416 22.5767 38.961 25.1408 38.1251 26.0429C37.2086 27.0307 38.6846 28.5147 39.6047 27.5223C39.8913 27.213 40.696 26.3849 41.358 26.1982C41.1567 27.8512 39.9409 29.4675 39.2252 30.8763C38.6761 31.9557 37.973 34.0044 39.6828 34.4845C41.4822 34.9899 43.5513 33.034 44.785 31.9928C45.9537 31.007 47.049 29.9276 48.0987 28.8046C48.1817 29.842 48.1788 31.0443 48.9022 31.9268C50.7604 34.1937 53.9378 32.6168 56.3556 31.0814C56.0196 31.961 55.7218 33.098 56.4444 33.8401C57.2925 34.7098 58.5047 34.5541 59.529 34.1008C60.8975 33.4948 62.3468 32.4325 63.5044 31.1383C63.5044 31.1383 63.5094 32.4675 64.554 33.1946C66.9488 34.8618 71.5705 30.015 73.8429 26.2252C73.6405 27.178 73.4727 28.1413 73.3584 29.1194C73.0815 31.4841 73.2254 35.0578 76.4946 34.7342C79.0797 34.4789 81.4147 32.3805 83.1883 30.2895C83.9968 29.4841 84.7511 28.6444 85.4602 27.7772C85.049 29.452 84.9987 31.8556 85.7562 33.3251C86.9254 35.596 90.1681 34.1209 91.4631 32.9037C93.6076 30.8902 94.164 29.3658 95.2208 27.479C95.5853 26.8298 95.4068 25.7466 94.4974 26.527ZM63.5527 26.786C63.4795 27.0603 63.4155 27.3577 63.364 27.6676C62.876 29.1113 61.9903 30.4897 60.9749 31.4679C60.1905 32.2238 59.2684 32.7904 58.6782 32.8916C58.0612 32.9973 58.2607 31.9354 58.3681 31.643C58.96 30.0332 60.0739 28.5023 61.1366 27.1756C61.6775 26.5016 62.2708 25.8714 62.9216 25.3034C63.5657 24.7419 64.1527 24.5363 63.4418 25.5962C63.1345 26.0532 63.2548 26.4946 63.5527 26.786ZM87.1735 22.4329C85.841 24.8202 84.271 27.0971 82.2885 29.1967C80.3418 31.0582 77.9411 32.8294 76.1939 32.6714C74.455 32.5137 75.7251 27.2827 75.9404 26.3105C76.3583 24.4278 76.9996 22.6617 77.6578 20.8906C78.0855 19.9714 78.5035 19.0479 78.9187 18.1227C82.1488 18.1745 85.3792 18.2274 88.6092 18.2695C88.315 19.0763 88.0314 19.8869 87.7545 20.6985C87.558 21.275 87.3669 21.8544 87.1735 22.4329Z" fill="white"/>
<path d="M126.658 9.08749H125.605V8.672H128.154V9.08749H127.101V11.9414H126.658V9.08749Z" fill="white"/>
<path d="M128.592 8.67236H129.252L130.291 11.1475H130.31L131.339 8.67236H132V11.9417H131.557V9.25397H131.547L130.443 11.9417H130.148L129.044 9.25397H129.035V11.9417H128.592V8.67236H128.592Z" fill="white"/>
</svg>
