<svg width="60" height="60" viewBox="0 0 60 60" fill="none" xmlns="http://www.w3.org/2000/svg">
<path d="M38.7169 40.0294C38.8369 40.0369 38.9662 40.0519 39.0956 40.0519C40.9275 40.0538 42.7612 40.0425 44.5931 40.0613C44.9944 40.065 45.1144 39.9281 45.0937 39.5438C45.0675 39.0431 45.0881 38.5406 45.0881 37.9219L51.24 42.4481L45.0881 46.9781V45.4313C45.0881 44.8088 45.0881 44.8069 44.4825 44.8069H9.34124C8.77499 44.8069 8.77499 44.8069 8.77499 44.2369C8.77499 43.0013 8.79186 41.7656 8.76561 40.5319C8.75624 40.1306 8.88561 40.0406 9.26999 40.0425C15.5681 40.0538 21.8662 40.0631 28.1644 40.0463C31.3931 40.0369 33.9412 38.7 35.6269 35.9175C38.6681 30.8925 35.4975 24.3113 29.67 23.4638C25.17 22.8094 20.9869 25.83 20.2237 30.4069C20.1431 30.8831 20.1375 31.3725 20.0906 31.9463L22.2506 31.6538L18.7669 38.3888L13.5319 32.9944C13.9612 32.9231 14.5312 32.8406 15.0956 32.7225C15.2025 32.7 15.36 32.5275 15.3562 32.4281C15.3178 31.235 15.4134 30.0412 15.6412 28.8694C15.6487 28.8338 15.6319 28.7925 15.6206 28.7231C14.4842 28.5378 13.4028 28.1037 12.4537 27.4519C10.1025 25.8244 8.87249 22.7963 9.44999 20.0363C10.0781 17.0288 12.3469 14.7806 15.2794 14.2256C17.1806 13.8675 18.9431 14.2088 20.58 15.2138C20.8687 15.3919 21.045 15.4181 21.2344 15.1088C21.345 14.9269 21.5119 14.7806 21.7031 14.5594L22.3856 17.3156C22.4606 17.6175 22.5187 17.925 22.6069 18.2231C22.7025 18.5456 22.605 18.69 22.2637 18.6675C21.2775 18.6 20.2894 18.54 19.3031 18.4744C19.0594 18.4575 18.8175 18.4313 18.5044 18.4013L19.2112 17.5163C18.7026 17.1395 18.1076 16.8965 17.4806 16.8094C16.7936 16.6916 16.089 16.7279 15.4177 16.9157C14.7464 17.1035 14.1252 17.438 13.599 17.8951C13.0728 18.3523 12.6547 18.9206 12.3749 19.5591C12.0951 20.1975 11.9607 20.8901 11.9812 21.5869C12.0262 23.8819 13.9612 25.9331 16.2469 26.1281C16.5431 26.1525 16.6462 26.0025 16.7606 25.7813C18.3806 22.6725 20.82 20.475 24.1387 19.3313C31.8169 16.6838 39.8325 21.4275 41.3119 29.1919C42.0412 33.015 41.2106 36.5063 38.8912 39.6356C38.828 39.723 38.7686 39.8131 38.7131 39.9056C38.7019 39.9225 38.7169 39.9563 38.7262 40.0275L38.7169 40.0294Z" fill="white"/>
</svg>
