<svg xmlns="http://www.w3.org/2000/svg" width="27" height="27" viewBox="0 0 27 27">
    <g fill="none" fill-rule="evenodd">
        <g>
            <g>
                <g>
                    <g>
                        <path d="M0 0H25.667V25.667H0z" transform="translate(-1486 -48) translate(105 48.333) translate(987) translate(394.333)"/>
                        <path fill="#FFF" d="M12.833.856C6.221.856.856 6.22.856 12.833c0 6.613 5.365 11.978 11.977 11.978 6.6 0 11.978-5.365 11.978-11.978 0-6.612-5.378-11.977-11.978-11.977zm7.912 5.52c1.429 1.741 2.286 3.963 2.312 6.366-.337-.065-3.715-.753-7.119-.324-.078-.17-.143-.351-.22-.533-.209-.494-.442-1-.676-1.481 3.767-1.533 5.482-3.741 5.703-4.027zm-7.912-3.754c2.599 0 4.976.975 6.782 2.573-.182.26-1.728 2.325-5.366 3.689-1.676-3.079-3.533-5.6-3.82-5.989.767-.182 1.573-.273 2.404-.273zm-4.352.962c.273.363 2.092 2.897 3.794 5.91-4.781 1.274-9.003 1.248-9.458 1.248.663-3.17 2.806-5.807 5.664-7.158zm-5.885 9.262v-.311c.442.013 5.405.077 10.51-1.455.299.571.572 1.156.832 1.74-.13.04-.273.078-.403.117C8.26 14.64 5.455 19.29 5.22 19.68c-1.623-1.806-2.624-4.21-2.624-6.834zM12.833 23.07c-2.364 0-4.546-.805-6.274-2.156.181-.377 2.26-4.378 8.028-6.392.026-.013.04-.013.065-.026 1.442 3.729 2.027 6.86 2.183 7.756-1.235.532-2.586.818-4.002.818zm5.703-1.754c-.104-.623-.65-3.611-1.987-7.288 3.209-.506 6.015.325 6.365.442-.441 2.845-2.078 5.3-4.378 6.846z" transform="translate(-1486 -48) translate(105 48.333) translate(987) translate(394.333)"/>
                    </g>
                </g>
            </g>
        </g>
    </g>
</svg>
