<svg width="412" height="390" viewBox="0 0 412 390" fill="none" xmlns="http://www.w3.org/2000/svg">
<g clip-path="url(#clip0_530_192)">
<path d="M362.5 41H19.5C12.5964 41 7 46.5964 7 53.5V377.5C7 384.404 12.5964 390 19.5 390H362.5C369.404 390 375 384.404 375 377.5V53.5C375 46.5964 369.404 41 362.5 41Z" stroke="url(#paint0_linear_530_192)"/>
<path d="M226.637 49.2846L297.001 8.66016L367.364 49.2846V130.534L297.001 171.158L226.637 130.534V49.2846Z" fill="black" stroke="#FC3D45" stroke-width="15"/>
<path d="M232.449 52.0046L296.999 13.707L361.549 52.0046V128.648L296.999 166.945L232.449 128.648V52.0046Z" fill="black" stroke="white" stroke-width="2"/>
<path d="M396.167 71.9258H375.199V129.635H411.999L401.302 111.634L411.999 91.5152H396.167V71.9258Z" fill="#FC3D45"/>
<path d="M197.833 71.9258H218.8V129.635H182L192.698 111.634L182 91.5152H197.833V71.9258Z" fill="#FC3D45"/>
<path d="M389.754 76.6094H202.572V120.773H389.754V76.6094Z" fill="#FC3D45" stroke="black"/>
<path d="M230.858 106.595C229.736 106.595 228.683 106.397 227.699 106.001C226.715 105.605 225.848 105.056 225.098 104.354C224.348 103.646 223.763 102.827 223.343 101.897C222.923 100.967 222.713 99.9685 222.713 98.9005C222.713 97.8265 222.923 96.8245 223.343 95.8945C223.769 94.9585 224.354 94.1395 225.098 93.4375C225.848 92.7295 226.712 92.1775 227.69 91.7815C228.674 91.3855 229.724 91.1875 230.84 91.1875C231.752 91.1875 232.619 91.3165 233.441 91.5745C234.269 91.8325 234.977 92.1715 235.565 92.5915L234.305 95.0665C233.903 94.7485 233.414 94.4995 232.838 94.3195C232.262 94.1395 231.659 94.0495 231.029 94.0495C230.291 94.0495 229.607 94.1725 228.977 94.4185C228.353 94.6645 227.807 95.0065 227.339 95.4445C226.877 95.8825 226.517 96.3955 226.259 96.9835C226.001 97.5715 225.872 98.2075 225.872 98.8915C225.872 99.5755 226.001 100.211 226.259 100.799C226.517 101.387 226.877 101.9 227.339 102.338C227.807 102.776 228.353 103.118 228.977 103.364C229.607 103.61 230.291 103.733 231.029 103.733C231.659 103.733 232.262 103.643 232.838 103.463C233.414 103.283 233.903 103.034 234.305 102.716L235.565 105.191C235.001 105.599 234.308 105.935 233.486 106.199C232.664 106.463 231.788 106.595 230.858 106.595ZM251.974 106.595C250.114 106.595 248.707 106.13 247.753 105.2C246.799 104.264 246.322 102.878 246.322 101.042V91.4575H249.238V100.205C249.238 101.459 249.451 102.362 249.877 102.914C250.309 103.46 251.008 103.733 251.974 103.733C252.94 103.733 253.636 103.46 254.062 102.914C254.494 102.362 254.71 101.459 254.71 100.205V91.4575H257.626V101.042C257.626 102.878 257.149 104.264 256.195 105.2C255.247 106.13 253.84 106.595 251.974 106.595ZM270.068 106.307V91.4575H272.984V103.751H278.348V106.307H270.068ZM290.516 106.307V94.0315H286.754V91.4575H297.194V94.0315H293.423V106.307H290.516ZM313.595 106.595C311.735 106.595 310.328 106.13 309.374 105.2C308.42 104.264 307.943 102.878 307.943 101.042V91.4575H310.859V100.205C310.859 101.459 311.072 102.362 311.498 102.914C311.93 103.46 312.629 103.733 313.595 103.733C314.561 103.733 315.257 103.46 315.683 102.914C316.115 102.362 316.331 101.459 316.331 100.205V91.4575H319.247V101.042C319.247 102.878 318.77 104.264 317.816 105.2C316.868 106.13 315.461 106.595 313.595 106.595ZM331.689 106.307V91.4575H336.747C337.761 91.4575 338.64 91.6375 339.384 91.9975C340.134 92.3515 340.713 92.8645 341.121 93.5365C341.535 94.2025 341.742 95.0065 341.742 95.9485C341.742 96.6925 341.61 97.3645 341.346 97.9645C341.082 98.5585 340.704 99.0595 340.212 99.4675C339.72 99.8755 339.123 100.178 338.421 100.376L343.281 106.307H339.582L335.298 100.709H334.605V106.307H331.689ZM334.605 98.2795H335.847C336.453 98.2795 336.966 98.1925 337.386 98.0185C337.806 97.8445 338.127 97.5895 338.349 97.2535C338.577 96.9115 338.691 96.5035 338.691 96.0295C338.691 95.3095 338.442 94.7575 337.944 94.3735C337.452 93.9835 336.753 93.7885 335.847 93.7885H334.605V98.2795ZM353.917 106.307V91.4575H362.179V94.0135H356.833V97.5865H361.963V100.142H356.833V103.751H362.179V106.307H353.917Z" fill="black"/>
<path d="M262.637 68.9987V54.9737H266.658C268.006 54.9737 269.063 55.2684 269.828 55.8577C270.593 56.447 270.976 57.3282 270.976 58.5012C270.976 59.9575 270.375 60.9861 269.174 61.5868C270.154 61.7398 270.905 62.1165 271.426 62.7172C271.953 63.3122 272.217 64.0942 272.217 65.0632C272.217 65.8792 272.032 66.5819 271.664 67.1712C271.296 67.7605 270.772 68.214 270.092 68.5312C269.412 68.8429 268.607 68.9987 267.678 68.9987H262.637ZM265.383 60.6517H266.02C266.762 60.6517 267.332 60.4987 267.729 60.1927C268.125 59.881 268.324 59.4362 268.324 58.8582C268.324 58.2745 268.131 57.8382 267.746 57.5492C267.36 57.2545 266.785 57.1073 266.02 57.1073H265.383V60.6517ZM265.383 66.8568H266.743C267.604 66.8568 268.25 66.6981 268.681 66.3808C269.117 66.0635 269.335 65.5959 269.335 64.9782C269.335 64.3492 269.111 63.8675 268.664 63.5332C268.222 63.1932 267.581 63.0233 266.743 63.0233H265.383V66.8568ZM282.784 68.9987V54.9737H290.587V57.3877H285.538V60.7622H290.383V63.1763H285.538V66.5847H290.587V68.9987H282.784ZM305.772 69.2708C305.12 69.2708 304.519 69.1971 303.97 69.0498C303.42 68.9081 302.927 68.7296 302.491 68.5143C302.06 68.2933 301.689 68.0666 301.377 67.8343C301.066 67.602 300.819 67.398 300.638 67.2223L302.049 64.9443C302.236 65.1086 302.46 65.2927 302.72 65.4967C302.981 65.7007 303.273 65.8963 303.596 66.0833C303.919 66.2646 304.267 66.4176 304.641 66.5423C305.021 66.6613 305.423 66.7207 305.848 66.7207C306.245 66.7207 306.593 66.6585 306.894 66.5338C307.2 66.4091 307.441 66.2249 307.616 65.9812C307.792 65.7319 307.88 65.423 307.88 65.0547C307.88 64.7204 307.809 64.4371 307.667 64.2048C307.526 63.9668 307.316 63.7542 307.038 63.5672C306.766 63.3745 306.429 63.1875 306.027 63.0062C305.63 62.8192 305.177 62.6152 304.667 62.3942C304.287 62.2242 303.924 62.0315 303.579 61.8162C303.239 61.5952 302.936 61.3403 302.669 61.0513C302.403 60.7623 302.19 60.4364 302.032 60.0737C301.879 59.7054 301.802 59.2945 301.802 58.8412C301.802 58.3029 301.91 57.7873 302.125 57.2943C302.341 56.8013 302.647 56.362 303.043 55.9767C303.446 55.5914 303.922 55.2855 304.471 55.0588C305.027 54.8321 305.644 54.7188 306.324 54.7188C306.834 54.7188 307.344 54.7867 307.854 54.9227C308.364 55.0587 308.84 55.2372 309.282 55.4582C309.724 55.6792 310.098 55.92 310.404 56.1807L309.257 58.3397C309.013 58.13 308.735 57.943 308.424 57.7787C308.118 57.6087 307.789 57.4728 307.438 57.3708C307.092 57.2688 306.741 57.2178 306.384 57.2178C305.981 57.2178 305.639 57.2885 305.355 57.4302C305.078 57.5719 304.862 57.7617 304.709 57.9997C304.562 58.232 304.488 58.4927 304.488 58.7817C304.488 59.0197 304.536 59.2237 304.633 59.3937C304.735 59.558 304.876 59.7025 305.058 59.8272C305.239 59.9462 305.457 60.0624 305.712 60.1757C305.967 60.2834 306.248 60.3996 306.554 60.5243C307.211 60.802 307.806 61.0767 308.339 61.3487C308.871 61.6207 309.328 61.9239 309.707 62.2582C310.087 62.5869 310.376 62.9722 310.574 63.4142C310.778 63.8562 310.88 64.3832 310.88 64.9952C310.88 65.8905 310.665 66.6585 310.234 67.2988C309.809 67.9391 309.214 68.4292 308.449 68.7692C307.684 69.1035 306.792 69.2708 305.772 69.2708ZM323.023 68.9987V57.4047H319.47V54.9737H329.33V57.4047H325.769V68.9987H323.023Z" fill="white"/>
<path d="M297.418 127.965L299.672 134.9H306.963L301.064 139.186L303.317 146.121L297.418 141.835L291.519 146.121L293.772 139.186L287.873 134.9H295.165L297.418 127.965Z" fill="white"/>
<path d="M30.9022 188.217C29.9302 188.217 29.0242 188.043 28.1842 187.695C27.3562 187.347 26.6242 186.861 25.9882 186.237C25.3642 185.613 24.8722 184.881 24.5122 184.041C24.1642 183.201 23.9902 182.283 23.9902 181.287C23.9902 180.291 24.1642 179.373 24.5122 178.533C24.8722 177.681 25.3642 176.949 25.9882 176.337C26.6122 175.713 27.3442 175.233 28.1842 174.897C29.0242 174.549 29.9302 174.375 30.9022 174.375C31.8862 174.375 32.7922 174.549 33.6202 174.897C34.4602 175.233 35.1922 175.713 35.8162 176.337C36.4522 176.961 36.9442 177.693 37.2922 178.533C37.6402 179.373 37.8142 180.291 37.8142 181.287C37.8142 182.283 37.6342 183.201 37.2742 184.041C36.9262 184.881 36.4402 185.613 35.8162 186.237C35.1922 186.861 34.4602 187.347 33.6202 187.695C32.7802 188.043 31.8742 188.217 30.9022 188.217ZM30.9022 186.273C31.5982 186.273 32.2342 186.147 32.8102 185.895C33.3982 185.643 33.9082 185.295 34.3402 184.851C34.7722 184.395 35.1082 183.867 35.3482 183.267C35.5882 182.655 35.7082 181.995 35.7082 181.287C35.7082 180.579 35.5882 179.925 35.3482 179.325C35.1082 178.725 34.7722 178.197 34.3402 177.741C33.9082 177.285 33.3982 176.931 32.8102 176.679C32.2342 176.427 31.5982 176.301 30.9022 176.301C30.2062 176.301 29.5642 176.427 28.9762 176.679C28.4002 176.931 27.8962 177.285 27.4642 177.741C27.0322 178.197 26.6962 178.725 26.4562 179.325C26.2282 179.925 26.1142 180.579 26.1142 181.287C26.1142 181.995 26.2282 182.655 26.4562 183.267C26.6962 183.867 27.0322 184.395 27.4642 184.851C27.8962 185.295 28.4062 185.643 28.9942 185.895C29.5822 186.147 30.2182 186.273 30.9022 186.273ZM43.4649 188.217C42.7329 188.217 42.0909 188.055 41.5389 187.731C40.9869 187.395 40.5549 186.933 40.2429 186.345C39.9429 185.745 39.7929 185.055 39.7929 184.275V178.263H41.8269V184.095C41.8269 184.539 41.9169 184.929 42.0969 185.265C42.2769 185.601 42.5289 185.865 42.8529 186.057C43.1769 186.237 43.5489 186.327 43.9689 186.327C44.4009 186.327 44.7789 186.231 45.1029 186.039C45.4269 185.847 45.6789 185.577 45.8589 185.229C46.0509 184.881 46.1469 184.473 46.1469 184.005V178.263H48.1629V188.001H46.2369V186.093L46.4529 186.345C46.2249 186.945 45.8469 187.407 45.3189 187.731C44.7909 188.055 44.1729 188.217 43.4649 188.217ZM50.5378 188.001V178.263H52.4818V180.225L52.3018 179.937C52.5178 179.301 52.8658 178.845 53.3458 178.569C53.8258 178.281 54.4018 178.137 55.0738 178.137H55.6678V179.991H54.8218C54.1498 179.991 53.6038 180.201 53.1838 180.621C52.7758 181.029 52.5718 181.617 52.5718 182.385V188.001H50.5378ZM64.9038 188.217C63.9678 188.217 63.1098 187.995 62.3298 187.551C61.5618 187.107 60.9498 186.501 60.4938 185.733C60.0378 184.965 59.8098 184.095 59.8098 183.123C59.8098 182.139 60.0378 181.269 60.4938 180.513C60.9498 179.745 61.5618 179.145 62.3298 178.713C63.0978 178.269 63.9558 178.047 64.9038 178.047C65.8638 178.047 66.7218 178.269 67.4778 178.713C68.2458 179.145 68.8518 179.745 69.2958 180.513C69.7518 181.269 69.9798 182.139 69.9798 183.123C69.9798 184.107 69.7518 184.983 69.2958 185.751C68.8398 186.519 68.2278 187.125 67.4598 187.569C66.6918 188.001 65.8398 188.217 64.9038 188.217ZM64.9038 186.327C65.4798 186.327 65.9898 186.189 66.4338 185.913C66.8778 185.637 67.2258 185.259 67.4778 184.779C67.7418 184.287 67.8738 183.735 67.8738 183.123C67.8738 182.511 67.7418 181.965 67.4778 181.485C67.2258 181.005 66.8778 180.627 66.4338 180.351C65.9898 180.075 65.4798 179.937 64.9038 179.937C64.3398 179.937 63.8298 180.075 63.3738 180.351C62.9298 180.627 62.5758 181.005 62.3118 181.485C62.0598 181.965 61.9338 182.511 61.9338 183.123C61.9338 183.735 62.0598 184.287 62.3118 184.779C62.5758 185.259 62.9298 185.637 63.3738 185.913C63.8298 186.189 64.3398 186.327 64.9038 186.327ZM72.7999 188.001V180.099H70.9999V178.263H72.7999V177.759C72.7999 177.027 72.9499 176.415 73.2499 175.923C73.5499 175.419 73.9639 175.035 74.4919 174.771C75.0319 174.507 75.6499 174.375 76.3459 174.375C76.4779 174.375 76.6279 174.387 76.7959 174.411C76.9639 174.423 77.1019 174.441 77.2099 174.465V176.229C77.1139 176.205 77.0059 176.193 76.8859 176.193C76.7659 176.181 76.6699 176.175 76.5979 176.175C76.0579 176.175 75.6259 176.301 75.3019 176.553C74.9779 176.793 74.8159 177.195 74.8159 177.759V178.263H79.4779V180.099H74.8159V188.001H72.7999ZM85.5619 188.001V178.263H87.5959V188.001H85.5619ZM79.8379 188.001V180.099H78.0559V178.263H79.8379V177.759C79.8379 177.027 79.9879 176.415 80.2879 175.923C80.5999 175.419 81.0199 175.035 81.5479 174.771C82.0879 174.507 82.6999 174.375 83.3839 174.375C83.5279 174.375 83.6839 174.387 83.8519 174.411C84.0199 174.423 84.1579 174.441 84.2659 174.465V176.229C84.1579 176.205 84.0439 176.193 83.9239 176.193C83.8159 176.181 83.7199 176.175 83.6359 176.175C83.0959 176.175 82.6639 176.301 82.3399 176.553C82.0279 176.793 81.8719 177.195 81.8719 177.759V178.263H86.5339V180.099H81.8719V188.001H79.8379ZM94.363 188.217C93.391 188.217 92.527 187.995 91.771 187.551C91.027 187.095 90.433 186.483 89.989 185.715C89.557 184.947 89.341 184.077 89.341 183.105C89.341 182.145 89.557 181.281 89.989 180.513C90.421 179.745 91.015 179.145 91.771 178.713C92.527 178.269 93.391 178.047 94.363 178.047C95.023 178.047 95.641 178.167 96.217 178.407C96.793 178.635 97.291 178.953 97.711 179.361C98.143 179.769 98.461 180.243 98.665 180.783L96.883 181.611C96.679 181.107 96.349 180.705 95.893 180.405C95.449 180.093 94.939 179.937 94.363 179.937C93.811 179.937 93.313 180.075 92.869 180.351C92.437 180.615 92.095 180.993 91.843 181.485C91.591 181.965 91.465 182.511 91.465 183.123C91.465 183.735 91.591 184.287 91.843 184.779C92.095 185.259 92.437 185.637 92.869 185.913C93.313 186.189 93.811 186.327 94.363 186.327C94.951 186.327 95.461 186.177 95.893 185.877C96.337 185.565 96.667 185.151 96.883 184.635L98.665 185.481C98.473 185.997 98.161 186.465 97.729 186.885C97.309 187.293 96.811 187.617 96.235 187.857C95.659 188.097 95.035 188.217 94.363 188.217ZM105.225 188.217C104.253 188.217 103.389 187.995 102.633 187.551C101.889 187.095 101.307 186.483 100.887 185.715C100.467 184.935 100.257 184.065 100.257 183.105C100.257 182.121 100.467 181.251 100.887 180.495C101.319 179.739 101.895 179.145 102.615 178.713C103.335 178.269 104.151 178.047 105.063 178.047C105.795 178.047 106.449 178.173 107.025 178.425C107.601 178.677 108.087 179.025 108.483 179.469C108.879 179.901 109.179 180.399 109.383 180.963C109.599 181.527 109.707 182.127 109.707 182.763C109.707 182.919 109.701 183.081 109.689 183.249C109.677 183.417 109.653 183.573 109.617 183.717H101.859V182.097H108.465L107.493 182.835C107.613 182.247 107.571 181.725 107.367 181.269C107.175 180.801 106.875 180.435 106.467 180.171C106.071 179.895 105.603 179.757 105.063 179.757C104.523 179.757 104.043 179.895 103.623 180.171C103.203 180.435 102.879 180.819 102.651 181.323C102.423 181.815 102.333 182.415 102.381 183.123C102.321 183.783 102.411 184.359 102.651 184.851C102.903 185.343 103.251 185.727 103.695 186.003C104.151 186.279 104.667 186.417 105.243 186.417C105.831 186.417 106.329 186.285 106.737 186.021C107.157 185.757 107.487 185.415 107.727 184.995L109.383 185.805C109.191 186.261 108.891 186.675 108.483 187.047C108.087 187.407 107.607 187.695 107.043 187.911C106.491 188.115 105.885 188.217 105.225 188.217ZM117.754 188.217C117.094 188.217 116.512 188.103 116.008 187.875C115.516 187.635 115.132 187.311 114.856 186.903C114.58 186.483 114.442 185.991 114.442 185.427C114.442 184.899 114.556 184.425 114.784 184.005C115.024 183.585 115.39 183.231 115.882 182.943C116.374 182.655 116.992 182.451 117.736 182.331L121.12 181.773V183.375L118.132 183.897C117.592 183.993 117.196 184.167 116.944 184.419C116.692 184.659 116.566 184.971 116.566 185.355C116.566 185.727 116.704 186.033 116.98 186.273C117.268 186.501 117.634 186.615 118.078 186.615C118.63 186.615 119.11 186.495 119.518 186.255C119.938 186.015 120.262 185.697 120.49 185.301C120.718 184.893 120.832 184.443 120.832 183.951V181.449C120.832 180.969 120.652 180.579 120.292 180.279C119.944 179.967 119.476 179.811 118.888 179.811C118.348 179.811 117.874 179.955 117.466 180.243C117.07 180.519 116.776 180.879 116.584 181.323L114.892 180.477C115.072 179.997 115.366 179.577 115.774 179.217C116.182 178.845 116.656 178.557 117.196 178.353C117.748 178.149 118.33 178.047 118.942 178.047C119.71 178.047 120.388 178.191 120.976 178.479C121.576 178.767 122.038 179.169 122.362 179.685C122.698 180.189 122.866 180.777 122.866 181.449V188.001H120.922V186.237L121.336 186.291C121.108 186.687 120.814 187.029 120.454 187.317C120.106 187.605 119.704 187.827 119.248 187.983C118.804 188.139 118.306 188.217 117.754 188.217ZM125.245 188.001V178.263H127.189V180.171L126.955 179.919C127.195 179.307 127.579 178.845 128.107 178.533C128.635 178.209 129.247 178.047 129.943 178.047C130.663 178.047 131.299 178.203 131.851 178.515C132.403 178.827 132.835 179.259 133.147 179.811C133.459 180.363 133.615 180.999 133.615 181.719V188.001H131.599V182.259C131.599 181.767 131.509 181.353 131.329 181.017C131.149 180.669 130.891 180.405 130.555 180.225C130.231 180.033 129.859 179.937 129.439 179.937C129.019 179.937 128.641 180.033 128.305 180.225C127.981 180.405 127.729 180.669 127.549 181.017C127.369 181.365 127.279 181.779 127.279 182.259V188.001H125.245ZM140.292 188.217C139.356 188.217 138.516 187.995 137.772 187.551C137.04 187.095 136.458 186.483 136.026 185.715C135.606 184.947 135.396 184.083 135.396 183.123C135.396 182.163 135.612 181.299 136.044 180.531C136.476 179.763 137.058 179.157 137.79 178.713C138.522 178.269 139.35 178.047 140.274 178.047C141.054 178.047 141.744 178.203 142.344 178.515C142.944 178.827 143.418 179.259 143.766 179.811L143.46 180.279V174.375H145.476V188.001H143.55V186.021L143.784 186.399C143.448 186.987 142.968 187.437 142.344 187.749C141.72 188.061 141.036 188.217 140.292 188.217ZM140.49 186.327C141.054 186.327 141.558 186.189 142.002 185.913C142.458 185.637 142.812 185.259 143.064 184.779C143.328 184.287 143.46 183.735 143.46 183.123C143.46 182.511 143.328 181.965 143.064 181.485C142.812 181.005 142.458 180.627 142.002 180.351C141.558 180.075 141.054 179.937 140.49 179.937C139.926 179.937 139.416 180.075 138.96 180.351C138.504 180.627 138.15 181.005 137.898 181.485C137.646 181.965 137.52 182.511 137.52 183.123C137.52 183.735 137.646 184.287 137.898 184.779C138.15 185.259 138.498 185.637 138.942 185.913C139.398 186.189 139.914 186.327 140.49 186.327ZM155.623 188.217C154.651 188.217 153.787 187.995 153.031 187.551C152.287 187.095 151.693 186.483 151.249 185.715C150.817 184.947 150.601 184.077 150.601 183.105C150.601 182.145 150.817 181.281 151.249 180.513C151.681 179.745 152.275 179.145 153.031 178.713C153.787 178.269 154.651 178.047 155.623 178.047C156.283 178.047 156.901 178.167 157.477 178.407C158.053 178.635 158.551 178.953 158.971 179.361C159.403 179.769 159.721 180.243 159.925 180.783L158.143 181.611C157.939 181.107 157.609 180.705 157.153 180.405C156.709 180.093 156.199 179.937 155.623 179.937C155.071 179.937 154.573 180.075 154.129 180.351C153.697 180.615 153.355 180.993 153.103 181.485C152.851 181.965 152.725 182.511 152.725 183.123C152.725 183.735 152.851 184.287 153.103 184.779C153.355 185.259 153.697 185.637 154.129 185.913C154.573 186.189 155.071 186.327 155.623 186.327C156.211 186.327 156.721 186.177 157.153 185.877C157.597 185.565 157.927 185.151 158.143 184.635L159.925 185.481C159.733 185.997 159.421 186.465 158.989 186.885C158.569 187.293 158.071 187.617 157.495 187.857C156.919 188.097 156.295 188.217 155.623 188.217ZM165.387 188.217C164.655 188.217 164.013 188.055 163.461 187.731C162.909 187.395 162.477 186.933 162.165 186.345C161.865 185.745 161.715 185.055 161.715 184.275V178.263H163.749V184.095C163.749 184.539 163.839 184.929 164.019 185.265C164.199 185.601 164.451 185.865 164.775 186.057C165.099 186.237 165.471 186.327 165.891 186.327C166.323 186.327 166.701 186.231 167.025 186.039C167.349 185.847 167.601 185.577 167.781 185.229C167.973 184.881 168.069 184.473 168.069 184.005V178.263H170.085V188.001H168.159V186.093L168.375 186.345C168.147 186.945 167.769 187.407 167.241 187.731C166.713 188.055 166.095 188.217 165.387 188.217ZM172.459 188.001V174.375H174.493V188.001H172.459ZM181.084 188.109C180.064 188.109 179.272 187.821 178.708 187.245C178.144 186.669 177.862 185.859 177.862 184.815V180.099H176.152V178.263H176.422C176.878 178.263 177.232 178.131 177.484 177.867C177.736 177.603 177.862 177.243 177.862 176.787V176.031H179.896V178.263H182.11V180.099H179.896V184.725C179.896 185.061 179.95 185.349 180.058 185.589C180.166 185.817 180.34 185.997 180.58 186.129C180.82 186.249 181.132 186.309 181.516 186.309C181.612 186.309 181.72 186.303 181.84 186.291C181.96 186.279 182.074 186.267 182.182 186.255V188.001C182.014 188.025 181.828 188.049 181.624 188.073C181.42 188.097 181.24 188.109 181.084 188.109ZM187.641 188.217C186.909 188.217 186.267 188.055 185.715 187.731C185.163 187.395 184.731 186.933 184.419 186.345C184.119 185.745 183.969 185.055 183.969 184.275V178.263H186.003V184.095C186.003 184.539 186.093 184.929 186.273 185.265C186.453 185.601 186.705 185.865 187.029 186.057C187.353 186.237 187.725 186.327 188.145 186.327C188.577 186.327 188.955 186.231 189.279 186.039C189.603 185.847 189.855 185.577 190.035 185.229C190.227 184.881 190.323 184.473 190.323 184.005V178.263H192.339V188.001H190.413V186.093L190.629 186.345C190.401 186.945 190.023 187.407 189.495 187.731C188.967 188.055 188.349 188.217 187.641 188.217ZM194.713 188.001V178.263H196.657V180.225L196.477 179.937C196.693 179.301 197.041 178.845 197.521 178.569C198.001 178.281 198.577 178.137 199.249 178.137H199.843V179.991H198.997C198.325 179.991 197.779 180.201 197.359 180.621C196.951 181.029 196.747 181.617 196.747 182.385V188.001H194.713ZM205.807 188.217C204.835 188.217 203.971 187.995 203.215 187.551C202.471 187.095 201.889 186.483 201.469 185.715C201.049 184.935 200.839 184.065 200.839 183.105C200.839 182.121 201.049 181.251 201.469 180.495C201.901 179.739 202.477 179.145 203.197 178.713C203.917 178.269 204.733 178.047 205.645 178.047C206.377 178.047 207.031 178.173 207.607 178.425C208.183 178.677 208.669 179.025 209.065 179.469C209.461 179.901 209.761 180.399 209.965 180.963C210.181 181.527 210.289 182.127 210.289 182.763C210.289 182.919 210.283 183.081 210.271 183.249C210.259 183.417 210.235 183.573 210.199 183.717H202.441V182.097H209.047L208.075 182.835C208.195 182.247 208.153 181.725 207.949 181.269C207.757 180.801 207.457 180.435 207.049 180.171C206.653 179.895 206.185 179.757 205.645 179.757C205.105 179.757 204.625 179.895 204.205 180.171C203.785 180.435 203.461 180.819 203.233 181.323C203.005 181.815 202.915 182.415 202.963 183.123C202.903 183.783 202.993 184.359 203.233 184.851C203.485 185.343 203.833 185.727 204.277 186.003C204.733 186.279 205.249 186.417 205.825 186.417C206.413 186.417 206.911 186.285 207.319 186.021C207.739 185.757 208.069 185.415 208.309 184.995L209.965 185.805C209.773 186.261 209.473 186.675 209.065 187.047C208.669 187.407 208.189 187.695 207.625 187.911C207.073 188.115 206.467 188.217 205.807 188.217ZM214.614 184.005V183.699C214.614 183.171 214.698 182.703 214.866 182.295C215.046 181.887 215.268 181.521 215.532 181.197C215.808 180.861 216.09 180.555 216.378 180.279C216.786 179.895 217.146 179.523 217.458 179.163C217.782 178.803 217.944 178.383 217.944 177.903C217.944 177.603 217.872 177.333 217.728 177.093C217.584 176.841 217.368 176.643 217.08 176.499C216.804 176.343 216.462 176.265 216.054 176.265C215.49 176.265 215.004 176.439 214.596 176.787C214.2 177.123 213.948 177.579 213.84 178.155L211.95 177.705C212.058 177.045 212.298 176.469 212.67 175.977C213.054 175.473 213.534 175.083 214.11 174.807C214.698 174.519 215.358 174.375 216.09 174.375C216.918 174.375 217.626 174.543 218.214 174.879C218.814 175.203 219.27 175.629 219.582 176.157C219.894 176.685 220.05 177.255 220.05 177.867C220.05 178.359 219.948 178.803 219.744 179.199C219.552 179.583 219.3 179.937 218.988 180.261C218.688 180.585 218.376 180.903 218.052 181.215C217.668 181.587 217.326 181.977 217.026 182.385C216.738 182.781 216.594 183.249 216.594 183.789V184.005H214.614ZM214.614 188.001V185.661H216.684V188.001H214.614Z" fill="white"/>
<path d="M26.8594 242.002V202.282H31.3594V242.002H26.8594ZM43.3777 242.002V215.962H37.2577V212.002H43.3777V201.262H47.8777V212.002H54.7777V215.962H47.8777V242.002H43.3777ZM59.768 215.422L58.628 202.282H63.968L62.828 215.422H59.768ZM81.585 242.482C78.825 242.482 76.485 242.022 74.565 241.102C72.685 240.182 71.245 238.982 70.245 237.502C69.245 235.982 68.685 234.342 68.565 232.582H73.245C73.365 233.582 73.705 234.562 74.265 235.522C74.865 236.442 75.765 237.202 76.965 237.802C78.165 238.362 79.725 238.642 81.645 238.642C82.245 238.642 82.985 238.582 83.865 238.462C84.745 238.342 85.585 238.122 86.385 237.802C87.225 237.482 87.925 237.002 88.485 236.362C89.045 235.722 89.325 234.902 89.325 233.902C89.325 232.662 88.845 231.702 87.885 231.022C86.925 230.342 85.685 229.822 84.165 229.462C82.645 229.062 81.025 228.682 79.305 228.322C77.625 227.962 76.025 227.502 74.505 226.942C72.985 226.342 71.745 225.522 70.785 224.482C69.825 223.402 69.345 221.942 69.345 220.102C69.345 217.382 70.325 215.282 72.285 213.802C74.285 212.282 77.225 211.522 81.105 211.522C83.745 211.522 85.885 211.942 87.525 212.782C89.205 213.582 90.465 214.622 91.305 215.902C92.185 217.182 92.705 218.562 92.865 220.042H88.305C88.145 218.762 87.505 217.662 86.385 216.742C85.305 215.822 83.505 215.362 80.985 215.362C76.225 215.362 73.845 216.802 73.845 219.682C73.845 220.882 74.325 221.802 75.285 222.442C76.245 223.082 77.485 223.602 79.005 224.002C80.525 224.362 82.125 224.722 83.805 225.082C85.525 225.402 87.145 225.862 88.665 226.462C90.185 227.062 91.425 227.922 92.385 229.042C93.345 230.122 93.825 231.602 93.825 233.482C93.825 236.402 92.705 238.642 90.465 240.202C88.265 241.722 85.305 242.482 81.585 242.482ZM108.663 242.002L125.523 202.282H131.163L148.023 242.002H143.043L138.183 230.482H118.503L113.643 242.002H108.663ZM120.243 226.342H136.443L128.343 206.962L120.243 226.342ZM156.407 242.002L146.987 212.002H151.787L158.987 236.422L166.607 212.002H171.527L179.147 236.422L186.347 212.002H191.147L181.727 242.002H176.567L169.067 218.062L161.567 242.002H156.407ZM208.086 242.482C205.046 242.482 202.386 241.802 200.106 240.442C197.826 239.042 196.046 237.162 194.766 234.802C193.526 232.442 192.906 229.842 192.906 227.002C192.906 224.122 193.506 221.522 194.706 219.202C195.906 216.842 197.626 214.982 199.866 213.622C202.106 212.222 204.746 211.522 207.786 211.522C210.866 211.522 213.506 212.222 215.706 213.622C217.946 214.982 219.666 216.842 220.866 219.202C222.066 221.522 222.666 224.122 222.666 227.002V228.802H197.526C197.766 230.562 198.326 232.182 199.206 233.662C200.126 235.102 201.346 236.262 202.866 237.142C204.386 237.982 206.146 238.402 208.146 238.402C210.266 238.402 212.046 237.942 213.486 237.022C214.926 236.062 216.046 234.842 216.846 233.362H221.766C220.726 236.042 219.066 238.242 216.786 239.962C214.546 241.642 211.646 242.482 208.086 242.482ZM197.586 224.602H217.986C217.586 222.042 216.506 219.902 214.746 218.182C212.986 216.462 210.666 215.602 207.786 215.602C204.906 215.602 202.586 216.462 200.826 218.182C199.106 219.902 198.026 222.042 197.586 224.602ZM239.085 242.482C236.325 242.482 233.985 242.022 232.065 241.102C230.185 240.182 228.745 238.982 227.745 237.502C226.745 235.982 226.185 234.342 226.065 232.582H230.745C230.865 233.582 231.205 234.562 231.765 235.522C232.365 236.442 233.265 237.202 234.465 237.802C235.665 238.362 237.225 238.642 239.145 238.642C239.745 238.642 240.485 238.582 241.365 238.462C242.245 238.342 243.085 238.122 243.885 237.802C244.725 237.482 245.425 237.002 245.985 236.362C246.545 235.722 246.825 234.902 246.825 233.902C246.825 232.662 246.345 231.702 245.385 231.022C244.425 230.342 243.185 229.822 241.665 229.462C240.145 229.062 238.525 228.682 236.805 228.322C235.125 227.962 233.525 227.502 232.005 226.942C230.485 226.342 229.245 225.522 228.285 224.482C227.325 223.402 226.845 221.942 226.845 220.102C226.845 217.382 227.825 215.282 229.785 213.802C231.785 212.282 234.725 211.522 238.605 211.522C241.245 211.522 243.385 211.942 245.025 212.782C246.705 213.582 247.965 214.622 248.805 215.902C249.685 217.182 250.205 218.562 250.365 220.042H245.805C245.645 218.762 245.005 217.662 243.885 216.742C242.805 215.822 241.005 215.362 238.485 215.362C233.725 215.362 231.345 216.802 231.345 219.682C231.345 220.882 231.825 221.802 232.785 222.442C233.745 223.082 234.985 223.602 236.505 224.002C238.025 224.362 239.625 224.722 241.305 225.082C243.025 225.402 244.645 225.862 246.165 226.462C247.685 227.062 248.925 227.922 249.885 229.042C250.845 230.122 251.325 231.602 251.325 233.482C251.325 236.402 250.205 238.642 247.965 240.202C245.765 241.722 242.805 242.482 239.085 242.482ZM270.13 242.482C267.09 242.482 264.45 241.802 262.21 240.442C259.97 239.042 258.25 237.162 257.05 234.802C255.85 232.442 255.25 229.842 255.25 227.002C255.25 224.122 255.85 221.522 257.05 219.202C258.25 216.842 259.97 214.982 262.21 213.622C264.45 212.222 267.09 211.522 270.13 211.522C273.21 211.522 275.85 212.222 278.05 213.622C280.29 214.982 282.01 216.842 283.21 219.202C284.41 221.522 285.01 224.122 285.01 227.002C285.01 229.842 284.41 232.442 283.21 234.802C282.01 237.162 280.29 239.042 278.05 240.442C275.85 241.802 273.21 242.482 270.13 242.482ZM270.13 238.402C272.37 238.402 274.25 237.882 275.77 236.842C277.33 235.802 278.51 234.422 279.31 232.702C280.11 230.942 280.51 229.042 280.51 227.002C280.51 224.922 280.11 223.022 279.31 221.302C278.51 219.582 277.33 218.202 275.77 217.162C274.25 216.122 272.37 215.602 270.13 215.602C267.93 215.602 266.05 216.122 264.49 217.162C262.93 218.202 261.75 219.582 260.95 221.302C260.15 223.022 259.75 224.922 259.75 227.002C259.75 229.042 260.15 230.942 260.95 232.702C261.75 234.422 262.93 235.802 264.49 236.842C266.05 237.882 267.93 238.402 270.13 238.402ZM290.977 242.002V212.002H295.477V216.562C296.157 215.362 297.237 214.222 298.717 213.142C300.197 212.062 302.157 211.522 304.597 211.522C306.597 211.522 308.437 212.062 310.117 213.142C311.837 214.182 313.177 215.662 314.137 217.582C314.537 216.902 315.157 216.082 315.997 215.122C316.877 214.162 318.017 213.322 319.417 212.602C320.817 211.882 322.497 211.522 324.457 211.522C326.377 211.522 328.177 212.022 329.857 213.022C331.537 214.022 332.897 215.462 333.937 217.342C335.017 219.182 335.557 221.362 335.557 223.882V242.002H331.057V224.002C331.057 221.482 330.337 219.462 328.897 217.942C327.497 216.382 325.737 215.602 323.617 215.602C321.417 215.602 319.517 216.342 317.917 217.822C316.317 219.302 315.517 221.382 315.517 224.062V242.002H311.017V224.002C311.017 221.482 310.297 219.462 308.857 217.942C307.457 216.382 305.697 215.602 303.577 215.602C301.377 215.602 299.477 216.342 297.877 217.822C296.277 219.302 295.477 221.382 295.477 224.062V242.002H290.977ZM356.387 242.482C353.347 242.482 350.687 241.802 348.407 240.442C346.127 239.042 344.347 237.162 343.067 234.802C341.827 232.442 341.207 229.842 341.207 227.002C341.207 224.122 341.807 221.522 343.007 219.202C344.207 216.842 345.927 214.982 348.167 213.622C350.407 212.222 353.047 211.522 356.087 211.522C359.167 211.522 361.807 212.222 364.007 213.622C366.247 214.982 367.967 216.842 369.167 219.202C370.367 221.522 370.967 224.122 370.967 227.002V228.802H345.827C346.067 230.562 346.627 232.182 347.507 233.662C348.427 235.102 349.647 236.262 351.167 237.142C352.687 237.982 354.447 238.402 356.447 238.402C358.567 238.402 360.347 237.942 361.787 237.022C363.227 236.062 364.347 234.842 365.147 233.362H370.067C369.027 236.042 367.367 238.242 365.087 239.962C362.847 241.642 359.947 242.482 356.387 242.482ZM345.887 224.602H366.287C365.887 222.042 364.807 219.902 363.047 218.182C361.287 216.462 358.967 215.602 356.087 215.602C353.207 215.602 350.887 216.462 349.127 218.182C347.407 219.902 346.327 222.042 345.887 224.602Z" fill="white"/>
<path d="M44.9253 284.306C46.8082 279.876 51.1558 277 55.9691 277H363C369.627 277 375 282.373 375 289V378C375 384.627 369.627 390 363 390H18.1398C9.54012 390 3.73199 381.22 7.09597 373.306L44.9253 284.306Z" fill="#FC3D45"/>
<path d="M67.0963 342.277C65.885 342.277 64.7503 342.062 63.6923 341.633C62.6343 341.188 61.7066 340.567 60.9093 339.77C60.1273 338.973 59.514 338.037 59.0693 336.964C58.6246 335.875 58.4023 334.695 58.4023 333.422C58.4023 332.134 58.6246 330.953 59.0693 329.88C59.514 328.807 60.1273 327.871 60.9093 327.074C61.7066 326.277 62.6266 325.663 63.6693 325.234C64.7273 324.805 65.8696 324.59 67.0963 324.59C68.323 324.59 69.4576 324.812 70.5003 325.257C71.5583 325.686 72.4783 326.3 73.2603 327.097C74.0576 327.879 74.6786 328.807 75.1233 329.88C75.5833 330.953 75.8133 332.134 75.8133 333.422C75.8133 334.695 75.5833 335.875 75.1233 336.964C74.6786 338.037 74.0576 338.973 73.2603 339.77C72.4783 340.567 71.5583 341.188 70.5003 341.633C69.4576 342.062 68.323 342.277 67.0963 342.277ZM67.0963 340.184C68.047 340.184 68.9133 340.015 69.6953 339.678C70.4773 339.325 71.152 338.842 71.7193 338.229C72.302 337.6 72.7466 336.88 73.0533 336.067C73.3753 335.239 73.5363 334.357 73.5363 333.422C73.5363 332.487 73.3753 331.613 73.0533 330.8C72.7466 329.987 72.302 329.274 71.7193 328.661C71.152 328.032 70.4773 327.549 69.6953 327.212C68.9133 326.859 68.047 326.683 67.0963 326.683C66.161 326.683 65.3023 326.859 64.5203 327.212C63.7383 327.549 63.056 328.032 62.4733 328.661C61.906 329.274 61.4613 329.987 61.1393 330.8C60.8173 331.613 60.6563 332.487 60.6563 333.422C60.6563 334.357 60.8173 335.239 61.1393 336.067C61.4613 336.88 61.906 337.6 62.4733 338.229C63.056 338.842 63.7383 339.325 64.5203 339.678C65.3023 340.015 66.161 340.184 67.0963 340.184ZM83.2407 342.277C82.3513 342.277 81.5463 342.07 80.8257 341.656C80.1203 341.242 79.5683 340.667 79.1697 339.931C78.7863 339.18 78.5947 338.321 78.5947 337.355V329.604H80.7337V337.125C80.7337 337.738 80.8563 338.275 81.1017 338.735C81.3623 339.195 81.715 339.555 82.1597 339.816C82.6197 340.077 83.141 340.207 83.7237 340.207C84.3063 340.207 84.82 340.077 85.2647 339.816C85.7247 339.555 86.0773 339.18 86.3227 338.689C86.5834 338.198 86.7137 337.616 86.7137 336.941V329.604H88.8757V342.001H86.7827V339.586L87.1277 339.793C86.8363 340.575 86.338 341.188 85.6327 341.633C84.9427 342.062 84.1453 342.277 83.2407 342.277ZM92.1895 342.001V329.604H94.2825V331.881L94.0525 331.559C94.3438 330.854 94.7885 330.332 95.3865 329.995C95.9845 329.642 96.7128 329.466 97.5715 329.466H98.3305V331.49H97.2495C96.3755 331.49 95.6701 331.766 95.1335 332.318C94.5968 332.855 94.3285 333.621 94.3285 334.618V342.001H92.1895ZM107.61 342.001L102.803 324.866H105.172L109.197 339.954H108.645L112.831 324.866H115.2L119.363 339.954H118.788L122.836 324.866H125.205L120.398 342.001H117.891L113.705 326.982H114.303L110.117 342.001H107.61ZM131.966 342.277C130.77 342.277 129.705 341.993 128.769 341.426C127.834 340.859 127.098 340.084 126.561 339.103C126.025 338.106 125.756 336.995 125.756 335.768C125.756 334.526 126.017 333.422 126.538 332.456C127.075 331.49 127.796 330.731 128.7 330.179C129.62 329.612 130.648 329.328 131.782 329.328C132.702 329.328 133.515 329.497 134.22 329.834C134.941 330.156 135.547 330.601 136.037 331.168C136.543 331.72 136.927 332.356 137.187 333.077C137.463 333.782 137.601 334.518 137.601 335.285C137.601 335.454 137.586 335.645 137.555 335.86C137.54 336.059 137.517 336.251 137.486 336.435H127.32V334.595H136.244L135.232 335.423C135.37 334.626 135.294 333.913 135.002 333.284C134.711 332.655 134.282 332.157 133.714 331.789C133.147 331.421 132.503 331.237 131.782 331.237C131.062 331.237 130.402 331.421 129.804 331.789C129.206 332.157 128.739 332.686 128.401 333.376C128.079 334.051 127.949 334.856 128.01 335.791C127.949 336.696 128.087 337.493 128.424 338.183C128.777 338.858 129.268 339.387 129.896 339.77C130.54 340.138 131.238 340.322 131.989 340.322C132.817 340.322 133.515 340.13 134.082 339.747C134.65 339.364 135.11 338.873 135.462 338.275L137.256 339.195C137.011 339.762 136.628 340.284 136.106 340.759C135.6 341.219 134.995 341.587 134.289 341.863C133.599 342.139 132.825 342.277 131.966 342.277ZM146.094 342.277C144.898 342.277 143.833 341.993 142.897 341.426C141.962 340.859 141.226 340.084 140.689 339.103C140.153 338.106 139.884 336.995 139.884 335.768C139.884 334.526 140.145 333.422 140.666 332.456C141.203 331.49 141.924 330.731 142.828 330.179C143.748 329.612 144.776 329.328 145.91 329.328C146.83 329.328 147.643 329.497 148.348 329.834C149.069 330.156 149.675 330.601 150.165 331.168C150.671 331.72 151.055 332.356 151.315 333.077C151.591 333.782 151.729 334.518 151.729 335.285C151.729 335.454 151.714 335.645 151.683 335.86C151.668 336.059 151.645 336.251 151.614 336.435H141.448V334.595H150.372L149.36 335.423C149.498 334.626 149.422 333.913 149.13 333.284C148.839 332.655 148.41 332.157 147.842 331.789C147.275 331.421 146.631 331.237 145.91 331.237C145.19 331.237 144.53 331.421 143.932 331.789C143.334 332.157 142.867 332.686 142.529 333.376C142.207 334.051 142.077 334.856 142.138 335.791C142.077 336.696 142.215 337.493 142.552 338.183C142.905 338.858 143.396 339.387 144.024 339.77C144.668 340.138 145.366 340.322 146.117 340.322C146.945 340.322 147.643 340.13 148.21 339.747C148.778 339.364 149.238 338.873 149.59 338.275L151.384 339.195C151.139 339.762 150.756 340.284 150.234 340.759C149.728 341.219 149.123 341.587 148.417 341.863C147.727 342.139 146.953 342.277 146.094 342.277ZM154.518 342.001V324.59H156.657V336.527L155.783 336.32L162.361 329.604H165.098L160.337 334.595L165.42 342.001H162.89L158.244 335.285L159.578 335.216L155.967 338.988L156.657 337.424V342.001H154.518ZM171.319 342.001V324.59H173.458V332.019L173.067 331.812C173.374 331.03 173.864 330.424 174.539 329.995C175.229 329.55 176.034 329.328 176.954 329.328C177.843 329.328 178.633 329.527 179.323 329.926C180.028 330.325 180.58 330.877 180.979 331.582C181.393 332.287 181.6 333.085 181.6 333.974V342.001H179.438V334.664C179.438 333.974 179.308 333.391 179.047 332.916C178.802 332.441 178.457 332.073 178.012 331.812C177.567 331.536 177.054 331.398 176.471 331.398C175.904 331.398 175.39 331.536 174.93 331.812C174.47 332.073 174.11 332.448 173.849 332.939C173.588 333.414 173.458 333.989 173.458 334.664V342.001H171.319ZM188.295 342.277C187.482 342.277 186.762 342.131 186.133 341.84C185.52 341.533 185.037 341.119 184.684 340.598C184.331 340.061 184.155 339.448 184.155 338.758C184.155 338.099 184.293 337.508 184.569 336.987C184.86 336.45 185.305 335.998 185.903 335.63C186.516 335.262 187.283 335.001 188.203 334.848L192.803 334.089V335.883L188.686 336.573C187.889 336.711 187.306 336.964 186.938 337.332C186.585 337.7 186.409 338.152 186.409 338.689C186.409 339.195 186.608 339.617 187.007 339.954C187.421 340.291 187.935 340.46 188.548 340.46C189.33 340.46 190.005 340.299 190.572 339.977C191.155 339.64 191.607 339.187 191.929 338.62C192.266 338.053 192.435 337.424 192.435 336.734V333.583C192.435 332.908 192.182 332.364 191.676 331.95C191.185 331.521 190.534 331.306 189.721 331.306C189.016 331.306 188.387 331.49 187.835 331.858C187.298 332.211 186.9 332.686 186.639 333.284L184.776 332.318C185.006 331.751 185.374 331.245 185.88 330.8C186.386 330.34 186.976 329.98 187.651 329.719C188.326 329.458 189.031 329.328 189.767 329.328C190.718 329.328 191.553 329.512 192.274 329.88C192.995 330.233 193.554 330.731 193.953 331.375C194.367 332.004 194.574 332.74 194.574 333.583V342.001H192.481V339.655L192.872 339.793C192.611 340.284 192.259 340.713 191.814 341.081C191.369 341.449 190.848 341.74 190.25 341.955C189.652 342.17 189 342.277 188.295 342.277ZM202.329 342.277C201.087 342.277 200.006 341.97 199.086 341.357C198.166 340.744 197.515 339.916 197.131 338.873L198.833 338.045C199.186 338.781 199.669 339.364 200.282 339.793C200.896 340.222 201.578 340.437 202.329 340.437C203.004 340.437 203.564 340.276 204.008 339.954C204.453 339.632 204.675 339.21 204.675 338.689C204.675 338.321 204.568 338.03 204.353 337.815C204.154 337.585 203.909 337.409 203.617 337.286C203.326 337.148 203.058 337.048 202.812 336.987L200.949 336.458C199.83 336.136 199.01 335.676 198.488 335.078C197.982 334.48 197.729 333.782 197.729 332.985C197.729 332.249 197.913 331.613 198.281 331.076C198.665 330.524 199.178 330.095 199.822 329.788C200.482 329.481 201.218 329.328 202.03 329.328C203.119 329.328 204.093 329.604 204.951 330.156C205.825 330.708 206.446 331.482 206.814 332.479L205.066 333.284C204.79 332.64 204.376 332.134 203.824 331.766C203.272 331.383 202.651 331.191 201.961 331.191C201.333 331.191 200.834 331.352 200.466 331.674C200.098 331.981 199.914 332.372 199.914 332.847C199.914 333.2 200.006 333.491 200.19 333.721C200.374 333.936 200.597 334.104 200.857 334.227C201.118 334.334 201.371 334.426 201.616 334.503L203.64 335.101C204.652 335.392 205.434 335.845 205.986 336.458C206.554 337.071 206.837 337.807 206.837 338.666C206.837 339.356 206.646 339.977 206.262 340.529C205.879 341.081 205.35 341.51 204.675 341.817C204.001 342.124 203.219 342.277 202.329 342.277Z" fill="black"/>
<path d="M215.481 359L234.745 319.64H212.729V311.32H245.177V319.64L226.489 359H215.481Z" fill="white"/>
<path d="M258.752 342.277C257.679 342.277 256.667 342.085 255.716 341.702C254.781 341.303 253.968 340.744 253.278 340.023C252.603 339.302 252.097 338.451 251.76 337.47L254.681 336.159C255.11 337.094 255.701 337.83 256.452 338.367C257.219 338.904 258.062 339.172 258.982 339.172C259.703 339.172 260.278 339.011 260.707 338.689C261.152 338.352 261.374 337.907 261.374 337.355C261.374 336.558 260.868 335.99 259.856 335.653L256.498 334.549C253.753 333.644 252.381 332.027 252.381 329.696C252.381 328.684 252.626 327.795 253.117 327.028C253.623 326.261 254.321 325.663 255.21 325.234C256.115 324.805 257.15 324.59 258.315 324.59C259.864 324.59 261.221 324.981 262.386 325.763C263.567 326.53 264.395 327.588 264.87 328.937L261.972 330.248C261.65 329.451 261.167 328.83 260.523 328.385C259.879 327.925 259.143 327.695 258.315 327.695C257.594 327.695 257.012 327.871 256.567 328.224C256.122 328.561 255.9 329.006 255.9 329.558C255.9 330.371 256.421 330.953 257.464 331.306L260.753 332.364C263.498 333.253 264.87 334.848 264.87 337.148C264.87 338.145 264.609 339.034 264.088 339.816C263.567 340.583 262.846 341.188 261.926 341.633C261.021 342.062 259.963 342.277 258.752 342.277ZM271.666 342.277C270.132 342.277 268.952 341.802 268.124 340.851C267.311 339.885 266.905 338.62 266.905 337.056V329.443H270.355V336.78C270.355 337.501 270.569 338.083 270.999 338.528C271.428 338.957 271.98 339.172 272.655 339.172C273.329 339.172 273.881 338.957 274.311 338.528C274.74 338.083 274.955 337.501 274.955 336.78V329.443H278.405V342.001H275.185V340.46C274.863 341.073 274.395 341.533 273.782 341.84C273.168 342.131 272.463 342.277 271.666 342.277ZM280.926 342.001V329.443H284.146V330.984C284.468 330.371 284.936 329.918 285.549 329.627C286.162 329.32 286.868 329.167 287.665 329.167C288.616 329.167 289.444 329.366 290.149 329.765C290.87 330.164 291.429 330.723 291.828 331.444C292.227 332.149 292.426 332.977 292.426 333.928V342.001H288.976V334.664C288.976 333.943 288.761 333.368 288.332 332.939C287.903 332.494 287.351 332.272 286.676 332.272C286.001 332.272 285.449 332.494 285.02 332.939C284.591 333.368 284.376 333.943 284.376 334.664V342.001H280.926ZM300.606 342.277C299.379 342.277 298.283 341.986 297.317 341.403C296.351 340.82 295.584 340.031 295.017 339.034C294.465 338.037 294.189 336.933 294.189 335.722C294.189 334.495 294.472 333.391 295.04 332.41C295.607 331.413 296.374 330.624 297.34 330.041C298.306 329.458 299.387 329.167 300.583 329.167C302.101 329.167 303.304 329.612 304.194 330.501V324.59H307.644V342.001H304.424V340.805C303.979 341.28 303.419 341.648 302.745 341.909C302.085 342.154 301.372 342.277 300.606 342.277ZM301.02 339.172C301.955 339.172 302.714 338.858 303.297 338.229C303.895 337.585 304.194 336.749 304.194 335.722C304.194 334.71 303.895 333.882 303.297 333.238C302.714 332.594 301.955 332.272 301.02 332.272C300.069 332.272 299.287 332.602 298.674 333.261C298.06 333.905 297.754 334.725 297.754 335.722C297.754 336.734 298.06 337.562 298.674 338.206C299.287 338.85 300.069 339.172 301.02 339.172ZM314.057 342.277C312.708 342.277 311.635 341.955 310.837 341.311C310.055 340.667 309.664 339.778 309.664 338.643C309.664 337.585 310.032 336.711 310.768 336.021C311.504 335.331 312.624 334.863 314.126 334.618L317.599 334.066V333.721C317.599 333.246 317.408 332.847 317.024 332.525C316.656 332.203 316.15 332.042 315.506 332.042C314.893 332.042 314.349 332.211 313.873 332.548C313.413 332.885 313.076 333.33 312.861 333.882L310.101 332.571C310.469 331.528 311.152 330.7 312.148 330.087C313.16 329.474 314.333 329.167 315.667 329.167C316.725 329.167 317.661 329.359 318.473 329.742C319.286 330.125 319.915 330.662 320.359 331.352C320.819 332.027 321.049 332.816 321.049 333.721V342.001H317.829V340.828C316.879 341.794 315.621 342.277 314.057 342.277ZM313.229 338.528C313.229 338.911 313.375 339.21 313.666 339.425C313.958 339.64 314.318 339.747 314.747 339.747C315.606 339.747 316.296 339.479 316.817 338.942C317.339 338.405 317.599 337.754 317.599 336.987V336.596L314.747 337.102C314.257 337.194 313.881 337.355 313.62 337.585C313.36 337.8 313.229 338.114 313.229 338.528ZM325.534 347.107C325.166 347.107 324.806 347.076 324.453 347.015C324.116 346.954 323.817 346.854 323.556 346.716V343.887C324.047 344.04 324.568 344.117 325.12 344.117C325.795 344.117 326.278 343.956 326.569 343.634C326.861 343.312 327.098 342.944 327.282 342.53L327.512 342.001L322.567 329.443H326.27L329.237 337.516L332.204 329.443H335.907L330.525 343.174C329.498 345.796 327.834 347.107 325.534 347.107ZM342.337 342.277C340.957 342.277 339.754 341.955 338.726 341.311C337.714 340.652 337.024 339.77 336.656 338.666L339.186 337.47C339.508 338.145 339.945 338.674 340.497 339.057C341.049 339.44 341.663 339.632 342.337 339.632C343.349 339.632 343.855 339.256 343.855 338.505C343.855 337.999 343.441 337.631 342.613 337.401L340.474 336.803C339.447 336.512 338.657 336.044 338.105 335.4C337.553 334.741 337.277 333.966 337.277 333.077C337.277 332.295 337.477 331.613 337.875 331.03C338.274 330.447 338.834 329.995 339.554 329.673C340.275 329.336 341.103 329.167 342.038 329.167C343.265 329.167 344.338 329.458 345.258 330.041C346.194 330.608 346.853 331.413 347.236 332.456L344.683 333.652C344.499 333.131 344.162 332.717 343.671 332.41C343.196 332.088 342.652 331.927 342.038 331.927C341.594 331.927 341.241 332.019 340.98 332.203C340.735 332.387 340.612 332.64 340.612 332.962C340.612 333.453 341.065 333.828 341.969 334.089L343.97 334.687C345.013 334.994 345.81 335.461 346.362 336.09C346.914 336.703 347.19 337.462 347.19 338.367C347.19 339.532 346.746 340.475 345.856 341.196C344.967 341.917 343.794 342.277 342.337 342.277ZM351.092 336.711L350.862 324.866H354.312L354.082 336.711H351.092ZM350.862 342.001V338.551H354.312V342.001H350.862Z" fill="black"/>
</g>
<defs>
<linearGradient id="paint0_linear_530_192" x1="37.2233" y1="40.5003" x2="335.989" y2="46.6291" gradientUnits="userSpaceOnUse">
<stop stop-color="#FC3D45"/>
<stop offset="0.515625" stop-color="#921E23" stop-opacity="0.76"/>
<stop offset="1" stop-color="#FC3D45"/>
</linearGradient>
<clipPath id="clip0_530_192">
<rect width="412" height="390" fill="white"/>
</clipPath>
</defs>
</svg>
