<svg width="98" height="28" viewBox="0 0 98 28" fill="none" xmlns="http://www.w3.org/2000/svg">
<mask id="path-1-inside-1_519_175" fill="white">
<path d="M9.25971 23.9357L9.88036 24.2476C9.10291 25.9205 7.89863 27.2444 5.7601 27.2444C2.88549 27.2444 1.75743 25.6871 1.75743 23.157V11.2851H0V10.5065H1.1738C2.92252 10.5065 4.67123 9.22179 5.09807 5.71891C5.13726 5.44627 5.29188 5.25214 5.5641 5.25214C5.83632 5.25214 6.03013 5.44627 6.03013 5.71891V10.5065H9.25535V11.2851H6.61377C6.30235 11.2851 6.03013 11.5578 6.03013 11.8697V23.3511C6.03013 24.7143 6.03013 26.0753 7.0014 26.0753C8.09462 26.0775 8.83287 24.9084 9.25971 23.9357ZM25.9585 24.987L26.503 25.2596C25.8039 26.7384 24.3274 27.2444 22.5003 27.2444C20.9454 27.2444 19.4689 26.4658 19.1575 24.7143H19.0791C18.6523 26.0775 17.4458 27.2444 15.5033 27.2444C12.5111 27.2444 10.8386 25.8049 10.8386 23.157C10.8386 20.8603 12.1996 19.6541 14.1422 18.8754C16.0847 18.0968 18.1056 18.4087 19.0007 18.6813C19.0007 17.4752 19.0007 16.0356 19.0007 14.3998C19.0007 12.4542 18.8069 10.8969 17.4458 10.8969C16.0085 10.8969 15.5033 11.6756 15.5033 13.6211C15.5033 14.3998 15.1134 15.5667 13.7545 15.5667C12.7833 15.5667 12.0058 14.788 12.0058 13.8152C12.0058 11.2851 14.7258 10.1182 17.6418 10.1182C21.1392 10.1182 23.2756 11.6756 23.2756 15.1784V24.5202C23.2756 25.7264 23.6654 26.0775 24.4407 26.0775C25.1419 26.0775 25.6863 25.5322 25.9585 24.987ZM19.0007 19.46C16.1239 18.954 15.1134 19.6541 15.1134 23.1177C15.1134 24.6751 15.3465 26.0753 16.6683 26.0753C17.485 26.0753 18.5717 24.7907 19.0007 23.157V19.46ZM43.8159 26.0775C42.8446 26.0775 42.8447 24.7143 42.8447 23.3533V11.8719C42.8447 11.56 43.1169 11.2873 43.4283 11.2873H46.072V10.5087H42.8468V5.83887C42.8468 1.55732 39.737 0 36.8232 0C32.1215 0 28.3911 3.03612 28.3911 8.60235V9.9263C28.3911 10.2382 28.1188 10.5108 27.8074 10.5108H26.246V11.2895H28.3911V18.6857V26.8605H32.6659V11.2917H34.8306V10.5152H32.6659V8.68305C32.6659 5.10165 32.899 0.780843 37.0192 0.780843C38.4565 0.780843 41.9148 1.5595 41.9148 5.84105C41.9148 9.26541 40.3207 10.5108 38.5719 10.5108H36.8145V11.2895H38.5719V23.1614C38.5719 25.6915 39.6978 27.2488 42.5746 27.2488C44.711 27.2488 45.9174 25.9248 46.6949 24.2519L46.072 23.94C45.6408 24.9084 44.9026 26.0775 43.8159 26.0775ZM63.5331 18.6813C63.5331 23.2748 59.8418 27.2444 55.2947 27.2444C50.6692 27.2444 47.0172 23.2748 47.0172 18.6813C47.0172 14.0486 50.7476 10.1182 55.2947 10.1182C59.8396 10.1182 63.5331 14.1271 63.5331 18.6813ZM58.8684 18.6813C58.8684 15.0607 58.6354 11.091 55.2925 11.091C52.0281 11.091 51.6775 14.9451 51.6775 18.6813C51.6775 22.302 51.8713 26.2716 55.2925 26.2716C58.4807 26.2716 58.8684 23.3904 58.8684 18.6813ZM81.3992 18.6813C81.3992 23.2748 77.7079 27.2444 73.1608 27.2444C68.5353 27.2444 64.8833 23.2748 64.8833 18.6813C64.8833 14.0486 68.6137 10.1182 73.1608 10.1182C77.7079 10.1182 81.3992 14.1271 81.3992 18.6813ZM76.7366 18.6813C76.7366 15.0607 76.5036 11.091 73.1608 11.091C69.8964 11.091 69.5458 14.9451 69.5458 18.6813C69.5458 22.302 69.7396 26.2716 73.1608 26.2716C76.3468 26.2716 76.7366 23.3904 76.7366 18.6813ZM98 15.5667C98 12.0638 96.2121 10.1182 92.7146 10.1182C89.8008 10.1182 88.4398 12.0638 87.7799 14.0115H87.7015V10.5087H83.4266V26.8562H87.7015V19.8504C87.7015 15.1806 89.2172 11.0932 91.9372 11.0932C93.1023 11.0932 93.7251 12.066 93.7251 14.0115V26.8562H98V15.5667Z"/>
</mask>
<path d="M9.25971 23.9357L9.88036 24.2476C9.10291 25.9205 7.89863 27.2444 5.7601 27.2444C2.88549 27.2444 1.75743 25.6871 1.75743 23.157V11.2851H0V10.5065H1.1738C2.92252 10.5065 4.67123 9.22179 5.09807 5.71891C5.13726 5.44627 5.29188 5.25214 5.5641 5.25214C5.83632 5.25214 6.03013 5.44627 6.03013 5.71891V10.5065H9.25535V11.2851H6.61377C6.30235 11.2851 6.03013 11.5578 6.03013 11.8697V23.3511C6.03013 24.7143 6.03013 26.0753 7.0014 26.0753C8.09462 26.0775 8.83287 24.9084 9.25971 23.9357ZM25.9585 24.987L26.503 25.2596C25.8039 26.7384 24.3274 27.2444 22.5003 27.2444C20.9454 27.2444 19.4689 26.4658 19.1575 24.7143H19.0791C18.6523 26.0775 17.4458 27.2444 15.5033 27.2444C12.5111 27.2444 10.8386 25.8049 10.8386 23.157C10.8386 20.8603 12.1996 19.6541 14.1422 18.8754C16.0847 18.0968 18.1056 18.4087 19.0007 18.6813C19.0007 17.4752 19.0007 16.0356 19.0007 14.3998C19.0007 12.4542 18.8069 10.8969 17.4458 10.8969C16.0085 10.8969 15.5033 11.6756 15.5033 13.6211C15.5033 14.3998 15.1134 15.5667 13.7545 15.5667C12.7833 15.5667 12.0058 14.788 12.0058 13.8152C12.0058 11.2851 14.7258 10.1182 17.6418 10.1182C21.1392 10.1182 23.2756 11.6756 23.2756 15.1784V24.5202C23.2756 25.7264 23.6654 26.0775 24.4407 26.0775C25.1419 26.0775 25.6863 25.5322 25.9585 24.987ZM19.0007 19.46C16.1239 18.954 15.1134 19.6541 15.1134 23.1177C15.1134 24.6751 15.3465 26.0753 16.6683 26.0753C17.485 26.0753 18.5717 24.7907 19.0007 23.157V19.46ZM43.8159 26.0775C42.8446 26.0775 42.8447 24.7143 42.8447 23.3533V11.8719C42.8447 11.56 43.1169 11.2873 43.4283 11.2873H46.072V10.5087H42.8468V5.83887C42.8468 1.55732 39.737 0 36.8232 0C32.1215 0 28.3911 3.03612 28.3911 8.60235V9.9263C28.3911 10.2382 28.1188 10.5108 27.8074 10.5108H26.246V11.2895H28.3911V18.6857V26.8605H32.6659V11.2917H34.8306V10.5152H32.6659V8.68305C32.6659 5.10165 32.899 0.780843 37.0192 0.780843C38.4565 0.780843 41.9148 1.5595 41.9148 5.84105C41.9148 9.26541 40.3207 10.5108 38.5719 10.5108H36.8145V11.2895H38.5719V23.1614C38.5719 25.6915 39.6978 27.2488 42.5746 27.2488C44.711 27.2488 45.9174 25.9248 46.6949 24.2519L46.072 23.94C45.6408 24.9084 44.9026 26.0775 43.8159 26.0775ZM63.5331 18.6813C63.5331 23.2748 59.8418 27.2444 55.2947 27.2444C50.6692 27.2444 47.0172 23.2748 47.0172 18.6813C47.0172 14.0486 50.7476 10.1182 55.2947 10.1182C59.8396 10.1182 63.5331 14.1271 63.5331 18.6813ZM58.8684 18.6813C58.8684 15.0607 58.6354 11.091 55.2925 11.091C52.0281 11.091 51.6775 14.9451 51.6775 18.6813C51.6775 22.302 51.8713 26.2716 55.2925 26.2716C58.4807 26.2716 58.8684 23.3904 58.8684 18.6813ZM81.3992 18.6813C81.3992 23.2748 77.7079 27.2444 73.1608 27.2444C68.5353 27.2444 64.8833 23.2748 64.8833 18.6813C64.8833 14.0486 68.6137 10.1182 73.1608 10.1182C77.7079 10.1182 81.3992 14.1271 81.3992 18.6813ZM76.7366 18.6813C76.7366 15.0607 76.5036 11.091 73.1608 11.091C69.8964 11.091 69.5458 14.9451 69.5458 18.6813C69.5458 22.302 69.7396 26.2716 73.1608 26.2716C76.3468 26.2716 76.7366 23.3904 76.7366 18.6813ZM98 15.5667C98 12.0638 96.2121 10.1182 92.7146 10.1182C89.8008 10.1182 88.4398 12.0638 87.7799 14.0115H87.7015V10.5087H83.4266V26.8562H87.7015V19.8504C87.7015 15.1806 89.2172 11.0932 91.9372 11.0932C93.1023 11.0932 93.7251 12.066 93.7251 14.0115V26.8562H98V15.5667Z" fill="white" stroke="white" stroke-width="1.06858" mask="url(#path-1-inside-1_519_175)"/>
</svg>
