<svg width="101" height="101" viewBox="0 0 101 101" fill="none" xmlns="http://www.w3.org/2000/svg">
<path d="M85.6856 3.80251H86.4066C86.7516 3.80251 86.987 3.75171 87.1121 3.6495C87.2377 3.54728 87.301 3.411 87.301 3.24399C87.301 3.13569 87.2699 3.03835 87.2097 2.95317C87.1492 2.86647 87.0658 2.8032 86.959 2.76152C86.8507 2.71954 86.6527 2.69764 86.3619 2.69764H85.6856V3.80251ZM85.0918 5.87263V2.19692H86.3573C86.7905 2.19692 87.1029 2.23068 87.2961 2.29883C87.4911 2.36666 87.6444 2.4847 87.7603 2.65444C87.875 2.82328 87.9322 3.00276 87.9322 3.19288C87.9322 3.46059 87.8361 3.69604 87.6429 3.89377C87.4509 4.09364 87.1957 4.20497 86.8772 4.22961C87.0071 4.28376 87.1121 4.34856 87.1896 4.42461C87.3381 4.5682 87.5191 4.81125 87.7342 5.15318L88.1829 5.87263H87.4619L87.134 5.29403C86.8772 4.83742 86.6682 4.55116 86.5103 4.43708C86.402 4.35343 86.2442 4.31145 86.0355 4.31297H85.6856V5.87263H85.0918ZM86.5937 1.12916C86.1127 1.12916 85.644 1.25297 85.1892 1.49907C84.7344 1.74487 84.3785 2.09744 84.1214 2.55558C83.8647 3.0134 83.7363 3.49009 83.7363 3.98503C83.7363 4.47876 83.8631 4.95058 84.1153 5.40202C84.3678 5.85407 84.7204 6.20664 85.1737 6.45883C85.6269 6.71101 86.1006 6.83787 86.5937 6.83787C87.0859 6.83787 87.5592 6.71101 88.0125 6.45883C88.4658 6.20664 88.8186 5.85407 89.0693 5.40202C89.32 4.95058 89.445 4.47876 89.445 3.98503C89.445 3.49009 89.3166 3.0134 89.0617 2.55558C88.8062 2.09744 88.4506 1.74487 87.9939 1.49907C87.5376 1.25297 87.0704 1.12916 86.5937 1.12916ZM86.5937 0.563034C87.1677 0.563034 87.7281 0.709965 88.2756 1.00535C88.822 1.29951 89.2485 1.72175 89.5536 2.26932C89.8584 2.81841 90.0114 3.39123 90.0114 3.98503C90.0114 4.57458 89.8612 5.14223 89.5597 5.68554C89.2594 6.23007 88.8387 6.6523 88.2954 6.95255C87.7527 7.25402 87.1848 7.4043 86.5937 7.4043C86.0014 7.4043 85.4338 7.25402 84.8904 6.95255C84.3474 6.6523 83.9252 6.23007 83.6234 5.68554C83.322 5.14223 83.1702 4.57458 83.1702 3.98503C83.1702 3.39123 83.3235 2.81841 83.6295 2.26932C83.9374 1.72175 84.3645 1.29951 84.9105 1.00535C85.4584 0.709965 86.0181 0.563034 86.5937 0.563034Z" fill="#231F20"/>
<path d="M50.4948 1.11224C23.2624 1.11224 1.10718 23.2675 1.10718 50.4999C1.10718 77.7314 23.2624 99.8857 50.4948 99.8857C77.7263 99.8857 99.8807 77.7314 99.8807 50.4999C99.8807 23.2675 77.7263 1.11224 50.4948 1.11224Z" fill="#F5F2E0"/>
<path d="M50.4948 1.11224C23.2624 1.11224 1.10718 23.2675 1.10718 50.4999C1.10718 77.7314 23.2624 99.8857 50.4948 99.8857C77.7263 99.8857 99.8807 77.7314 99.8807 50.4999C99.8807 23.2675 77.7263 1.11224 50.4948 1.11224Z" stroke="black"/>
<path d="M80.6696 69.9617C74.2655 79.852 63.1349 86.4107 50.5003 86.4107C37.8658 86.4107 26.7352 79.852 20.3314 69.9617H19.3491C25.8524 80.3305 37.3839 87.2402 50.5003 87.2402C63.6171 87.2402 75.1486 80.3305 81.6519 69.9617H80.6696Z" fill="#231F20"/>
<path d="M80.6696 69.9617C74.2655 79.852 63.1349 86.4107 50.5003 86.4107C37.8658 86.4107 26.7352 79.852 20.3314 69.9617H19.3491C25.8524 80.3305 37.3839 87.2402 50.5003 87.2402C63.6171 87.2402 75.1486 80.3305 81.6519 69.9617H80.6696Z" stroke="black"/>
<path d="M78.0004 82.8007L75.7538 80.4632C75.5588 80.2597 75.3936 80.1474 75.2644 80.1304C75.1329 80.1112 74.9781 80.1791 74.8001 80.3297L74.7195 80.3954L74.5586 80.2299L75.3407 79.4776L76.1225 78.7274L76.2816 78.8926L76.2116 78.9711C76.0547 79.1448 75.9808 79.2954 75.9932 79.4289C76.0081 79.5582 76.1122 79.7255 76.309 79.9311L77.1845 80.8425L79.164 78.9391L78.2866 78.028C78.0916 77.8245 77.9283 77.7144 77.7969 77.6952C77.6654 77.6761 77.5109 77.7439 77.3326 77.8945L77.2523 77.9602L77.0911 77.7947L77.8732 77.0445L78.6553 76.2922L78.8141 76.4574L78.7442 76.5359C78.5875 76.7096 78.5154 76.8602 78.526 76.9937C78.5409 77.123 78.6447 77.2925 78.8418 77.496L81.0884 79.8335C81.2855 80.037 81.4485 80.1474 81.5778 80.1663C81.7092 80.1855 81.8641 80.1176 82.042 79.967L82.1245 79.8992L82.2836 80.0668L81.5015 80.817L80.7215 81.5693L80.5606 81.402L80.6305 81.3235C80.7893 81.1519 80.8614 80.9992 80.8486 80.8678C80.834 80.7385 80.73 80.5712 80.535 80.3656L79.397 79.1831L77.4196 81.0862L78.5555 82.2687C78.7527 82.4722 78.916 82.5823 79.0453 82.6015C79.1767 82.6206 79.3313 82.5528 79.5092 82.4022L79.5898 82.3344L79.7511 82.502L78.969 83.2522L78.1868 84.0045L78.0281 83.8371L78.0977 83.7587C78.2547 83.5871 78.3289 83.4344 78.3161 83.3008C78.3012 83.1715 78.1975 83.0042 78.0004 82.8007ZM75.2008 85.0704L72.9734 82.2455C72.88 82.1269 72.8036 82.0651 72.7464 82.0569C72.6871 82.0505 72.6004 82.095 72.4815 82.1883L72.4605 82.2051C72.2019 82.4086 72.024 82.6736 71.9284 83.0021C71.8311 83.3285 71.8162 83.7079 71.8862 84.1316L71.6297 84.2293L71.3754 83.5594L71.1211 82.8898L72.8757 81.5036L74.6349 80.1176L75.2281 80.5246L75.8217 80.9271L75.6671 81.1562C75.2686 80.9886 74.8978 80.9125 74.5565 80.9314C74.2151 80.9484 73.9143 81.0585 73.6557 81.262L73.6323 81.2812C73.5158 81.3722 73.4543 81.4485 73.4479 81.5057C73.4416 81.5629 73.4841 81.652 73.5772 81.7685L75.8046 84.5958C75.9786 84.8161 76.1353 84.9411 76.271 84.9645C76.4066 84.9901 76.5825 84.9265 76.7966 84.778L76.894 84.7102L77.036 84.8924L76.1183 85.6152L75.2008 86.338L75.0587 86.1576L75.1457 86.0794C75.3407 85.9054 75.4444 85.7488 75.4508 85.6088C75.4593 85.4732 75.3745 85.2931 75.2008 85.0704ZM69.6013 87.2959L67.4737 86.1576C67.1938 86.0095 66.9778 85.9182 66.8251 85.8887C66.6724 85.8589 66.5179 85.8759 66.3609 85.9352L66.2952 85.9608L66.1787 85.7615L67.1302 85.2039L68.0839 84.6466L68.2004 84.8438L68.0967 84.9201C67.8658 85.0789 67.7596 85.2146 67.7788 85.3229C67.8001 85.4287 67.9546 85.558 68.2451 85.7065L69.9088 86.5795L69.911 86.5838L69.9596 85.0111C69.9767 84.583 69.9447 84.3096 69.8662 84.1973C69.7881 84.0829 69.6268 84.0744 69.3832 84.1742L69.2624 84.2229L69.148 84.0236L69.9806 83.5341L70.8199 83.0444L70.9367 83.2436L70.8625 83.3008C70.6803 83.4344 70.5553 83.5828 70.4874 83.7416C70.4175 83.9007 70.3791 84.1401 70.3685 84.4644L70.2882 86.9504L70.8646 87.9317C71.0064 88.1775 71.1463 88.3217 71.2799 88.364C71.4134 88.4063 71.5999 88.364 71.8393 88.239L71.9476 88.1839L72.0641 88.3832L71.0277 88.9892L69.9934 89.5954L69.8769 89.3962L69.9806 89.3262C70.2118 89.1756 70.3411 89.0336 70.3727 88.8961C70.4025 88.7583 70.3432 88.5654 70.2012 88.3196L69.6013 87.2959ZM62.6268 91.5916C62.7284 91.8566 62.8385 92.0221 62.9571 92.0878C63.0782 92.1535 63.2562 92.1471 63.4977 92.0708L63.6057 92.0388L63.6884 92.253L62.8111 92.59L61.9295 92.9289L61.8468 92.7129L61.942 92.6685C62.1562 92.573 62.2812 92.4629 62.3214 92.3357C62.3597 92.2107 62.3277 92.0136 62.2261 91.7465L61.0647 88.7199C60.9631 88.455 60.8526 88.2898 60.7361 88.2241C60.6196 88.1584 60.4438 88.1626 60.2126 88.2347L60.1067 88.2664L60.024 88.0504L60.8761 87.724L61.7303 87.3976L64.5764 90.585H64.5743L64.6464 86.2766L65.4495 85.969L66.255 85.6596L66.3378 85.8759L66.2422 85.9203C66.0302 86.018 65.9031 86.1302 65.865 86.2553C65.827 86.3824 65.8565 86.5774 65.9581 86.8402L67.1196 89.8686C67.2215 90.1314 67.3295 90.2991 67.4417 90.3669C67.5561 90.4347 67.7237 90.4326 67.9482 90.3626L68.048 90.3328L68.1304 90.547L67.1196 90.937L66.1066 91.3248L66.0238 91.1086L66.1193 91.0641C66.3314 90.9665 66.4585 90.8542 66.4966 90.7292C66.5346 90.6042 66.5051 90.4071 66.4035 90.1442L65.0659 86.6602L65.068 86.658L64.9728 91.7592L64.8158 91.8207L64.657 91.8821L61.2448 87.9889L62.6268 91.5916ZM54.1069 94.5038L54.0646 94.2768L54.1662 94.2516C54.3907 94.1923 54.5349 94.1053 54.5964 93.9888C54.6578 93.8723 54.6621 93.6751 54.6091 93.3953L54.0114 90.2099C53.9606 89.9301 53.8842 89.7478 53.7848 89.6611C53.6853 89.5741 53.5198 89.5465 53.2889 89.5741L53.1827 89.5848L53.1404 89.3579L54.5775 89.0889L57.4702 88.5462L57.8538 89.1714L58.2374 89.7986L58.0065 89.9471C57.6971 89.6377 57.3324 89.4193 56.9129 89.29C56.4934 89.1607 56.0672 89.1376 55.6307 89.2204L55.3106 89.2797C55.0755 89.3241 54.9143 89.409 54.8297 89.534C54.7448 89.6611 54.7257 89.8412 54.7704 90.0806L55.0013 91.3099L55.5333 91.2102C55.885 91.1444 56.1141 91.0365 56.2199 90.8859C56.3258 90.7377 56.3641 90.4728 56.3279 90.0913L56.5865 90.0426L56.7964 91.1615L57.0063 92.287L56.7498 92.3357C56.6458 91.9859 56.508 91.7507 56.3343 91.63C56.1627 91.5113 55.9169 91.4815 55.5948 91.543L55.0627 91.6427L55.3529 93.1832C55.4019 93.4503 55.4929 93.6286 55.6243 93.7195C55.7536 93.8108 55.9528 93.8297 56.2199 93.7789L56.3279 93.7597C56.8834 93.656 57.3345 93.4631 57.678 93.1793C58.0257 92.8973 58.3436 92.4629 58.6359 91.88L58.9051 91.9436L58.7144 92.8081L58.5194 93.6773L55.5458 94.2346L54.1069 94.5038ZM48.6264 93.5966L48.5138 90.3563C48.5056 90.0743 48.4566 89.8814 48.3742 89.7819C48.2872 89.68 48.1284 89.6271 47.895 89.6186L47.7892 89.6143L47.7807 89.3855L48.8658 89.3475L49.9487 89.3092L49.9551 89.5404L49.8514 89.5528C49.6181 89.5763 49.4635 89.6398 49.385 89.7457C49.3087 89.8519 49.2728 90.0469 49.2831 90.3307L49.3257 91.5938L52.0703 91.4985L52.0258 90.2355C52.0173 89.9535 51.9683 89.7606 51.8838 89.6611C51.7989 89.5592 51.6401 89.5063 51.4068 89.4978L51.3009 89.4935L51.2924 89.2648L52.3754 89.2264L53.4605 89.1905L53.4669 89.4193L53.3631 89.4321C53.1298 89.4555 52.9753 89.5191 52.8968 89.6249C52.8183 89.7329 52.7845 89.9258 52.7949 90.2099L52.9053 93.4503C52.9159 93.7323 52.9625 93.9252 53.0474 94.0268C53.1319 94.1266 53.2932 94.1795 53.5262 94.188L53.632 94.1923L53.6384 94.4232L52.5555 94.4594L51.4725 94.4974L51.464 94.2665L51.5701 94.2559C51.801 94.2324 51.958 94.1667 52.0362 94.0609C52.1125 93.9547 52.1466 93.7597 52.1381 93.478L52.0809 91.8377L49.3385 91.9308L49.3936 93.5711C49.4042 93.8552 49.4507 94.046 49.5353 94.1454C49.6223 94.2473 49.7814 94.3003 50.0144 94.3088L50.1203 94.313L50.1267 94.5418L49.0437 94.5801L47.9608 94.6182L47.9522 94.3873L48.0584 94.3745C48.2893 94.3511 48.4463 94.2875 48.5244 94.1795C48.6029 94.0736 48.6349 93.8808 48.6264 93.5966ZM44.6738 93.2575L45.0976 89.6821C45.1146 89.534 45.104 89.4363 45.0699 89.3898C45.0319 89.3454 44.9385 89.3134 44.7903 89.2964L44.7626 89.2921C44.4362 89.2541 44.1226 89.3156 43.8217 89.4786C43.523 89.642 43.2453 89.8984 42.9931 90.248L42.743 90.1357L43.0375 89.4829L43.3323 88.8282L45.5533 89.0911L47.7764 89.3557L47.9078 90.0615L48.0414 90.7651L47.7721 90.8183C47.6091 90.4177 47.3992 90.1041 47.147 89.875C46.8927 89.6441 46.6022 89.5106 46.2761 89.4725L46.2441 89.4683C46.0978 89.4512 46.0005 89.4598 45.956 89.4957C45.9092 89.5319 45.8776 89.6249 45.8605 89.7734L45.4368 93.3487C45.4027 93.6286 45.4261 93.8254 45.5046 93.938C45.5828 94.0523 45.7525 94.133 46.009 94.1774L46.1255 94.2008L46.0978 94.4296L44.9363 94.2918L43.7773 94.1539L43.8047 93.9252L43.9212 93.9316C44.1819 93.9465 44.3663 93.9081 44.4703 93.8151C44.5719 93.7238 44.6397 93.5373 44.6738 93.2575ZM35.0348 92.075L35.0962 91.8523L35.2003 91.8715C35.429 91.9202 35.5967 91.9034 35.7025 91.825C35.8084 91.7465 35.8996 91.5706 35.9739 91.2972L36.832 88.1711C36.9063 87.8977 36.919 87.7005 36.8682 87.5798C36.8153 87.459 36.6796 87.3595 36.4591 87.2832L36.3596 87.247L36.421 87.0246L37.8304 87.4125L40.6681 88.1903L40.7401 88.9213L40.8101 89.6526L40.5366 89.6864C40.3949 89.2712 40.1616 88.9149 39.8415 88.6162C39.5215 88.3153 39.1464 88.1076 38.7205 87.9911L38.4048 87.9041C38.1736 87.8405 37.9935 87.8469 37.8621 87.9232C37.7306 87.9996 37.6333 88.1541 37.5697 88.3874L37.2391 89.5933L37.7605 89.7372C38.1057 89.8327 38.3579 89.8348 38.5191 89.7478C38.6801 89.659 38.8285 89.4385 38.9663 89.0783L39.2185 89.1483L38.9177 90.2458L38.6144 91.3501L38.3622 91.2823C38.4215 90.9221 38.4005 90.6507 38.2965 90.4664C38.1949 90.2842 37.985 90.1506 37.6692 90.0636L37.1478 89.9197L36.7347 91.4307C36.6626 91.6935 36.6647 91.8949 36.7432 92.0327C36.8214 92.1702 36.989 92.2764 37.2518 92.3485L37.3598 92.378C37.9047 92.5265 38.3941 92.5517 38.8264 92.448C39.2608 92.3464 39.7378 92.0942 40.2571 91.6978L40.4709 91.8736L39.9221 92.5666L39.3648 93.2617L36.4463 92.4629L35.0348 92.075ZM32.7292 89.9936L34.1958 86.7067C34.2572 86.5689 34.2761 86.4737 34.2551 86.4183C34.2338 86.3654 34.1553 86.3061 34.0175 86.2446L33.9923 86.234C33.6911 86.1004 33.3754 86.0667 33.0386 86.1345C32.7037 86.2002 32.3624 86.3633 32.0192 86.6218L31.8136 86.4417L32.2881 85.9033L32.763 85.3673L34.806 86.2766L36.8512 87.1877L36.7685 87.9019L36.686 88.6162L36.4125 88.5843C36.3763 88.1541 36.2705 87.7918 36.0946 87.497C35.9209 87.2026 35.6834 86.9884 35.3825 86.8552L35.3548 86.8424C35.2194 86.7809 35.1239 86.7618 35.071 86.7831C35.0159 86.804 34.9587 86.8825 34.8973 87.0203L33.4328 90.3073C33.316 90.5637 33.2801 90.7587 33.3203 90.8923C33.3629 91.0237 33.5004 91.1508 33.7337 91.2695L33.8353 91.3248L33.7422 91.5366L32.676 91.0599L31.6079 90.585L31.7013 90.373L31.8114 90.4134C32.0572 90.5065 32.2437 90.5257 32.3709 90.4664C32.4959 90.4092 32.6145 90.2522 32.7292 89.9936ZM30.9934 86.0645C30.9806 85.6024 30.8851 85.1936 30.7008 84.8395C30.5186 84.4857 30.2642 84.2144 29.94 84.0257C29.6561 83.8624 29.3848 83.7945 29.1262 83.8222C28.8698 83.8499 28.679 83.9686 28.5561 84.1782C28.4311 84.3966 28.429 84.6171 28.5497 84.8352C28.6726 85.0537 28.9991 85.4032 29.5269 85.8887C30.0884 86.4058 30.4379 86.8317 30.5736 87.1688C30.7072 87.5034 30.667 87.8511 30.4571 88.2156C30.2007 88.6606 29.8149 88.9213 29.3063 89.0019C28.7955 89.0847 28.2678 88.966 27.7232 88.65C27.2462 88.3747 26.8711 87.9634 26.5998 87.421L26.2947 87.6732L26.0489 87.529L26.4918 85.753L26.7905 85.8166C26.7483 86.3526 26.8225 86.8466 27.0196 87.2959C27.2167 87.7453 27.5027 88.0778 27.8778 88.2962C28.2404 88.5061 28.5899 88.5843 28.927 88.5313C29.264 88.4763 29.5183 88.3047 29.6878 88.0078C29.8277 87.7705 29.8448 87.5481 29.7428 87.3446C29.6455 87.139 29.3656 86.8253 28.9078 86.3995C28.289 85.8315 27.8991 85.3694 27.7424 85.0196C27.5812 84.6743 27.6003 84.3266 27.8017 83.9813C28.0092 83.6187 28.3228 83.4088 28.7426 83.3474C29.1621 83.2838 29.5968 83.3836 30.0501 83.6464C30.5313 83.9238 30.8748 84.2801 31.0801 84.7145L31.3007 84.5301L31.5358 84.6658L31.2541 86.1026L30.9934 86.0645ZM26.0766 81.7305L23.9106 83.0827L25.3072 84.1593L26.0766 81.7305ZM22.3866 83.5402L26.2737 81.1857L26.5554 81.4041L26.8395 81.6222L25.5509 85.9818C25.4703 86.2638 25.4386 86.4755 25.4575 86.6218C25.4745 86.7682 25.553 86.9081 25.693 87.0438L25.7523 87.1031L25.6102 87.2853L24.7137 86.5945L23.8108 85.8993L23.9529 85.7168L24.0609 85.7847C24.2964 85.9395 24.4701 85.9946 24.5823 85.9501C24.6946 85.9076 24.7943 85.7466 24.8853 85.4646L25.1947 84.4982L23.6031 83.2734L22.9822 83.6631C22.6537 83.8645 22.4714 84.0407 22.4355 84.1867C22.3972 84.3351 22.4906 84.5173 22.713 84.7358L22.8149 84.8395L22.6749 85.0217L21.8633 84.3966L21.0493 83.7672L21.1892 83.585L21.272 83.6336C21.4563 83.7501 21.6257 83.7988 21.7806 83.7842C21.9312 83.7736 22.1344 83.6908 22.3866 83.5402ZM19.9411 81.3001L22.4334 78.704C22.5371 78.596 22.5879 78.5132 22.5879 78.4539C22.5858 78.3946 22.5308 78.314 22.4228 78.2103L22.4036 78.1911C22.1663 77.9645 21.8779 77.8245 21.5412 77.7737C21.202 77.7226 20.8269 77.7609 20.4135 77.8881L20.2821 77.6466L20.9115 77.3031L21.5412 76.9575L23.1538 78.5069L24.7688 80.0583L24.4488 80.7026L24.1287 81.3448L23.8829 81.224C23.9952 80.8063 24.0186 80.4291 23.9529 80.0921C23.8893 79.7553 23.7388 79.4754 23.5015 79.2467L23.478 79.2254C23.3722 79.1217 23.2894 79.0705 23.2322 79.0727C23.1729 79.0748 23.0923 79.1277 22.9886 79.236L20.4941 81.8321C20.2991 82.0356 20.1996 82.2072 20.1932 82.345C20.1869 82.4828 20.2736 82.648 20.4518 82.8409L20.53 82.9279L20.3712 83.0931L19.5276 82.2836L18.6841 81.4741L18.8453 81.3086L18.9341 81.3828C19.1334 81.5526 19.3031 81.635 19.4428 81.6222C19.5784 81.6119 19.7439 81.5036 19.9411 81.3001Z" fill="#231F20"/>
<path d="M45.3728 82.6295C45.1313 81.7586 45.0422 80.9108 45.3728 79.5479C45.4006 79.5083 45.4257 79.4623 45.4503 79.4171C45.4745 79.3728 45.4981 79.3293 45.5234 79.2936C45.7078 79.0265 45.8538 78.9015 46.1379 78.7129C46.6063 78.4021 46.6056 78.3642 46.5967 77.8515C46.5953 77.7701 46.5936 77.6768 46.5936 77.5685C46.5922 76.8606 46.5554 76.1763 46.5186 75.4911C46.5006 75.1548 46.4825 74.8183 46.4686 74.4787C46.4568 74.1909 46.4141 73.7624 46.3646 73.2658C46.2795 72.4129 46.1744 71.3588 46.1717 70.4708H47.7359C47.7309 71.2412 47.6394 72.0886 47.5795 72.6437C47.5637 72.7895 47.5502 72.9152 47.5409 73.0139C47.3967 74.5423 47.2653 76.0319 47.261 77.594C47.2606 77.7219 47.2567 77.8258 47.2534 77.9123C47.2402 78.2603 47.2376 78.3283 47.5175 78.5541C47.5927 78.6149 47.6615 78.6694 47.7302 78.7238C47.774 78.7585 47.8177 78.7932 47.8631 78.8294C48.4946 79.332 48.6896 80.1415 48.6281 81.0571C48.5582 82.1039 48.3909 83.119 47.9075 83.9966C47.8354 84.1299 47.7572 84.251 47.6745 84.3632C47.4244 84.7045 46.7037 84.8846 46.3627 84.5752L46.0743 84.2634C45.9578 84.094 45.8772 83.9753 45.7841 83.7761C45.6277 83.4459 45.4493 82.8736 45.3917 82.6888C45.3805 82.6529 45.3739 82.6316 45.3728 82.6295Z" fill="#231F20"/>
<path d="M45.3728 82.6295C45.1313 81.7586 45.0422 80.9108 45.3728 79.5479C45.4006 79.5083 45.4257 79.4623 45.4503 79.4171C45.4745 79.3728 45.4981 79.3293 45.5234 79.2936C45.7078 79.0265 45.8538 78.9015 46.1379 78.7129C46.6063 78.4021 46.6056 78.3642 46.5967 77.8515C46.5953 77.7701 46.5936 77.6768 46.5936 77.5685C46.5922 76.8606 46.5554 76.1763 46.5186 75.4911C46.5006 75.1548 46.4825 74.8183 46.4686 74.4787C46.4568 74.1909 46.4141 73.7624 46.3646 73.2658C46.2795 72.4129 46.1744 71.3588 46.1717 70.4708H47.7359C47.7309 71.2412 47.6394 72.0886 47.5795 72.6437C47.5637 72.7895 47.5502 72.9152 47.5409 73.0139C47.3967 74.5423 47.2653 76.0319 47.261 77.594C47.2606 77.7219 47.2567 77.8258 47.2534 77.9123C47.2402 78.2603 47.2376 78.3283 47.5175 78.5541C47.5927 78.6149 47.6615 78.6694 47.7302 78.7238C47.774 78.7585 47.8177 78.7932 47.8631 78.8294C48.4946 79.332 48.6896 80.1415 48.6281 81.0571C48.5582 82.1039 48.3909 83.119 47.9075 83.9966C47.8354 84.1299 47.7572 84.251 47.6745 84.3632C47.4244 84.7045 46.7037 84.8846 46.3627 84.5752L46.0743 84.2634C45.9578 84.094 45.8772 83.9753 45.7841 83.7761C45.6277 83.4459 45.4493 82.8736 45.3917 82.6888C45.3805 82.6529 45.3739 82.6316 45.3728 82.6295Z" stroke="black"/>
<path d="M51.8065 70.4766L51.8107 70.5594C51.8843 71.8573 51.7111 73.7072 51.5601 75.3191C51.507 75.8864 51.4566 76.4242 51.4207 76.8981C51.4096 77.0429 51.3943 77.1803 51.3796 77.3117C51.3163 77.88 51.2654 78.3359 51.62 78.7972C51.6631 78.8532 51.704 78.9051 51.7427 78.9542C52.0722 79.3719 52.2449 79.5909 52.243 80.429C52.2388 81.6775 52.2071 82.4742 52.0988 83.6779C52.0838 83.8494 52.0578 84.0254 52.0324 84.1965C52.008 84.3616 51.9842 84.5222 51.9717 84.6699H51.8701C51.863 84.4087 51.8593 84.1461 51.8555 83.8831C51.8501 83.5083 51.8447 83.1329 51.8299 82.7604C51.8257 82.6377 51.8228 82.5145 51.8199 82.3914C51.8155 82.2064 51.8112 82.0216 51.8022 81.8384C51.8011 81.8198 51.8002 81.794 51.7991 81.7632C51.7916 81.5513 51.7756 81.0988 51.637 81.069C51.4886 81.2534 51.4484 82.4848 51.4442 82.8112C51.4397 83.1668 51.4151 83.5001 51.3913 83.8225C51.3701 84.1109 51.3494 84.3907 51.3444 84.6699H51.2513C51.2491 84.5766 51.2481 84.4139 51.2468 84.2073C51.2408 83.2356 51.2288 81.2948 51.0542 81.0605C50.9736 81.0903 50.9672 81.101 50.9355 81.2047C50.8985 81.3321 50.8745 81.6024 50.8591 81.7764C50.8568 81.8023 50.8547 81.8261 50.8528 81.8469C50.8366 82.0159 50.833 82.1856 50.8293 82.3552C50.8263 82.4981 50.8232 82.6411 50.8126 82.7835C50.7891 83.1244 50.7799 83.4736 50.7706 83.8233C50.7632 84.1066 50.7557 84.3902 50.7405 84.6699H50.6514C50.6246 84.2747 50.6139 83.8853 50.6032 83.4932C50.597 83.2673 50.5908 83.0405 50.5814 82.8112C50.5785 82.7404 50.578 82.6337 50.5774 82.507C50.575 82.0037 50.5712 81.1864 50.4035 81.0627C50.2425 81.2182 50.2167 82.2406 50.2053 82.69C50.2042 82.7373 50.2031 82.7783 50.2021 82.8112C50.1829 83.4385 50.1619 84.0533 50.1215 84.6699H50.0433C49.8927 83.9429 49.7315 81.2026 49.7826 80.4269C49.7861 80.3745 49.7889 80.3249 49.7916 80.2773C49.809 79.9766 49.8214 79.7597 49.9478 79.4668C50.094 79.1243 50.2457 78.9482 50.3726 78.8009C50.5512 78.5937 50.6807 78.4434 50.677 77.9665C50.6763 77.8451 50.6772 77.7221 50.6781 77.5987C50.68 77.3514 50.6819 77.1025 50.6706 76.8622L50.6691 76.8305C50.6018 75.4033 50.538 74.0501 50.3822 72.6468L50.3788 72.6157C50.3016 71.9174 50.2214 71.1909 50.2277 70.4766H51.8065Z" fill="#231F20"/>
<path d="M51.8065 70.4766L51.8107 70.5594C51.8843 71.8573 51.7111 73.7072 51.5601 75.3191C51.507 75.8864 51.4566 76.4242 51.4207 76.8981C51.4096 77.0429 51.3943 77.1803 51.3796 77.3117C51.3163 77.88 51.2654 78.3359 51.62 78.7972C51.6631 78.8532 51.704 78.9051 51.7427 78.9542C52.0722 79.3719 52.2449 79.5909 52.243 80.429C52.2388 81.6775 52.2071 82.4742 52.0988 83.6779C52.0838 83.8494 52.0578 84.0254 52.0324 84.1965C52.008 84.3616 51.9842 84.5222 51.9717 84.6699H51.8701C51.863 84.4087 51.8593 84.1461 51.8555 83.8831C51.8501 83.5083 51.8447 83.1329 51.8299 82.7604C51.8257 82.6377 51.8228 82.5145 51.8199 82.3914C51.8155 82.2064 51.8112 82.0216 51.8022 81.8384C51.8011 81.8198 51.8002 81.794 51.7991 81.7632C51.7916 81.5513 51.7756 81.0988 51.637 81.069C51.4886 81.2534 51.4484 82.4848 51.4442 82.8112C51.4397 83.1668 51.4151 83.5001 51.3913 83.8225C51.3701 84.1109 51.3494 84.3907 51.3444 84.6699H51.2513C51.2491 84.5766 51.2481 84.4139 51.2468 84.2073C51.2408 83.2356 51.2288 81.2948 51.0542 81.0605C50.9736 81.0903 50.9672 81.101 50.9355 81.2047C50.8985 81.3321 50.8745 81.6024 50.8591 81.7764C50.8568 81.8023 50.8547 81.8261 50.8528 81.8469C50.8366 82.0159 50.833 82.1856 50.8293 82.3552C50.8263 82.4981 50.8232 82.6411 50.8126 82.7835C50.7891 83.1244 50.7799 83.4736 50.7706 83.8233C50.7632 84.1066 50.7557 84.3902 50.7405 84.6699H50.6514C50.6246 84.2747 50.6139 83.8853 50.6032 83.4932C50.597 83.2673 50.5908 83.0405 50.5814 82.8112C50.5785 82.7404 50.578 82.6337 50.5774 82.507C50.575 82.0037 50.5712 81.1864 50.4035 81.0627C50.2425 81.2182 50.2167 82.2406 50.2053 82.69C50.2042 82.7373 50.2031 82.7783 50.2021 82.8112C50.1829 83.4385 50.1619 84.0533 50.1215 84.6699H50.0433C49.8927 83.9429 49.7315 81.2026 49.7826 80.4269C49.7861 80.3745 49.7889 80.3249 49.7916 80.2773C49.809 79.9766 49.8214 79.7597 49.9478 79.4668C50.094 79.1243 50.2457 78.9482 50.3726 78.8009C50.5512 78.5937 50.6807 78.4434 50.677 77.9665C50.6763 77.8451 50.6772 77.7221 50.6781 77.5987C50.68 77.3514 50.6819 77.1025 50.6706 76.8622L50.6691 76.8305C50.6018 75.4033 50.538 74.0501 50.3822 72.6468L50.3788 72.6157C50.3016 71.9174 50.2214 71.1909 50.2277 70.4766H51.8065Z" stroke="black"/>
<path d="M55.1491 70.4766V72.2231C55.0621 72.4245 54.9541 73.7976 54.9307 74.1262C54.8841 74.7407 54.8312 75.5736 54.8649 76.1863C54.8764 76.4038 54.9179 76.5559 54.9647 76.7272C55.0395 77.0014 55.1278 77.3248 55.1278 78.0449C55.1278 78.1136 55.1265 78.2329 55.125 78.381C55.1191 78.9594 55.1086 79.9772 55.1491 80.1324V81.6434C55.1336 81.6844 55.1081 82.2 55.0858 82.6526C55.0712 82.9483 55.0579 83.2171 55.0496 83.3092C55.0492 83.3135 55.0488 83.3178 55.0484 83.3221C55.0061 83.7812 54.9577 84.3068 54.6639 84.6699H54.4241C54.3966 84.6389 54.3737 84.621 54.3511 84.6032C54.3024 84.565 54.2546 84.5275 54.1634 84.3627C54.0853 84.2206 54.0405 84.0998 53.994 83.9578C53.8967 83.6505 53.816 83.3497 53.7567 83.019C53.5319 81.7578 53.3941 79.9395 53.4303 78.6467C53.4508 77.9223 53.6742 77.4344 53.9209 76.8959C53.9311 76.8735 53.9414 76.851 53.9517 76.8284C53.9773 76.7732 54.0012 76.724 54.0233 76.6786C54.1418 76.4348 54.2082 76.2982 54.2082 75.8979C54.2082 75.6757 54.2015 75.4568 54.1949 75.2387C54.1897 75.0656 54.1845 74.893 54.1826 74.7197C54.1768 74.0471 54.1124 73.3713 54.0496 72.7112C54.0437 72.6493 54.0378 72.5876 54.032 72.5261C54.0035 72.2185 53.9611 71.9125 53.9187 71.6069C53.8664 71.2304 53.8142 70.8545 53.7884 70.4766H55.1491Z" fill="#231F20"/>
<path d="M55.1491 70.4766V72.2231C55.0621 72.4245 54.9541 73.7976 54.9307 74.1262C54.8841 74.7407 54.8312 75.5736 54.8649 76.1863C54.8764 76.4038 54.9179 76.5559 54.9647 76.7272C55.0395 77.0014 55.1278 77.3248 55.1278 78.0449C55.1278 78.1136 55.1265 78.2329 55.125 78.381C55.1191 78.9594 55.1086 79.9772 55.1491 80.1324V81.6434C55.1336 81.6844 55.1081 82.2 55.0858 82.6526C55.0712 82.9483 55.0579 83.2171 55.0496 83.3092C55.0492 83.3135 55.0488 83.3178 55.0484 83.3221C55.0061 83.7812 54.9577 84.3068 54.6639 84.6699H54.4241C54.3966 84.6389 54.3737 84.621 54.3511 84.6032C54.3024 84.565 54.2546 84.5275 54.1634 84.3627C54.0853 84.2206 54.0405 84.0998 53.994 83.9578C53.8967 83.6505 53.816 83.3497 53.7567 83.019C53.5319 81.7578 53.3941 79.9395 53.4303 78.6467C53.4508 77.9223 53.6742 77.4344 53.9209 76.8959C53.9311 76.8735 53.9414 76.851 53.9517 76.8284C53.9773 76.7732 54.0012 76.724 54.0233 76.6786C54.1418 76.4348 54.2082 76.2982 54.2082 75.8979C54.2082 75.6757 54.2015 75.4568 54.1949 75.2387C54.1897 75.0656 54.1845 74.893 54.1826 74.7197C54.1768 74.0471 54.1124 73.3713 54.0496 72.7112C54.0437 72.6493 54.0378 72.5876 54.032 72.5261C54.0035 72.2185 53.9611 71.9125 53.9187 71.6069C53.8664 71.2304 53.8142 70.8545 53.7884 70.4766H55.1491Z" stroke="black"/>
<path d="M57.2173 78.2033C57.0351 77.5441 56.9672 76.9019 57.2173 75.8701C57.2389 75.8407 57.2578 75.8058 57.2765 75.7714C57.2944 75.7386 57.3121 75.7061 57.3317 75.679C57.4716 75.478 57.5817 75.3824 57.7959 75.2404C58.151 75.0045 58.1505 74.9755 58.1438 74.5871C58.1427 74.5257 58.1415 74.4553 58.1415 74.3737C58.14 73.8413 58.1123 73.3278 58.0845 72.8131C58.0706 72.5553 58.0566 72.2971 58.0459 72.0362C58.0374 71.8112 58.0034 71.4729 57.9641 71.0819C57.9445 70.887 57.9236 70.6791 57.9039 70.4656H58.9065C58.8852 70.6542 58.8682 70.8154 58.8576 70.9298C58.7496 72.0849 58.6501 73.2122 58.6458 74.3929C58.6458 74.4914 58.6429 74.5711 58.6406 74.6373C58.6311 74.897 58.6293 74.9492 58.8387 75.1196C58.8844 75.1562 58.9267 75.1894 58.9679 75.2217C59.0126 75.2569 59.0561 75.291 59.1012 75.3274C59.5782 75.7089 59.7267 76.3191 59.6798 77.0124C59.6269 77.8048 59.4997 78.572 59.1353 79.2376C59.0802 79.3371 59.0209 79.4284 58.9595 79.5129C58.7687 79.7715 58.2239 79.9072 57.9653 79.6742L57.7493 79.4369C57.6602 79.3097 57.5988 79.2206 57.5288 79.07C57.4085 78.8171 57.2716 78.3772 57.2299 78.2431C57.2224 78.2189 57.2179 78.2046 57.2173 78.2033Z" fill="#231F20"/>
<path d="M57.2173 78.2033C57.0351 77.5441 56.9672 76.9019 57.2173 75.8701C57.2389 75.8407 57.2578 75.8058 57.2765 75.7714C57.2944 75.7386 57.3121 75.7061 57.3317 75.679C57.4716 75.478 57.5817 75.3824 57.7959 75.2404C58.151 75.0045 58.1505 74.9755 58.1438 74.5871C58.1427 74.5257 58.1415 74.4553 58.1415 74.3737C58.14 73.8413 58.1123 73.3278 58.0845 72.8131C58.0706 72.5553 58.0566 72.2971 58.0459 72.0362C58.0374 71.8112 58.0034 71.4729 57.9641 71.0819C57.9445 70.887 57.9236 70.6791 57.9039 70.4656H58.9065C58.8852 70.6542 58.8682 70.8154 58.8576 70.9298C58.7496 72.0849 58.6501 73.2122 58.6458 74.3929C58.6458 74.4914 58.6429 74.5711 58.6406 74.6373C58.6311 74.897 58.6293 74.9492 58.8387 75.1196C58.8844 75.1562 58.9267 75.1894 58.9679 75.2217C59.0126 75.2569 59.0561 75.291 59.1012 75.3274C59.5782 75.7089 59.7267 76.3191 59.6798 77.0124C59.6269 77.8048 59.4997 78.572 59.1353 79.2376C59.0802 79.3371 59.0209 79.4284 58.9595 79.5129C58.7687 79.7715 58.2239 79.9072 57.9653 79.6742L57.7493 79.4369C57.6602 79.3097 57.5988 79.2206 57.5288 79.07C57.4085 78.8171 57.2716 78.3772 57.2299 78.2431C57.2224 78.2189 57.2179 78.2046 57.2173 78.2033Z" stroke="black"/>
<path d="M62.0531 70.4677C62.0151 71.2024 61.9405 71.999 61.8722 72.7274C61.834 73.1357 61.7978 73.5225 61.7711 73.8651C61.7628 73.9743 61.7513 74.078 61.7404 74.1772C61.6929 74.607 61.6547 74.9519 61.9217 75.2997C61.9537 75.3411 61.9841 75.3795 62.0129 75.4159C62.265 75.7343 62.3963 75.9002 62.3944 76.5354C62.3923 77.4784 62.3667 78.0826 62.2861 78.9918C62.2745 79.1204 62.2549 79.2515 62.2358 79.3791C62.2168 79.5062 62.1983 79.6299 62.1888 79.7441H62.1124C62.1069 79.5359 62.1038 79.3268 62.1006 79.1179C62.0965 78.844 62.0924 78.5703 62.0829 78.2986C62.0797 78.2114 62.0774 78.1243 62.0751 78.0372C62.0713 77.8915 62.0675 77.7461 62.0595 77.6013C62.0591 77.5903 62.0587 77.5759 62.0583 77.559C62.0544 77.4063 62.0453 77.0434 61.9366 77.0185C61.8222 77.1584 61.7924 78.0911 61.7903 78.3369C61.7869 78.6074 61.7681 78.8602 61.7498 79.1048C61.7336 79.322 61.7179 79.5328 61.7139 79.7441H61.6439C61.6421 79.6708 61.6412 79.5416 61.6402 79.3778C61.6353 78.637 61.6258 77.1896 61.4958 77.0145C61.4344 77.0355 61.428 77.044 61.4045 77.1225C61.3762 77.221 61.3579 77.435 61.3467 77.5655C61.3454 77.5808 61.3442 77.595 61.3431 77.6077C61.3295 77.7443 61.3267 77.8814 61.3238 78.0184C61.3218 78.1177 61.3197 78.2168 61.3136 78.3156C61.2965 78.565 61.2892 78.8203 61.2818 79.0766C61.2754 79.2996 61.269 79.5232 61.2561 79.7441H61.1907C61.1688 79.4405 61.161 79.1421 61.1531 78.8417C61.1487 78.6745 61.1443 78.5066 61.1374 78.3369C61.1349 78.2814 61.1344 78.197 61.1338 78.097C61.1315 77.7154 61.1278 77.1068 61.0018 77.0145C60.8817 77.131 60.8612 77.8997 60.8521 78.2413C60.8511 78.2788 60.8502 78.3111 60.8494 78.3369C60.8345 78.8114 60.8196 79.2757 60.7879 79.7441H60.7307C60.6163 79.1929 60.4953 77.1204 60.5336 76.5333C60.5361 76.4954 60.5381 76.4593 60.5401 76.4248C60.5534 76.1947 60.5629 76.0294 60.6586 75.8083C60.769 75.548 60.8837 75.4145 60.9797 75.3027C61.1142 75.1462 61.212 75.0324 61.2095 74.6724C61.2088 74.5754 61.2096 74.4771 61.2105 74.3784C61.212 74.197 61.2136 74.0145 61.2053 73.8374C61.1545 72.748 61.1037 71.718 60.9872 70.6499L60.9659 70.4677H62.0531Z" fill="#231F20"/>
<path d="M62.0531 70.4677C62.0151 71.2024 61.9405 71.999 61.8722 72.7274C61.834 73.1357 61.7978 73.5225 61.7711 73.8651C61.7628 73.9743 61.7513 74.078 61.7404 74.1772C61.6929 74.607 61.6547 74.9519 61.9217 75.2997C61.9537 75.3411 61.9841 75.3795 62.0129 75.4159C62.265 75.7343 62.3963 75.9002 62.3944 76.5354C62.3923 77.4784 62.3667 78.0826 62.2861 78.9918C62.2745 79.1204 62.2549 79.2515 62.2358 79.3791C62.2168 79.5062 62.1983 79.6299 62.1888 79.7441H62.1124C62.1069 79.5359 62.1038 79.3268 62.1006 79.1179C62.0965 78.844 62.0924 78.5703 62.0829 78.2986C62.0797 78.2114 62.0774 78.1243 62.0751 78.0372C62.0713 77.8915 62.0675 77.7461 62.0595 77.6013C62.0591 77.5903 62.0587 77.5759 62.0583 77.559C62.0544 77.4063 62.0453 77.0434 61.9366 77.0185C61.8222 77.1584 61.7924 78.0911 61.7903 78.3369C61.7869 78.6074 61.7681 78.8602 61.7498 79.1048C61.7336 79.322 61.7179 79.5328 61.7139 79.7441H61.6439C61.6421 79.6708 61.6412 79.5416 61.6402 79.3778C61.6353 78.637 61.6258 77.1896 61.4958 77.0145C61.4344 77.0355 61.428 77.044 61.4045 77.1225C61.3762 77.221 61.3579 77.435 61.3467 77.5655C61.3454 77.5808 61.3442 77.595 61.3431 77.6077C61.3295 77.7443 61.3267 77.8814 61.3238 78.0184C61.3218 78.1177 61.3197 78.2168 61.3136 78.3156C61.2965 78.565 61.2892 78.8203 61.2818 79.0766C61.2754 79.2996 61.269 79.5232 61.2561 79.7441H61.1907C61.1688 79.4405 61.161 79.1421 61.1531 78.8417C61.1487 78.6745 61.1443 78.5066 61.1374 78.3369C61.1349 78.2814 61.1344 78.197 61.1338 78.097C61.1315 77.7154 61.1278 77.1068 61.0018 77.0145C60.8817 77.131 60.8612 77.8997 60.8521 78.2413C60.8511 78.2788 60.8502 78.3111 60.8494 78.3369C60.8345 78.8114 60.8196 79.2757 60.7879 79.7441H60.7307C60.6163 79.1929 60.4953 77.1204 60.5336 76.5333C60.5361 76.4954 60.5381 76.4593 60.5401 76.4248C60.5534 76.1947 60.5629 76.0294 60.6586 75.8083C60.769 75.548 60.8837 75.4145 60.9797 75.3027C61.1142 75.1462 61.212 75.0324 61.2095 74.6724C61.2088 74.5754 61.2096 74.4771 61.2105 74.3784C61.212 74.197 61.2136 74.0145 61.2053 73.8374C61.1545 72.748 61.1037 71.718 60.9872 70.6499L60.9659 70.4677H62.0531Z" stroke="black"/>
<path d="M64.5572 70.4677C64.5 70.8005 64.4407 71.5592 64.4258 71.7691C64.392 72.233 64.3516 72.8627 64.3771 73.3266C64.3852 73.4921 64.4165 73.6072 64.4518 73.7373C64.5079 73.9439 64.5743 74.1881 64.5743 74.7318C64.5743 74.7832 64.5734 74.8716 64.5723 74.9813C64.5681 75.4181 64.5606 76.1922 64.591 76.3109V77.4553C64.5798 77.4853 64.5611 77.8577 64.5443 78.1939C64.5326 78.4263 64.5218 78.6414 64.5149 78.7141C64.4851 79.0636 64.4492 79.4664 64.2244 79.7441H64.0422C64.0215 79.7208 64.0045 79.7071 63.9876 79.6936C63.951 79.6643 63.9156 79.6359 63.8472 79.5108C63.7879 79.4028 63.752 79.3119 63.7179 79.2036C63.6437 78.9727 63.5822 78.7436 63.54 78.4957C63.3684 77.5399 63.2644 76.1646 63.292 75.1875C63.3063 74.6439 63.4745 74.2757 63.6592 73.8716C63.6682 73.8519 63.6772 73.8321 63.6863 73.8121C63.7062 73.7688 63.7248 73.7304 63.742 73.695C63.8306 73.5122 63.8809 73.4085 63.8792 73.1085C63.8792 72.9459 63.8743 72.7865 63.8694 72.6279C63.8652 72.4906 63.861 72.3539 63.86 72.2163C63.8561 71.7089 63.8081 71.1983 63.761 70.6987C63.7566 70.6513 63.7521 70.604 63.7477 70.5568L63.7392 70.4677H64.5572Z" fill="#231F20"/>
<path d="M64.5572 70.4677C64.5 70.8005 64.4407 71.5592 64.4258 71.7691C64.392 72.233 64.3516 72.8627 64.3771 73.3266C64.3852 73.4921 64.4165 73.6072 64.4518 73.7373C64.5079 73.9439 64.5743 74.1881 64.5743 74.7318C64.5743 74.7832 64.5734 74.8716 64.5723 74.9813C64.5681 75.4181 64.5606 76.1922 64.591 76.3109V77.4553C64.5798 77.4853 64.5611 77.8577 64.5443 78.1939C64.5326 78.4263 64.5218 78.6414 64.5149 78.7141C64.4851 79.0636 64.4492 79.4664 64.2244 79.7441H64.0422C64.0215 79.7208 64.0045 79.7071 63.9876 79.6936C63.951 79.6643 63.9156 79.6359 63.8472 79.5108C63.7879 79.4028 63.752 79.3119 63.7179 79.2036C63.6437 78.9727 63.5822 78.7436 63.54 78.4957C63.3684 77.5399 63.2644 76.1646 63.292 75.1875C63.3063 74.6439 63.4745 74.2757 63.6592 73.8716C63.6682 73.8519 63.6772 73.8321 63.6863 73.8121C63.7062 73.7688 63.7248 73.7304 63.742 73.695C63.8306 73.5122 63.8809 73.4085 63.8792 73.1085C63.8792 72.9459 63.8743 72.7865 63.8694 72.6279C63.8652 72.4906 63.861 72.3539 63.86 72.2163C63.8561 71.7089 63.8081 71.1983 63.761 70.6987C63.7566 70.6513 63.7521 70.604 63.7477 70.5568L63.7392 70.4677H64.5572Z" stroke="black"/>
<path d="M36.5553 78.2033C36.3731 77.5441 36.3074 76.9019 36.5553 75.8701C36.5783 75.8389 36.5988 75.8016 36.6188 75.7651C36.6357 75.7344 36.6523 75.7044 36.6697 75.679C36.8096 75.478 36.9197 75.3824 37.1339 75.2404C37.489 75.0045 37.4885 74.9755 37.4818 74.5871C37.4807 74.5257 37.4795 74.4553 37.4795 74.3737C37.4795 73.8413 37.4513 73.3278 37.423 72.8131C37.4088 72.5553 37.3946 72.2971 37.384 72.0362C37.3757 71.8196 37.3439 71.4979 37.307 71.1252C37.2865 70.918 37.2645 70.695 37.244 70.4656H38.2446C38.2356 70.5536 38.2267 70.6356 38.2186 70.7097C38.2094 70.7944 38.2013 70.8688 38.1956 70.9298C38.0876 72.0849 37.9881 73.2122 37.9838 74.3929C37.9838 74.4908 37.981 74.5701 37.9786 74.6361C37.9692 74.8968 37.9674 74.9489 38.1788 75.1196C38.2341 75.1649 38.2849 75.2049 38.3352 75.2446C38.3698 75.2718 38.4041 75.2989 38.4395 75.3274C38.9184 75.7089 39.0647 76.3191 39.0178 77.0124C38.9649 77.8048 38.8378 78.572 38.4733 79.2376C38.4183 79.3371 38.3589 79.4284 38.2975 79.5129C38.1067 79.7715 37.5619 79.9072 37.3033 79.6742L37.0874 79.4369C36.9982 79.3097 36.9389 79.2206 36.8668 79.07C36.7488 78.818 36.6112 78.3804 36.5685 78.2446C36.5606 78.2195 36.556 78.2047 36.5553 78.2033Z" fill="#231F20"/>
<path d="M36.5553 78.2033C36.3731 77.5441 36.3074 76.9019 36.5553 75.8701C36.5783 75.8389 36.5988 75.8016 36.6188 75.7651C36.6357 75.7344 36.6523 75.7044 36.6697 75.679C36.8096 75.478 36.9197 75.3824 37.1339 75.2404C37.489 75.0045 37.4885 74.9755 37.4818 74.5871C37.4807 74.5257 37.4795 74.4553 37.4795 74.3737C37.4795 73.8413 37.4513 73.3278 37.423 72.8131C37.4088 72.5553 37.3946 72.2971 37.384 72.0362C37.3757 71.8196 37.3439 71.4979 37.307 71.1252C37.2865 70.918 37.2645 70.695 37.244 70.4656H38.2446C38.2356 70.5536 38.2267 70.6356 38.2186 70.7097C38.2094 70.7944 38.2013 70.8688 38.1956 70.9298C38.0876 72.0849 37.9881 73.2122 37.9838 74.3929C37.9838 74.4908 37.981 74.5701 37.9786 74.6361C37.9692 74.8968 37.9674 74.9489 38.1788 75.1196C38.2341 75.1649 38.2849 75.2049 38.3352 75.2446C38.3698 75.2718 38.4041 75.2989 38.4395 75.3274C38.9184 75.7089 39.0647 76.3191 39.0178 77.0124C38.9649 77.8048 38.8378 78.572 38.4733 79.2376C38.4183 79.3371 38.3589 79.4284 38.2975 79.5129C38.1067 79.7715 37.5619 79.9072 37.3033 79.6742L37.0874 79.4369C36.9982 79.3097 36.9389 79.2206 36.8668 79.07C36.7488 78.818 36.6112 78.3804 36.5685 78.2446C36.5606 78.2195 36.556 78.2047 36.5553 78.2033Z" stroke="black"/>
<path d="M41.3939 70.4677C41.3549 71.1952 41.2808 71.9833 41.213 72.7058C41.1739 73.1221 41.1369 73.5165 41.1097 73.8651C41.1014 73.9739 41.09 74.0772 41.0791 74.176C41.0316 74.6063 40.9935 74.9516 41.2624 75.2997C41.2946 75.3416 41.3253 75.3806 41.3543 75.4174C41.604 75.7348 41.735 75.9012 41.733 76.5354C41.7309 77.4784 41.7054 78.0826 41.6247 78.9918C41.6132 79.1204 41.5936 79.2515 41.5745 79.3791C41.5555 79.5062 41.537 79.6299 41.5274 79.7441H41.451C41.4455 79.5359 41.4424 79.3268 41.4392 79.1179C41.4351 78.844 41.431 78.5703 41.4215 78.2986C41.4179 78.199 41.4154 78.0994 41.413 78C41.4096 77.8667 41.4063 77.7337 41.4002 77.6013C41.3994 77.5872 41.3988 77.5677 41.3979 77.5443C41.3924 77.3843 41.3806 77.0426 41.2752 77.0185C41.163 77.1584 41.1332 78.0911 41.1289 78.3369C41.1255 78.6074 41.1067 78.8602 41.0884 79.1048C41.0723 79.322 41.0565 79.5328 41.0525 79.7441H40.9826C40.9812 79.6782 40.9806 79.5672 40.9798 79.4264C40.9758 78.7024 40.9674 77.1936 40.8344 77.0145C40.773 77.0355 40.7666 77.044 40.7453 77.1225C40.7148 77.2218 40.6963 77.4384 40.6851 77.5685C40.6839 77.5827 40.6828 77.5958 40.6817 77.6077C40.6683 77.7439 40.6654 77.8807 40.6626 78.0174C40.6605 78.117 40.6584 78.2165 40.6522 78.3156C40.635 78.5661 40.6277 78.8227 40.6204 79.0802C40.614 79.302 40.6077 79.5244 40.595 79.7441H40.5293C40.5089 79.442 40.5007 79.1451 40.4924 78.8462C40.4877 78.6775 40.483 78.5081 40.4761 78.3369C40.4735 78.2814 40.473 78.197 40.4724 78.097C40.4701 77.7154 40.4665 77.1068 40.3404 77.0145C40.2203 77.131 40.1998 77.8997 40.1907 78.2413C40.1897 78.2788 40.1888 78.3111 40.188 78.3369C40.1731 78.8114 40.1582 79.2757 40.1287 79.7441H40.0693C39.955 79.1929 39.8339 77.1204 39.8722 76.5333C39.8748 76.4944 39.8769 76.4574 39.879 76.4221C39.8923 76.1934 39.9019 76.0286 39.9973 75.8083C40.1082 75.5487 40.2228 75.4152 40.3185 75.3036C40.4532 75.1466 40.5507 75.0331 40.5482 74.6724C40.5474 74.5754 40.5483 74.4771 40.5491 74.3784C40.5506 74.197 40.5522 74.0145 40.5439 73.8374C40.4931 72.748 40.4444 71.718 40.3258 70.6499L40.3045 70.4677H41.3939Z" fill="#231F20"/>
<path d="M41.3939 70.4677C41.3549 71.1952 41.2808 71.9833 41.213 72.7058C41.1739 73.1221 41.1369 73.5165 41.1097 73.8651C41.1014 73.9739 41.09 74.0772 41.0791 74.176C41.0316 74.6063 40.9935 74.9516 41.2624 75.2997C41.2946 75.3416 41.3253 75.3806 41.3543 75.4174C41.604 75.7348 41.735 75.9012 41.733 76.5354C41.7309 77.4784 41.7054 78.0826 41.6247 78.9918C41.6132 79.1204 41.5936 79.2515 41.5745 79.3791C41.5555 79.5062 41.537 79.6299 41.5274 79.7441H41.451C41.4455 79.5359 41.4424 79.3268 41.4392 79.1179C41.4351 78.844 41.431 78.5703 41.4215 78.2986C41.4179 78.199 41.4154 78.0994 41.413 78C41.4096 77.8667 41.4063 77.7337 41.4002 77.6013C41.3994 77.5872 41.3988 77.5677 41.3979 77.5443C41.3924 77.3843 41.3806 77.0426 41.2752 77.0185C41.163 77.1584 41.1332 78.0911 41.1289 78.3369C41.1255 78.6074 41.1067 78.8602 41.0884 79.1048C41.0723 79.322 41.0565 79.5328 41.0525 79.7441H40.9826C40.9812 79.6782 40.9806 79.5672 40.9798 79.4264C40.9758 78.7024 40.9674 77.1936 40.8344 77.0145C40.773 77.0355 40.7666 77.044 40.7453 77.1225C40.7148 77.2218 40.6963 77.4384 40.6851 77.5685C40.6839 77.5827 40.6828 77.5958 40.6817 77.6077C40.6683 77.7439 40.6654 77.8807 40.6626 78.0174C40.6605 78.117 40.6584 78.2165 40.6522 78.3156C40.635 78.5661 40.6277 78.8227 40.6204 79.0802C40.614 79.302 40.6077 79.5244 40.595 79.7441H40.5293C40.5089 79.442 40.5007 79.1451 40.4924 78.8462C40.4877 78.6775 40.483 78.5081 40.4761 78.3369C40.4735 78.2814 40.473 78.197 40.4724 78.097C40.4701 77.7154 40.4665 77.1068 40.3404 77.0145C40.2203 77.131 40.1998 77.8997 40.1907 78.2413C40.1897 78.2788 40.1888 78.3111 40.188 78.3369C40.1731 78.8114 40.1582 79.2757 40.1287 79.7441H40.0693C39.955 79.1929 39.8339 77.1204 39.8722 76.5333C39.8748 76.4944 39.8769 76.4574 39.879 76.4221C39.8923 76.1934 39.9019 76.0286 39.9973 75.8083C40.1082 75.5487 40.2228 75.4152 40.3185 75.3036C40.4532 75.1466 40.5507 75.0331 40.5482 74.6724C40.5474 74.5754 40.5483 74.4771 40.5491 74.3784C40.5506 74.197 40.5522 74.0145 40.5439 73.8374C40.4931 72.748 40.4444 71.718 40.3258 70.6499L40.3045 70.4677H41.3939Z" stroke="black"/>
<path d="M43.9157 70.4677C43.8618 70.7814 43.806 71.4735 43.7855 71.7277C43.7843 71.7432 43.7832 71.7571 43.7822 71.7691C43.7484 72.233 43.708 72.8627 43.7335 73.3266C43.7424 73.4914 43.7736 73.6063 43.8088 73.7357C43.8651 73.9426 43.9315 74.1867 43.9328 74.7318C43.9328 74.7855 43.9317 74.8794 43.9305 74.9958C43.9257 75.4351 43.9174 76.1935 43.9477 76.3109V77.4553C43.9357 77.4872 43.9153 77.9041 43.8981 78.2545C43.8879 78.4629 43.8789 78.6477 43.8735 78.7141L43.873 78.7188C43.8412 79.0673 43.8046 79.4677 43.5808 79.7441H43.4007C43.3799 79.7206 43.3624 79.7069 43.3452 79.6933C43.3081 79.664 43.2717 79.6354 43.2036 79.5108C43.1443 79.4028 43.1084 79.3119 43.0743 79.2036C43.0001 78.9727 42.9408 78.7436 42.8963 78.4957C42.7269 77.5399 42.6207 76.1646 42.6484 75.1875C42.6626 74.6439 42.8309 74.2757 43.0155 73.8716C43.0245 73.8519 43.0336 73.8321 43.0427 73.8121C43.0626 73.7688 43.0812 73.7304 43.0984 73.695C43.187 73.5122 43.2373 73.4085 43.2355 73.1085C43.2355 72.9309 43.2304 72.757 43.2253 72.5838C43.2217 72.4613 43.2181 72.3392 43.2164 72.2163C43.2125 71.7089 43.1644 71.1983 43.1174 70.6987C43.113 70.6513 43.1085 70.604 43.1041 70.5568L43.0956 70.4677H43.9157Z" fill="#231F20"/>
<path d="M43.9157 70.4677C43.8618 70.7814 43.806 71.4735 43.7855 71.7277C43.7843 71.7432 43.7832 71.7571 43.7822 71.7691C43.7484 72.233 43.708 72.8627 43.7335 73.3266C43.7424 73.4914 43.7736 73.6063 43.8088 73.7357C43.8651 73.9426 43.9315 74.1867 43.9328 74.7318C43.9328 74.7855 43.9317 74.8794 43.9305 74.9958C43.9257 75.4351 43.9174 76.1935 43.9477 76.3109V77.4553C43.9357 77.4872 43.9153 77.9041 43.8981 78.2545C43.8879 78.4629 43.8789 78.6477 43.8735 78.7141L43.873 78.7188C43.8412 79.0673 43.8046 79.4677 43.5808 79.7441H43.4007C43.3799 79.7206 43.3624 79.7069 43.3452 79.6933C43.3081 79.664 43.2717 79.6354 43.2036 79.5108C43.1443 79.4028 43.1084 79.3119 43.0743 79.2036C43.0001 78.9727 42.9408 78.7436 42.8963 78.4957C42.7269 77.5399 42.6207 76.1646 42.6484 75.1875C42.6626 74.6439 42.8309 74.2757 43.0155 73.8716C43.0245 73.8519 43.0336 73.8321 43.0427 73.8121C43.0626 73.7688 43.0812 73.7304 43.0984 73.695C43.187 73.5122 43.2373 73.4085 43.2355 73.1085C43.2355 72.9309 43.2304 72.757 43.2253 72.5838C43.2217 72.4613 43.2181 72.3392 43.2164 72.2163C43.2125 71.7089 43.1644 71.1983 43.1174 70.6987C43.113 70.6513 43.1085 70.604 43.1041 70.5568L43.0956 70.4677H43.9157Z" stroke="black"/>
<path d="M40.4017 50.8353H33.7171H27.0349L26.056 53.3553L25.0874 55.875L26.8633 56.5893C27.5542 55.3515 28.26 54.4425 28.991 53.87C29.631 53.3635 30.341 53.0839 31.1253 53.0267C31.3032 53.0182 31.4219 53.0392 31.4772 53.0903C31.5344 53.1433 31.5639 53.2619 31.5639 53.4441V63.2629C31.5639 64.0876 31.4453 64.6343 31.2059 64.9078C30.9704 65.1749 30.4639 65.3337 29.6885 65.3823L29.2264 65.4185V67.415H33.7171H38.2102V65.4185L37.7463 65.3823C36.9727 65.3337 36.4638 65.1749 36.2286 64.9078C35.9892 64.6343 35.8727 64.0876 35.8727 63.2629V53.4441C35.8727 53.2619 35.9001 53.1433 35.9576 53.0903C36.0147 53.0392 36.1313 53.0182 36.3113 53.0267C37.0935 53.0839 37.8032 53.3635 38.4456 53.87C39.1745 54.4425 39.8824 55.343 40.5711 56.5808L42.3492 55.8665L41.3703 53.351L40.4017 50.8353Z" fill="#231F20"/>
<path d="M40.4017 50.8353H33.7171H27.0349L26.056 53.3553L25.0874 55.875L26.8633 56.5893C27.5542 55.3515 28.26 54.4425 28.991 53.87C29.631 53.3635 30.341 53.0839 31.1253 53.0267C31.3032 53.0182 31.4219 53.0392 31.4772 53.0903C31.5344 53.1433 31.5639 53.2619 31.5639 53.4441V63.2629C31.5639 64.0876 31.4453 64.6343 31.2059 64.9078C30.9704 65.1749 30.4639 65.3337 29.6885 65.3823L29.2264 65.4185V67.415H33.7171H38.2102V65.4185L37.7463 65.3823C36.9727 65.3337 36.4638 65.1749 36.2286 64.9078C35.9892 64.6343 35.8727 64.0876 35.8727 63.2629V53.4441C35.8727 53.2619 35.9001 53.1433 35.9576 53.0903C36.0147 53.0392 36.1313 53.0182 36.3113 53.0267C37.0935 53.0839 37.8032 53.3635 38.4456 53.87C39.1745 54.4425 39.8824 55.343 40.5711 56.5808L42.3492 55.8665L41.3703 53.351L40.4017 50.8353Z" stroke="black"/>
<path d="M74.9519 53.351L73.9812 50.8353H67.299H60.6165L59.6376 53.3553L58.7855 55.572L57.7025 53.3297L56.4967 50.8353H49.0832H42.6934V52.8317L43.1107 52.8676C43.8016 52.9209 44.2512 53.0839 44.4672 53.351C44.6813 53.6139 44.7872 54.1584 44.7872 54.987V63.2632C44.7872 64.0919 44.6813 64.6322 44.4672 64.895C44.2512 65.1621 43.8016 65.3255 43.1107 65.3826L42.6934 65.4185V67.415H47.0995H51.5056V65.4185L51.0286 65.3826C50.2319 65.3337 49.7126 65.1749 49.4647 64.9078C49.2189 64.6343 49.096 64.0876 49.096 63.2632V59.7938H49.5346C50.5075 59.7938 51.1706 59.9739 51.5226 60.3258C51.8807 60.6839 52.0991 61.3896 52.1879 62.4495H54.0871V58.6792V54.9256H52.1879C52.1648 56.0448 52.0099 56.7633 51.7301 57.0791C51.4463 57.397 50.8083 57.5536 49.8188 57.5536H49.096V54.9426C49.096 54.1331 49.221 53.6096 49.4732 53.3723C49.7296 53.1347 50.2656 53.0353 51.0839 53.0754C52.4106 53.139 53.5106 53.3997 54.3837 53.8575C55.4222 54.3938 56.3802 55.3198 57.2532 56.6298L58.745 55.9057L60.4449 56.5893C61.1358 55.3518 61.8415 54.4425 62.5729 53.8703C63.2129 53.3638 63.9229 53.0839 64.7069 53.0267C64.8851 53.0182 65.0016 53.0395 65.0588 53.0903C65.116 53.1433 65.1437 53.2619 65.1437 53.4444V63.2632C65.1437 64.0876 65.0269 64.6343 64.7875 64.9078C64.5523 65.1749 64.0458 65.3337 63.2701 65.3826L62.808 65.4185V67.415H67.299H71.7918V65.4185L71.3279 65.3826C70.5543 65.3337 70.0457 65.1749 69.8102 64.9078C69.5708 64.6343 69.4543 64.0876 69.4543 63.2632V53.4444C69.4543 53.2619 69.482 53.1433 69.5392 53.0903C69.5963 53.0395 69.7129 53.0182 69.8929 53.0267C70.6751 53.0839 71.3851 53.3638 72.0272 53.8703C72.7561 54.4425 73.4619 55.3433 74.1527 56.5808L75.929 55.8668L74.9519 53.351Z" fill="#231F20"/>
<path d="M74.9519 53.351L73.9812 50.8353H67.299H60.6165L59.6376 53.3553L58.7855 55.572L57.7025 53.3297L56.4967 50.8353H49.0832H42.6934V52.8317L43.1107 52.8676C43.8016 52.9209 44.2512 53.0839 44.4672 53.351C44.6813 53.6139 44.7872 54.1584 44.7872 54.987V63.2632C44.7872 64.0919 44.6813 64.6322 44.4672 64.895C44.2512 65.1621 43.8016 65.3255 43.1107 65.3826L42.6934 65.4185V67.415H47.0995H51.5056V65.4185L51.0286 65.3826C50.2319 65.3337 49.7126 65.1749 49.4647 64.9078C49.2189 64.6343 49.096 64.0876 49.096 63.2632V59.7938H49.5346C50.5075 59.7938 51.1706 59.9739 51.5226 60.3258C51.8807 60.6839 52.0991 61.3896 52.1879 62.4495H54.0871V58.6792V54.9256H52.1879C52.1648 56.0448 52.0099 56.7633 51.7301 57.0791C51.4463 57.397 50.8083 57.5536 49.8188 57.5536H49.096V54.9426C49.096 54.1331 49.221 53.6096 49.4732 53.3723C49.7296 53.1347 50.2656 53.0353 51.0839 53.0754C52.4106 53.139 53.5106 53.3997 54.3837 53.8575C55.4222 54.3938 56.3802 55.3198 57.2532 56.6298L58.745 55.9057L60.4449 56.5893C61.1358 55.3518 61.8415 54.4425 62.5729 53.8703C63.2129 53.3638 63.9229 53.0839 64.7069 53.0267C64.8851 53.0182 65.0016 53.0395 65.0588 53.0903C65.116 53.1433 65.1437 53.2619 65.1437 53.4444V63.2632C65.1437 64.0876 65.0269 64.6343 64.7875 64.9078C64.5523 65.1749 64.0458 65.3337 63.2701 65.3826L62.808 65.4185V67.415H67.299H71.7918V65.4185L71.3279 65.3826C70.5543 65.3337 70.0457 65.1749 69.8102 64.9078C69.5708 64.6343 69.4543 64.0876 69.4543 63.2632V53.4444C69.4543 53.2619 69.482 53.1433 69.5392 53.0903C69.5963 53.0395 69.7129 53.0182 69.8929 53.0267C70.6751 53.0839 71.3851 53.3638 72.0272 53.8703C72.7561 54.4425 73.4619 55.3433 74.1527 56.5808L75.929 55.8668L74.9519 53.351Z" stroke="black"/>
<path d="M70.7046 42.7703C70.4256 40.7465 70.1646 39.059 69.7637 37.5149V40.2208C69.7637 40.4389 69.4732 40.3607 68.9159 40.3607V36.1454H66.7034V39.4238H65.7135V38.252H65.4784V34.3183C65.4784 34.2103 65.4464 34.1784 65.3384 34.1784H62.9839V39.3307H62.3247V42.5626H60.9576V38.2051H60.2056V37.1751H59.5929V36.0985C59.0566 36.0985 58.7919 36.1727 58.7919 35.9568V34.3649H56.8146V36.0985H55.9199V38.1121C55.9199 38.22 55.8862 38.252 55.7782 38.252C55.2927 38.252 55.0724 38.3198 55.0724 38.1121V34.5516H54.6018V33.1465H54.3667V32.445H53.8008V32.0231H53.5654V30.1495H53.1416V32.0231C52.8195 32.0231 52.8596 31.9936 52.8596 32.445H52.2938V33.1465H52.1052V34.5516C51.7344 34.5516 51.5881 34.5027 51.5881 34.6934V41.8124H50.91C50.91 41.2061 50.9079 40.7632 50.9079 40.5938C50.9079 40.0237 50.8443 40.1679 50.6322 40.17C50.3314 40.17 50.0305 40.1743 49.7294 40.1743C49.7294 38.523 49.9837 38.8157 48.7885 38.8157V34.5048H47.3748V35.0685C47.1649 35.0855 47.0463 35.1196 46.7625 35.1153C46.1583 35.1089 46.2918 34.687 46.2918 37.0355H45.3041V38.5337H44.5497V42.3274C44.5497 42.569 43.6066 42.4759 43.3736 42.4205C43.4351 42.2976 43.4202 42.461 43.4202 42.2809V36.8C43.4202 36.6263 43.2592 36.6135 43.7021 36.6135V36.0985C43.2866 36.0985 43.4202 36.1706 43.4202 35.6769C43.4202 35.3082 43.3374 35.4034 43.2315 35.3949V34.6469H43.0429V34.1784H42.8543V33.3817H42.5258V31.648H42.1486V33.3817H41.8666V34.1784H41.6314V34.6469H41.4428V35.3949H41.3008V36.0985C40.9512 36.0985 41.0063 36.0605 40.9807 36.2768L40.9722 36.6135H41.3008V40.2208C41.3008 40.4389 41.0127 40.3607 40.4532 40.3607V36.1454H38.2405V39.4238H37.2509V38.252H37.0154V34.3183C37.0154 34.2103 36.9838 34.1784 36.8755 34.1784H34.5209V39.3307H33.862V42.5626H32.4949V38.2051H31.7426V37.1751H31.3758C30.9003 38.7713 30.5474 40.5944 30.2949 42.7959L70.7046 42.7703Z" fill="#231F20"/>
<path d="M4.66221 48.376C5.78107 24.0545 25.9161 4.61123 50.509 4.61123C75.1021 4.61123 95.2375 24.0545 96.3563 48.376H97.1865C96.067 23.597 75.5597 3.78167 50.509 3.78167C25.4586 3.78167 4.95151 23.597 3.83203 48.376H4.66221Z" fill="#231F20"/>
<path d="M4.66221 48.376C5.78107 24.0545 25.9161 4.61123 50.509 4.61123C75.1021 4.61123 95.2375 24.0545 96.3563 48.376H97.1865C96.067 23.597 75.5597 3.78167 50.509 3.78167C25.4586 3.78167 4.95151 23.597 3.83203 48.376H4.66221Z" stroke="black"/>
<path d="M92.0453 69.9541C84.7073 85.5565 68.8387 96.385 50.4863 96.385C32.1336 96.385 16.2654 85.5565 8.92737 69.9541H8.01172C15.4079 86.0274 31.6643 97.2148 50.4863 97.2148C69.3081 97.2148 85.5648 86.0274 92.961 69.9541H92.0453Z" fill="#231F20"/>
<path d="M92.0453 69.9541C84.7073 85.5565 68.8387 96.385 50.4863 96.385C32.1336 96.385 16.2654 85.5565 8.92737 69.9541H8.01172C15.4079 86.0274 31.6643 97.2148 50.4863 97.2148C69.3081 97.2148 85.5648 86.0274 92.961 69.9541H92.0453Z" stroke="black"/>
<path d="M81.8126 27.255C81.5348 27.433 81.3718 27.5963 81.3252 27.7487C81.2763 27.8993 81.3252 28.1028 81.4691 28.3614L81.5327 28.4758L81.3061 28.6221L80.7168 27.6979L80.1212 26.7698L80.3503 26.6256L80.4224 26.723C80.5833 26.9435 80.7424 27.0621 80.8948 27.0771C81.0475 27.0898 81.2638 27.0092 81.5412 26.8313L84.7287 24.7943C85.0064 24.6163 85.1716 24.4554 85.2248 24.3112C85.2757 24.1692 85.2373 23.9784 85.108 23.7454L85.053 23.6417L85.2799 23.4953L85.8077 24.3219L86.3352 25.1484L83.7604 30.3004L86.9457 28.2638C87.2253 28.0858 87.3865 27.9206 87.4352 27.77C87.4818 27.6173 87.4331 27.4159 87.2889 27.1577L87.2253 27.0409L87.4522 26.897L88.0436 27.8208L88.6368 28.7493L88.4102 28.8932L88.336 28.7958C88.1747 28.5753 88.0181 28.4566 87.8632 28.4417C87.7108 28.4271 87.4945 28.5096 87.2168 28.6878L83.0504 31.3496L82.8384 31.0211L82.6285 30.6904L85.4515 24.9278L81.8126 27.255ZM75.497 22.0881L77.6988 17.3535C77.8388 17.0505 77.9108 16.815 77.9108 16.652C77.9108 16.4868 77.843 16.317 77.7095 16.1455L77.6523 16.0712L77.8388 15.8762L78.7289 16.7283L79.6211 17.5801L79.4346 17.7751L79.3373 17.699C79.1295 17.5357 78.9622 17.4764 78.8393 17.525C78.7161 17.574 78.5807 17.7498 78.4323 18.0528L76.7178 21.643H76.7199L79.901 19.833L80.0239 19.5745C80.1659 19.2693 80.238 19.0321 80.2359 18.8666C80.2338 18.6971 80.1595 18.5256 80.0153 18.3473L79.9539 18.2712L80.1404 18.0762L81.0411 18.9365L81.9419 19.7971L81.7554 19.99L81.6577 19.9158C81.446 19.7442 81.2763 19.6827 81.1512 19.7314C81.0262 19.7801 80.8905 19.9559 80.7445 20.261L79.0574 23.7497L82.2068 22.0881C82.6011 21.8846 82.8277 21.6981 82.887 21.5287C82.9442 21.3589 82.8575 21.1344 82.6285 20.8567L82.5247 20.7253L82.7091 20.5303L83.542 21.3252L84.3749 22.1219L84.1906 22.3169L84.1099 22.2597C83.9256 22.1219 83.7498 22.0562 83.5821 22.0625C83.4127 22.0668 83.1776 22.1453 82.8743 22.2959L78.195 24.6653L77.9936 24.4725L77.7879 24.2753L79.5724 20.526L75.8955 22.4696L75.6962 22.2788L75.497 22.0881ZM70.8937 18.3157C71.4468 18.6716 72.0147 18.7437 72.5976 18.5341C73.1805 18.3263 73.704 17.8621 74.164 17.1457C74.6279 16.4272 74.8335 15.7576 74.7827 15.1388C74.734 14.5198 74.4332 14.0324 73.8798 13.6765C73.331 13.3224 72.7631 13.2525 72.1781 13.4602C71.5931 13.6701 71.0675 14.1341 70.6054 14.8547C70.1436 15.5711 69.9401 16.2385 69.9909 16.8576C70.0438 17.4764 70.3447 17.9616 70.8937 18.3157ZM70.6522 18.6929C69.8871 18.2013 69.4144 17.5314 69.2301 16.6836C69.0478 15.8361 69.2002 15.0305 69.6921 14.2655C70.1859 13.5004 70.8557 13.0237 71.7054 12.8394C72.5532 12.655 73.3584 12.8074 74.1235 13.299C74.8907 13.793 75.3634 14.4647 75.5435 15.3125C75.7257 16.1604 75.5712 16.9677 75.0772 17.7328C74.5856 18.4979 73.916 18.9706 73.0703 19.155C72.2246 19.3393 71.4173 19.1866 70.6522 18.6929ZM65.199 14.3631L66.922 10.5335C66.9941 10.3744 67.0176 10.2643 66.9941 10.1986C66.9686 10.135 66.8776 10.0671 66.7185 9.99505L66.689 9.98227C66.3392 9.8256 65.9684 9.78514 65.5762 9.85937C65.1863 9.93573 64.7877 10.1265 64.3853 10.4273L64.1459 10.2135L64.7032 9.59015L65.2584 8.96501L67.6385 10.0355L70.0186 11.1078L69.9188 11.9407L69.8214 12.7715L69.5035 12.7353C69.4609 12.2331 69.3402 11.8093 69.1367 11.4659C68.9356 11.1206 68.66 10.8681 68.308 10.7114L68.2764 10.6965C68.1173 10.6266 68.0071 10.6013 67.9436 10.6266C67.88 10.6521 67.8122 10.7431 67.7401 10.9022L66.017 14.7318C65.8814 15.0305 65.8391 15.2596 65.8856 15.412C65.9346 15.5669 66.0934 15.7153 66.3647 15.8571L66.4855 15.9207L66.3754 16.1668L65.1312 15.607L63.8873 15.0455L63.9995 14.8018L64.1267 14.8483C64.4127 14.9563 64.629 14.9797 64.7774 14.9119C64.9234 14.8462 65.0634 14.6618 65.199 14.3631ZM54.9139 11.5273C54.8567 11.841 54.8822 12.0743 54.986 12.2267C55.0918 12.3794 55.3017 12.4831 55.6132 12.5403L55.6619 12.5488C56.5733 12.7143 57.2918 12.6146 57.8215 12.2501C58.3514 11.8857 58.6948 11.2499 58.8557 10.3449C59.017 9.47364 58.9151 8.78492 58.5506 8.27629C58.1862 7.76766 57.5547 7.4306 56.6539 7.26968L56.5055 7.24199C56.2256 7.19119 56.0139 7.21674 55.8675 7.31835C55.7212 7.41782 55.6239 7.60886 55.5731 7.8863L54.9139 11.5273ZM54.0152 11.451L54.6894 7.72963C54.7487 7.40535 54.7423 7.17415 54.6723 7.03848C54.5981 6.90311 54.4308 6.8012 54.1658 6.73549L54.0472 6.70598L54.0937 6.44102L55.3355 6.66553L56.834 6.93688C58.0082 7.14891 58.86 7.57053 59.3857 8.1978C59.9135 8.8272 60.0893 9.62848 59.9135 10.6035C59.7376 11.5739 59.2987 12.2629 58.6014 12.6675C57.9042 13.0724 56.9803 13.1719 55.8316 12.9623L54.2461 12.676L53.0065 12.4515L53.053 12.1865L53.1759 12.1993C53.4473 12.231 53.6423 12.1951 53.7567 12.091C53.871 11.9894 53.958 11.7774 54.0152 11.451ZM49.1449 12.3645C49.802 12.3453 50.3106 12.0868 50.6751 11.5845C51.0398 11.0823 51.2092 10.4042 51.1837 9.55212C51.1606 8.69792 50.9549 8.03049 50.5628 7.54711C50.1707 7.06403 49.6472 6.83314 48.9925 6.84987C48.3397 6.86904 47.8311 7.12974 47.4645 7.63198C47.0997 8.13636 46.9282 8.81686 46.9516 9.67076C46.9768 10.5228 47.1846 11.1903 47.5767 11.6715C47.9689 12.1525 48.4924 12.3815 49.1449 12.3645ZM49.1577 12.8117C48.2484 12.8372 47.4812 12.5531 46.8497 11.9575C46.2203 11.36 45.8939 10.6098 45.8686 9.70057C45.8431 8.78918 46.1272 8.01771 46.7225 7.38618C47.3203 6.75679 48.0705 6.42612 48.9797 6.40269C49.8911 6.37744 50.6605 6.6634 51.2877 7.26116C51.9171 7.85679 52.2435 8.61122 52.2688 9.52262C52.2943 10.4316 52.0102 11.1988 51.4149 11.8303C50.8214 12.46 50.0691 12.7883 49.1577 12.8117ZM41.9115 13.278C42.5516 13.1296 42.9988 12.7758 43.2552 12.2118C43.5138 11.646 43.5457 10.9487 43.355 10.1179C43.1621 9.28503 42.8272 8.67054 42.3484 8.27416C41.8692 7.87778 41.3098 7.75488 40.6719 7.90333C40.034 8.04966 39.5868 8.40557 39.3282 8.9714C39.0718 9.53722 39.0377 10.2366 39.2287 11.0695C39.4213 11.9003 39.7584 12.5129 40.2375 12.9072C40.7163 13.3011 41.2757 13.424 41.9115 13.278ZM42.0134 13.7146C41.1276 13.9202 40.3178 13.7909 39.5804 13.331C38.8451 12.871 38.3767 12.1993 38.1732 11.3153C37.9675 10.4252 38.0947 9.61357 38.5525 8.87831C39.0146 8.14061 39.6841 7.67031 40.5703 7.46467C41.4583 7.26116 42.2699 7.39044 43.003 7.8504C43.7365 8.31219 44.2071 8.9863 44.4124 9.87428C44.6159 10.7601 44.4888 11.5699 44.0309 12.3052C43.5734 13.0404 42.9014 13.5089 42.0134 13.7146ZM33.7756 15.0455L32.3957 11.5231C32.277 11.2158 32.1499 11.023 32.0185 10.9445C31.8849 10.8663 31.6881 10.8702 31.4274 10.953L31.3106 10.9892L31.2132 10.7388L32.8048 10.1158L35.8143 8.93763L36.3972 9.5287L36.9822 10.1222L36.7574 10.3595C36.2594 10.065 35.7845 9.8977 35.3331 9.85724C34.8798 9.81709 34.3879 9.89983 33.8583 10.1073L33.6907 10.173C33.4279 10.277 33.2605 10.4085 33.1884 10.5715C33.1185 10.7349 33.1355 10.9466 33.2371 11.2116L33.7692 12.5701L34.2821 12.3688C34.6721 12.216 34.9093 12.0423 34.9985 11.8495C35.0894 11.6545 35.0727 11.343 34.9516 10.9128L35.2357 10.8027L35.7188 12.0381L36.2065 13.2823L35.9223 13.3945C35.7273 13.0152 35.5156 12.7758 35.2929 12.676C35.0684 12.5787 34.78 12.5975 34.4263 12.7375L33.9134 12.9367L34.6106 14.7212C34.7314 15.0284 34.8607 15.217 35.0027 15.2934C35.1424 15.3676 35.3565 15.357 35.6406 15.266L35.7721 15.2255L35.8694 15.4756L34.655 15.9505L33.4385 16.4271L33.3412 16.175L33.4513 16.122C33.6992 16.0077 33.8455 15.8762 33.8899 15.7257C33.9344 15.5796 33.8942 15.3527 33.7756 15.0455ZM25.6034 21.5688L25.4464 21.3504L25.5419 21.2722C25.7537 21.0982 25.8641 20.9373 25.8705 20.7824C25.8766 20.63 25.7856 20.418 25.5949 20.1488L23.4034 17.0651C23.2126 16.7962 23.0411 16.6392 22.8948 16.5948C22.7463 16.5525 22.5577 16.6033 22.3247 16.7453L22.2209 16.8086L22.064 16.5905L23.4542 15.6006L26.2541 13.613L26.9659 14.0875L27.6781 14.5624L27.5065 14.8334C27.0274 14.6576 26.5337 14.6047 26.025 14.6725C25.5185 14.7425 25.0564 14.9268 24.6348 15.2255L24.3233 15.4461C24.0964 15.607 23.9671 15.7768 23.9397 15.9505C23.9099 16.1242 23.9799 16.3277 24.1432 16.5586L24.9886 17.7477L25.5015 17.3811C25.8428 17.1393 26.0335 16.9127 26.0737 16.7028C26.112 16.4929 26.0208 16.1941 25.7984 15.8063L26.0484 15.6304L26.8178 16.7134L27.5914 17.8006L27.3434 17.9786C27.0615 17.6586 26.7986 17.4785 26.5592 17.4341C26.3177 17.3936 26.0421 17.4827 25.7306 17.703L25.2177 18.0699L26.2751 19.5595C26.4594 19.8181 26.6438 19.9623 26.8263 19.9943C27.0085 20.0259 27.2288 19.9517 27.4873 19.7673L27.5935 19.6931C28.1295 19.3116 28.5131 18.8857 28.7401 18.4194C28.9667 17.9512 29.0938 17.3343 29.1173 16.5735L29.4352 16.5099L29.6533 17.5165L29.8717 18.5341L26.9957 20.5789L25.6034 21.5688ZM20.3601 25.337L17.6241 22.726C17.3844 22.4969 17.1894 22.3762 17.037 22.3594C16.8821 22.3467 16.7063 22.4312 16.5049 22.6159L16.414 22.6983L16.219 22.5119L17.092 21.5965L17.9672 20.683L18.1622 20.8695L18.0838 20.9625C17.9079 21.1724 17.8316 21.3525 17.8529 21.5052C17.8742 21.658 18.0056 21.8487 18.2428 22.0774L19.3088 23.0947L21.5216 20.7803L20.4553 19.7609C20.2181 19.5322 20.0209 19.4114 19.8685 19.3965C19.7137 19.3816 19.5379 19.4665 19.3365 19.6508L19.2452 19.7336L19.0502 19.5471L19.9257 18.6335L20.7988 17.7179L20.9938 17.9044L20.9153 17.9999C20.7395 18.2098 20.6631 18.3899 20.6844 18.5423C20.7054 18.6929 20.8368 18.8836 21.0765 19.1124L23.8104 21.7258C24.0498 21.9545 24.2448 22.0753 24.3975 22.0902C24.5521 22.1051 24.7279 22.0203 24.9293 21.8359L25.0205 21.7532L25.2155 21.9375L24.3422 22.8532L23.467 23.7667L23.2741 23.582L23.3505 23.4868C23.5263 23.2769 23.6048 23.0968 23.5813 22.9441C23.5604 22.7917 23.4311 22.6031 23.1917 22.374L21.8075 21.0517L19.595 23.3682L20.9789 24.6906C21.2183 24.9196 21.4133 25.0383 21.566 25.055C21.7208 25.0678 21.8967 24.9832 22.098 24.7986L22.189 24.7161L22.384 24.9026L21.5109 25.8161L20.6354 26.7315L20.4429 26.545L20.5189 26.4498C20.695 26.242 20.7732 26.0598 20.7501 25.9071C20.7288 25.7544 20.5974 25.5658 20.3601 25.337ZM17.6792 29.0967L14.1483 26.8227C13.9998 26.7293 13.8961 26.6892 13.8282 26.702C13.7604 26.7187 13.6798 26.7993 13.5846 26.9456L13.5675 26.973C13.3597 27.2952 13.2645 27.6557 13.2816 28.0542C13.3004 28.4524 13.4276 28.8764 13.6652 29.3193L13.4191 29.5226L12.8852 28.8807L12.3489 28.2364L13.7604 26.0428L15.1762 23.847L15.9835 24.0697L16.7912 24.2899L16.7084 24.5996C16.2041 24.5655 15.7675 24.6227 15.3964 24.7733C15.0256 24.9218 14.7375 25.1569 14.5297 25.4791L14.5106 25.5086C14.4153 25.6549 14.377 25.7608 14.3898 25.8286C14.4068 25.8943 14.4874 25.9749 14.6335 26.0683L18.1644 28.3422C18.4421 28.5202 18.6602 28.5966 18.8193 28.5731C18.9802 28.55 19.1479 28.4122 19.328 28.1664L19.4107 28.056L19.6373 28.2023L18.8978 29.3489L18.1601 30.4954L17.9335 30.3494L18.0013 30.2304C18.1495 29.9637 18.2048 29.7516 18.1601 29.5947C18.1178 29.4401 17.9545 29.2746 17.6792 29.0967Z" fill="#231F20"/>
<path d="M29.8344 47.6219C29.5296 47.6219 29.2686 47.8038 29.15 48.0642H0.0612793V48.6863H29.15C29.2686 48.947 29.5296 49.1289 29.8344 49.1289C30.2506 49.1289 30.5879 48.7915 30.5879 48.3754C30.5879 47.9592 30.2506 47.6219 29.8344 47.6219Z" fill="#F2C368"/>
<path d="M29.8344 47.6219C29.5296 47.6219 29.2686 47.8038 29.15 48.0642H0.0612793V48.6863H29.15C29.2686 48.947 29.5296 49.1289 29.8344 49.1289C30.2506 49.1289 30.5879 48.7915 30.5879 48.3754C30.5879 47.9592 30.2506 47.6219 29.8344 47.6219Z" stroke="black"/>
<path d="M14.657 48.376C15.7649 29.5615 31.4202 14.5934 50.5079 14.5934C69.5955 14.5934 85.2511 29.5615 86.359 48.376H87.1904C86.0813 29.1034 70.0533 13.7638 50.5079 13.7638C30.9627 13.7638 14.9348 29.1034 13.8259 48.376H14.657Z" fill="#F2C368"/>
<path d="M14.657 48.376C15.7649 29.5615 31.4202 14.5934 50.5079 14.5934C69.5955 14.5934 85.2511 29.5615 86.359 48.376H87.1904C86.0813 29.1034 70.0533 13.7638 50.5079 13.7638C30.9627 13.7638 14.9348 29.1034 13.8259 48.376H14.657Z" stroke="black"/>
<path d="M50.5011 1.11307C23.2686 1.11307 1.11339 23.2683 1.11339 50.5008C1.11339 77.7323 23.2686 99.8866 50.5011 99.8866C77.7326 99.8866 99.8869 77.7323 99.8869 50.5008C99.8869 23.2683 77.7326 1.11307 50.5011 1.11307ZM50.5011 101C43.6838 101 37.0701 99.6645 30.8436 97.0313C24.8301 94.4879 19.4293 90.8469 14.7917 86.2096C10.1538 81.5719 6.51242 76.1714 3.96896 70.1579C1.33546 63.9317 0 57.3183 0 50.5008C0 43.6835 1.33546 37.0701 3.96896 30.8436C6.51242 24.8298 10.1538 19.4293 14.7917 14.7913C19.4293 10.1537 24.8301 6.51241 30.8436 3.96864C37.0701 1.33514 43.6838 -0.000320435 50.5011 -0.000320435C57.3183 -0.000320435 63.932 1.33514 70.1582 3.96864C76.1717 6.51241 81.5719 10.1537 86.2095 14.7913C90.8472 19.4293 94.4882 24.8298 97.0316 30.8436C99.6648 37.0698 101 43.6835 101 50.5008C101 57.3183 99.6648 63.9317 97.0316 70.1579C94.4882 76.1714 90.8472 81.5719 86.2095 86.2096C81.5719 90.8469 76.1717 94.4879 70.1582 97.0313C63.932 99.6645 57.3183 101 50.5011 101Z" fill="#F2C368"/>
<path d="M50.5011 1.11307C23.2686 1.11307 1.11339 23.2683 1.11339 50.5008C1.11339 77.7323 23.2686 99.8866 50.5011 99.8866C77.7326 99.8866 99.8869 77.7323 99.8869 50.5008C99.8869 23.2683 77.7326 1.11307 50.5011 1.11307ZM50.5011 101C43.6838 101 37.0701 99.6645 30.8436 97.0313C24.8301 94.4879 19.4293 90.8469 14.7917 86.2096C10.1538 81.5719 6.51242 76.1714 3.96896 70.1579C1.33546 63.9317 0 57.3183 0 50.5008C0 43.6835 1.33546 37.0701 3.96896 30.8436C6.51242 24.8298 10.1538 19.4293 14.7917 14.7913C19.4293 10.1537 24.8301 6.51241 30.8436 3.96864C37.0701 1.33514 43.6838 -0.000320435 50.5011 -0.000320435C57.3183 -0.000320435 63.932 1.33514 70.1582 3.96864C76.1717 6.51241 81.5719 10.1537 86.2095 14.7913C90.8472 19.4293 94.4882 24.8298 97.0316 30.8436C99.6648 37.0698 101 43.6835 101 50.5008C101 57.3183 99.6648 63.9317 97.0316 70.1579C94.4882 76.1714 90.8472 81.5719 86.2095 86.2096C81.5719 90.8469 76.1717 94.4879 70.1582 97.0313C63.932 99.6645 57.3183 101 50.5011 101Z" stroke="black"/>
<path d="M88.6401 53.8607L89.9393 57.8875L94.1693 57.879L90.7424 60.3585L92.0566 64.3789L88.6401 61.8844L85.2235 64.3789L86.5377 60.3585L83.1108 57.879L87.3408 57.8875L88.6401 53.8607Z" fill="#F2C368"/>
<path d="M88.6401 53.8607L89.9393 57.8875L94.1693 57.879L90.7424 60.3585L92.0566 64.3789L88.6401 61.8844L85.2235 64.3789L86.5377 60.3585L83.1108 57.879L87.3408 57.8875L88.6401 53.8607Z" stroke="black"/>
<path d="M12.3547 53.8607L13.6539 57.8875L17.8839 57.879L14.457 60.3585L15.7712 64.3789L12.3547 61.8844L8.93814 64.3789L10.2523 60.3585L6.82544 57.879L11.0554 57.8875L12.3547 53.8607Z" fill="#F2C368"/>
<path d="M12.3547 53.8607L13.6539 57.8875L17.8839 57.879L14.457 60.3585L15.7712 64.3789L12.3547 61.8844L8.93814 64.3789L10.2523 60.3585L6.82544 57.879L11.0554 57.8875L12.3547 53.8607Z" stroke="black"/>
<path fill-rule="evenodd" clip-rule="evenodd" d="M30.2991 42.7915C31.0474 36.2639 32.6537 33.0128 35.8432 29.3867C42.5044 21.8099 51.7997 21.2866 59.6586 25.3557C61.7567 26.4429 63.9205 28.0175 65.1498 29.3825C69.3016 33.9942 69.9203 37.0502 70.7088 42.766L30.2991 42.7915ZM52.3741 22.0855C52.0565 22.094 48.7607 22.0642 48.6357 21.9964C49.2015 20.8437 51.9397 20.8775 52.3741 22.0855ZM75.5028 42.8615L71.9484 42.7024C71.1091 36.6073 70.4545 33.3499 66.0505 28.4309C64.747 26.975 62.4518 25.2964 60.2265 24.137C58.2638 23.1155 56.0851 22.4435 53.8239 22.1153C52.866 19.6293 48.1185 19.6208 47.1204 22.1068C47.129 22.1132 47.1499 22.1196 47.1819 22.1256C42.5023 22.8104 38.039 24.9213 34.9659 28.4352C31.5835 32.3007 29.8796 35.7702 29.0847 42.7301L25.2636 42.7723C24.8481 44.4954 25.1428 44.5273 26.6666 44.6289L75.6637 44.5167C76.0345 43.5523 76.0111 43.6667 75.5028 42.8615Z" fill="#F2C368"/>
<path d="M13.5812 31.1781C10.8601 36.3669 9.20068 42.1964 8.89404 48.376H9.20555C9.51188 42.2484 11.1585 36.4682 13.8568 31.3222L13.5812 31.1781Z" fill="#F2C368"/>
<path d="M13.5812 31.1781C10.8601 36.3669 9.20068 42.1964 8.89404 48.376H9.20555C9.51188 42.2484 11.1585 36.4682 13.8568 31.3222L13.5812 31.1781Z" stroke="black"/>
<path d="M87.3325 31.708C89.9128 36.7566 91.4883 42.4005 91.787 48.376H92.0982C91.7992 42.3497 90.2115 36.6577 87.6093 31.5668L87.3325 31.708Z" fill="#F2C368"/>
<path d="M87.3325 31.708C89.9128 36.7566 91.4883 42.4005 91.787 48.376H92.0982C91.7992 42.3497 90.2115 36.6577 87.6093 31.5668L87.3325 31.708Z" stroke="black"/>
<path d="M82.6812 76.8965C84.445 74.754 85.9994 72.4332 87.3133 69.9652H86.9613C85.6739 72.3608 84.156 74.614 82.4399 76.6984L82.6812 76.8965Z" fill="#F2C368"/>
<path d="M82.6812 76.8965C84.445 74.754 85.9994 72.4332 87.3133 69.9652H86.9613C85.6739 72.3608 84.156 74.614 82.4399 76.6984L82.6812 76.8965Z" stroke="black"/>
<path d="M18.5806 76.6984C16.8646 74.614 15.3463 72.3605 14.0592 69.9652H13.7073C15.0208 72.4332 16.5753 74.754 18.3391 76.8965L18.5806 76.6984Z" fill="#F2C368"/>
<path d="M18.5806 76.6984C16.8646 74.614 15.3463 72.3605 14.0592 69.9652H13.7073C15.0208 72.4332 16.5753 74.754 18.3391 76.8965L18.5806 76.6984Z" stroke="black"/>
<path d="M29.8363 69.2117C29.5314 69.2117 29.2701 69.3936 29.1518 69.654H4.5769V70.2764H29.1518C29.2704 70.5368 29.5314 70.7188 29.8363 70.7188C30.2524 70.7188 30.5898 70.3814 30.5898 69.9652C30.5898 69.5491 30.2524 69.2117 29.8363 69.2117Z" fill="#F2C368"/>
<path d="M29.8363 69.2117C29.5314 69.2117 29.2701 69.3936 29.1518 69.654H4.5769V70.2764H29.1518C29.2704 70.5368 29.5314 70.7188 29.8363 70.7188C30.2524 70.7188 30.5898 70.3814 30.5898 69.9652C30.5898 69.5491 30.2524 69.2117 29.8363 69.2117Z" stroke="black"/>
<path d="M99.8797 48.0645H71.6482C71.5296 47.8041 71.2683 47.6222 70.9635 47.6222C70.5473 47.6222 70.21 47.9595 70.21 48.3757C70.21 48.7918 70.5473 49.1289 70.9635 49.1289C71.2683 49.1289 71.5296 48.947 71.6482 48.6866H99.8797V48.0645Z" fill="#F2C368"/>
<path d="M99.8797 48.0645H71.6482C71.5296 47.8041 71.2683 47.6222 70.9635 47.6222C70.5473 47.6222 70.21 47.9595 70.21 48.3757C70.21 48.7918 70.5473 49.1289 70.9635 49.1289C71.2683 49.1289 71.5296 48.947 71.6482 48.6866H99.8797V48.0645Z" stroke="black"/>
<path d="M96.2697 69.6543H71.6479C71.5293 69.3939 71.268 69.212 70.9632 69.212C70.547 69.212 70.21 69.5494 70.21 69.9652C70.21 70.3814 70.547 70.7188 70.9632 70.7188C71.268 70.7188 71.5293 70.5368 71.6476 70.2764H96.2697V69.6543Z" fill="#F2C368"/>
<path d="M96.2697 69.6543H71.6479C71.5293 69.3939 71.268 69.212 70.9632 69.212C70.547 69.212 70.21 69.5494 70.21 69.9652C70.21 70.3814 70.547 70.7188 70.9632 70.7188C71.268 70.7188 71.5293 70.5368 71.6476 70.2764H96.2697V69.6543Z" stroke="black"/>
</svg>
