<svg width="109" height="75" viewBox="0 0 109 75" fill="none" xmlns="http://www.w3.org/2000/svg">
<path d="M32.235 18.7619C32.3076 18.0931 32.5225 15.5532 31.5669 15.5532C31.0826 15.5532 29.6633 15.8478 28.7802 20.3543C27.8971 24.8609 27.0994 30.0548 28.1664 32.1833C29.1246 34.0968 30.6371 30.2618 30.7873 29.1843C30.8003 29.0834 30.808 28.9666 30.7562 28.8578C30.562 28.465 30.1295 27.7033 29.0055 27.5812C28.7672 27.5547 28.7906 27.3211 29.047 27.2866C29.552 27.215 30.2538 27.1991 30.9065 27.7166C30.9608 27.7591 31.1344 27.7484 31.1603 27.6104C31.2794 26.9522 31.5047 25.3014 31.5979 24.6034C31.6031 24.5636 31.5928 24.4707 31.5539 24.423C31.3286 24.1469 30.4481 23.3958 29.5131 23.3242C29.2619 23.3056 29.3215 23.0641 29.4872 23.0269C29.4872 23.0269 29.4795 23.0216 29.6297 22.9898C30 22.9102 30.9479 22.9367 31.5591 23.441C31.6653 23.5285 31.6964 23.4012 31.6964 23.4012L32.1755 19.927C32.1755 19.927 32.2195 19.7678 32.0978 19.651C31.8388 19.4015 31.0981 18.7725 30.2227 18.746C30.0337 18.7407 29.9715 18.5098 30.1994 18.4673C30.1994 18.4673 30.9298 18.178 32.0641 18.8495C32.09 18.8707 32.2195 18.8867 32.235 18.7619Z" fill="white"/>
<path d="M50.3295 40.8591L47.8354 48.0568C56.6849 46.4245 59.9377 47.948 61.7817 48.2744L59.6865 38.8606L50.3295 40.8591Z" fill="white"/>
<path d="M46.494 20.1307C47.3745 20.3696 48.1256 19.1408 48.1256 19.1408L48.7186 19.6981L48.8947 19.9343C48.7342 19.9582 48.6254 20.067 48.6746 20.359C48.7497 20.7889 49.2081 21.0729 49.6406 21.2481L49.8323 22.7343C50.2751 22.9413 51.4198 23.4005 53.0307 23.4642C53.0437 23.4642 53.0592 23.4642 53.0722 23.4642C53.5746 23.4642 53.7947 23.0767 53.8672 22.9095L53.862 22.9068V22.7556C54.2453 22.6653 54.999 22.445 55.1492 22.0947C55.3124 21.7152 54.9213 20.2953 54.7607 19.7486L55.4703 19.5044L55.5713 19.1408L54.2428 17.9757L54.4059 17.4661L53.3467 16.516C53.1913 16.2267 52.966 16.0011 52.5412 15.9825L52.0802 15.0934C52.0802 15.0934 52.8132 14.7112 52.3211 13.9177C52.0129 13.4187 51.0236 13.0684 49.6898 13.1639C48.3587 13.2595 47.6128 14.5838 47.6128 14.5838C47.6128 14.5838 46.7659 15.0536 45.9009 15.7914C45.0333 16.5345 45.0281 19.7326 46.494 20.1307Z" fill="white"/>
<path d="M79.0692 24.2606H78.6497L78.37 23.8306L75.9226 24.6189L77.2512 23.4723L76.9015 22.9521L74.247 24.9029L72.0093 24.3243L70.9605 24.6189L68.6529 26.8589L66.6691 28.7618L65.4312 29.696L59.7206 25.5531C59.7206 25.5531 59.0576 25.0754 59.1456 24.6029C59.2622 23.9846 58.0916 24.6029 58.0916 24.6029L57.8404 24.4649L54.471 23.1937C54.3389 23.4936 54.0514 23.8917 53.5749 24.0642L53.4635 24.0987C53.3444 24.1305 53.2149 24.1491 53.0725 24.1491C53.0492 24.1491 53.0284 24.1491 53.0051 24.1465C51.3865 24.0801 50.2159 23.6528 49.6617 23.4033L46.2275 27.257C45.9168 27.1561 45.1761 26.9491 45.1761 27.3047C45.1761 27.7533 42.5733 33.2869 42.0838 33.823L38.357 34.7254L34.7623 35.2721L33.9232 34.8422L32.4315 34.7572L31.191 34.2981L29.7976 34.0539L29.448 34.3299L30.1239 34.9218L31.4448 35.3411L29.7795 36.1187L26.6536 36.5646L26.9514 37.5174L28.0598 37.8837L27.5781 38.0004V38.5312L31.0045 38.8709L31.7711 38.2552L34.5552 37.4935H39.5173L40.4263 39.6672L43.0835 38.3056L42.796 37.5944C42.796 37.5944 43.8268 37.5652 44.4328 37.1352C44.7643 36.9017 46.4036 35.2827 47.5095 33.7275C48.2347 36.0789 50.1537 40.0042 50.1537 40.0042H53.9737L54.5072 39.8423L59.5859 37.8677L59.402 31.6202L65.0945 34.5263L68.798 32.496L69.0777 33.7142L70.9656 31.5246L69.7199 29.006L71.2453 26.8376L75.718 26.6943L79.4214 24.7595L79.0692 24.2606Z" fill="white"/>
<path d="M60.7536 48.2795C60.7536 48.2795 59.728 46.5862 58.9045 40.0042C58.099 33.5709 57.1745 30.1074 56.9802 29.4227C56.786 28.7353 54.3515 22.769 54.3515 22.769L53.8103 23.2892L56.0453 29.1652C55.2139 29.4731 53.8128 29.919 51.1971 30.0464L50.0058 23.3423L49.3169 23.4697L50.4901 30.0702C50.4875 30.0702 50.4849 30.0702 50.4797 30.0702C50.7258 31.8033 51.5856 41.7187 51.5856 41.7187L50.8009 47.9796C50.8009 47.9796 58.5056 48.2795 60.7536 48.2795Z" fill="#7A1600"/>
<path d="M77.7586 16.5589L76.7822 16.9013C76.7822 16.9013 76.5647 16.9996 76.6398 17.2412C76.6761 17.3633 76.8625 17.9792 76.8755 18.7172C76.8703 18.9455 76.7952 19.2668 76.7952 19.2668C76.7952 19.2668 77.0878 19.0623 77.207 18.98C77.611 18.704 78.4941 17.942 78.5977 17.119C78.7298 16.0545 77.7586 16.5589 77.7586 16.5589Z" fill="white"/>
<path d="M76.0076 16.8594C74.5029 16.8329 72.9853 15.7124 72.9853 15.7124C71.8483 16.8117 70.6052 17.4648 70.6052 17.4648C70.6052 17.4648 70.7788 18.1738 71.5194 18.8588C72.1721 18.4818 73.0293 17.587 73.309 17.1515C73.309 17.1515 73.5758 16.7161 73.9254 16.8382C74.1533 16.9179 74.7515 17.1117 74.9898 17.1834C75.2643 17.2684 75.2721 17.5817 75.2721 17.5817C75.3265 18.4207 75.3084 19.3739 75.1892 20.059C75.5544 19.974 75.9377 19.8439 75.9377 19.8439C76.9659 19.4562 76.3598 17.4781 76.1863 16.9763C76.1604 16.8993 76.0542 16.8594 76.0076 16.8594Z" fill="white"/>
<path d="M74.7594 17.5414L73.9281 17.2493C73.7856 17.1856 73.6691 17.2891 73.6276 17.3449C73.1511 17.9715 72.1799 18.9619 71.7733 19.2088C71.7733 19.2088 71.6024 19.3389 71.75 19.4558C72.7082 20.2762 74.086 20.4886 74.5937 20.5072C74.7257 20.5072 74.7957 20.3851 74.8086 20.2975C74.8915 19.7771 74.9588 18.5982 74.9096 17.7485C74.8915 17.5892 74.7594 17.5414 74.7594 17.5414Z" fill="white"/>
<path d="M70.9556 16.8788L72.538 15.6468C72.3023 15.3043 71.7559 14.0511 71.7559 14.0511C71.7559 14.0511 71.2379 13.22 70.7303 14.2422C70.3496 15.0043 70.5386 16.1938 70.6578 16.7514C70.6578 16.762 70.7329 17.0514 70.9556 16.8788Z" fill="white"/>
<path d="M35.0448 10.4182C35.5083 10.5032 36.35 10.5961 37.4429 10.4209C37.9195 10.3466 38.3312 10.2483 38.6679 10.1528C39.8308 9.80764 40.3565 9.49172 40.587 9.30057C40.732 9.18376 40.6932 9.05633 40.5715 8.96872C40.2995 8.77227 39.7582 8.42449 39.0901 8.18821C38.6161 8.03157 38.3494 7.94928 37.8988 7.95193C36.8473 7.91742 35.7078 8.38997 34.8609 10.0784C34.8168 10.166 34.7909 10.3731 35.0448 10.4182ZM36.9794 8.52802C37.1969 8.52802 37.373 8.70855 37.373 8.93155C37.373 9.15456 37.1969 9.33508 36.9794 9.33508C36.7618 9.33508 36.5857 9.15456 36.5857 8.93155C36.5831 8.70855 36.7618 8.52802 36.9794 8.52802Z" fill="white"/>
<path d="M40.3281 10.1841L40.3307 10.1867C40.0587 10.3328 40.1856 10.3646 39.8904 10.678C39.5977 10.9939 39.2637 10.8452 39.0513 10.9222C38.7042 11.047 38.6162 11.833 38.2044 11.3816C37.8755 11.0231 37.6605 11.0311 37.6605 11.0311H37.658C37.3109 11.0869 36.9794 11.1187 36.6712 11.1293C36.1274 11.1479 35.5421 11.1134 34.8635 11.0391C35.1898 11.7161 35.7985 12.9083 36.1792 13.2216C36.982 13.8801 40.442 13.0278 40.5145 12.0905C40.5741 11.3364 40.6389 10.5638 40.6881 9.99292C40.5715 10.062 40.4498 10.123 40.3281 10.1841Z" fill="white"/>
<path d="M67.6118 6.42817C67.8423 6.253 67.6092 5.97433 67.6092 5.97433C67.6092 5.97433 65.5969 5.0295 64.807 4.65794C64.6127 4.5677 64.3848 4.78799 64.3848 4.78799L64.2191 5.20732C64.7293 5.21263 65.1437 5.63727 65.1437 6.16276C65.1437 6.69091 64.7267 7.11821 64.2113 7.11821C63.9601 7.11821 63.7348 7.0147 63.5665 6.85015C63.5665 6.85015 61.997 10.0429 61.8727 10.3243C61.7484 10.6056 61.8054 10.8391 62.1576 10.5711C62.4502 10.3455 66.379 7.36503 67.6118 6.42817Z" fill="white"/>
<path d="M68.1396 8.11085C68.1111 7.54289 68.0852 7.01474 68.0852 7.01474C68.0852 7.01474 68.0308 6.821 67.7796 7.00147C67.5284 7.18194 62.3358 10.8763 62.2063 10.9745C61.9577 11.1603 62.126 11.3779 62.126 11.3779L62.6129 11.8742C63.1386 11.4947 65.7855 9.58914 66.2387 9.40336C67.2487 8.99198 67.9324 8.33113 68.1396 8.11085Z" fill="white"/>
<path d="M68.1633 8.55713C68.0933 8.59961 68.0027 8.67396 67.8887 8.80672C67.4899 9.26076 67.2879 9.71214 66.9978 9.72011C66.7078 9.72542 66.3944 9.84224 66.239 10.0414C65.9256 10.445 65.4672 10.66 65.0529 10.7556C64.6333 10.8512 63.2659 11.7646 62.8101 12.0753L63.2348 12.5107C63.2348 12.5107 63.3695 12.686 63.6466 12.5213C63.9211 12.3567 67.7877 10.0148 67.9871 9.89269C68.1866 9.77055 68.2125 9.47583 68.2125 9.47583C68.2125 9.47583 68.1891 9.05365 68.1633 8.55713Z" fill="white"/>
<path d="M56.483 3.09783C55.9236 2.76342 55.0482 1.90617 54.4085 1.20286C54.1133 0.87907 53.8258 0.536704 53.5591 0.342961C53.1343 -0.0498339 52.3237 -0.174573 51.9352 0.342961C51.7721 0.56059 50.4124 2.20077 50.0498 2.63868C49.8427 2.55376 49.6614 2.47414 49.5293 2.40779C48.6902 1.97784 47.8511 1.44172 47.7475 2.40779C47.6439 3.37385 46.6986 5.84739 46.6986 5.84739C46.0693 7.64151 47.012 7.99715 47.7475 8.2944C48.4804 8.59165 50.5782 9.93193 51.1039 9.82311C51.4406 9.75411 51.5183 9.19942 51.6633 8.58368C51.6633 8.58368 52.2149 9.01364 52.8158 8.97117C53.4166 8.92871 53.7688 8.68719 54.1754 8.15373C54.1754 8.15373 54.1754 8.15108 54.178 8.15108C54.5432 7.70786 54.9395 7.09213 55.3305 6.61706C55.9573 5.8527 57.8996 3.94446 56.483 3.09783ZM54.4681 6.61706C53.9579 7.2381 53.4399 8.09535 52.9919 8.49611C52.808 8.61554 52.4325 8.68985 51.7721 8.16701C51.1168 7.51146 50.2803 6.45516 49.8789 6.08626C49.291 5.54749 48.1567 5.40417 49.3558 3.94446C49.3558 3.94446 49.8012 3.411 50.3244 2.75015C50.5885 2.4184 51.9948 0.640208 52.2253 0.435849C52.4584 0.23149 52.8132 0.435849 52.8132 0.435849C53.0463 0.6349 53.2949 0.926845 53.5461 1.20552C54.1858 1.90618 55.0612 2.76608 55.6232 3.10049C57.0398 3.94446 55.0948 5.8527 54.4681 6.61706Z" fill="white"/>
<path d="M48.1643 53.8629L48.4233 53.7939C48.5373 53.7647 48.5502 53.7647 48.5502 53.6983V51.1921H48.4648C48.1773 51.1921 47.9597 51.2559 47.8795 51.309C47.7888 51.4444 47.7008 51.7151 47.6516 51.9249H47.5247L47.5583 50.9612C47.6542 51.001 47.8173 51.0249 47.9934 51.0249H49.871C49.9695 51.0249 50.187 51.001 50.2595 50.9665L50.2932 51.9302H50.1611C50.1171 51.7231 50.0135 51.447 49.9332 51.3143C49.7597 51.2081 49.6121 51.1921 49.3945 51.1921H49.2573V53.6983C49.2573 53.7647 49.2754 53.7647 49.379 53.7939L49.6535 53.8629V54.0275H48.1643V53.8629Z" fill="white"/>
<path d="M52.6064 53.8631L52.8292 53.8047C52.9431 53.7702 52.9561 53.7755 52.9561 53.7091V51.3437C52.9561 51.2747 52.9379 51.2747 52.8344 51.2455L52.6064 51.1871V51.0225H53.992V51.1871L53.7848 51.2455C53.6761 51.2747 53.6579 51.2747 53.6579 51.3437V52.3419H54.9813V51.3437C54.9813 51.2747 54.9632 51.2747 54.8596 51.2455L54.6421 51.1871V51.0225H56.0276V51.1871L55.8101 51.2455C55.6961 51.28 55.6832 51.2747 55.6832 51.3437V53.7091C55.6832 53.7755 55.7013 53.7755 55.8049 53.8047L56.0276 53.8631V54.0277H54.6421V53.8631L54.8544 53.8047C54.9684 53.7702 54.9813 53.7755 54.9813 53.7091V52.6047H53.6579V53.7091C53.6579 53.7755 53.676 53.7755 53.7796 53.8047L53.992 53.8631V54.0277H52.6064V53.8631Z" fill="white"/>
<path d="M58.4333 53.8627L58.6561 53.8043C58.77 53.7698 58.783 53.7751 58.783 53.7088V51.3433C58.783 51.2743 58.7648 51.2743 58.6613 51.2451L58.4333 51.1867V51.0221H60.3472C60.4793 51.0221 60.6554 50.9929 60.7254 50.969L60.8108 51.9327H60.6839C60.6321 51.715 60.5182 51.4575 60.4146 51.3407C60.311 51.2716 60.0986 51.1947 59.7723 51.1947H59.7309C59.6169 51.1947 59.5806 51.2053 59.4796 51.2239V52.3468H59.938C60.0701 52.2645 60.2022 52.0309 60.2255 51.8822H60.3187V53.0451H60.2255C60.1815 52.8459 60.0753 52.6628 59.938 52.5645H59.4796V53.8203C59.5832 53.8335 59.6014 53.8548 59.8008 53.8548H59.9096C60.0934 53.8548 60.368 53.7857 60.5 53.6955C60.5985 53.584 60.7564 53.2734 60.8082 53.0796H60.9351L60.7979 54.0247H58.4359V53.8627H58.4333Z" fill="white"/>
<path d="M15.9837 62.0886C16.0562 62.7203 16.1287 63.3493 16.1986 63.9809C16.2401 64.3472 16.3281 64.594 16.4654 64.7214C16.6027 64.8514 16.8539 64.8939 17.2268 64.8488C17.2708 64.8435 17.3174 64.8382 17.3615 64.8329C17.3848 65.0505 17.4107 65.2681 17.434 65.4884C16.0691 65.6477 14.7043 65.8149 13.3421 65.9927C13.3162 65.775 13.2877 65.5574 13.2618 65.3398C13.311 65.3345 13.3628 65.3265 13.412 65.3212C13.7927 65.2734 14.0284 65.1673 14.1242 65.0054C14.22 64.8435 14.2459 64.5834 14.2045 64.2278C14.0154 62.6539 13.8263 61.0774 13.6373 59.5036C13.5933 59.1373 13.5026 58.8932 13.3628 58.7631C13.2229 58.6357 12.9665 58.5959 12.591 58.6437C12.5392 58.649 12.4874 58.657 12.4382 58.6623C12.4123 58.4446 12.3838 58.227 12.3579 58.0094C13.3964 57.8714 14.4376 57.7413 15.4761 57.6139C15.7092 57.5847 15.9422 57.5529 16.1753 57.5237C16.8668 57.4414 17.377 57.4096 17.7007 57.4202C18.0245 57.4308 18.3508 57.5104 18.6797 57.6537C19.0086 57.7971 19.2754 58.0173 19.4851 58.3093C19.6949 58.6012 19.8166 58.925 19.8529 59.2833C19.9487 60.2361 19.4955 60.9394 18.4958 61.4065C18.7911 61.5578 19.2805 62.078 19.9591 62.9671C20.4874 63.6545 20.8526 64.0658 21.0572 64.1959C21.2644 64.3286 21.4819 64.3817 21.7098 64.3578C21.7305 64.5754 21.7512 64.7957 21.7746 65.0133C20.9821 65.0956 20.187 65.1779 19.3945 65.2655C19.1485 65.0186 18.6745 64.3737 17.9649 63.336C17.6075 62.8105 17.3589 62.4761 17.219 62.3275C17.0792 62.1815 16.9445 62.0913 16.8124 62.0621C16.6855 62.0355 16.4058 62.0435 15.9837 62.0886ZM15.9008 61.3694C16.5405 61.3004 16.9678 61.2101 17.1828 61.096C17.3977 60.9819 17.5557 60.8014 17.6593 60.5572C17.7629 60.3131 17.794 59.9946 17.7525 59.6018C17.693 59.0391 17.522 58.6649 17.2398 58.4791C16.9575 58.2934 16.5016 58.235 15.8723 58.3093C15.792 58.3199 15.6884 58.3332 15.559 58.3518C15.6729 59.3576 15.7869 60.3635 15.9008 61.3694Z" fill="white"/>
<path d="M22.8934 61.5392C22.839 60.942 22.9426 60.3449 23.2119 59.7477C23.4813 59.1506 23.8775 58.6887 24.4059 58.365C24.9316 58.0412 25.5117 57.8527 26.141 57.797C27.2728 57.6988 28.187 57.9642 28.8785 58.5879C29.57 59.2116 29.9481 60.0131 30.0206 60.9924C30.088 61.9213 29.8264 62.7441 29.2463 63.4633C28.6661 64.1826 27.8374 64.586 26.7548 64.6789C26.0141 64.7426 25.346 64.6391 24.7477 64.3604C24.1495 64.0844 23.704 63.681 23.4088 63.1502C23.1161 62.622 22.9426 62.0832 22.8934 61.5392ZM24.8487 61.3003C24.9368 62.3195 25.1336 63.044 25.434 63.4713C25.7344 63.8986 26.1411 64.0897 26.6564 64.0446C27.1925 63.9968 27.581 63.7579 27.8219 63.3227C28.0627 62.8874 28.143 62.1522 28.0627 61.1198C27.9902 60.175 27.8037 59.4797 27.5085 59.0338C27.2106 58.5879 26.7782 58.3915 26.211 58.4393C25.6749 58.4871 25.2916 58.7392 25.0663 59.1957C24.8384 59.6548 24.7658 60.3555 24.8487 61.3003Z" fill="white"/>
<path d="M38.0076 61.5529C38.0335 62.2907 38.0594 63.0285 38.0879 63.7637C36.1688 63.8619 34.2524 63.976 32.3359 64.1087C32.3229 63.9282 32.3126 63.7477 32.2996 63.5646C32.3307 63.562 32.3618 63.5593 32.3929 63.5593C32.7088 63.5381 32.9108 63.4638 32.9989 63.3337C33.0869 63.2037 33.1206 62.9913 33.1025 62.6941C33.0196 61.3857 32.9367 60.0746 32.8538 58.7661C32.8357 58.4636 32.771 58.2539 32.6622 58.1424C32.5534 58.031 32.3436 57.9859 32.0303 58.0071C31.9992 58.0098 31.9681 58.0124 31.9344 58.0124C31.9215 57.8319 31.9111 57.6488 31.8982 57.4683C33.0455 57.3887 34.1954 57.3144 35.3427 57.248C35.353 57.4285 35.3634 57.6117 35.3738 57.7921C35.3323 57.7948 35.2883 57.7974 35.2468 57.8001C34.9257 57.8187 34.7211 57.893 34.6331 58.0204C34.545 58.1478 34.5087 58.3601 34.5269 58.6573C34.5994 59.9206 34.6745 61.184 34.747 62.4499C34.7626 62.7339 34.791 62.9223 34.8273 63.0099C34.8636 63.1002 34.949 63.1745 35.0863 63.2329C35.2235 63.2913 35.454 63.3125 35.7855 63.2913C36.3398 63.2594 36.7438 63.0895 37.0028 62.7817C37.2617 62.4738 37.4301 62.0731 37.5052 61.5741C37.6709 61.5688 37.8393 61.5608 38.0076 61.5529Z" fill="white"/>
<path d="M45.547 61.256C45.5573 61.9938 45.5677 62.7316 45.578 63.4694C43.659 63.5225 41.7399 63.5915 39.8208 63.6791C39.8131 63.4986 39.8053 63.3155 39.7975 63.135C39.8286 63.1324 39.8597 63.1324 39.8907 63.1297C40.2093 63.1165 40.4113 63.0448 40.5019 62.9174C40.5926 62.79 40.6314 62.5777 40.6185 62.2804C40.5641 60.9694 40.5123 59.6583 40.4579 58.3472C40.445 58.042 40.3854 57.835 40.2792 57.7182C40.173 57.6041 39.9633 57.5536 39.6499 57.5669C39.6188 57.5696 39.5877 57.5696 39.5541 57.5722C39.5463 57.3917 39.5385 57.2086 39.5308 57.0282C40.6806 56.9751 41.8305 56.9299 42.9804 56.8901C42.9856 57.0706 42.9934 57.2537 42.9985 57.4342C42.9571 57.4369 42.9131 57.4369 42.8716 57.4395C42.5505 57.4501 42.3433 57.5191 42.2527 57.6465C42.162 57.7739 42.1206 57.9836 42.131 58.2808C42.175 59.5468 42.2216 60.8101 42.2682 62.0761C42.2786 62.3601 42.3019 62.5485 42.3355 62.6387C42.3692 62.729 42.4547 62.8059 42.5894 62.867C42.724 62.928 42.9571 62.9546 43.286 62.944C43.8402 62.9254 44.2494 62.7661 44.5136 62.4636C44.7804 62.1637 44.9565 61.7629 45.0419 61.2666C45.2103 61.2666 45.3786 61.2613 45.547 61.256Z" fill="white"/>
<path d="M47.2298 57.3169C47.2273 57.1364 47.2221 56.9532 47.2195 56.7728C48.3538 56.7489 49.4908 56.7303 50.6277 56.717C50.6303 56.8975 50.6329 57.0806 50.6329 57.2611C50.5992 57.2611 50.5655 57.2611 50.5345 57.2611C50.2159 57.2638 50.0087 57.3301 49.9129 57.4522C49.8171 57.5769 49.7731 57.7866 49.7756 58.0839C49.7938 59.3949 49.8119 60.7087 49.83 62.0198C49.8352 62.325 49.887 62.5346 49.9854 62.6541C50.0838 62.7709 50.2884 62.8292 50.5966 62.8239C50.6303 62.8239 50.6614 62.8239 50.695 62.8239C50.6976 63.0044 50.6976 63.1875 50.7002 63.368C49.5866 63.3813 48.473 63.3999 47.3593 63.4238C47.3542 63.2433 47.3516 63.0601 47.3464 62.8797C47.6831 62.8717 47.9058 62.8133 48.012 62.7045C48.1207 62.593 48.1725 62.3754 48.1648 62.049C48.1415 60.7379 48.1156 59.4268 48.0923 58.1131C48.0871 57.7946 48.0301 57.5823 47.9213 57.4708C47.8151 57.362 47.5847 57.3089 47.2298 57.3169Z" fill="white"/>
<path d="M54.126 58.5882C54.126 59.6073 54.1286 60.6264 54.1286 61.6456C54.1286 62.1366 54.214 62.4524 54.385 62.5931C54.5559 62.7337 54.7709 62.8054 55.035 62.8054C55.035 62.9859 55.035 63.169 55.035 63.3495C54.2451 63.3468 53.4526 63.3495 52.6627 63.3521C52.6627 63.1716 52.6602 62.9885 52.6602 62.808C52.8622 62.808 53.0383 62.755 53.1885 62.6515C53.3387 62.5479 53.4319 62.4285 53.4734 62.2932C53.5122 62.1578 53.5329 61.9428 53.5329 61.6535C53.5303 60.5203 53.5277 59.3897 53.5252 58.2591C53.5252 57.5823 53.217 57.2426 52.6032 57.2479C52.6032 57.0674 52.6006 56.8843 52.6006 56.7038C53.3257 56.7011 54.0509 56.6985 54.7786 56.6985C55.9544 58.0573 57.1147 59.4242 58.262 60.7936C58.2723 59.9815 58.2801 59.1667 58.2905 58.3546C58.2982 57.6301 58.0082 57.2611 57.4151 57.2558C57.4151 57.0754 57.4177 56.8922 57.4203 56.7118C58.192 56.7197 58.9638 56.7303 59.7356 56.741C59.733 56.9214 59.7304 57.1046 59.7278 57.285C59.5672 57.2824 59.4144 57.3248 59.272 57.4151C59.1296 57.5053 59.0337 57.6194 58.9794 57.7628C58.9276 57.9034 58.8991 58.1104 58.8939 58.3811C58.8706 60.085 58.8499 61.7862 58.8266 63.4901C58.6271 63.4875 58.4277 63.4848 58.2309 63.4822C56.8764 61.8393 55.5116 60.2098 54.126 58.5882Z" fill="white"/>
<path d="M65.7749 61.0194C65.7801 60.8389 65.7878 60.6558 65.793 60.4753C66.7875 60.5098 67.782 60.5496 68.7791 60.5947C68.7713 60.7752 68.7636 60.9583 68.7558 61.1388C68.5149 61.1707 68.357 61.237 68.2818 61.3352C68.2067 61.4361 68.1601 61.6457 68.1472 61.9695C68.129 62.434 68.1083 62.8984 68.0902 63.3629C67.9918 63.3523 67.9115 63.3443 67.8493 63.3416C67.5412 63.3284 67.018 63.3894 66.2799 63.5301C65.7516 63.6283 65.3087 63.6707 64.9565 63.6601C63.9983 63.6283 63.2317 63.27 62.6541 62.5773C62.0766 61.8872 61.7943 61.0937 61.815 60.194C61.8357 59.2279 62.1724 58.4052 62.8251 57.7284C63.4777 57.049 64.2806 56.7252 65.2258 56.757C65.995 56.7836 66.6632 57.0622 67.2252 57.5904C67.334 57.3781 67.4039 57.1498 67.4376 56.9056C67.6059 56.9136 67.7768 56.9189 67.9452 56.9269C67.9348 57.7019 67.9219 58.4768 67.9089 59.2545C67.738 59.2465 67.5671 59.2412 67.3935 59.2332C67.1138 58.0893 66.4975 57.4975 65.5522 57.4656C64.9902 57.4471 64.5525 57.6461 64.2469 58.0655C63.9387 58.4848 63.7729 59.1987 63.7445 60.2099C63.7237 60.9185 63.7522 61.4599 63.8273 61.8315C63.9024 62.2031 64.0604 62.495 64.2987 62.7047C64.5369 62.9143 64.8503 63.0258 65.2388 63.0391C65.5832 63.0497 65.8733 62.9834 66.1064 62.8347C66.3395 62.6861 66.4638 62.3809 66.4819 61.9217C66.4845 61.8395 66.4871 61.7572 66.4897 61.6776C66.5 61.2901 66.2618 61.0698 65.7749 61.0194Z" fill="white"/>
<path d="M77.6061 60.6264C77.5621 61.2634 77.5181 61.9004 77.4741 62.54C77.4482 62.9062 77.4896 63.1663 77.5984 63.3203C77.7071 63.4742 77.948 63.5618 78.3235 63.591C78.3805 63.5963 78.4401 63.5989 78.497 63.6043C78.4815 63.8245 78.466 64.0422 78.4504 64.2624C77.0726 64.1589 75.6948 64.0634 74.3145 63.9758C74.3274 63.7555 74.3404 63.5379 74.3533 63.3176C74.3973 63.3203 74.4439 63.3229 74.488 63.3256C74.8661 63.3495 75.1199 63.2911 75.2442 63.1504C75.3685 63.0098 75.441 62.7603 75.4643 62.402C75.5628 60.8175 75.6638 59.2357 75.7622 57.6513C75.7855 57.285 75.7415 57.0249 75.6301 56.8737C75.5187 56.7224 75.2727 56.6321 74.892 56.6083C74.8298 56.6056 74.7651 56.6003 74.7029 56.5977C74.7159 56.3774 74.7288 56.1597 74.7418 55.9395C75.7984 55.9819 76.8577 56.0297 77.9143 56.0828C78.7042 56.1412 79.3154 56.2075 79.7453 56.2845C80.1752 56.3614 80.5611 56.5127 80.9056 56.741C81.25 56.9666 81.5012 57.2505 81.6566 57.5929C81.812 57.9326 81.8742 58.2962 81.8431 58.6837C81.8017 59.2092 81.6074 59.6445 81.2656 59.9895C80.9237 60.3372 80.5119 60.5495 80.0354 60.6344C79.5589 60.7167 78.9373 60.73 78.1707 60.6716C77.9843 60.653 77.7952 60.6397 77.6061 60.6264ZM77.6553 59.9152C77.7797 59.9231 77.9065 59.9337 78.0309 59.9417C78.6343 59.9868 79.0461 59.8807 79.2688 59.6206C79.4915 59.3631 79.6184 59.0048 79.6521 58.5457C79.6832 58.1343 79.634 57.7973 79.5019 57.5319C79.3724 57.2665 79.1937 57.086 78.971 56.9904C78.7457 56.8949 78.3805 56.8285 77.8703 56.794C77.7978 57.8371 77.7253 58.8775 77.6553 59.9152Z" fill="white"/>
<path d="M83.6871 58.5641C83.7026 58.3836 83.7181 58.2032 83.7337 58.0227C84.8654 58.1262 85.9998 58.2324 87.1315 58.3491C87.1134 58.5296 87.0979 58.7101 87.0797 58.8906C87.0461 58.8879 87.0124 58.8826 86.9813 58.8799C86.6628 58.8481 86.4504 58.8879 86.3416 59.002C86.2329 59.1135 86.1655 59.3179 86.1396 59.6151C86.0179 60.9209 85.8936 62.2267 85.7719 63.5324C85.7434 63.835 85.7719 64.05 85.8599 64.18C85.9454 64.3074 86.1422 64.387 86.4504 64.4189C86.4841 64.4215 86.5152 64.4242 86.5488 64.4295C86.5307 64.61 86.5152 64.7904 86.497 64.9709C85.3886 64.8595 84.2775 64.7533 83.1665 64.6524C83.182 64.472 83.1976 64.2915 83.2131 64.111C83.5472 64.1402 83.7751 64.1084 83.8942 64.0102C84.0134 63.912 84.0885 63.7023 84.117 63.3759C84.2335 62.0701 84.3475 60.7616 84.464 59.4559C84.4925 59.14 84.4588 58.9198 84.363 58.7977C84.2646 58.6729 84.0393 58.596 83.6871 58.5641Z" fill="white"/>
<path d="M90.4154 60.6C90.3066 61.6138 90.1978 62.6277 90.0917 63.6415C90.0399 64.1298 90.0917 64.4536 90.2445 64.6129C90.3973 64.7721 90.607 64.865 90.8712 64.8968C90.8505 65.0773 90.8324 65.2578 90.8116 65.4383C90.0243 65.348 89.237 65.2604 88.4497 65.1755C88.4678 64.995 88.486 64.8146 88.5041 64.6341C88.7061 64.6553 88.8848 64.6235 89.0454 64.5386C89.2059 64.451 89.3121 64.3448 89.3665 64.2121C89.4209 64.0821 89.4623 63.8724 89.4934 63.5831C89.6125 62.4578 89.7291 61.3325 89.8482 60.2072C89.9181 59.5331 89.6488 59.1642 89.0376 59.0978C89.0557 58.9173 89.0739 58.7369 89.092 58.5564C89.8145 58.6334 90.5371 58.713 91.2597 58.7953C92.2852 60.2789 93.2953 61.7651 94.2924 63.2593C94.3882 62.4525 94.484 61.6457 94.5798 60.8389C94.6653 60.117 94.4141 59.7215 93.8262 59.6472C93.8469 59.4667 93.8676 59.2863 93.8884 59.1058C94.655 59.1987 95.4241 59.2969 96.1907 59.3951C96.1674 59.5755 96.1467 59.756 96.1234 59.9365C95.9628 59.9153 95.8074 59.9418 95.6572 60.0161C95.507 60.0878 95.3982 60.1939 95.3309 60.3266C95.2636 60.462 95.2144 60.6637 95.1807 60.9344C94.9761 62.625 94.7715 64.3156 94.5669 66.0036C94.3701 65.9797 94.1706 65.9531 93.9738 65.9293C92.8084 64.1431 91.6222 62.3676 90.4154 60.6Z" fill="white"/>
<path d="M46.6495 69.0341C44.5906 68.6838 38.432 69.0103 32.9907 70.2603C27.5365 71.4811 22.6909 72.71 22.6702 72.6436C22.6754 72.556 17.7547 73.9786 12.3161 73.8751C9.61746 73.8167 6.81008 73.1213 4.90396 71.7306C2.96935 70.3771 1.9878 68.5962 1.56307 67.731C0.483111 64.9815 0.995899 62.7123 3.02115 61.4091C3.0341 61.4304 3.07295 61.4967 3.14287 61.6002C3.29826 61.8417 3.46919 62.0673 3.65307 62.2797C4.17881 62.9113 5.02568 63.7394 6.17039 64.2834C6.25586 64.3259 6.34391 64.3657 6.43455 64.4029C6.4475 64.4082 6.46304 64.4161 6.47599 64.4215V64.4188C6.94475 64.6125 7.44718 64.7399 7.96774 64.7373C8.5375 64.7346 9.1228 64.5834 9.69257 64.1932C10.34 63.75 10.6094 63.1369 10.4462 62.4654C10.1976 61.4383 8.99072 60.5546 7.63624 60.4139C5.62394 60.2042 4.14773 60.5625 3.26977 60.8916C2.93827 60.1432 2.73627 59.27 2.69742 58.2084C2.70778 57.7731 2.74145 57.0141 2.96417 56.1436C3.17136 55.4801 3.88616 53.7523 6.00205 52.1625C8.54009 50.257 12.8392 48.6964 19.2853 48.6725C20.834 48.7123 23.9159 48.8503 27.2102 49.198C31.9056 49.5802 37.0464 50.2145 38.8049 49.896C40.3899 49.7501 41.7055 49.4528 42.6819 48.6141C42.9305 48.3992 43.1118 48.1497 43.2387 47.879V47.8843C43.2387 47.8843 43.2672 47.8232 43.3034 47.7144C43.3423 47.6083 43.376 47.4994 43.3993 47.388C43.4537 47.1703 43.5003 46.8917 43.508 46.5732C43.4925 43.468 39.0509 42.2923 39.0509 42.2923C38.2248 42.0799 37.2329 41.918 36.2539 41.9632C35.2957 42.0003 34.3504 42.2392 33.778 42.7142C33.1953 43.1787 33.0762 43.7148 33.0788 43.6989C33.0969 43.6962 32.8638 44.1686 33.0244 44.9065C33.1772 45.6655 33.8531 46.4219 34.6508 46.9686C36.2565 48.1205 38.4164 48.431 39.126 48.3222C40.3899 48.216 41.1953 47.5525 41.3921 46.5281C41.3947 46.5148 41.3973 46.5015 41.3999 46.4883C41.4025 46.475 41.4051 46.4591 41.4077 46.4458C41.4077 46.4485 41.4051 46.4511 41.4051 46.4538C41.4388 46.2547 41.4439 46.0318 41.4051 45.7849C41.172 44.3465 40.1231 44.6703 40.3355 45.2117C40.4572 45.5195 40.9804 45.6761 41.0969 46.3264C41.1124 46.4113 41.1124 46.4962 41.1021 46.5811C41.1021 46.6448 41.0865 46.7192 41.0581 46.8014C41.0529 46.8147 41.0503 46.828 41.0451 46.8386C41.0348 46.8625 41.0244 46.889 41.014 46.9129C41.0011 46.9447 40.9855 46.9766 40.9674 47.0084C40.9596 47.0217 40.9493 47.035 40.9415 47.0509C40.9234 47.0801 40.9078 47.1093 40.8897 47.1358C40.825 47.2314 40.755 47.3163 40.6799 47.3747C40.6722 47.38 40.6644 47.3853 40.6566 47.3906C40.61 47.4304 40.5608 47.4676 40.5064 47.5021C40.4961 47.5074 40.4831 47.5127 40.4702 47.5207C39.2322 48.301 37.4219 47.7542 37.1008 47.6481C36.3705 47.4437 35.5702 47.1146 34.8813 46.6183C34.1277 46.1087 33.5372 45.4081 33.4258 44.8189C33.2911 44.2164 33.4828 43.8236 33.4673 43.8342C33.4673 43.8422 33.5527 43.4308 34.0292 43.046C34.4954 42.6506 35.363 42.417 36.2695 42.3851C38.116 42.2976 40.0687 42.9982 40.6489 43.3034C40.7758 43.3698 40.8975 43.4308 41.014 43.4919C41.014 43.4919 43.6505 44.9834 43.161 47.2314C43.0393 47.664 42.8036 48.0409 42.4281 48.3089C41.532 48.9724 40.2966 49.2219 38.7557 49.3573C37.0749 49.6651 31.9574 49.0388 27.2491 48.6539C22.5511 48.1576 18.2313 48.0886 18.2313 48.1258C18.2597 48.1974 13.8467 47.8577 9.26265 49.4395C6.99137 50.2278 4.82627 51.7618 3.56502 53.5559C2.25456 55.4084 2.18723 57.322 2.15874 58.2084C2.20018 59.3523 2.44362 60.2865 2.82951 61.0668C2.82433 61.0694 2.81914 61.0721 2.81137 61.0747C2.65598 61.1437 1.36107 61.7382 0.677349 62.8874C0.628142 62.9671 0.581527 63.0493 0.537499 63.1343C-0.187654 64.5488 -0.182475 66.2793 0.573757 68.2273C1.02957 69.1668 2.10953 71.1441 4.26945 72.6569C6.40089 74.2068 9.44912 74.9367 12.2669 74.9951C17.9541 75.0933 22.8748 73.6415 22.8774 73.7344C22.8878 73.8034 27.8214 72.5587 33.1953 71.3591C38.5899 70.1249 44.588 69.8144 46.5278 70.1435C50.0526 70.6133 52.241 71.0777 54.23 73.5646C52.8677 70.6266 50.3297 69.4774 46.6495 69.0341ZM7.59998 60.7722C8.81461 60.8996 9.89198 61.6639 10.1069 62.553C10.2338 63.0732 10.0215 63.5377 9.49833 63.896C7.15194 65.4963 4.46369 62.6433 4.07003 62.2027C3.82659 61.9001 3.61163 61.5763 3.42776 61.2207C4.27204 60.9102 5.69386 60.5731 7.59998 60.7722Z" fill="white"/>
<path d="M50.8269 47.425L50.7647 47.4436C50.1872 47.4887 49.5656 47.563 48.8405 47.6692C46.4371 47.847 34.9719 50.984 34.9667 50.9203C34.9641 50.9044 32.092 51.6635 28.878 52.12C25.6614 52.6428 22.116 52.4676 20.9687 52.2341C20.7977 52.2075 20.6346 52.1784 20.474 52.1518C20.474 52.1518 17.7236 51.56 15.4186 50.3471C15.3927 50.3311 15.3591 50.3126 15.3202 50.294C14.709 49.9649 14.1315 49.5933 13.6524 49.174C13.3261 48.8369 13.0619 48.4654 12.8677 48.0832C12.5465 47.4542 12.5517 47.3507 12.2927 46.926C12.0001 46.4483 11.5701 46.4802 11.5313 46.9685C11.4691 47.7355 12.1969 48.5662 13.0049 49.2457L12.979 49.2722C12.979 49.2722 15.2192 51.5812 20.228 52.5473V52.5446C20.4455 52.5871 20.6682 52.6269 20.9065 52.6667C22.0823 52.9082 25.6925 53.0834 28.9376 52.5552C32.1852 52.0934 35.0626 51.3291 35.0651 51.345C35.0833 51.3981 43.9871 48.9749 47.7165 48.2769L47.6155 48.3061C47.6155 48.3061 50.6896 47.8125 54.3206 47.7647V47.2737C53.2225 47.2711 51.9949 47.3056 50.8269 47.425Z" fill="white"/>
<path d="M47.6101 72.551L47.7577 72.5908C44.0569 71.906 35.0779 69.4617 35.0624 69.5148C35.0598 69.5307 32.1799 68.7663 28.9348 68.3045C25.6923 67.7764 22.0795 67.9489 20.9037 68.1931C19.6839 68.3921 18.7697 68.6283 17.9203 68.9574C17.9177 68.9574 17.9125 68.9574 17.9125 68.9574C17.9125 68.9574 14.2297 70.096 14.2297 71.784C14.2297 72.2723 14.6571 72.344 14.986 71.8901C15.2786 71.4894 15.2838 71.3832 15.6541 70.786C16.053 70.1385 16.7704 69.7191 17.6069 69.3927L17.6095 69.3874C17.6095 69.3874 19.7953 68.3815 24.1229 68.4001C24.1514 68.4001 24.1799 68.4001 24.2084 68.4001C24.242 68.4001 24.2731 68.4001 24.3068 68.4001C25.7027 68.4001 27.3291 68.4903 28.8778 68.7425C32.0918 69.1989 34.964 69.958 34.9665 69.9421C34.9717 69.8784 46.4369 73.0154 48.8403 73.1932C49.5732 73.3021 50.2025 73.3764 50.7853 73.4215L50.8293 73.4348C51.9973 73.5542 53.2249 73.5887 54.3178 73.5834V73.0924C50.6817 73.042 47.6101 72.551 47.6101 72.551Z" fill="white"/>
<path d="M54.2168 73.5646C56.2058 71.0751 58.3942 70.6106 61.919 70.1435C63.8588 69.8171 69.8594 70.1249 75.2514 71.3591C80.6253 72.5587 85.559 73.8034 85.5693 73.7344C85.5719 73.6415 90.4926 75.0933 96.1799 74.9951C98.9976 74.9367 102.046 74.2068 104.177 72.6569C106.337 71.1441 107.42 69.1668 107.873 68.2273C108.629 66.2793 108.634 64.5515 107.909 63.1343C107.865 63.0493 107.819 62.9671 107.769 62.8874C107.086 61.7382 105.793 61.1437 105.638 61.0747C105.63 61.0721 105.625 61.0694 105.62 61.0668C106.006 60.2865 106.249 59.3523 106.291 58.2084C106.262 57.322 106.195 55.4084 104.884 53.5559C103.623 51.7618 101.461 50.2278 99.1867 49.4395C94.6053 47.8577 90.1922 48.2001 90.2181 48.1258C90.2181 48.0886 85.8983 48.1576 81.2003 48.6539C76.492 49.0361 71.3744 49.6625 69.6936 49.3573C68.1527 49.2219 66.9174 48.9724 66.0213 48.3089C65.6457 48.0382 65.4101 47.664 65.2883 47.2314C64.8015 44.9834 67.4353 43.4919 67.4353 43.4919C67.5519 43.4308 67.6736 43.3698 67.8005 43.3034C68.3806 42.9982 70.3359 42.2976 72.1799 42.3851C73.0889 42.4196 73.9539 42.6506 74.4201 43.046C74.8966 43.4282 74.9821 43.8422 74.9821 43.8342C74.9666 43.8263 75.1582 44.2191 75.0235 44.8189C74.9122 45.4081 74.3217 46.1087 73.568 46.6183C72.8791 47.112 72.0763 47.4437 71.3486 47.6481C71.03 47.7542 69.2197 48.301 67.9818 47.5207C67.9714 47.5154 67.9585 47.5101 67.9455 47.5021C67.8937 47.4676 67.8445 47.4304 67.7953 47.3906C67.7875 47.3853 67.7798 47.38 67.772 47.3747C67.6969 47.3137 67.6244 47.2287 67.5622 47.1358C67.5415 47.1093 67.526 47.0801 67.5078 47.0509C67.5001 47.0376 67.4897 47.0244 67.4819 47.0084C67.4638 46.9766 67.4509 46.9447 67.4353 46.9129C67.425 46.8864 67.412 46.8625 67.4042 46.8386C67.3991 46.8253 67.3939 46.8121 67.3913 46.8014C67.3628 46.7192 67.3473 46.6448 67.3473 46.5811C67.3395 46.4962 67.3369 46.4086 67.3524 46.3264C67.4716 45.6788 67.9921 45.5222 68.1139 45.2117C68.3262 44.6703 67.2799 44.3438 67.0468 45.7849C67.0054 46.0344 67.0132 46.2547 67.0468 46.4538C67.0468 46.4511 67.0442 46.4485 67.0442 46.4458C67.0468 46.4591 67.0494 46.475 67.052 46.4883C67.0546 46.5015 67.0572 46.5148 67.0598 46.5281C67.2566 47.5552 68.0646 48.2187 69.3259 48.3222C70.0355 48.431 72.1928 48.1205 73.7985 46.9686C74.5962 46.4246 75.2722 45.6655 75.425 44.9065C75.5855 44.1686 75.3524 43.6962 75.3706 43.6989C75.3732 43.7148 75.254 43.1787 74.6713 42.7142C74.099 42.2392 73.1537 42.0003 72.1954 41.9632C71.2165 41.918 70.222 42.0799 69.3984 42.2923C69.3984 42.2923 64.9594 43.468 64.9439 46.5732C64.9517 46.889 64.9983 47.1703 65.0527 47.388C65.076 47.4994 65.1096 47.6083 65.1485 47.7144C65.1873 47.8232 65.2132 47.8843 65.2132 47.8843V47.879C65.3375 48.1497 65.5188 48.3992 65.7701 48.6141C66.7464 49.4501 68.0621 49.7501 69.647 49.896C71.4055 50.2118 76.5464 49.5802 81.2417 49.198C84.536 48.8503 87.6179 48.7123 89.1666 48.6725C95.6153 48.6964 99.9144 50.257 102.45 52.1625C104.568 53.7523 105.281 55.4801 105.488 56.1436C105.71 57.0114 105.747 57.7731 105.757 58.2084C105.718 59.27 105.516 60.1432 105.185 60.8916C104.307 60.5625 102.831 60.2042 100.818 60.4139C99.4638 60.5546 98.2569 61.4383 98.0083 62.4654C97.8452 63.1369 98.1145 63.75 98.762 64.1932C99.3317 64.5834 99.917 64.7346 100.487 64.7373C101.007 64.7399 101.51 64.6125 101.979 64.4188V64.4215C101.991 64.4161 102.007 64.4082 102.02 64.4029C102.111 64.3657 102.199 64.3259 102.284 64.2834C103.426 63.7394 104.273 62.9087 104.801 62.2797C104.985 62.07 105.156 61.8444 105.312 61.6002C105.382 61.4941 105.423 61.4277 105.433 61.4091C107.459 62.7123 107.971 64.9815 106.891 67.731C106.467 68.5989 105.485 70.3771 103.551 71.7306C101.644 73.1213 98.8371 73.8167 96.1385 73.8751C90.6998 73.9786 85.7791 72.5587 85.7843 72.6436C85.7636 72.71 80.9154 71.4811 75.4638 70.2603C70.0226 69.0103 63.8665 68.6838 61.805 69.0341C58.1326 69.4774 55.5972 70.6266 54.2168 73.5646ZM105.037 61.2207C104.853 61.5737 104.638 61.9001 104.395 62.2027C104.001 62.6433 101.313 65.4963 98.9666 63.896C98.4434 63.5377 98.231 63.0732 98.358 62.553C98.5729 61.6639 99.6503 60.8996 100.865 60.7722C102.771 60.5731 104.193 60.9102 105.037 61.2207Z" fill="white"/>
<path d="M57.6378 47.425L57.7026 47.4436C58.2801 47.4887 58.9017 47.563 59.6268 47.6692C62.0302 47.847 73.4954 50.984 73.5006 50.9203C73.5031 50.9044 76.3753 51.6635 79.5893 52.12C82.8058 52.6428 86.3513 52.4676 87.4986 52.2341C87.6695 52.2075 87.8327 52.1784 87.9933 52.1518C87.9933 52.1518 90.7437 51.56 93.0486 50.3471C93.0745 50.3311 93.1082 50.3126 93.147 50.294C93.7582 49.9649 94.3358 49.5933 94.8149 49.174C95.1412 48.8369 95.4054 48.4654 95.5996 48.0832C95.9208 47.4542 95.9156 47.3507 96.1746 46.926C96.4672 46.4483 96.8971 46.4802 96.936 46.9685C96.9981 47.7355 96.2704 48.5662 95.4624 49.2457L95.4883 49.2722C95.4883 49.2722 93.2481 51.5812 88.2393 52.5473V52.5446C88.0218 52.5871 87.799 52.6269 87.5608 52.6667C86.385 52.9082 82.7748 53.0834 79.5297 52.5552C76.2846 52.0934 73.4047 51.3291 73.4021 51.345C73.384 51.3981 64.4802 48.9749 60.7508 48.2769L60.8518 48.3061C60.8518 48.3061 57.7777 47.8125 54.1467 47.7647V47.2737C55.2422 47.2711 56.4672 47.3056 57.6378 47.425Z" fill="white"/>
<path d="M60.8544 72.551L60.7068 72.5908C64.4077 71.906 73.3866 69.4617 73.4021 69.5148C73.4047 69.5307 76.2846 68.7663 79.5297 68.3045C82.7722 67.7764 86.385 67.9489 87.5608 68.1931C88.7806 68.3921 89.6948 68.6283 90.5443 68.9574C90.5494 68.9574 90.552 68.9574 90.552 68.9574C90.552 68.9574 94.2348 70.096 94.2348 71.784C94.2348 72.2723 93.8075 72.344 93.4785 71.8901C93.1859 71.4894 93.1807 71.3832 92.8104 70.786C92.4115 70.1385 91.6942 69.7191 90.8576 69.3927L90.855 69.3874C90.855 69.3874 88.6692 68.3815 84.3416 68.4001C84.3131 68.4001 84.2846 68.4001 84.2562 68.4001C84.2225 68.4001 84.1914 68.4001 84.1577 68.4001C82.7618 68.4001 81.1354 68.4903 79.5867 68.7425C76.3727 69.1989 73.498 69.958 73.498 69.9421C73.4928 69.8784 62.0276 73.0154 59.6242 73.1932C58.8913 73.3021 58.262 73.3764 57.6793 73.4215L57.6352 73.4348C56.4672 73.5542 55.2396 73.5887 54.1467 73.5834V73.0924C57.7803 73.042 60.8544 72.551 60.8544 72.551Z" fill="white"/>
<path d="M75.469 34.9624V35.2096H74.7905V37.0276H74.516V35.2096H73.8374V34.9624H75.469Z" fill="white"/>
<path d="M75.7124 34.9624H76.1035L76.681 36.7087L77.2559 34.9624H77.6444V37.0276H77.3854V35.8076C77.3854 35.7651 77.3854 35.696 77.388 35.5977C77.3906 35.4993 77.3906 35.3957 77.3906 35.284L76.8157 37.025H76.5463L75.9662 35.284V35.3478C75.9662 35.3983 75.9688 35.4754 75.9714 35.579C75.974 35.6827 75.9766 35.7598 75.9766 35.8076V37.0276H75.7176V34.9624H75.7124Z" fill="white"/>
</svg>
