<svg width="474" height="64" viewBox="0 0 474 64" fill="none" xmlns="http://www.w3.org/2000/svg">
<path fill-rule="evenodd" clip-rule="evenodd" d="M180.76 63V19.96H193.24V63H180.76ZM187 13.96C184.707 13.96 182.84 13.2933 181.4 11.96C179.96 10.6267 179.24 8.97333 179.24 6.99999C179.24 5.02666 179.96 3.37333 181.4 2.04C182.84 0.706661 184.707 0.0399933 187 0.0399933C189.293 0.0399933 191.16 0.679995 192.6 1.96C194.04 3.18666 194.76 4.78666 194.76 6.76C194.76 8.84 194.04 10.5733 192.6 11.96C191.213 13.2933 189.347 13.96 187 13.96ZM7.28001 63V30.52H0.640015V20.92H7.28001V19C7.28001 14.1467 8.72002 10.28 11.6 7.39999C14.48 4.46666 18.5867 2.99999 23.92 2.99999C25.7333 2.99999 27.4667 3.18666 29.12 3.55999C30.8267 3.93333 32.2667 4.51999 33.44 5.31999L30.16 14.36C29.4667 13.88 28.6933 13.5067 27.84 13.24C26.9867 12.9733 26.08 12.84 25.12 12.84C23.3067 12.84 21.8933 13.3733 20.88 14.44C19.92 15.4533 19.44 17 19.44 19.08V20.92H30.48V30.52H19.76V63H7.28001ZM50.92 63.64C47.3467 63.64 44.1467 62.9467 41.32 61.56C38.5467 60.1733 36.3867 58.0667 34.84 55.24C33.2933 52.36 32.52 48.7067 32.52 44.28V19.96H45V42.44C45 46.0133 45.7467 48.6533 47.24 50.36C48.7867 52.0133 50.9467 52.84 53.72 52.84C55.64 52.84 57.3467 52.44 58.84 51.64C60.3333 50.7867 61.5067 49.5067 62.36 47.8C63.2133 46.04 63.64 43.8533 63.64 41.24V19.96H76.12V63H64.28V57.957C63.1027 59.3498 61.6894 60.4975 60.04 61.4C57.2667 62.8933 54.2267 63.64 50.92 63.64ZM77.76 19.96V63H90.24V42.68C90.24 38.5733 91.28 35.56 93.36 33.64C95.4933 31.6667 98.2667 30.68 101.68 30.68C102.16 30.68 102.613 30.7067 103.04 30.76C103.467 30.76 103.947 30.7867 104.48 30.84V19.32C100.427 19.32 96.9867 20.12 94.16 21.72C92.3494 22.7107 90.856 24.0078 89.68 25.6113V19.96H77.76ZM169.36 63.64C164.293 63.64 160.347 62.36 157.52 59.8C154.693 57.1867 153.28 53.32 153.28 48.2V30.52H146.64V20.92H153.28V10.44H165.76V20.92H176.48V30.52H165.76V48.04C165.76 49.8533 166.24 51.2667 167.2 52.28C168.16 53.24 169.467 53.72 171.12 53.72C173.093 53.72 174.773 53.1867 176.16 52.12L179.52 60.92C178.24 61.8267 176.693 62.52 174.88 63C173.12 63.4267 171.28 63.64 169.36 63.64ZM134.16 57.6517V63H145.84V38.44C145.84 31.88 144.027 27.0533 140.4 23.96C136.773 20.8667 131.68 19.32 125.12 19.32C121.707 19.32 118.347 19.7733 115.04 20.68C111.733 21.5867 108.907 22.8667 106.56 24.52L111.04 33.24C112.587 32.0133 114.453 31.0533 116.64 30.36C118.88 29.6133 121.147 29.24 123.44 29.24C126.8 29.24 129.28 29.9867 130.88 31.48C132.533 32.9733 133.36 35.0533 133.36 37.72H123.44C119.067 37.72 115.52 38.28 112.8 39.4C110.08 40.4667 108.08 41.96 106.8 43.88C105.573 45.8 104.96 48.04 104.96 50.6C104.96 53.0533 105.6 55.2667 106.88 57.24C108.16 59.2133 110 60.7867 112.4 61.96C114.8 63.08 117.68 63.64 121.04 63.64C124.827 63.64 127.92 62.92 130.32 61.48C131.94 60.5078 133.22 59.2317 134.16 57.6517ZM133.36 49.4V45H124.8C121.867 45 119.84 45.48 118.72 46.44C117.653 47.4 117.12 48.6 117.12 50.04C117.12 51.64 117.733 52.92 118.96 53.88C120.24 54.7867 121.973 55.24 124.16 55.24C126.24 55.24 128.107 54.76 129.76 53.8C131.413 52.7867 132.613 51.32 133.36 49.4ZM206 60.76C209.573 62.68 213.653 63.64 218.24 63.64C222.773 63.64 226.827 62.68 230.4 60.76C233.973 58.84 236.773 56.2267 238.8 52.92C240.827 49.56 241.84 45.7467 241.84 41.48C241.84 37.1067 240.827 33.2667 238.8 29.96C236.773 26.6533 233.973 24.0667 230.4 22.2C226.827 20.28 222.773 19.32 218.24 19.32C213.653 19.32 209.573 20.28 206 22.2C202.48 24.0667 199.68 26.68 197.6 30.04C195.573 33.3467 194.56 37.16 194.56 41.48C194.56 45.7467 195.573 49.56 197.6 52.92C199.68 56.2267 202.48 58.84 206 60.76ZM223.84 51.96C222.187 52.92 220.32 53.4 218.24 53.4C216.16 53.4 214.293 52.92 212.64 51.96C210.987 51 209.653 49.64 208.64 47.88C207.68 46.0667 207.2 43.9333 207.2 41.48C207.2 38.9733 207.68 36.84 208.64 35.08C209.653 33.32 210.987 31.96 212.64 31C214.293 30.04 216.16 29.56 218.24 29.56C220.32 29.56 222.187 30.04 223.84 31C225.493 31.96 226.8 33.32 227.76 35.08C228.72 36.84 229.2 38.9733 229.2 41.48C229.2 43.9333 228.72 46.0667 227.76 47.88C226.8 49.64 225.493 51 223.84 51.96ZM269.92 19.32C273.333 19.32 276.373 20.0133 279.04 21.4C281.76 22.7333 283.893 24.8133 285.44 27.64C286.987 30.4133 287.76 33.9867 287.76 38.36V63H275.28V40.28C275.28 36.8133 274.507 34.2533 272.96 32.6C271.467 30.9467 269.333 30.12 266.56 30.12C264.587 30.12 262.8 30.5467 261.2 31.4C259.653 32.2 258.427 33.4533 257.52 35.16C256.667 36.8667 256.24 39.0533 256.24 41.72V63H243.76V19.96H255.68V25.0722C256.915 23.6963 258.381 22.5522 260.08 21.64C262.96 20.0933 266.24 19.32 269.92 19.32ZM316.52 59.8C319.347 62.36 323.293 63.64 328.36 63.64C330.28 63.64 332.12 63.4267 333.88 63C335.693 62.52 337.24 61.8267 338.52 60.92L335.16 52.12C333.773 53.1867 332.093 53.72 330.12 53.72C328.467 53.72 327.16 53.24 326.2 52.28C325.24 51.2667 324.76 49.8533 324.76 48.04V30.52H335.48V20.92H324.76V10.44H312.28V20.92H305.64V30.52H312.28V48.2C312.28 53.32 313.693 57.1867 316.52 59.8ZM362.12 63.64C357.213 63.64 352.893 62.68 349.16 60.76C345.48 58.84 342.627 56.2267 340.6 52.92C338.573 49.56 337.56 45.7467 337.56 41.48C337.56 37.16 338.547 33.3467 340.52 30.04C342.547 26.68 345.293 24.0667 348.76 22.2C352.227 20.28 356.147 19.32 360.52 19.32C364.733 19.32 368.52 20.2267 371.88 22.04C375.293 23.8 377.987 26.36 379.96 29.72C381.933 33.0267 382.92 37 382.92 41.64C382.92 42.12 382.893 42.68 382.84 43.32C382.787 43.9067 382.733 44.4667 382.68 45H350.115C350.367 46.1458 350.768 47.2124 351.32 48.2C352.387 49.96 353.853 51.32 355.72 52.28C357.64 53.1867 359.88 53.64 362.44 53.64C364.733 53.64 366.733 53.2933 368.44 52.6C370.2 51.9067 371.8 50.8667 373.24 49.48L379.88 56.68C377.907 58.92 375.427 60.6533 372.44 61.88C369.453 63.0533 366.013 63.64 362.12 63.64ZM351.16 34.12C350.575 35.1868 350.179 36.3868 349.971 37.72H371.166C370.964 36.3641 370.562 35.1374 369.96 34.04C369.053 32.3867 367.8 31.1067 366.2 30.2C364.6 29.24 362.733 28.76 360.6 28.76C358.467 28.76 356.573 29.24 354.92 30.2C353.32 31.1067 352.067 32.4133 351.16 34.12ZM396.16 60.84C399.787 62.7067 403.92 63.64 408.56 63.64C413.093 63.64 417.04 62.7067 420.4 60.84C423.76 58.92 426.24 56.2267 427.84 52.76L418.16 47.48C417.04 49.56 415.627 51.08 413.92 52.04C412.267 52.9467 410.453 53.4 408.48 53.4C406.347 53.4 404.427 52.92 402.72 51.96C401.013 51 399.653 49.64 398.64 47.88C397.68 46.12 397.2 43.9867 397.2 41.48C397.2 38.9733 397.68 36.84 398.64 35.08C399.653 33.32 401.013 31.96 402.72 31C404.427 30.04 406.347 29.56 408.48 29.56C410.453 29.56 412.267 30.04 413.92 31C415.627 31.96 417.04 33.4533 418.16 35.48L427.84 30.28C426.24 26.76 423.76 24.0667 420.4 22.2C417.04 20.28 413.093 19.32 408.56 19.32C403.92 19.32 399.787 20.28 396.16 22.2C392.533 24.0667 389.68 26.68 387.6 30.04C385.573 33.3467 384.56 37.16 384.56 41.48C384.56 45.7467 385.573 49.56 387.6 52.92C389.68 56.28 392.533 58.92 396.16 60.84ZM455.92 19.32C459.333 19.32 462.373 20.0133 465.04 21.4C467.76 22.7333 469.893 24.8133 471.44 27.64C472.987 30.4133 473.76 33.9867 473.76 38.36V63H461.28V40.28C461.28 36.8133 460.507 34.2533 458.96 32.6C457.467 30.9467 455.333 30.12 452.56 30.12C450.587 30.12 448.8 30.5467 447.2 31.4C445.653 32.2 444.427 33.4533 443.52 35.16C442.667 36.8667 442.24 39.0533 442.24 41.72V63H429.76V3.63999H442.24V24.48C443.351 23.3647 444.631 22.418 446.08 21.64C448.96 20.0933 452.24 19.32 455.92 19.32ZM291.96 61.48C293.507 62.92 295.347 63.64 297.48 63.64C299.667 63.64 301.507 62.92 303 61.48C304.493 59.9867 305.24 58.0933 305.24 55.8C305.24 53.5067 304.493 51.6667 303 50.28C301.507 48.84 299.667 48.12 297.48 48.12C295.347 48.12 293.507 48.84 291.96 50.28C290.467 51.6667 289.72 53.5067 289.72 55.8C289.72 58.0933 290.467 59.9867 291.96 61.48Z" fill="white"/>
</svg>
