<svg width="451" height="63" viewBox="0 0 451 63" fill="none" xmlns="http://www.w3.org/2000/svg">
<path fill-rule="evenodd" clip-rule="evenodd" d="M171.56 62V19.28H181.56V62H171.56ZM176.6 12.24C174.733 12.24 173.187 11.6533 171.96 10.48C170.787 9.30666 170.2 7.89333 170.2 6.24C170.2 4.53333 170.787 3.12 171.96 2C173.187 0.826664 174.733 0.239999 176.6 0.239999C178.467 0.239999 179.987 0.799998 181.16 1.92C182.387 2.98667 183 4.34666 183 6C183 7.76 182.413 9.25333 181.24 10.48C180.067 11.6533 178.52 12.24 176.6 12.24ZM7.92 62V27.6H0.88V19.6H7.92V16.88C7.92 12.4 9.22667 8.82667 11.84 6.16C14.5067 3.44 18.2933 2.08 23.2 2.08C24.96 2.08 26.6133 2.26666 28.16 2.64C29.76 3.01333 31.0933 3.6 32.16 4.4L29.44 11.92C28.6933 11.3333 27.84 10.9067 26.88 10.64C25.92 10.32 24.9333 10.16 23.92 10.16C21.84 10.16 20.2667 10.7467 19.2 11.92C18.1333 13.04 17.6 14.7467 17.6 17.04V19.6H29.36V27.6H17.92V62H7.92ZM49.64 62.56C46.0133 62.56 42.8133 61.8933 40.04 60.56C37.2667 59.1733 35.1067 57.0933 33.56 54.32C32.0133 51.4933 31.24 47.9467 31.24 43.68V19.28H41.24V42.32C41.24 46.16 42.0933 49.04 43.8 50.96C45.56 52.8267 48.04 53.76 51.24 53.76C53.5867 53.76 55.6133 53.28 57.32 52.32C59.08 51.36 60.44 49.92 61.4 48C62.4133 46.08 62.92 43.7067 62.92 40.88V19.28H72.92V62H63.4V56.5821C62.1468 58.1365 60.6002 59.4091 58.76 60.4C55.9867 61.84 52.9467 62.56 49.64 62.56ZM74.56 19.28V62H84.56V41.28C84.56 36.9067 85.68 33.6267 87.92 31.44C90.16 29.2 93.1733 28.08 96.96 28.08C97.3333 28.08 97.7067 28.1067 98.08 28.16C98.4533 28.16 98.8533 28.2133 99.28 28.32V18.8C95.1733 18.8 91.7333 19.5467 88.96 21.04C86.9338 22.1524 85.3071 23.6496 84.08 25.5315V19.28H74.56ZM160.64 62.56C155.947 62.56 152.32 61.36 149.76 58.96C147.2 56.5067 145.92 52.9067 145.92 48.16V27.6H138.88V19.6H145.92V9.84H155.92V19.6H167.36V27.6H155.92V47.92C155.92 49.9467 156.427 51.52 157.44 52.64C158.507 53.76 159.973 54.32 161.84 54.32C164.08 54.32 165.947 53.7333 167.44 52.56L170.24 59.68C169.067 60.64 167.627 61.36 165.92 61.84C164.213 62.32 162.453 62.56 160.64 62.56ZM128.88 56.8161V62H138.32V36.96C138.32 30.7733 136.613 26.2133 133.2 23.28C129.84 20.2933 125.067 18.8 118.88 18.8C115.467 18.8 112.16 19.2533 108.96 20.16C105.813 21.0133 103.093 22.32 100.8 24.08L104.72 31.36C106.32 30.0267 108.267 28.9867 110.56 28.24C112.907 27.4933 115.28 27.12 117.68 27.12C121.253 27.12 123.92 27.9467 125.68 29.6C127.44 31.2 128.32 33.4667 128.32 36.4V37.04H117.28C112.96 37.04 109.493 37.6 106.88 38.72C104.267 39.84 102.373 41.36 101.2 43.28C100.08 45.2 99.52 47.36 99.52 49.76C99.52 52.2133 100.16 54.4267 101.44 56.4C102.773 58.32 104.64 59.84 107.04 60.96C109.44 62.0267 112.24 62.56 115.44 62.56C119.227 62.56 122.347 61.8667 124.8 60.48C126.527 59.5246 127.887 58.3033 128.88 56.8161ZM128.32 48.64V43.68H118C114.587 43.68 112.293 44.24 111.12 45.36C109.947 46.4267 109.36 47.76 109.36 49.36C109.36 51.1733 110.08 52.6133 111.52 53.68C112.96 54.7467 114.96 55.28 117.52 55.28C119.973 55.28 122.16 54.72 124.08 53.6C126.053 52.48 127.467 50.8267 128.32 48.64ZM194.08 59.76C197.493 61.6267 201.387 62.56 205.76 62.56C210.187 62.56 214.107 61.6267 217.52 59.76C220.987 57.84 223.68 55.2267 225.6 51.92C227.573 48.6133 228.56 44.8533 228.56 40.64C228.56 36.32 227.573 32.5333 225.6 29.28C223.68 26.0267 220.987 23.4667 217.52 21.6C214.107 19.7333 210.187 18.8 205.76 18.8C201.387 18.8 197.493 19.7333 194.08 21.6C190.667 23.4667 187.973 26.0533 186 29.36C184.027 32.6133 183.04 36.3733 183.04 40.64C183.04 44.8533 184.027 48.6133 186 51.92C187.973 55.2267 190.667 57.84 194.08 59.76ZM212.32 52.4C210.4 53.4667 208.213 54 205.76 54C203.36 54 201.2 53.4667 199.28 52.4C197.413 51.3333 195.92 49.7867 194.8 47.76C193.68 45.7333 193.12 43.36 193.12 40.64C193.12 37.8667 193.68 35.4933 194.8 33.52C195.92 31.4933 197.413 29.9467 199.28 28.88C201.2 27.8133 203.387 27.28 205.84 27.28C208.24 27.28 210.4 27.8133 212.32 28.88C214.24 29.9467 215.733 31.4933 216.8 33.52C217.92 35.4933 218.48 37.8667 218.48 40.64C218.48 43.36 217.92 45.7333 216.8 47.76C215.733 49.7867 214.24 51.3333 212.32 52.4ZM254.8 18.8C258.213 18.8 261.253 19.4667 263.92 20.8C266.64 22.1333 268.773 24.1867 270.32 26.96C271.867 29.68 272.64 33.2 272.64 37.52V62H262.64V38.8C262.64 35.0133 261.733 32.1867 259.92 30.32C258.16 28.4533 255.68 27.52 252.48 27.52C250.133 27.52 248.053 28 246.24 28.96C244.427 29.92 243.013 31.36 242 33.28C241.04 35.1467 240.56 37.52 240.56 40.4V62H230.56V19.28H240.08V24.8156C241.378 23.2673 242.978 22.0088 244.88 21.04C247.76 19.5467 251.067 18.8 254.8 18.8ZM299.76 58.96C302.32 61.36 305.947 62.56 310.64 62.56C312.453 62.56 314.213 62.32 315.92 61.84C317.627 61.36 319.067 60.64 320.24 59.68L317.44 52.56C315.947 53.7333 314.08 54.32 311.84 54.32C309.973 54.32 308.507 53.76 307.44 52.64C306.427 51.52 305.92 49.9467 305.92 47.92V27.6H317.36V19.6H305.92V9.84H295.92V19.6H288.88V27.6H295.92V48.16C295.92 52.9067 297.2 56.5067 299.76 58.96ZM342.64 62.56C337.893 62.56 333.733 61.6267 330.16 59.76C326.64 57.84 323.893 55.2267 321.92 51.92C320 48.6133 319.04 44.8533 319.04 40.64C319.04 36.3733 319.973 32.6133 321.84 29.36C323.76 26.0533 326.373 23.4667 329.68 21.6C333.04 19.7333 336.853 18.8 341.12 18.8C345.28 18.8 348.987 19.7067 352.24 21.52C355.493 23.3333 358.053 25.8933 359.92 29.2C361.787 32.5067 362.72 36.4 362.72 40.88C362.72 41.3067 362.693 41.7867 362.64 42.32C362.64 42.8533 362.613 43.36 362.56 43.84H329.041C329.314 45.3165 329.821 46.6765 330.56 47.92C331.733 49.8933 333.387 51.4133 335.52 52.48C337.653 53.5467 340.107 54.08 342.88 54.08C345.28 54.08 347.44 53.7067 349.36 52.96C351.28 52.2133 352.987 51.04 354.48 49.44L359.84 55.6C357.92 57.84 355.493 59.5733 352.56 60.8C349.68 61.9733 346.373 62.56 342.64 62.56ZM330.32 32.88C329.626 34.1576 329.17 35.5976 328.951 37.2H353.263C353.069 35.5867 352.594 34.12 351.84 32.8C350.773 30.9333 349.307 29.4667 347.44 28.4C345.627 27.3333 343.52 26.8 341.12 26.8C338.667 26.8 336.507 27.3333 334.64 28.4C332.827 29.4667 331.387 30.96 330.32 32.88ZM376.16 59.76C379.68 61.6267 383.68 62.56 388.16 62.56C392.32 62.56 395.973 61.7067 399.12 60C402.32 58.24 404.747 55.76 406.4 52.56L398.72 48.08C397.44 50.1067 395.867 51.6 394 52.56C392.187 53.52 390.213 54 388.08 54C385.627 54 383.413 53.4667 381.44 52.4C379.467 51.3333 377.92 49.8133 376.8 47.84C375.68 45.8133 375.12 43.4133 375.12 40.64C375.12 37.8667 375.68 35.4933 376.8 33.52C377.92 31.4933 379.467 29.9467 381.44 28.88C383.413 27.8133 385.627 27.28 388.08 27.28C390.213 27.28 392.187 27.76 394 28.72C395.867 29.68 397.44 31.1733 398.72 33.2L406.4 28.72C404.747 25.4667 402.32 23.0133 399.12 21.36C395.973 19.6533 392.32 18.8 388.16 18.8C383.68 18.8 379.68 19.7333 376.16 21.6C372.693 23.4667 369.973 26.0533 368 29.36C366.027 32.6133 365.04 36.3733 365.04 40.64C365.04 44.8533 366.027 48.6133 368 51.92C369.973 55.2267 372.693 57.84 376.16 59.76ZM432.8 18.8C436.213 18.8 439.253 19.4667 441.92 20.8C444.64 22.1333 446.773 24.1867 448.32 26.96C449.867 29.68 450.64 33.2 450.64 37.52V62H440.64V38.8C440.64 35.0133 439.733 32.1867 437.92 30.32C436.16 28.4533 433.68 27.52 430.48 27.52C428.133 27.52 426.053 28 424.24 28.96C422.427 29.92 421.013 31.36 420 33.28C419.04 35.1467 418.56 37.52 418.56 40.4V62H408.56V2.64H418.56V24.2712C419.766 22.9697 421.206 21.8927 422.88 21.04C425.76 19.5467 429.067 18.8 432.8 18.8ZM276.12 60.72C277.4 61.9467 278.947 62.56 280.76 62.56C282.573 62.56 284.12 61.9467 285.4 60.72C286.68 59.44 287.32 57.84 287.32 55.92C287.32 53.8933 286.68 52.2933 285.4 51.12C284.12 49.8933 282.573 49.28 280.76 49.28C278.947 49.28 277.4 49.8933 276.12 51.12C274.84 52.2933 274.2 53.8933 274.2 55.92C274.2 57.84 274.84 59.44 276.12 60.72Z" fill="white"/>
</svg>
