<svg width="60" height="60" viewBox="0 0 60 60" fill="none" xmlns="http://www.w3.org/2000/svg">
<path d="M20.2964 30.0516C20.2964 26.7155 17.5818 24 14.2457 24C10.9095 24 8.19586 26.7155 8.19586 30.0516C8.19586 33.3878 10.9095 36.1014 14.2457 36.1014C17.5818 36.1014 20.2964 33.3878 20.2964 30.0516ZM14.2457 27.75C15.5146 27.75 16.5464 28.7827 16.5464 30.0516C16.5464 31.3206 15.5146 32.3514 14.2457 32.3514C12.9777 32.3514 11.9459 31.3206 11.9459 30.0516C11.9459 28.7827 12.9777 27.75 14.2457 27.75ZM5.875 51.0886C6.91046 51.0886 7.75 50.25 7.75 49.2136C7.75 48.7638 7.80081 48.3222 7.89053 47.8911C8.14482 46.6695 8.74587 45.5428 9.65338 44.636C10.882 43.4073 12.5153 42.7317 14.253 42.7317C14.6955 42.7317 15.1321 42.7775 15.5521 42.8642C15.981 42.9528 16.3927 43.0842 16.7744 43.259C17.7109 43.6783 18.826 43.2737 19.2582 42.3307C19.6885 41.3895 19.2728 40.2762 18.3307 39.8459C17.0911 39.2802 15.6812 38.9817 14.253 38.9817C11.5137 38.9817 8.93835 40.0474 7.00201 41.9846C5.06567 43.92 4 46.4872 4 49.2136C4 50.25 4.83954 51.0886 5.875 51.0886ZM40.2036 30.0516C40.2036 33.3878 42.9182 36.1014 46.2543 36.1014C49.5905 36.1014 52.3041 33.3878 52.3041 30.0516C52.3041 26.7155 49.5905 24 46.2543 24C42.9182 24 40.2036 26.7155 40.2036 30.0516ZM46.2543 32.3514C44.9854 32.3514 43.9536 31.3206 43.9536 30.0516C43.9536 28.7827 44.9854 27.75 46.2543 27.75C47.5223 27.75 48.5541 28.7827 48.5541 30.0516C48.5541 31.3206 47.5223 32.3514 46.2543 32.3514ZM46.247 38.9817C44.8188 38.9817 43.4089 39.2802 42.1693 39.8459C41.2272 40.2762 40.8115 41.3895 41.2418 42.3307C41.6721 43.2737 42.7872 43.6802 43.7256 43.259C44.1073 43.0842 44.519 42.9528 44.9479 42.8642C45.3679 42.7775 45.8045 42.7317 46.247 42.7317C47.9847 42.7317 49.618 43.4073 50.8466 44.636C51.7541 45.5428 52.3552 46.6695 52.6095 47.8911C52.6992 48.3222 52.75 48.7638 52.75 49.2136C52.75 50.25 53.5895 51.0886 54.625 51.0886C55.6605 51.0886 56.5 50.25 56.5 49.2136C56.5 46.4872 55.4343 43.92 53.498 41.9846C51.5616 40.0474 48.9863 38.9817 46.247 38.9817ZM37.3728 32.399C37.3728 28.4714 34.1776 25.2762 30.25 25.2762C26.3224 25.2762 23.1272 28.4714 23.1272 32.399C23.1272 36.3267 26.3224 39.5219 30.25 39.5219C34.1776 39.5219 37.3728 36.3267 37.3728 32.399ZM30.25 29.0262C32.1094 29.0262 33.6228 30.5387 33.6228 32.399C33.6228 34.2594 32.1094 35.7719 30.25 35.7719C28.3906 35.7719 26.8772 34.2594 26.8772 32.399C26.8772 30.5387 28.3906 29.0262 30.25 29.0262ZM19.7306 57.8049C20.7657 57.8049 21.6049 56.9648 21.6054 55.929C21.6054 51.1628 25.4838 47.2837 30.25 47.2837C35.0162 47.2837 38.8944 51.1619 38.8944 55.9281C38.8949 56.9639 39.7343 57.8031 40.7694 57.8031C41.8049 57.8031 42.6444 56.9645 42.6444 55.9281C42.6444 49.0946 37.0844 43.5337 30.25 43.5337C23.4156 43.5337 17.8556 49.0946 17.8556 55.9299C17.8556 56.9663 18.6951 57.8049 19.7306 57.8049Z" fill="white"/>
<path d="M29.8097 5.8215C29.8695 5.63723 30.1302 5.63723 30.1901 5.8215L31.743 10.6008C32.0108 11.4249 32.7787 11.9828 33.6451 11.9828H38.6704C38.8642 11.9828 38.9447 12.2307 38.788 12.3446L34.7224 15.2984C34.0214 15.8077 33.7281 16.7104 33.9959 17.5344L35.5488 22.3138C35.6086 22.4981 35.3977 22.6513 35.241 22.5374L31.1755 19.5836C30.4745 19.0743 29.5253 19.0743 28.8243 19.5836L24.7587 22.5374C24.602 22.6513 24.3911 22.4981 24.451 22.3138L26.0039 17.5344C26.2717 16.7104 25.9783 15.8077 25.2774 15.2984L21.2118 12.3446C21.0551 12.2307 21.1357 11.9828 21.3294 11.9828H26.3547C27.2211 11.9828 27.989 11.4249 28.2568 10.6008L29.8097 5.8215Z" stroke="white" stroke-width="2"/>
</svg>
