<svg width="38" height="38" viewBox="0 0 38 38" fill="none" xmlns="http://www.w3.org/2000/svg">

<path d="M12.9048 4H7V5.47619H12.9048C16.5679 5.47619 19.5476 8.45662 19.5476 12.119V17.2857C19.5476 17.4533 19.6045 17.6156 19.7093 17.747L22.0003 20.6108L20.7898 21.0138C20.6429 21.0629 20.5152 21.157 20.4247 21.2827C20.3343 21.4084 20.2856 21.5594 20.2857 21.7143V24.0614L17.1887 24.6807C17.0491 24.7088 16.9206 24.7767 16.8188 24.8761C16.7169 24.9756 16.6459 25.1024 16.6145 25.2413C16.5831 25.3801 16.5925 25.5251 16.6416 25.6588C16.6907 25.7924 16.7774 25.909 16.8912 25.9945L19.5203 27.9667C19.4367 28.4868 19.1708 28.9602 18.7701 29.3022C18.3694 29.6442 17.8601 29.8325 17.3333 29.8333H10.6905C10.4947 29.8333 10.307 29.9111 10.1686 30.0495C10.0301 30.1879 9.95238 30.3757 9.95238 30.5714V35H11.4286V31.3095H17.3333C19.3683 31.3095 21.0238 29.654 21.0238 27.619C21.0238 27.5045 20.9971 27.3915 20.9459 27.289C20.8946 27.1865 20.8202 27.0973 20.7286 27.0286L19.0974 25.8048L21.1692 25.39C21.3363 25.3564 21.4867 25.266 21.5947 25.1342C21.7028 25.0023 21.7618 24.8371 21.7619 24.6667V22.2465L23.4713 21.6766C23.5839 21.6387 23.6857 21.5742 23.7681 21.4886C23.8505 21.403 23.911 21.2988 23.9447 21.1849C23.9784 21.071 23.9841 20.9506 23.9614 20.834C23.9388 20.7174 23.8884 20.6079 23.8145 20.5149L21.0238 17.0266V12.119C21.0238 7.6425 17.3813 4 12.9048 4Z" fill="white"/>
<path d="M26.6099 22.4512C27.8362 23.4873 28.5078 24.7932 28.5078 26.1416C28.5078 27.4901 27.8362 28.796 26.6099 29.8321" stroke="white" stroke-width="1.5" stroke-linecap="round" stroke-linejoin="round"/>
<path d="M28.5085 20.2373C32.3044 23.6116 32.3044 28.6725 28.5085 32.0468" stroke="white" stroke-width="1.5" stroke-linecap="round" stroke-linejoin="round"/>
<path d="M24.7131 23.9277C25.3305 24.5746 25.6621 25.3485 25.6621 26.142C25.6621 26.9355 25.3305 27.7094 24.7131 28.3563" stroke="white" stroke-width="1.5" stroke-linecap="round" stroke-linejoin="round"/>

</svg>
