
<svg width="38" height="38" viewBox="0 0 38 38" fill="#EF3239" xmlns="http://www.w3.org/2000/svg">
<path d="M21.1725 2H16.6424C16.4678 2 16.3004 2.06933 16.177 2.19274C16.0536 2.31615 15.9842 2.48353 15.9842 2.65806V3.34124C15.3536 3.46529 14.4587 3.69528 12.1442 3.69528C10.136 3.69528 8.5564 5.25095 8.3027 7.47839C8.10932 9.18069 7.53488 8.50628 5.56928 11.4674C4.40297 13.2259 5.09576 14.7346 7.03591 15.6C6.91416 16.1147 6.94762 15.6987 6.94762 24.1091C6.94762 25.6677 8.03758 26.9531 9.4282 27.1033C10.4599 30.5679 11.6658 33.2925 14.8411 34.892L17.1348 35.7258L18.9413 36H20.2061L21.5318 35.671L22.7289 35.2871L22.0448 35.5065L20.8642 35.885L22.7289 35.2871L24.2097 34.3L25.8002 32.8742C25.8002 32.8742 27.3485 30.5622 28.3833 27.103C29.7753 26.9552 30.867 25.6689 30.867 24.1088C30.867 15.6718 30.9892 15.7747 30.497 14.8471C32.2552 13.0587 32.125 12.6169 31.5441 11.4805C31.068 10.5483 31.2423 10.5638 31.3103 9.09448C31.3415 8.41624 31.4241 6.61435 29.705 5.97822C28.6094 5.57241 27.541 6.03668 26.7982 5.70951C24.8548 4.85019 23.1382 3.81516 21.8301 3.23936V2.65806C21.8301 2.48361 21.7609 2.3163 21.6375 2.1929C21.5142 2.0695 21.3469 2.00012 21.1725 2ZM20.5143 3.31613V14.2461C19.4455 14.3485 18.3693 14.3485 17.3005 14.2461V3.31613H20.5143ZM6.66605 12.1946C8.51779 9.40487 9.35559 9.871 9.61061 7.62689C9.7588 6.3248 10.5999 5.01086 12.1444 5.01086C13.2144 5.01086 14.6148 4.97303 15.9845 4.68392V14.0942C15.9242 14.087 9.76088 13.346 9.70023 13.346C9.29169 13.3499 8.88958 13.4482 8.5253 13.6331C8.16102 13.8181 7.84443 14.0848 7.60026 14.4123C6.17958 13.7946 6.06441 13.1018 6.66605 12.1946ZM26.0423 29.7522C23.397 36.1926 14.3502 36.0696 11.7744 29.7455C11.3908 28.856 11.0579 27.9453 10.7774 27.0181C20.4502 26.0976 17.4244 26.1028 27.0367 27.0181C26.6171 28.3726 26.242 29.2625 26.0423 29.7522ZM29.5512 24.1089C29.5512 25.0302 28.9237 25.7821 28.1463 25.8013C16.9801 24.6089 20.8951 24.6302 9.66973 25.8013C8.89172 25.782 8.26376 25.0302 8.26376 24.1089V16.3547C8.26376 15.6316 8.65479 14.9997 9.21804 14.7611C9.6331 14.5811 9.29317 14.6337 16.7316 15.5091C19.503 15.8404 20.6539 15.5605 28.1501 14.6624C28.9517 14.6843 29.5504 15.4698 29.5504 16.3547L29.5512 24.1089ZM28.0987 7.1329C28.5219 7.11163 28.9213 7.09134 29.2481 7.21231C30.0881 7.52314 30.0527 8.45781 29.958 9.55019C29.8025 11.3391 30.0722 11.3621 30.5698 12.4847C30.6392 12.6404 30.7427 12.7069 29.6354 13.8468C29.0891 13.4504 28.4196 13.3051 28.0375 13.351L21.8304 14.0948V4.69412C26.4526 6.96685 26.2036 7.22942 28.0987 7.1329Z" fill="#EF3239"/>
<path d="M5.00391 19.0203V22.6513C5.00391 22.8258 5.07325 22.9932 5.19667 23.1166C5.32009 23.24 5.48749 23.3093 5.66203 23.3093C5.83658 23.3093 6.00398 23.24 6.1274 23.1166C6.25082 22.9932 6.32016 22.8258 6.32016 22.6513V19.0203C6.32016 18.8457 6.25082 18.6784 6.1274 18.5549C6.00398 18.4315 5.83658 18.3622 5.66203 18.3622C5.48749 18.3622 5.32009 18.4315 5.19667 18.5549C5.07325 18.6784 5.00391 18.8457 5.00391 19.0203ZM31.464 22.6513C31.464 22.8258 31.5333 22.9932 31.6567 23.1166C31.7802 23.24 31.9476 23.3093 32.1221 23.3093C32.2966 23.3093 32.464 23.24 32.5875 23.1166C32.7109 22.9932 32.7802 22.8258 32.7802 22.6513V19.0203C32.7802 18.8457 32.7109 18.6784 32.5875 18.5549C32.464 18.4315 32.2966 18.3622 32.1221 18.3622C31.9476 18.3622 31.7802 18.4315 31.6567 18.5549C31.5333 18.6784 31.464 18.8457 31.464 19.0203V22.6513ZM11.5212 16.9785C11.0747 16.9785 10.6381 17.1109 10.2668 17.3589C9.89549 17.607 9.60609 17.9596 9.43519 18.3721C9.26428 18.7846 9.21956 19.2386 9.30668 19.6765C9.39379 20.1145 9.60883 20.5167 9.9246 20.8325C10.2404 21.1482 10.6427 21.3632 11.0807 21.4503C11.5186 21.5374 11.9726 21.4927 12.3852 21.3218C12.7978 21.151 13.1504 20.8616 13.3985 20.4903C13.6465 20.119 13.7789 19.6825 13.7789 19.236C13.7783 18.6375 13.5402 18.0637 13.1169 17.6405C12.6937 17.2172 12.1198 16.9792 11.5212 16.9785ZM11.5212 20.1779C11.3349 20.1779 11.1528 20.1227 10.9978 20.0192C10.8429 19.9157 10.7222 19.7686 10.6508 19.5965C10.5795 19.4244 10.5609 19.235 10.5972 19.0523C10.6335 18.8696 10.7232 18.7018 10.855 18.57C10.9867 18.4383 11.1546 18.3486 11.3373 18.3122C11.52 18.2759 11.7094 18.2945 11.8816 18.3658C12.0537 18.4371 12.2008 18.5578 12.3043 18.7127C12.4079 18.8676 12.4631 19.0497 12.4631 19.236C12.4628 19.4857 12.3634 19.7251 12.1869 19.9016C12.0103 20.0782 11.7709 20.1775 11.5212 20.1779Z" fill="#EF3239"/>

</svg>
