<svg width="1153" height="180" viewBox="0 0 1153 180" fill="none" xmlns="http://www.w3.org/2000/svg">
<rect x="0.5" y="26.5" width="1152" height="113" rx="12.5" stroke="url(#paint0_linear_526_199)"/>
<path d="M101.637 49.2847L172.001 8.66025L242.364 49.2847V130.534L172.001 171.158L101.637 130.534V49.2847Z" fill="black" stroke="#FC3D45" stroke-width="15"/>
<path d="M107.449 52.0072L172 13.7096L236.55 52.0072V128.65L172 166.948L107.449 128.65V52.0072Z" fill="black" stroke="white" stroke-width="2"/>
<path d="M271.167 71.9258H250.199V129.635H286.999L276.302 111.634L286.999 91.5151H271.167V71.9258Z" fill="#FC3D45"/>
<path d="M72.8333 71.9258H93.8008V129.635H57.0008L67.6985 111.634L57.0008 91.5151H72.8333V71.9258Z" fill="#FC3D45"/>
<rect x="77.5723" y="76.6094" width="187.182" height="44.1636" fill="#FC3D45" stroke="black"/>
<path d="M105.857 106.597C104.735 106.597 103.682 106.399 102.698 106.003C101.714 105.607 100.847 105.058 100.097 104.356C99.3465 103.648 98.7615 102.829 98.3415 101.899C97.9215 100.969 97.7115 99.9696 97.7115 98.9016C97.7115 97.8276 97.9215 96.8256 98.3415 95.8956C98.7675 94.9596 99.3525 94.1406 100.097 93.4386C100.847 92.7306 101.711 92.1786 102.689 91.7826C103.673 91.3866 104.723 91.1886 105.839 91.1886C106.751 91.1886 107.618 91.3176 108.44 91.5756C109.268 91.8336 109.976 92.1726 110.564 92.5926L109.304 95.0676C108.902 94.7496 108.413 94.5006 107.837 94.3206C107.261 94.1406 106.658 94.0506 106.028 94.0506C105.29 94.0506 104.606 94.1736 103.976 94.4196C103.352 94.6656 102.806 95.0076 102.338 95.4456C101.876 95.8836 101.516 96.3966 101.258 96.9846C101 97.5726 100.871 98.2086 100.871 98.8926C100.871 99.5766 101 100.213 101.258 100.801C101.516 101.389 101.876 101.902 102.338 102.34C102.806 102.778 103.352 103.12 103.976 103.366C104.606 103.612 105.29 103.735 106.028 103.735C106.658 103.735 107.261 103.645 107.837 103.465C108.413 103.285 108.902 103.036 109.304 102.718L110.564 105.193C110 105.601 109.307 105.937 108.485 106.201C107.663 106.465 106.787 106.597 105.857 106.597ZM126.973 106.597C125.113 106.597 123.706 106.132 122.752 105.202C121.798 104.266 121.321 102.88 121.321 101.044V91.4586H124.237V100.207C124.237 101.461 124.45 102.364 124.876 102.916C125.308 103.462 126.007 103.735 126.973 103.735C127.939 103.735 128.635 103.462 129.061 102.916C129.493 102.364 129.709 101.461 129.709 100.207V91.4586H132.625V101.044C132.625 102.88 132.148 104.266 131.194 105.202C130.246 106.132 128.839 106.597 126.973 106.597ZM145.067 106.309V91.4586H147.983V103.753H153.347V106.309H145.067ZM165.515 106.309V94.0326H161.753V91.4586H172.193V94.0326H168.422V106.309H165.515ZM188.594 106.597C186.734 106.597 185.327 106.132 184.373 105.202C183.419 104.266 182.942 102.88 182.942 101.044V91.4586H185.858V100.207C185.858 101.461 186.071 102.364 186.497 102.916C186.929 103.462 187.628 103.735 188.594 103.735C189.56 103.735 190.256 103.462 190.682 102.916C191.114 102.364 191.33 101.461 191.33 100.207V91.4586H194.246V101.044C194.246 102.88 193.769 104.266 192.815 105.202C191.867 106.132 190.46 106.597 188.594 106.597ZM206.688 106.309V91.4586H211.746C212.76 91.4586 213.639 91.6386 214.383 91.9986C215.133 92.3526 215.712 92.8656 216.12 93.5376C216.534 94.2036 216.741 95.0076 216.741 95.9496C216.741 96.6936 216.609 97.3656 216.345 97.9656C216.081 98.5596 215.703 99.0606 215.211 99.4686C214.719 99.8766 214.122 100.18 213.42 100.378L218.28 106.309H214.581L210.297 100.711H209.604V106.309H206.688ZM209.604 98.2806H210.846C211.452 98.2806 211.965 98.1936 212.385 98.0196C212.805 97.8456 213.126 97.5906 213.348 97.2546C213.576 96.9126 213.69 96.5046 213.69 96.0306C213.69 95.3106 213.441 94.7586 212.943 94.3746C212.451 93.9846 211.752 93.7896 210.846 93.7896H209.604V98.2806ZM228.916 106.309V91.4586H237.178V94.0146H231.832V97.5876H236.962V100.144H231.832V103.753H237.178V106.309H228.916Z" fill="black"/>
<path d="M137.637 69V54.975H141.657C143.006 54.975 144.063 55.2697 144.828 55.859C145.593 56.4483 145.975 57.3295 145.975 58.5025C145.975 59.9588 145.374 60.9873 144.173 61.588C145.153 61.741 145.904 62.1178 146.426 62.7185C146.953 63.3135 147.216 64.0955 147.216 65.0645C147.216 65.8805 147.032 66.5832 146.664 67.1725C146.295 67.7618 145.771 68.2152 145.091 68.5325C144.411 68.8442 143.606 69 142.677 69H137.637ZM140.382 60.653H141.02C141.762 60.653 142.331 60.5 142.728 60.194C143.125 59.8823 143.323 59.4375 143.323 58.8595C143.323 58.2758 143.13 57.8395 142.745 57.5505C142.36 57.2558 141.785 57.1085 141.02 57.1085H140.382V60.653ZM140.382 66.858H141.742C142.603 66.858 143.249 66.6993 143.68 66.382C144.116 66.0647 144.335 65.5972 144.335 64.9795C144.335 64.3505 144.111 63.8688 143.663 63.5345C143.221 63.1945 142.581 63.0245 141.742 63.0245H140.382V66.858ZM157.783 69V54.975H165.586V57.389H160.537V60.7635H165.382V63.1775H160.537V66.586H165.586V69H157.783ZM180.771 69.272C180.12 69.272 179.519 69.1983 178.969 69.051C178.42 68.9093 177.927 68.7308 177.49 68.5155C177.06 68.2945 176.688 68.0678 176.377 67.8355C176.065 67.6032 175.819 67.3992 175.637 67.2235L177.048 64.9455C177.235 65.1098 177.459 65.294 177.72 65.498C177.98 65.702 178.272 65.8975 178.595 66.0845C178.918 66.2658 179.267 66.4188 179.641 66.5435C180.02 66.6625 180.423 66.722 180.848 66.722C181.244 66.722 181.593 66.6597 181.893 66.535C182.199 66.4103 182.44 66.2262 182.616 65.9825C182.791 65.7332 182.879 65.4243 182.879 65.056C182.879 64.7217 182.808 64.4383 182.667 64.206C182.525 63.968 182.315 63.7555 182.038 63.5685C181.766 63.3758 181.429 63.1888 181.026 63.0075C180.63 62.8205 180.176 62.6165 179.666 62.3955C179.287 62.2255 178.924 62.0328 178.578 61.8175C178.238 61.5965 177.935 61.3415 177.669 61.0525C177.402 60.7635 177.19 60.4377 177.031 60.075C176.878 59.7067 176.802 59.2958 176.802 58.8425C176.802 58.3042 176.909 57.7885 177.125 57.2955C177.34 56.8025 177.646 56.3633 178.043 55.978C178.445 55.5927 178.921 55.2867 179.471 55.06C180.026 54.8333 180.644 54.72 181.324 54.72C181.834 54.72 182.344 54.788 182.854 54.924C183.364 55.06 183.84 55.2385 184.282 55.4595C184.724 55.6805 185.098 55.9213 185.404 56.182L184.256 58.341C184.013 58.1313 183.735 57.9443 183.423 57.78C183.117 57.61 182.789 57.474 182.437 57.372C182.092 57.27 181.74 57.219 181.383 57.219C180.981 57.219 180.638 57.2898 180.355 57.4315C180.077 57.5732 179.862 57.763 179.709 58.001C179.561 58.2333 179.488 58.494 179.488 58.783C179.488 59.021 179.536 59.225 179.632 59.395C179.734 59.5593 179.876 59.7038 180.057 59.8285C180.239 59.9475 180.457 60.0637 180.712 60.177C180.967 60.2847 181.247 60.4008 181.553 60.5255C182.211 60.8032 182.806 61.078 183.338 61.35C183.871 61.622 184.327 61.9252 184.707 62.2595C185.086 62.5882 185.375 62.9735 185.574 63.4155C185.778 63.8575 185.88 64.3845 185.88 64.9965C185.88 65.8918 185.664 66.6597 185.234 67.3C184.809 67.9403 184.214 68.4305 183.449 68.7705C182.684 69.1048 181.791 69.272 180.771 69.272ZM198.023 69V57.406H194.47V54.975H204.33V57.406H200.768V69H198.023Z" fill="white"/>
<path d="M172.417 127.965L174.671 134.9H181.962L176.063 139.186L178.316 146.121L172.417 141.835L166.518 146.121L168.771 139.186L162.872 134.9H170.164L172.417 127.965Z" fill="white"/>
<path d="M365.902 60.216C364.93 60.216 364.024 60.042 363.184 59.694C362.356 59.346 361.624 58.86 360.988 58.236C360.364 57.612 359.872 56.88 359.512 56.04C359.164 55.2 358.99 54.282 358.99 53.286C358.99 52.29 359.164 51.372 359.512 50.532C359.872 49.68 360.364 48.948 360.988 48.336C361.612 47.712 362.344 47.232 363.184 46.896C364.024 46.548 364.93 46.374 365.902 46.374C366.886 46.374 367.792 46.548 368.62 46.896C369.46 47.232 370.192 47.712 370.816 48.336C371.452 48.96 371.944 49.692 372.292 50.532C372.64 51.372 372.814 52.29 372.814 53.286C372.814 54.282 372.634 55.2 372.274 56.04C371.926 56.88 371.44 57.612 370.816 58.236C370.192 58.86 369.46 59.346 368.62 59.694C367.78 60.042 366.874 60.216 365.902 60.216ZM365.902 58.272C366.598 58.272 367.234 58.146 367.81 57.894C368.398 57.642 368.908 57.294 369.34 56.85C369.772 56.394 370.108 55.866 370.348 55.266C370.588 54.654 370.708 53.994 370.708 53.286C370.708 52.578 370.588 51.924 370.348 51.324C370.108 50.724 369.772 50.196 369.34 49.74C368.908 49.284 368.398 48.93 367.81 48.678C367.234 48.426 366.598 48.3 365.902 48.3C365.206 48.3 364.564 48.426 363.976 48.678C363.4 48.93 362.896 49.284 362.464 49.74C362.032 50.196 361.696 50.724 361.456 51.324C361.228 51.924 361.114 52.578 361.114 53.286C361.114 53.994 361.228 54.654 361.456 55.266C361.696 55.866 362.032 56.394 362.464 56.85C362.896 57.294 363.406 57.642 363.994 57.894C364.582 58.146 365.218 58.272 365.902 58.272ZM378.465 60.216C377.733 60.216 377.091 60.054 376.539 59.73C375.987 59.394 375.555 58.932 375.243 58.344C374.943 57.744 374.793 57.054 374.793 56.274V50.262H376.827V56.094C376.827 56.538 376.917 56.928 377.097 57.264C377.277 57.6 377.529 57.864 377.853 58.056C378.177 58.236 378.549 58.326 378.969 58.326C379.401 58.326 379.779 58.23 380.103 58.038C380.427 57.846 380.679 57.576 380.859 57.228C381.051 56.88 381.147 56.472 381.147 56.004V50.262H383.163V60H381.237V58.092L381.453 58.344C381.225 58.944 380.847 59.406 380.319 59.73C379.791 60.054 379.173 60.216 378.465 60.216ZM385.538 60V50.262H387.482V52.224L387.302 51.936C387.518 51.3 387.866 50.844 388.346 50.568C388.826 50.28 389.402 50.136 390.074 50.136H390.668V51.99H389.822C389.15 51.99 388.604 52.2 388.184 52.62C387.776 53.028 387.572 53.616 387.572 54.384V60H385.538ZM399.904 60.216C398.968 60.216 398.11 59.994 397.33 59.55C396.562 59.106 395.95 58.5 395.494 57.732C395.038 56.964 394.81 56.094 394.81 55.122C394.81 54.138 395.038 53.268 395.494 52.512C395.95 51.744 396.562 51.144 397.33 50.712C398.098 50.268 398.956 50.046 399.904 50.046C400.864 50.046 401.722 50.268 402.478 50.712C403.246 51.144 403.852 51.744 404.296 52.512C404.752 53.268 404.98 54.138 404.98 55.122C404.98 56.106 404.752 56.982 404.296 57.75C403.84 58.518 403.228 59.124 402.46 59.568C401.692 60 400.84 60.216 399.904 60.216ZM399.904 58.326C400.48 58.326 400.99 58.188 401.434 57.912C401.878 57.636 402.226 57.258 402.478 56.778C402.742 56.286 402.874 55.734 402.874 55.122C402.874 54.51 402.742 53.964 402.478 53.484C402.226 53.004 401.878 52.626 401.434 52.35C400.99 52.074 400.48 51.936 399.904 51.936C399.34 51.936 398.83 52.074 398.374 52.35C397.93 52.626 397.576 53.004 397.312 53.484C397.06 53.964 396.934 54.51 396.934 55.122C396.934 55.734 397.06 56.286 397.312 56.778C397.576 57.258 397.93 57.636 398.374 57.912C398.83 58.188 399.34 58.326 399.904 58.326ZM407.8 60V52.098H406V50.262H407.8V49.758C407.8 49.026 407.95 48.414 408.25 47.922C408.55 47.418 408.964 47.034 409.492 46.77C410.032 46.506 410.65 46.374 411.346 46.374C411.478 46.374 411.628 46.386 411.796 46.41C411.964 46.422 412.102 46.44 412.21 46.464V48.228C412.114 48.204 412.006 48.192 411.886 48.192C411.766 48.18 411.67 48.174 411.598 48.174C411.058 48.174 410.626 48.3 410.302 48.552C409.978 48.792 409.816 49.194 409.816 49.758V50.262H414.478V52.098H409.816V60H407.8ZM420.562 60V50.262H422.596V60H420.562ZM414.838 60V52.098H413.056V50.262H414.838V49.758C414.838 49.026 414.988 48.414 415.288 47.922C415.6 47.418 416.02 47.034 416.548 46.77C417.088 46.506 417.7 46.374 418.384 46.374C418.528 46.374 418.684 46.386 418.852 46.41C419.02 46.422 419.158 46.44 419.266 46.464V48.228C419.158 48.204 419.044 48.192 418.924 48.192C418.816 48.18 418.72 48.174 418.636 48.174C418.096 48.174 417.664 48.3 417.34 48.552C417.028 48.792 416.872 49.194 416.872 49.758V50.262H421.534V52.098H416.872V60H414.838ZM429.363 60.216C428.391 60.216 427.527 59.994 426.771 59.55C426.027 59.094 425.433 58.482 424.989 57.714C424.557 56.946 424.341 56.076 424.341 55.104C424.341 54.144 424.557 53.28 424.989 52.512C425.421 51.744 426.015 51.144 426.771 50.712C427.527 50.268 428.391 50.046 429.363 50.046C430.023 50.046 430.641 50.166 431.217 50.406C431.793 50.634 432.291 50.952 432.711 51.36C433.143 51.768 433.461 52.242 433.665 52.782L431.883 53.61C431.679 53.106 431.349 52.704 430.893 52.404C430.449 52.092 429.939 51.936 429.363 51.936C428.811 51.936 428.313 52.074 427.869 52.35C427.437 52.614 427.095 52.992 426.843 53.484C426.591 53.964 426.465 54.51 426.465 55.122C426.465 55.734 426.591 56.286 426.843 56.778C427.095 57.258 427.437 57.636 427.869 57.912C428.313 58.188 428.811 58.326 429.363 58.326C429.951 58.326 430.461 58.176 430.893 57.876C431.337 57.564 431.667 57.15 431.883 56.634L433.665 57.48C433.473 57.996 433.161 58.464 432.729 58.884C432.309 59.292 431.811 59.616 431.235 59.856C430.659 60.096 430.035 60.216 429.363 60.216ZM440.225 60.216C439.253 60.216 438.389 59.994 437.633 59.55C436.889 59.094 436.307 58.482 435.887 57.714C435.467 56.934 435.257 56.064 435.257 55.104C435.257 54.12 435.467 53.25 435.887 52.494C436.319 51.738 436.895 51.144 437.615 50.712C438.335 50.268 439.151 50.046 440.063 50.046C440.795 50.046 441.449 50.172 442.025 50.424C442.601 50.676 443.087 51.024 443.483 51.468C443.879 51.9 444.179 52.398 444.383 52.962C444.599 53.526 444.707 54.126 444.707 54.762C444.707 54.918 444.701 55.08 444.689 55.248C444.677 55.416 444.653 55.572 444.617 55.716H436.859V54.096H443.465L442.493 54.834C442.613 54.246 442.571 53.724 442.367 53.268C442.175 52.8 441.875 52.434 441.467 52.17C441.071 51.894 440.603 51.756 440.063 51.756C439.523 51.756 439.043 51.894 438.623 52.17C438.203 52.434 437.879 52.818 437.651 53.322C437.423 53.814 437.333 54.414 437.381 55.122C437.321 55.782 437.411 56.358 437.651 56.85C437.903 57.342 438.251 57.726 438.695 58.002C439.151 58.278 439.667 58.416 440.243 58.416C440.831 58.416 441.329 58.284 441.737 58.02C442.157 57.756 442.487 57.414 442.727 56.994L444.383 57.804C444.191 58.26 443.891 58.674 443.483 59.046C443.087 59.406 442.607 59.694 442.043 59.91C441.491 60.114 440.885 60.216 440.225 60.216ZM452.754 60.216C452.094 60.216 451.512 60.102 451.008 59.874C450.516 59.634 450.132 59.31 449.856 58.902C449.58 58.482 449.442 57.99 449.442 57.426C449.442 56.898 449.556 56.424 449.784 56.004C450.024 55.584 450.39 55.23 450.882 54.942C451.374 54.654 451.992 54.45 452.736 54.33L456.12 53.772V55.374L453.132 55.896C452.592 55.992 452.196 56.166 451.944 56.418C451.692 56.658 451.566 56.97 451.566 57.354C451.566 57.726 451.704 58.032 451.98 58.272C452.268 58.5 452.634 58.614 453.078 58.614C453.63 58.614 454.11 58.494 454.518 58.254C454.938 58.014 455.262 57.696 455.49 57.3C455.718 56.892 455.832 56.442 455.832 55.95V53.448C455.832 52.968 455.652 52.578 455.292 52.278C454.944 51.966 454.476 51.81 453.888 51.81C453.348 51.81 452.874 51.954 452.466 52.242C452.07 52.518 451.776 52.878 451.584 53.322L449.892 52.476C450.072 51.996 450.366 51.576 450.774 51.216C451.182 50.844 451.656 50.556 452.196 50.352C452.748 50.148 453.33 50.046 453.942 50.046C454.71 50.046 455.388 50.19 455.976 50.478C456.576 50.766 457.038 51.168 457.362 51.684C457.698 52.188 457.866 52.776 457.866 53.448V60H455.922V58.236L456.336 58.29C456.108 58.686 455.814 59.028 455.454 59.316C455.106 59.604 454.704 59.826 454.248 59.982C453.804 60.138 453.306 60.216 452.754 60.216ZM460.245 60V50.262H462.189V52.17L461.955 51.918C462.195 51.306 462.579 50.844 463.107 50.532C463.635 50.208 464.247 50.046 464.943 50.046C465.663 50.046 466.299 50.202 466.851 50.514C467.403 50.826 467.835 51.258 468.147 51.81C468.459 52.362 468.615 52.998 468.615 53.718V60H466.599V54.258C466.599 53.766 466.509 53.352 466.329 53.016C466.149 52.668 465.891 52.404 465.555 52.224C465.231 52.032 464.859 51.936 464.439 51.936C464.019 51.936 463.641 52.032 463.305 52.224C462.981 52.404 462.729 52.668 462.549 53.016C462.369 53.364 462.279 53.778 462.279 54.258V60H460.245ZM475.292 60.216C474.356 60.216 473.516 59.994 472.772 59.55C472.04 59.094 471.458 58.482 471.026 57.714C470.606 56.946 470.396 56.082 470.396 55.122C470.396 54.162 470.612 53.298 471.044 52.53C471.476 51.762 472.058 51.156 472.79 50.712C473.522 50.268 474.35 50.046 475.274 50.046C476.054 50.046 476.744 50.202 477.344 50.514C477.944 50.826 478.418 51.258 478.766 51.81L478.46 52.278V46.374H480.476V60H478.55V58.02L478.784 58.398C478.448 58.986 477.968 59.436 477.344 59.748C476.72 60.06 476.036 60.216 475.292 60.216ZM475.49 58.326C476.054 58.326 476.558 58.188 477.002 57.912C477.458 57.636 477.812 57.258 478.064 56.778C478.328 56.286 478.46 55.734 478.46 55.122C478.46 54.51 478.328 53.964 478.064 53.484C477.812 53.004 477.458 52.626 477.002 52.35C476.558 52.074 476.054 51.936 475.49 51.936C474.926 51.936 474.416 52.074 473.96 52.35C473.504 52.626 473.15 53.004 472.898 53.484C472.646 53.964 472.52 54.51 472.52 55.122C472.52 55.734 472.646 56.286 472.898 56.778C473.15 57.258 473.498 57.636 473.942 57.912C474.398 58.188 474.914 58.326 475.49 58.326ZM490.623 60.216C489.651 60.216 488.787 59.994 488.031 59.55C487.287 59.094 486.693 58.482 486.249 57.714C485.817 56.946 485.601 56.076 485.601 55.104C485.601 54.144 485.817 53.28 486.249 52.512C486.681 51.744 487.275 51.144 488.031 50.712C488.787 50.268 489.651 50.046 490.623 50.046C491.283 50.046 491.901 50.166 492.477 50.406C493.053 50.634 493.551 50.952 493.971 51.36C494.403 51.768 494.721 52.242 494.925 52.782L493.143 53.61C492.939 53.106 492.609 52.704 492.153 52.404C491.709 52.092 491.199 51.936 490.623 51.936C490.071 51.936 489.573 52.074 489.129 52.35C488.697 52.614 488.355 52.992 488.103 53.484C487.851 53.964 487.725 54.51 487.725 55.122C487.725 55.734 487.851 56.286 488.103 56.778C488.355 57.258 488.697 57.636 489.129 57.912C489.573 58.188 490.071 58.326 490.623 58.326C491.211 58.326 491.721 58.176 492.153 57.876C492.597 57.564 492.927 57.15 493.143 56.634L494.925 57.48C494.733 57.996 494.421 58.464 493.989 58.884C493.569 59.292 493.071 59.616 492.495 59.856C491.919 60.096 491.295 60.216 490.623 60.216ZM500.387 60.216C499.655 60.216 499.013 60.054 498.461 59.73C497.909 59.394 497.477 58.932 497.165 58.344C496.865 57.744 496.715 57.054 496.715 56.274V50.262H498.749V56.094C498.749 56.538 498.839 56.928 499.019 57.264C499.199 57.6 499.451 57.864 499.775 58.056C500.099 58.236 500.471 58.326 500.891 58.326C501.323 58.326 501.701 58.23 502.025 58.038C502.349 57.846 502.601 57.576 502.781 57.228C502.973 56.88 503.069 56.472 503.069 56.004V50.262H505.085V60H503.159V58.092L503.375 58.344C503.147 58.944 502.769 59.406 502.241 59.73C501.713 60.054 501.095 60.216 500.387 60.216ZM507.459 60V46.374H509.493V60H507.459ZM516.084 60.108C515.064 60.108 514.272 59.82 513.708 59.244C513.144 58.668 512.862 57.858 512.862 56.814V52.098H511.152V50.262H511.422C511.878 50.262 512.232 50.13 512.484 49.866C512.736 49.602 512.862 49.242 512.862 48.786V48.03H514.896V50.262H517.11V52.098H514.896V56.724C514.896 57.06 514.95 57.348 515.058 57.588C515.166 57.816 515.34 57.996 515.58 58.128C515.82 58.248 516.132 58.308 516.516 58.308C516.612 58.308 516.72 58.302 516.84 58.29C516.96 58.278 517.074 58.266 517.182 58.254V60C517.014 60.024 516.828 60.048 516.624 60.072C516.42 60.096 516.24 60.108 516.084 60.108ZM522.641 60.216C521.909 60.216 521.267 60.054 520.715 59.73C520.163 59.394 519.731 58.932 519.419 58.344C519.119 57.744 518.969 57.054 518.969 56.274V50.262H521.003V56.094C521.003 56.538 521.093 56.928 521.273 57.264C521.453 57.6 521.705 57.864 522.029 58.056C522.353 58.236 522.725 58.326 523.145 58.326C523.577 58.326 523.955 58.23 524.279 58.038C524.603 57.846 524.855 57.576 525.035 57.228C525.227 56.88 525.323 56.472 525.323 56.004V50.262H527.339V60H525.413V58.092L525.629 58.344C525.401 58.944 525.023 59.406 524.495 59.73C523.967 60.054 523.349 60.216 522.641 60.216ZM529.713 60V50.262H531.657V52.224L531.477 51.936C531.693 51.3 532.041 50.844 532.521 50.568C533.001 50.28 533.577 50.136 534.249 50.136H534.843V51.99H533.997C533.325 51.99 532.779 52.2 532.359 52.62C531.951 53.028 531.747 53.616 531.747 54.384V60H529.713ZM540.807 60.216C539.835 60.216 538.971 59.994 538.215 59.55C537.471 59.094 536.889 58.482 536.469 57.714C536.049 56.934 535.839 56.064 535.839 55.104C535.839 54.12 536.049 53.25 536.469 52.494C536.901 51.738 537.477 51.144 538.197 50.712C538.917 50.268 539.733 50.046 540.645 50.046C541.377 50.046 542.031 50.172 542.607 50.424C543.183 50.676 543.669 51.024 544.065 51.468C544.461 51.9 544.761 52.398 544.965 52.962C545.181 53.526 545.289 54.126 545.289 54.762C545.289 54.918 545.283 55.08 545.271 55.248C545.259 55.416 545.235 55.572 545.199 55.716H537.441V54.096H544.047L543.075 54.834C543.195 54.246 543.153 53.724 542.949 53.268C542.757 52.8 542.457 52.434 542.049 52.17C541.653 51.894 541.185 51.756 540.645 51.756C540.105 51.756 539.625 51.894 539.205 52.17C538.785 52.434 538.461 52.818 538.233 53.322C538.005 53.814 537.915 54.414 537.963 55.122C537.903 55.782 537.993 56.358 538.233 56.85C538.485 57.342 538.833 57.726 539.277 58.002C539.733 58.278 540.249 58.416 540.825 58.416C541.413 58.416 541.911 58.284 542.319 58.02C542.739 57.756 543.069 57.414 543.309 56.994L544.965 57.804C544.773 58.26 544.473 58.674 544.065 59.046C543.669 59.406 543.189 59.694 542.625 59.91C542.073 60.114 541.467 60.216 540.807 60.216ZM549.614 56.004V55.698C549.614 55.17 549.698 54.702 549.866 54.294C550.046 53.886 550.268 53.52 550.532 53.196C550.808 52.86 551.09 52.554 551.378 52.278C551.786 51.894 552.146 51.522 552.458 51.162C552.782 50.802 552.944 50.382 552.944 49.902C552.944 49.602 552.872 49.332 552.728 49.092C552.584 48.84 552.368 48.642 552.08 48.498C551.804 48.342 551.462 48.264 551.054 48.264C550.49 48.264 550.004 48.438 549.596 48.786C549.2 49.122 548.948 49.578 548.84 50.154L546.95 49.704C547.058 49.044 547.298 48.468 547.67 47.976C548.054 47.472 548.534 47.082 549.11 46.806C549.698 46.518 550.358 46.374 551.09 46.374C551.918 46.374 552.626 46.542 553.214 46.878C553.814 47.202 554.27 47.628 554.582 48.156C554.894 48.684 555.05 49.254 555.05 49.866C555.05 50.358 554.948 50.802 554.744 51.198C554.552 51.582 554.3 51.936 553.988 52.26C553.688 52.584 553.376 52.902 553.052 53.214C552.668 53.586 552.326 53.976 552.026 54.384C551.738 54.78 551.594 55.248 551.594 55.788V56.004H549.614ZM549.614 60V57.66H551.684V60H549.614Z" fill="white"/>
<path d="M361.86 114V74.28H366.36V114H361.86ZM378.378 114V87.96H372.258V84H378.378V73.26H382.878V84H389.778V87.96H382.878V114H378.378ZM394.769 87.42L393.629 74.28H398.969L397.829 87.42H394.769ZM416.586 114.48C413.826 114.48 411.486 114.02 409.566 113.1C407.686 112.18 406.246 110.98 405.246 109.5C404.246 107.98 403.686 106.34 403.566 104.58H408.246C408.366 105.58 408.706 106.56 409.266 107.52C409.866 108.44 410.766 109.2 411.966 109.8C413.166 110.36 414.726 110.64 416.646 110.64C417.246 110.64 417.986 110.58 418.866 110.46C419.746 110.34 420.586 110.12 421.386 109.8C422.226 109.48 422.926 109 423.486 108.36C424.046 107.72 424.326 106.9 424.326 105.9C424.326 104.66 423.846 103.7 422.886 103.02C421.926 102.34 420.686 101.82 419.166 101.46C417.646 101.06 416.026 100.68 414.306 100.32C412.626 99.96 411.026 99.5 409.506 98.94C407.986 98.34 406.746 97.52 405.786 96.48C404.826 95.4 404.346 93.94 404.346 92.1C404.346 89.38 405.326 87.28 407.286 85.8C409.286 84.28 412.226 83.52 416.106 83.52C418.746 83.52 420.886 83.94 422.526 84.78C424.206 85.58 425.466 86.62 426.306 87.9C427.186 89.18 427.706 90.56 427.866 92.04H423.306C423.146 90.76 422.506 89.66 421.386 88.74C420.306 87.82 418.506 87.36 415.986 87.36C411.226 87.36 408.846 88.8 408.846 91.68C408.846 92.88 409.326 93.8 410.286 94.44C411.246 95.08 412.486 95.6 414.006 96C415.526 96.36 417.126 96.72 418.806 97.08C420.526 97.4 422.146 97.86 423.666 98.46C425.186 99.06 426.426 99.92 427.386 101.04C428.346 102.12 428.826 103.6 428.826 105.48C428.826 108.4 427.706 110.64 425.466 112.2C423.266 113.72 420.306 114.48 416.586 114.48ZM443.664 114L460.524 74.28H466.164L483.024 114H478.044L473.184 102.48H453.504L448.644 114H443.664ZM455.244 98.34H471.444L463.344 78.96L455.244 98.34ZM491.408 114L481.988 84H486.788L493.988 108.42L501.608 84H506.528L514.148 108.42L521.348 84H526.148L516.728 114H511.568L504.068 90.06L496.568 114H491.408ZM543.087 114.48C540.047 114.48 537.387 113.8 535.107 112.44C532.827 111.04 531.047 109.16 529.767 106.8C528.527 104.44 527.907 101.84 527.907 99C527.907 96.12 528.507 93.52 529.707 91.2C530.907 88.84 532.627 86.98 534.867 85.62C537.107 84.22 539.747 83.52 542.787 83.52C545.867 83.52 548.507 84.22 550.707 85.62C552.947 86.98 554.667 88.84 555.867 91.2C557.067 93.52 557.667 96.12 557.667 99V100.8H532.527C532.767 102.56 533.327 104.18 534.207 105.66C535.127 107.1 536.347 108.26 537.867 109.14C539.387 109.98 541.147 110.4 543.147 110.4C545.267 110.4 547.047 109.94 548.487 109.02C549.927 108.06 551.047 106.84 551.847 105.36H556.767C555.727 108.04 554.067 110.24 551.787 111.96C549.547 113.64 546.647 114.48 543.087 114.48ZM532.587 96.6H552.987C552.587 94.04 551.507 91.9 549.747 90.18C547.987 88.46 545.667 87.6 542.787 87.6C539.907 87.6 537.587 88.46 535.827 90.18C534.107 91.9 533.027 94.04 532.587 96.6ZM574.086 114.48C571.326 114.48 568.986 114.02 567.066 113.1C565.186 112.18 563.746 110.98 562.746 109.5C561.746 107.98 561.186 106.34 561.066 104.58H565.746C565.866 105.58 566.206 106.56 566.766 107.52C567.366 108.44 568.266 109.2 569.466 109.8C570.666 110.36 572.226 110.64 574.146 110.64C574.746 110.64 575.486 110.58 576.366 110.46C577.246 110.34 578.086 110.12 578.886 109.8C579.726 109.48 580.426 109 580.986 108.36C581.546 107.72 581.826 106.9 581.826 105.9C581.826 104.66 581.346 103.7 580.386 103.02C579.426 102.34 578.186 101.82 576.666 101.46C575.146 101.06 573.526 100.68 571.806 100.32C570.126 99.96 568.526 99.5 567.006 98.94C565.486 98.34 564.246 97.52 563.286 96.48C562.326 95.4 561.846 93.94 561.846 92.1C561.846 89.38 562.826 87.28 564.786 85.8C566.786 84.28 569.726 83.52 573.606 83.52C576.246 83.52 578.386 83.94 580.026 84.78C581.706 85.58 582.966 86.62 583.806 87.9C584.686 89.18 585.206 90.56 585.366 92.04H580.806C580.646 90.76 580.006 89.66 578.886 88.74C577.806 87.82 576.006 87.36 573.486 87.36C568.726 87.36 566.346 88.8 566.346 91.68C566.346 92.88 566.826 93.8 567.786 94.44C568.746 95.08 569.986 95.6 571.506 96C573.026 96.36 574.626 96.72 576.306 97.08C578.026 97.4 579.646 97.86 581.166 98.46C582.686 99.06 583.926 99.92 584.886 101.04C585.846 102.12 586.326 103.6 586.326 105.48C586.326 108.4 585.206 110.64 582.966 112.2C580.766 113.72 577.806 114.48 574.086 114.48ZM605.131 114.48C602.091 114.48 599.451 113.8 597.211 112.44C594.971 111.04 593.251 109.16 592.051 106.8C590.851 104.44 590.251 101.84 590.251 99C590.251 96.12 590.851 93.52 592.051 91.2C593.251 88.84 594.971 86.98 597.211 85.62C599.451 84.22 602.091 83.52 605.131 83.52C608.211 83.52 610.851 84.22 613.051 85.62C615.291 86.98 617.011 88.84 618.211 91.2C619.411 93.52 620.011 96.12 620.011 99C620.011 101.84 619.411 104.44 618.211 106.8C617.011 109.16 615.291 111.04 613.051 112.44C610.851 113.8 608.211 114.48 605.131 114.48ZM605.131 110.4C607.371 110.4 609.251 109.88 610.771 108.84C612.331 107.8 613.511 106.42 614.311 104.7C615.111 102.94 615.511 101.04 615.511 99C615.511 96.92 615.111 95.02 614.311 93.3C613.511 91.58 612.331 90.2 610.771 89.16C609.251 88.12 607.371 87.6 605.131 87.6C602.931 87.6 601.051 88.12 599.491 89.16C597.931 90.2 596.751 91.58 595.951 93.3C595.151 95.02 594.751 96.92 594.751 99C594.751 101.04 595.151 102.94 595.951 104.7C596.751 106.42 597.931 107.8 599.491 108.84C601.051 109.88 602.931 110.4 605.131 110.4ZM625.978 114V84H630.478V88.56C631.158 87.36 632.238 86.22 633.718 85.14C635.198 84.06 637.158 83.52 639.598 83.52C641.598 83.52 643.438 84.06 645.118 85.14C646.838 86.18 648.178 87.66 649.138 89.58C649.538 88.9 650.158 88.08 650.998 87.12C651.878 86.16 653.018 85.32 654.418 84.6C655.818 83.88 657.498 83.52 659.458 83.52C661.378 83.52 663.178 84.02 664.858 85.02C666.538 86.02 667.898 87.46 668.938 89.34C670.018 91.18 670.558 93.36 670.558 95.88V114H666.058V96C666.058 93.48 665.338 91.46 663.898 89.94C662.498 88.38 660.738 87.6 658.618 87.6C656.418 87.6 654.518 88.34 652.918 89.82C651.318 91.3 650.518 93.38 650.518 96.06V114H646.018V96C646.018 93.48 645.298 91.46 643.858 89.94C642.458 88.38 640.698 87.6 638.578 87.6C636.378 87.6 634.478 88.34 632.878 89.82C631.278 91.3 630.478 93.38 630.478 96.06V114H625.978ZM691.388 114.48C688.348 114.48 685.688 113.8 683.408 112.44C681.128 111.04 679.348 109.16 678.068 106.8C676.828 104.44 676.208 101.84 676.208 99C676.208 96.12 676.808 93.52 678.008 91.2C679.208 88.84 680.928 86.98 683.168 85.62C685.408 84.22 688.048 83.52 691.088 83.52C694.168 83.52 696.808 84.22 699.008 85.62C701.248 86.98 702.968 88.84 704.168 91.2C705.368 93.52 705.968 96.12 705.968 99V100.8H680.828C681.068 102.56 681.628 104.18 682.508 105.66C683.428 107.1 684.648 108.26 686.168 109.14C687.688 109.98 689.448 110.4 691.448 110.4C693.568 110.4 695.348 109.94 696.788 109.02C698.228 108.06 699.348 106.84 700.148 105.36H705.068C704.028 108.04 702.368 110.24 700.088 111.96C697.848 113.64 694.948 114.48 691.388 114.48ZM680.888 96.6H701.288C700.888 94.04 699.808 91.9 698.048 90.18C696.288 88.46 693.968 87.6 691.088 87.6C688.208 87.6 685.888 88.46 684.128 90.18C682.408 91.9 681.328 94.04 680.888 96.6Z" fill="white"/>
<path d="M822.925 34.3059C824.808 29.8761 829.156 27 833.969 27L1141 27C1147.63 27 1153 32.3726 1153 39V128C1153 134.627 1147.63 140 1141 140H796.14C787.54 140 781.732 131.22 785.096 123.306L822.925 34.3059Z" fill="#FC3D45"/>
<path d="M845.097 92.276C843.886 92.276 842.751 92.0613 841.693 91.632C840.635 91.1873 839.707 90.5663 838.91 89.769C838.128 88.9717 837.515 88.0363 837.07 86.963C836.625 85.8743 836.403 84.6937 836.403 83.421C836.403 82.133 836.625 80.9523 837.07 79.879C837.515 78.8057 838.128 77.8703 838.91 77.073C839.707 76.2757 840.627 75.6623 841.67 75.233C842.728 74.8037 843.87 74.589 845.097 74.589C846.324 74.589 847.458 74.8113 848.501 75.256C849.559 75.6853 850.479 76.2987 851.261 77.096C852.058 77.878 852.679 78.8057 853.124 79.879C853.584 80.9523 853.814 82.133 853.814 83.421C853.814 84.6937 853.584 85.8743 853.124 86.963C852.679 88.0363 852.058 88.9717 851.261 89.769C850.479 90.5663 849.559 91.1873 848.501 91.632C847.458 92.0613 846.324 92.276 845.097 92.276ZM845.097 90.183C846.048 90.183 846.914 90.0143 847.696 89.677C848.478 89.3243 849.153 88.8413 849.72 88.228C850.303 87.5993 850.747 86.8787 851.054 86.066C851.376 85.238 851.537 84.3563 851.537 83.421C851.537 82.4857 851.376 81.6117 851.054 80.799C850.747 79.9863 850.303 79.2733 849.72 78.66C849.153 78.0313 848.478 77.5483 847.696 77.211C846.914 76.8583 846.048 76.682 845.097 76.682C844.162 76.682 843.303 76.8583 842.521 77.211C841.739 77.5483 841.057 78.0313 840.474 78.66C839.907 79.2733 839.462 79.9863 839.14 80.799C838.818 81.6117 838.657 82.4857 838.657 83.421C838.657 84.3563 838.818 85.238 839.14 86.066C839.462 86.8787 839.907 87.5993 840.474 88.228C841.057 88.8413 841.739 89.3243 842.521 89.677C843.303 90.0143 844.162 90.183 845.097 90.183ZM861.241 92.276C860.352 92.276 859.547 92.069 858.826 91.655C858.121 91.241 857.569 90.666 857.17 89.93C856.787 89.1787 856.595 88.32 856.595 87.354V79.603H858.734V87.124C858.734 87.7373 858.857 88.274 859.102 88.734C859.363 89.194 859.716 89.5543 860.16 89.815C860.62 90.0757 861.142 90.206 861.724 90.206C862.307 90.206 862.821 90.0757 863.265 89.815C863.725 89.5543 864.078 89.1787 864.323 88.688C864.584 88.1973 864.714 87.6147 864.714 86.94V79.603H866.876V92H864.783V89.585L865.128 89.792C864.837 90.574 864.339 91.1873 863.633 91.632C862.943 92.0613 862.146 92.276 861.241 92.276ZM870.19 92V79.603H872.283V81.88L872.053 81.558C872.345 80.8527 872.789 80.3313 873.387 79.994C873.985 79.6413 874.714 79.465 875.572 79.465H876.331V81.489H875.25C874.376 81.489 873.671 81.765 873.134 82.317C872.598 82.8537 872.329 83.6203 872.329 84.617V92H870.19ZM885.611 92L880.804 74.865H883.173L887.198 89.953H886.646L890.832 74.865H893.201L897.364 89.953H896.789L900.837 74.865H903.206L898.399 92H895.892L891.706 76.981H892.304L888.118 92H885.611ZM909.967 92.276C908.771 92.276 907.706 91.9923 906.77 91.425C905.835 90.8577 905.099 90.0833 904.562 89.102C904.026 88.1053 903.757 86.9937 903.757 85.767C903.757 84.525 904.018 83.421 904.539 82.455C905.076 81.489 905.797 80.73 906.701 80.178C907.621 79.6107 908.649 79.327 909.783 79.327C910.703 79.327 911.516 79.4957 912.221 79.833C912.942 80.155 913.548 80.5997 914.038 81.167C914.544 81.719 914.928 82.3553 915.188 83.076C915.464 83.7813 915.602 84.5173 915.602 85.284C915.602 85.4527 915.587 85.6443 915.556 85.859C915.541 86.0583 915.518 86.25 915.487 86.434H905.321V84.594H914.245L913.233 85.422C913.371 84.6247 913.295 83.9117 913.003 83.283C912.712 82.6543 912.283 82.156 911.715 81.788C911.148 81.42 910.504 81.236 909.783 81.236C909.063 81.236 908.403 81.42 907.805 81.788C907.207 82.156 906.74 82.685 906.402 83.375C906.08 84.0497 905.95 84.8547 906.011 85.79C905.95 86.6947 906.088 87.492 906.425 88.182C906.778 88.8567 907.269 89.3857 907.897 89.769C908.541 90.137 909.239 90.321 909.99 90.321C910.818 90.321 911.516 90.1293 912.083 89.746C912.651 89.3627 913.111 88.872 913.463 88.274L915.257 89.194C915.012 89.7613 914.629 90.2827 914.107 90.758C913.601 91.218 912.996 91.586 912.29 91.862C911.6 92.138 910.826 92.276 909.967 92.276ZM924.095 92.276C922.899 92.276 921.834 91.9923 920.898 91.425C919.963 90.8577 919.227 90.0833 918.69 89.102C918.154 88.1053 917.885 86.9937 917.885 85.767C917.885 84.525 918.146 83.421 918.667 82.455C919.204 81.489 919.925 80.73 920.829 80.178C921.749 79.6107 922.777 79.327 923.911 79.327C924.831 79.327 925.644 79.4957 926.349 79.833C927.07 80.155 927.676 80.5997 928.166 81.167C928.672 81.719 929.056 82.3553 929.316 83.076C929.592 83.7813 929.73 84.5173 929.73 85.284C929.73 85.4527 929.715 85.6443 929.684 85.859C929.669 86.0583 929.646 86.25 929.615 86.434H919.449V84.594H928.373L927.361 85.422C927.499 84.6247 927.423 83.9117 927.131 83.283C926.84 82.6543 926.411 82.156 925.843 81.788C925.276 81.42 924.632 81.236 923.911 81.236C923.191 81.236 922.531 81.42 921.933 81.788C921.335 82.156 920.868 82.685 920.53 83.375C920.208 84.0497 920.078 84.8547 920.139 85.79C920.078 86.6947 920.216 87.492 920.553 88.182C920.906 88.8567 921.397 89.3857 922.025 89.769C922.669 90.137 923.367 90.321 924.118 90.321C924.946 90.321 925.644 90.1293 926.211 89.746C926.779 89.3627 927.239 88.872 927.591 88.274L929.385 89.194C929.14 89.7613 928.757 90.2827 928.235 90.758C927.729 91.218 927.124 91.586 926.418 91.862C925.728 92.138 924.954 92.276 924.095 92.276ZM932.519 92V74.589H934.658V86.526L933.784 86.319L940.362 79.603H943.099L938.338 84.594L943.421 92H940.891L936.245 85.284L937.579 85.215L933.968 88.987L934.658 87.423V92H932.519ZM949.32 92V74.589H951.459V82.018L951.068 81.811C951.375 81.029 951.865 80.4233 952.54 79.994C953.23 79.5493 954.035 79.327 954.955 79.327C955.844 79.327 956.634 79.5263 957.324 79.925C958.029 80.3237 958.581 80.8757 958.98 81.581C959.394 82.2863 959.601 83.0837 959.601 83.973V92H957.439V84.663C957.439 83.973 957.309 83.3903 957.048 82.915C956.803 82.4397 956.458 82.0717 956.013 81.811C955.568 81.535 955.055 81.397 954.472 81.397C953.905 81.397 953.391 81.535 952.931 81.811C952.471 82.0717 952.111 82.4473 951.85 82.938C951.589 83.4133 951.459 83.9883 951.459 84.663V92H949.32ZM966.296 92.276C965.483 92.276 964.763 92.1303 964.134 91.839C963.521 91.5323 963.038 91.1183 962.685 90.597C962.332 90.0603 962.156 89.447 962.156 88.757C962.156 88.0977 962.294 87.5073 962.57 86.986C962.861 86.4493 963.306 85.997 963.904 85.629C964.517 85.261 965.284 85.0003 966.204 84.847L970.804 84.088V85.882L966.687 86.572C965.89 86.71 965.307 86.963 964.939 87.331C964.586 87.699 964.41 88.1513 964.41 88.688C964.41 89.194 964.609 89.6157 965.008 89.953C965.422 90.2903 965.936 90.459 966.549 90.459C967.331 90.459 968.006 90.298 968.573 89.976C969.156 89.6387 969.608 89.1863 969.93 88.619C970.267 88.0517 970.436 87.423 970.436 86.733V83.582C970.436 82.9073 970.183 82.363 969.677 81.949C969.186 81.5197 968.535 81.305 967.722 81.305C967.017 81.305 966.388 81.489 965.836 81.857C965.299 82.2097 964.901 82.685 964.64 83.283L962.777 82.317C963.007 81.7497 963.375 81.2437 963.881 80.799C964.387 80.339 964.977 79.9787 965.652 79.718C966.327 79.4573 967.032 79.327 967.768 79.327C968.719 79.327 969.554 79.511 970.275 79.879C970.996 80.2317 971.555 80.73 971.954 81.374C972.368 82.0027 972.575 82.7387 972.575 83.582V92H970.482V89.654L970.873 89.792C970.612 90.2827 970.26 90.712 969.815 91.08C969.37 91.448 968.849 91.7393 968.251 91.954C967.653 92.1687 967.001 92.276 966.296 92.276ZM980.33 92.276C979.088 92.276 978.007 91.9693 977.087 91.356C976.167 90.7427 975.516 89.9147 975.132 88.872L976.834 88.044C977.187 88.78 977.67 89.3627 978.283 89.792C978.897 90.2213 979.579 90.436 980.33 90.436C981.005 90.436 981.565 90.275 982.009 89.953C982.454 89.631 982.676 89.2093 982.676 88.688C982.676 88.32 982.569 88.0287 982.354 87.814C982.155 87.584 981.91 87.4077 981.618 87.285C981.327 87.147 981.059 87.0473 980.813 86.986L978.95 86.457C977.831 86.135 977.011 85.675 976.489 85.077C975.983 84.479 975.73 83.7813 975.73 82.984C975.73 82.248 975.914 81.6117 976.282 81.075C976.666 80.523 977.179 80.0937 977.823 79.787C978.483 79.4803 979.219 79.327 980.031 79.327C981.12 79.327 982.094 79.603 982.952 80.155C983.826 80.707 984.447 81.4813 984.815 82.478L983.067 83.283C982.791 82.639 982.377 82.133 981.825 81.765C981.273 81.3817 980.652 81.19 979.962 81.19C979.334 81.19 978.835 81.351 978.467 81.673C978.099 81.9797 977.915 82.3707 977.915 82.846C977.915 83.1987 978.007 83.49 978.191 83.72C978.375 83.9347 978.598 84.1033 978.858 84.226C979.119 84.3333 979.372 84.4253 979.617 84.502L981.641 85.1C982.653 85.3913 983.435 85.8437 983.987 86.457C984.555 87.0703 984.838 87.8063 984.838 88.665C984.838 89.355 984.647 89.976 984.263 90.528C983.88 91.08 983.351 91.5093 982.676 91.816C982.002 92.1227 981.22 92.276 980.33 92.276Z" fill="black"/>
<path d="M993.48 109L1012.74 69.64H990.728V61.32H1023.18V69.64L1004.49 109H993.48Z" fill="white"/>
<path d="M1036.75 92.276C1035.68 92.276 1034.67 92.0843 1033.72 91.701C1032.78 91.3023 1031.97 90.7427 1031.28 90.022C1030.6 89.3013 1030.1 88.4503 1029.76 87.469L1032.68 86.158C1033.11 87.0933 1033.7 87.8293 1034.45 88.366C1035.22 88.9027 1036.06 89.171 1036.98 89.171C1037.7 89.171 1038.28 89.01 1038.71 88.688C1039.15 88.3507 1039.37 87.906 1039.37 87.354C1039.37 86.5567 1038.87 85.9893 1037.86 85.652L1034.5 84.548C1031.75 83.6433 1030.38 82.0257 1030.38 79.695C1030.38 78.683 1030.63 77.7937 1031.12 77.027C1031.62 76.2603 1032.32 75.6623 1033.21 75.233C1034.11 74.8037 1035.15 74.589 1036.31 74.589C1037.86 74.589 1039.22 74.98 1040.39 75.762C1041.57 76.5287 1042.39 77.5867 1042.87 78.936L1039.97 80.247C1039.65 79.4497 1039.17 78.8287 1038.52 78.384C1037.88 77.924 1037.14 77.694 1036.31 77.694C1035.59 77.694 1035.01 77.8703 1034.57 78.223C1034.12 78.5603 1033.9 79.005 1033.9 79.557C1033.9 80.3697 1034.42 80.9523 1035.46 81.305L1038.75 82.363C1041.5 83.2523 1042.87 84.847 1042.87 87.147C1042.87 88.1437 1042.61 89.033 1042.09 89.815C1041.57 90.5817 1040.85 91.1873 1039.93 91.632C1039.02 92.0613 1037.96 92.276 1036.75 92.276ZM1049.66 92.276C1048.13 92.276 1046.95 91.8007 1046.12 90.85C1045.31 89.884 1044.9 88.619 1044.9 87.055V79.442H1048.35V86.779C1048.35 87.4997 1048.57 88.0823 1049 88.527C1049.43 88.9563 1049.98 89.171 1050.65 89.171C1051.33 89.171 1051.88 88.9563 1052.31 88.527C1052.74 88.0823 1052.95 87.4997 1052.95 86.779V79.442H1056.4V92H1053.18V90.459C1052.86 91.0723 1052.39 91.5323 1051.78 91.839C1051.17 92.1303 1050.46 92.276 1049.66 92.276ZM1058.93 92V79.442H1062.15V80.983C1062.47 80.3697 1062.93 79.9173 1063.55 79.626C1064.16 79.3193 1064.87 79.166 1065.66 79.166C1066.61 79.166 1067.44 79.3653 1068.15 79.764C1068.87 80.1627 1069.43 80.7223 1069.83 81.443C1070.23 82.1483 1070.43 82.9763 1070.43 83.927V92H1066.98V84.663C1066.98 83.9423 1066.76 83.3673 1066.33 82.938C1065.9 82.4933 1065.35 82.271 1064.68 82.271C1064 82.271 1063.45 82.4933 1063.02 82.938C1062.59 83.3673 1062.38 83.9423 1062.38 84.663V92H1058.93ZM1078.6 92.276C1077.38 92.276 1076.28 91.9847 1075.32 91.402C1074.35 90.8193 1073.58 90.0297 1073.02 89.033C1072.46 88.0363 1072.19 86.9323 1072.19 85.721C1072.19 84.4943 1072.47 83.3903 1073.04 82.409C1073.61 81.4123 1074.37 80.6227 1075.34 80.04C1076.3 79.4573 1077.39 79.166 1078.58 79.166C1080.1 79.166 1081.3 79.6107 1082.19 80.5V74.589H1085.64V92H1082.42V90.804C1081.98 91.2793 1081.42 91.6473 1080.74 91.908C1080.08 92.1533 1079.37 92.276 1078.6 92.276ZM1079.02 89.171C1079.95 89.171 1080.71 88.8567 1081.3 88.228C1081.89 87.584 1082.19 86.7483 1082.19 85.721C1082.19 84.709 1081.89 83.881 1081.3 83.237C1080.71 82.593 1079.95 82.271 1079.02 82.271C1078.07 82.271 1077.29 82.6007 1076.67 83.26C1076.06 83.904 1075.75 84.7243 1075.75 85.721C1075.75 86.733 1076.06 87.561 1076.67 88.205C1077.29 88.849 1078.07 89.171 1079.02 89.171ZM1092.06 92.276C1090.71 92.276 1089.63 91.954 1088.84 91.31C1088.05 90.666 1087.66 89.7767 1087.66 88.642C1087.66 87.584 1088.03 86.71 1088.77 86.02C1089.5 85.33 1090.62 84.8623 1092.13 84.617L1095.6 84.065V83.72C1095.6 83.2447 1095.41 82.846 1095.02 82.524C1094.66 82.202 1094.15 82.041 1093.51 82.041C1092.89 82.041 1092.35 82.2097 1091.87 82.547C1091.41 82.8843 1091.07 83.329 1090.86 83.881L1088.1 82.57C1088.47 81.5273 1089.15 80.6993 1090.15 80.086C1091.16 79.4727 1092.33 79.166 1093.67 79.166C1094.72 79.166 1095.66 79.3577 1096.47 79.741C1097.28 80.1243 1097.91 80.661 1098.36 81.351C1098.82 82.0257 1099.05 82.8153 1099.05 83.72V92H1095.83V90.827C1094.88 91.793 1093.62 92.276 1092.06 92.276ZM1091.23 88.527C1091.23 88.9103 1091.37 89.2093 1091.67 89.424C1091.96 89.6387 1092.32 89.746 1092.75 89.746C1093.6 89.746 1094.29 89.4777 1094.82 88.941C1095.34 88.4043 1095.6 87.7527 1095.6 86.986V86.595L1092.75 87.101C1092.26 87.193 1091.88 87.354 1091.62 87.584C1091.36 87.7987 1091.23 88.113 1091.23 88.527ZM1103.53 97.106C1103.17 97.106 1102.81 97.0753 1102.45 97.014C1102.12 96.9527 1101.82 96.853 1101.56 96.715V93.886C1102.05 94.0393 1102.57 94.116 1103.12 94.116C1103.79 94.116 1104.28 93.955 1104.57 93.633C1104.86 93.311 1105.1 92.943 1105.28 92.529L1105.51 92L1100.57 79.442H1104.27L1107.24 87.515L1110.2 79.442H1113.91L1108.52 93.173C1107.5 95.795 1105.83 97.106 1103.53 97.106ZM1120.34 92.276C1118.96 92.276 1117.75 91.954 1116.73 91.31C1115.71 90.6507 1115.02 89.769 1114.66 88.665L1117.19 87.469C1117.51 88.1437 1117.94 88.6727 1118.5 89.056C1119.05 89.4393 1119.66 89.631 1120.34 89.631C1121.35 89.631 1121.85 89.2553 1121.85 88.504C1121.85 87.998 1121.44 87.63 1120.61 87.4L1118.47 86.802C1117.45 86.5107 1116.66 86.043 1116.1 85.399C1115.55 84.7397 1115.28 83.9653 1115.28 83.076C1115.28 82.294 1115.48 81.6117 1115.87 81.029C1116.27 80.4463 1116.83 79.994 1117.55 79.672C1118.27 79.3347 1119.1 79.166 1120.04 79.166C1121.26 79.166 1122.34 79.4573 1123.26 80.04C1124.19 80.6073 1124.85 81.4123 1125.24 82.455L1122.68 83.651C1122.5 83.1297 1122.16 82.7157 1121.67 82.409C1121.2 82.087 1120.65 81.926 1120.04 81.926C1119.59 81.926 1119.24 82.018 1118.98 82.202C1118.73 82.386 1118.61 82.639 1118.61 82.961C1118.61 83.4517 1119.06 83.8273 1119.97 84.088L1121.97 84.686C1123.01 84.9927 1123.81 85.4603 1124.36 86.089C1124.91 86.7023 1125.19 87.4613 1125.19 88.366C1125.19 89.5313 1124.74 90.4743 1123.86 91.195C1122.97 91.9157 1121.79 92.276 1120.34 92.276ZM1129.09 86.71L1128.86 74.865H1132.31L1132.08 86.71H1129.09ZM1128.86 92V88.55H1132.31V92H1128.86Z" fill="black"/>
<defs>
<linearGradient id="paint0_linear_526_199" x1="96" y1="26.0001" x2="995.114" y2="202.94" gradientUnits="userSpaceOnUse">
<stop stop-color="#FC3D45"/>
<stop offset="0.515625" stop-color="#921E23" stop-opacity="0.76"/>
<stop offset="1" stop-color="#FC3D45"/>
</linearGradient>
</defs>
</svg>
