<svg width="174" height="55" viewBox="0 0 174 55" fill="none" xmlns="http://www.w3.org/2000/svg">
<path fill-rule="evenodd" clip-rule="evenodd" d="M35.1055 49.1342C34.4668 49.1342 33.9698 48.8857 33.6132 48.3898C33.2565 47.894 33.0776 47.2852 33.0776 46.5645C33.0776 45.8115 33.2639 45.1902 33.6381 44.7006C34.0122 44.2098 34.5067 43.9648 35.1243 43.9648C35.7381 43.9648 36.2302 44.2059 36.6017 44.6867C36.9733 45.1689 37.1584 45.7765 37.1584 46.5097C37.1584 47.213 36.9782 47.8268 36.6179 48.3499C36.2575 48.8732 35.753 49.134 35.1057 49.134L35.1055 49.1342ZM35.1204 48.6284C35.554 48.6284 35.8945 48.4307 36.1393 48.0344C36.3841 47.6393 36.5072 47.1298 36.5072 46.5061C36.5072 45.8649 36.3804 45.3667 36.127 45.0101C35.8735 44.6534 35.5368 44.4745 35.1167 44.4745C34.6918 44.4745 34.3537 44.6671 34.104 45.0536C33.8543 45.4387 33.7287 45.9445 33.7287 46.5682C33.7287 47.1771 33.8555 47.6728 34.1077 48.0544C34.36 48.4371 34.6979 48.6285 35.1204 48.6285V48.6284ZM41.7521 49.036H41.1482L38.5785 44.7043L38.5848 45.0311C38.5922 45.1553 38.5959 45.2598 38.5959 45.3442V49.036H38.0938V44.0668H38.873L41.2762 48.1188L41.2688 47.7722C41.2639 47.6368 41.2613 47.5163 41.2613 47.4118V44.0668H41.7521V49.036ZM45.9272 48.4904V49.036H42.9934V44.0668H43.6309V48.4904H45.9272ZM47.2667 49.036H46.6442V44.0668H47.2667V49.036ZM52.1662 49.036H51.5623L48.9926 44.7043L48.9989 45.0311C49.0063 45.1553 49.01 45.2598 49.01 45.3442V49.036H48.5079V44.0668H49.2871L51.6903 48.1188L51.6829 47.7722C51.678 47.6368 51.6754 47.5163 51.6754 47.4118V44.0668H52.1662V49.036ZM56.6221 48.4904V49.036H53.4075V44.0668H56.5525V44.6123H54.03V46.1929H56.0318V46.6987H54.03V48.4906H56.622L56.6221 48.4904ZM64.1536 49.036H63.5497V44.6969L61.9331 49.036H61.5107L59.8841 44.6969V49.036H59.356V44.0668H60.2804L61.7766 48.0419L63.244 44.0668H64.1536V49.036ZM68.6095 48.4904V49.036H65.3948V44.0668H68.5399V44.6123H66.0173V46.1929H68.0192V46.6987H66.0173V48.4906H68.6094L68.6095 48.4904ZM69.4793 49.036V44.0668H71.1469C71.8477 44.0668 72.3944 44.3053 72.7846 44.7838C73.176 45.2621 73.3711 45.8473 73.3711 46.5383C73.3711 47.2404 73.1797 47.8319 72.7995 48.3127C72.4179 48.7949 71.9359 49.036 71.3506 49.036H69.4793ZM70.1018 48.5078H71.1096C71.644 48.5078 72.049 48.3239 72.3261 47.9548C72.6032 47.5858 72.7412 47.0987 72.7412 46.4948C72.7412 46.0052 72.6095 45.5641 72.3461 45.174C72.0827 44.7826 71.6713 44.5875 71.1097 44.5875H70.1019V48.5078H70.1018ZM74.9256 49.036H74.3031V44.0668H74.9256V49.036ZM79.512 49.036H78.8758L78.3725 47.5834H76.5347L76.0899 49.036H75.5705L77.1822 44.0668H77.8929L79.512 49.036ZM78.242 47.1175L77.4779 44.7291L76.7063 47.1175H78.242ZM85.2392 48.4906V49.0361H82.0246V44.0669H85.1696V44.6125H82.6471V46.193H84.6489V46.6988H82.6471V48.4907H85.2391L85.2392 48.4906ZM86.1091 49.0361V44.0669H87.7767C88.4774 44.0669 89.0242 44.3055 89.4143 44.7839C89.8057 45.2622 90.0008 45.8475 90.0008 46.5384C90.0008 47.2405 89.8094 47.8321 89.4292 48.3129C89.0477 48.795 88.5657 49.0361 87.9804 49.0361H86.1091ZM86.7315 48.508H87.7393C88.2735 48.508 88.6788 48.324 88.9559 47.955C89.2329 47.5859 89.3709 47.0989 89.3709 46.495C89.3709 46.0054 89.2392 45.5643 88.9758 45.1741C88.7124 44.7827 88.3011 44.5876 87.7395 44.5876H86.7317V48.508H86.7315ZM93.7646 44.0669H94.2814V47.3102C94.2814 47.9612 94.1224 48.4272 93.803 48.7105C93.4837 48.9927 93.0662 49.1343 92.5493 49.1343C91.9739 49.1343 91.5477 48.9889 91.2706 48.6981C90.9947 48.4062 90.8556 47.944 90.8556 47.3102V44.0669H91.4781V47.3102C91.4781 47.6966 91.5241 47.9687 91.6135 48.1266C91.7029 48.2844 91.8384 48.3999 92.0211 48.4757C92.2025 48.5502 92.3939 48.5888 92.5927 48.5888C92.9766 48.5888 93.2674 48.4882 93.4662 48.2856C93.6651 48.0843 93.7645 47.76 93.7645 47.3103V44.0671L93.7646 44.0669ZM98.4281 47.3648L98.9972 47.4928C98.725 48.5874 98.1111 49.1342 97.1544 49.1342C96.5257 49.1342 96.0324 48.8807 95.6745 48.3737C95.3166 47.8667 95.1377 47.2429 95.1377 46.5024C95.1377 45.7383 95.324 45.1244 95.6981 44.661C96.0723 44.1962 96.573 43.9651 97.2018 43.9651C98.1336 43.9651 98.7326 44.4982 98.9973 45.5631L98.4109 45.6799C98.1972 44.8884 97.7933 44.4933 97.198 44.4933C96.7593 44.4933 96.4188 44.6771 96.1766 45.0449C95.9355 45.4115 95.815 45.9284 95.815 46.5932C95.815 47.2021 95.9392 47.6904 96.1865 48.0582C96.4339 48.4261 96.7619 48.6099 97.1695 48.6099C97.8033 48.6099 98.222 48.1949 98.4283 47.3648H98.4281ZM103.114 49.0361H102.478L101.974 47.5835H100.137L99.6918 49.0361H99.1725L100.784 44.0669H101.495L103.114 49.0361ZM101.844 47.1176L101.08 44.7293L100.308 47.1176H101.844ZM104.753 49.0361H104.134V44.6125H102.711V44.0669H106.181V44.6125H104.753V49.0361ZM107.498 49.0361H106.875V44.0669H107.498V49.0361ZM110.454 49.1343C109.815 49.1343 109.318 48.8858 108.962 48.39C108.605 47.8941 108.426 47.2853 108.426 46.5646C108.426 45.8116 108.612 45.1903 108.986 44.7007C109.361 44.2099 109.855 43.965 110.473 43.965C111.086 43.965 111.579 44.2061 111.95 44.6869C112.322 45.169 112.507 45.7766 112.507 46.5098C112.507 47.2131 112.327 47.827 111.966 48.3501C111.606 48.8733 111.101 49.1342 110.454 49.1342L110.454 49.1343ZM110.469 48.6285C110.902 48.6285 111.243 48.4309 111.488 48.0346C111.732 47.6395 111.856 47.13 111.856 46.5063C111.856 45.865 111.729 45.3668 111.475 45.0103C111.222 44.6536 110.885 44.4747 110.465 44.4747C110.04 44.4747 109.702 44.6672 109.452 45.0537C109.203 45.4388 109.077 45.9447 109.077 46.5683C109.077 47.1773 109.204 47.673 109.456 48.0545C109.708 48.4373 110.046 48.6287 110.469 48.6287V48.6285ZM117.1 49.0361H116.497L113.927 44.7044L113.933 45.0312C113.941 45.1555 113.944 45.26 113.944 45.3443V49.0361H113.442V44.0669H114.221L116.625 48.119L116.617 47.7724C116.612 47.637 116.61 47.5164 116.61 47.412V44.0669H117.1V49.0361ZM121.338 46.9497V47.3945H119.693V46.9497H121.338ZM127.509 49.0361H126.858L125.939 46.8852H124.516V49.0361H123.934V44.0669H125.892C126.424 44.0669 126.818 44.2123 127.074 44.5019C127.33 44.7915 127.458 45.1095 127.458 45.4537C127.458 45.7185 127.386 45.9719 127.243 46.2142C127.1 46.4578 126.862 46.6304 126.533 46.7349L127.509 49.0361ZM124.516 46.3783H125.816C126.158 46.3783 126.414 46.2887 126.582 46.1075C126.751 45.9272 126.835 45.7049 126.835 45.4427C126.835 45.1805 126.746 44.9768 126.568 44.8312C126.389 44.6858 126.164 44.6126 125.892 44.6126H124.516V46.3783ZM131.717 48.4907V49.0363H128.503V44.0671H131.648V44.6126H129.125V46.1932H131.127V46.699H129.125V48.4909H131.717L131.717 48.4907ZM132.587 49.0363V44.0671H134.255C134.956 44.0671 135.502 44.3056 135.892 44.7841C136.284 45.2623 136.479 45.8476 136.479 46.5386C136.479 47.2407 136.288 47.8322 135.907 48.313C135.526 48.7952 135.044 49.0363 134.459 49.0363H132.587ZM133.21 48.5081H134.217C134.752 48.5081 135.157 48.3242 135.434 47.9551C135.711 47.5861 135.849 47.099 135.849 46.4951C135.849 46.0055 135.717 45.5644 135.454 45.1743C135.191 44.7829 134.779 44.5878 134.218 44.5878H133.21V48.5081H133.21ZM140.625 48.4907V49.0363H137.411V44.0671H140.556V44.6126H138.033V46.1932H140.035V46.699H138.033V48.4909H140.625L140.625 48.4907ZM142.118 49.0363H141.495V44.0671H144.538V44.6126H142.118V46.182H144.123V46.6841H142.118V49.0364V49.0363ZM145.904 49.0363H145.281V44.0671H145.904V49.0363ZM150.804 49.0363H150.2L147.63 44.7046L147.636 45.0314C147.644 45.1556 147.647 45.2601 147.647 45.3445V49.0363H147.145V44.0671H147.924L150.328 48.1191L150.32 47.7725C150.315 47.6371 150.313 47.5166 150.313 47.4121V44.0671H150.804V49.0363ZM155.259 48.4907V49.0363H152.045V44.0671H155.19V44.6126H152.667V46.1932H154.669V46.699H152.667V48.4909H155.259L155.259 48.4907ZM156.129 49.0363V44.0671H157.797C158.498 44.0671 159.045 44.3056 159.435 44.7841C159.826 45.2623 160.021 45.8476 160.021 46.5386C160.021 47.2407 159.83 47.8322 159.45 48.313C159.068 48.7952 158.586 49.0363 158.001 49.0363H156.129ZM156.752 48.5081H157.76C158.294 48.5081 158.699 48.3242 158.976 47.9551C159.253 47.5861 159.391 47.099 159.391 46.4951C159.391 46.0055 159.26 45.5644 158.996 45.1743C158.733 44.7829 158.321 44.5878 157.76 44.5878H156.752V48.5081H156.752ZM161.478 47.7986H161.172L160.902 44.0671H161.761L161.478 47.7986ZM161.714 49.0363H160.953V48.2647H161.714V49.0363Z" fill="white"/>
<path d="M6.00439 15.5757H8.2677C8.28942 15.7769 8.36547 16.0653 8.49062 16.4353L15.0734 35.2911L21.7541 16.3101C21.8575 16.0108 21.9283 15.7662 21.9609 15.5757H23.0761C22.9999 15.7335 22.8803 16.0217 22.7117 16.4353L15.6663 36.5206C15.6337 36.624 15.5685 36.8959 15.4759 37.3312H13.6589C13.6153 37.1409 13.5229 36.8688 13.387 36.5206L6.43967 16.6582C6.42881 16.6146 6.34161 16.397 6.18386 16.0055C6.15127 15.94 6.09145 15.7986 6.00454 15.5757H6.00439ZM25.361 16.4406C25.8018 16.4406 26.1609 16.5603 26.4493 16.8051C26.7375 17.05 26.879 17.3655 26.879 17.7463C26.879 18.1163 26.7374 18.4265 26.4546 18.6767C26.1769 18.9268 25.818 19.052 25.3774 19.052C24.9204 19.052 24.5504 18.9322 24.262 18.6874C23.9738 18.4426 23.8322 18.1273 23.8322 17.7462C23.8322 17.3764 23.9793 17.0661 24.273 16.8159C24.5614 16.5658 24.9257 16.4405 25.361 16.4405V16.4406ZM24.2784 20.8363H26.2585C26.1933 21.1954 26.1607 21.5381 26.1607 21.8537V36.3084C26.1607 36.6294 26.1933 36.9721 26.2585 37.3312H24.2784C24.3436 36.9721 24.3764 36.6294 24.3764 36.3084V21.8537C24.3764 21.5381 24.3436 21.1954 24.2784 20.8363ZM29.9635 20.8363H31.8457V23.2899C32.2049 22.2888 32.6945 21.5925 33.3038 21.201C33.9131 20.8092 34.8598 20.5752 36.1327 20.4992V22.1257C34.6804 22.1147 33.5975 22.4793 32.8957 23.2191C32.1939 23.9591 31.8457 25.1014 31.8457 26.652V36.3084C31.8457 36.6401 31.8784 36.983 31.9438 37.3312H29.9635C30.0287 36.9721 30.0613 36.6294 30.0613 36.3084V21.8699C30.0613 21.5436 30.0287 21.1954 29.9635 20.8364V20.8363ZM39.8864 21.7775H37.0628V20.8363H39.8864V16.9792L41.6708 16.7723V17.3274V18.0618V20.8363H44.5868V21.7775H41.6708V34.7036C41.6708 35.8405 42.1278 36.4065 43.0418 36.4065C43.4662 36.4065 44.0048 36.2322 44.6523 35.8786V37.0102C43.9505 37.4182 43.1997 37.6196 42.4053 37.6196C41.5132 37.6196 40.855 37.342 40.4306 36.7926C40.2075 36.5042 40.0605 36.2051 39.9899 35.8951C39.9191 35.5904 39.8865 35.1171 39.8865 34.4805V21.7775H39.8864ZM57.8721 37.3312V34.6872C57.3117 35.6119 56.7242 36.2812 56.1203 36.6946C55.2173 37.3093 54.0638 37.6196 52.6604 37.6196C50.8106 37.6196 49.3689 37.1028 48.3244 36.0745C47.4866 35.2204 47.0677 34.0182 47.0677 32.4567V21.8537C47.0677 21.5381 47.0351 21.1954 46.9699 20.8363H48.95C48.8848 21.1954 48.8519 21.5381 48.8519 21.8537V32.3425C48.8519 33.4358 49.1296 34.3173 49.6789 34.9865C50.3807 35.8297 51.4579 36.2487 52.9159 36.2487C54.6787 36.2487 56.0279 35.6719 56.9634 34.5131C57.5675 33.7678 57.8721 32.8647 57.8721 31.7986V21.8539C57.8721 21.5382 57.8395 21.1955 57.774 20.8364H59.7544C59.6891 21.1955 59.6564 21.5382 59.6564 21.8539V36.3085C59.6564 36.6295 59.689 36.9722 59.7544 37.3313H57.8721V37.3312ZM72.0821 34.5566C71.3152 35.5142 70.6242 36.1887 70.0093 36.5803C68.905 37.2714 67.6863 37.6194 66.3589 37.6194C65.0967 37.6194 64.0522 37.2659 63.2362 36.553C62.2677 35.6881 61.7837 34.524 61.7837 33.0442C61.7837 31.151 62.5563 29.7691 64.0959 28.8987C64.7325 28.5396 65.2927 28.2731 65.7714 28.0934C66.2448 27.9195 67.6158 27.4951 69.8681 26.8259C70.6733 26.5864 71.2445 26.2764 71.5818 25.9118C71.9137 25.5474 72.0821 25.0361 72.0821 24.3887C72.0821 23.6054 71.7668 22.958 71.1355 22.4521C70.4992 21.9461 69.683 21.696 68.6712 21.696C67.8552 21.696 67.1152 21.832 66.4624 22.104C65.8097 22.3759 65.0205 22.8766 64.0958 23.6109L63.6334 22.0603C64.7486 21.4565 65.6736 21.0485 66.4025 20.8363C67.1259 20.6241 67.9965 20.5153 69.0083 20.5153C70.5263 20.5153 71.7177 20.8256 72.5772 21.4457C73.4369 22.0713 73.8667 22.9255 73.8667 24.0241V34.5566C73.8667 35.6828 74.2256 36.2486 74.9493 36.2486C75.2376 36.2486 75.6348 36.0689 76.1461 35.7047V36.983C75.4987 37.4074 74.8894 37.6196 74.3127 37.6196C73.5673 37.6196 73.018 37.3691 72.6536 36.8688C72.2943 36.3682 72.104 35.6012 72.0821 34.5567V34.5566ZM72.0821 26.8584C71.1466 27.3916 69.6557 27.9684 67.6048 28.5994C66.0924 29.0456 65.0696 29.6058 64.5257 30.2859C63.9435 31.031 63.6499 31.8581 63.6499 32.772C63.6499 33.8274 63.9654 34.6816 64.5965 35.3343C65.2329 35.9871 66.0545 36.3134 67.0773 36.3134C68.8072 36.3134 70.1672 35.6009 71.1574 34.1754C71.7722 33.2833 72.0821 32.3529 72.0821 31.3846V26.8583V26.8584ZM79.5084 13.8672C79.4432 14.2264 79.4103 14.5691 79.4103 14.89V36.3084C79.4103 36.6294 79.443 36.9721 79.5084 37.3312H77.5283C77.5934 36.9721 77.626 36.6294 77.626 36.3084V14.89C77.626 14.5693 77.5934 14.2264 77.5283 13.8672H79.5084V13.8672Z" stroke="white" stroke-width="0.208147" stroke-miterlimit="2.61313"/>
<path fill-rule="evenodd" clip-rule="evenodd" d="M6.00439 15.5757H8.2677C8.28942 15.7769 8.36547 16.0653 8.49062 16.4353L15.0734 35.2911L21.7541 16.3101C21.8575 16.0108 21.9283 15.7662 21.9609 15.5757H23.0761C22.9999 15.7335 22.8803 16.0217 22.7117 16.4353L15.6663 36.5206C15.6337 36.624 15.5685 36.8959 15.4759 37.3312H13.6589C13.6153 37.1409 13.5229 36.8688 13.387 36.5206L6.43967 16.6582C6.42881 16.6146 6.34161 16.397 6.18386 16.0055C6.15127 15.94 6.09145 15.7986 6.00454 15.5757H6.00439ZM25.361 16.4406C25.8018 16.4406 26.1609 16.5603 26.4493 16.8051C26.7375 17.05 26.879 17.3655 26.879 17.7463C26.879 18.1163 26.7374 18.4265 26.4546 18.6767C26.1769 18.9268 25.818 19.052 25.3774 19.052C24.9204 19.052 24.5504 18.9322 24.262 18.6874C23.9738 18.4426 23.8322 18.1273 23.8322 17.7462C23.8322 17.3764 23.9793 17.0661 24.273 16.8159C24.5614 16.5658 24.9257 16.4405 25.361 16.4405V16.4406ZM24.2784 20.8363H26.2585C26.1933 21.1954 26.1607 21.5381 26.1607 21.8537V36.3084C26.1607 36.6294 26.1933 36.9721 26.2585 37.3312H24.2784C24.3436 36.9721 24.3764 36.6294 24.3764 36.3084V21.8537C24.3764 21.5381 24.3436 21.1954 24.2784 20.8363ZM29.9635 20.8363H31.8457V23.2899C32.2049 22.2888 32.6945 21.5925 33.3038 21.201C33.9131 20.8092 34.8598 20.5752 36.1327 20.4992V22.1257C34.6804 22.1147 33.5975 22.4793 32.8957 23.2191C32.1939 23.9591 31.8457 25.1014 31.8457 26.652V36.3084C31.8457 36.6401 31.8784 36.983 31.9438 37.3312H29.9635C30.0287 36.9721 30.0613 36.6294 30.0613 36.3084V21.8699C30.0613 21.5436 30.0287 21.1954 29.9635 20.8364V20.8363ZM39.8864 21.7775H37.0628V20.8363H39.8864V16.9792L41.6708 16.7723V17.3274V18.0618V20.8363H44.5868V21.7775H41.6708V34.7036C41.6708 35.8405 42.1278 36.4065 43.0418 36.4065C43.4662 36.4065 44.0048 36.2322 44.6523 35.8786V37.0102C43.9505 37.4182 43.1997 37.6196 42.4053 37.6196C41.5132 37.6196 40.855 37.342 40.4306 36.7926C40.2075 36.5042 40.0605 36.2051 39.9899 35.8951C39.9191 35.5904 39.8865 35.1171 39.8865 34.4805V21.7775H39.8864ZM57.8721 37.3312V34.6872C57.3117 35.6119 56.7242 36.2812 56.1203 36.6946C55.2173 37.3093 54.0638 37.6196 52.6604 37.6196C50.8106 37.6196 49.3689 37.1028 48.3244 36.0745C47.4866 35.2204 47.0677 34.0182 47.0677 32.4567V21.8537C47.0677 21.5381 47.0351 21.1954 46.9699 20.8363H48.95C48.8848 21.1954 48.8519 21.5381 48.8519 21.8537V32.3425C48.8519 33.4358 49.1296 34.3173 49.6789 34.9865C50.3807 35.8297 51.458 36.2487 52.9159 36.2487C54.6787 36.2487 56.0279 35.6719 56.9634 34.5131C57.5675 33.7678 57.8721 32.8647 57.8721 31.7986V21.8539C57.8721 21.5382 57.8395 21.1955 57.774 20.8364H59.7544C59.6891 21.1955 59.6564 21.5382 59.6564 21.8539V36.3085C59.6564 36.6295 59.689 36.9722 59.7544 37.3313H57.8721V37.3312ZM72.0821 34.5566C71.3152 35.5142 70.6242 36.1887 70.0093 36.5803C68.905 37.2714 67.6863 37.6194 66.3589 37.6194C65.0967 37.6194 64.0522 37.2659 63.2362 36.553C62.2677 35.6881 61.7837 34.524 61.7837 33.0442C61.7837 31.151 62.5563 29.7691 64.0959 28.8987C64.7325 28.5396 65.2927 28.2731 65.7714 28.0934C66.2448 27.9195 67.6158 27.4951 69.8681 26.8259C70.6733 26.5864 71.2445 26.2764 71.5818 25.9118C71.9137 25.5474 72.0821 25.0361 72.0821 24.3887C72.0821 23.6054 71.7668 22.958 71.1355 22.4521C70.4992 21.9461 69.683 21.696 68.6712 21.696C67.8552 21.696 67.1152 21.832 66.4624 22.104C65.8097 22.3759 65.0205 22.8766 64.0958 23.6109L63.6334 22.0603C64.7486 21.4565 65.6736 21.0485 66.4025 20.8363C67.1259 20.6241 67.9965 20.5153 69.0083 20.5153C70.5263 20.5153 71.7177 20.8256 72.5772 21.4457C73.4369 22.0713 73.8667 22.9255 73.8667 24.0241V34.5566C73.8667 35.6828 74.2256 36.2486 74.9493 36.2486C75.2376 36.2486 75.6348 36.0689 76.1461 35.7047V36.983C75.4987 37.4074 74.8894 37.6196 74.3127 37.6196C73.5673 37.6196 73.018 37.3691 72.6536 36.8688C72.2943 36.3682 72.104 35.6012 72.0821 34.5567V34.5566ZM72.0821 26.8584C71.1466 27.3916 69.6557 27.9684 67.6048 28.5994C66.0924 29.0456 65.0696 29.6058 64.5257 30.2859C63.9435 31.031 63.6499 31.8581 63.6499 32.772C63.6499 33.8274 63.9654 34.6816 64.5965 35.3343C65.2329 35.9871 66.0545 36.3134 67.0773 36.3134C68.8072 36.3134 70.1672 35.6009 71.1574 34.1754C71.7722 33.2833 72.0821 32.3529 72.0821 31.3846V26.8583V26.8584ZM79.5084 13.8672C79.4432 14.2264 79.4103 14.5691 79.4103 14.89V36.3084C79.4103 36.6294 79.443 36.9721 79.5084 37.3312H77.5283C77.5934 36.9721 77.626 36.6294 77.626 36.3084V14.89C77.626 14.5693 77.5934 14.2264 77.5283 13.8672H79.5084Z" fill="white"/>
<path fill-rule="evenodd" clip-rule="evenodd" d="M56.519 5.13379L53.5824 17.3154H52.0565L49.3972 7.86317L46.9266 17.3154H45.3639L42.2751 5.13379H43.856L46.293 15.0034L48.8793 5.13379H50.113L52.9064 15.0034L55.1819 5.13379H56.519ZM71.4573 5.13379L68.5209 17.3154H66.995L64.3357 7.86317L61.8651 17.3154H60.3024L57.2138 5.13379H58.7946L61.2316 15.0034L63.818 5.13379H65.0516L67.845 15.0034L70.1205 5.13379H71.4576H71.4573ZM74.8568 17.3154H73.3309V5.13379H74.8568V17.3154Z" fill="white"/>
<path fill-rule="evenodd" clip-rule="evenodd" d="M83.0435 31.6829L81.0467 37.2027C80.9919 37.3534 80.96 37.5865 80.9555 37.897H79.9092C80.0599 37.5955 80.1696 37.3624 80.2291 37.2027L86.3061 20.1869C86.3518 20.0728 86.3928 19.8854 86.4296 19.6248H87.983C88.006 19.8031 88.0426 19.9539 88.0881 20.0818L94.3938 37.2027C94.4579 37.3717 94.5811 37.6046 94.7685 37.897H92.7077C92.6894 37.6732 92.6391 37.44 92.5614 37.2027L90.5511 31.6829H83.0438H83.0435ZM83.2673 30.9472H90.2309L86.6806 21.416L83.2673 30.9472ZM103.32 36.9878C102.625 37.4171 101.99 37.7141 101.414 37.8832C100.839 38.0524 100.185 38.1392 99.4633 38.1392C97.5532 38.1392 96.1048 37.5222 95.1133 36.2931C94.1219 35.0504 93.6283 33.3919 93.6283 31.3128C93.6283 28.6946 94.3182 26.7161 95.7027 25.3683C96.7993 24.2946 98.2753 23.7598 100.121 23.7598C101.19 23.7598 102.26 23.9656 103.32 24.3767V25.8753C102.652 25.3592 102.077 25.0028 101.593 24.8061C101.113 24.6096 100.569 24.5092 99.9752 24.5092C98.5541 24.5092 97.4391 25.085 96.6257 26.2363C95.7532 27.4791 95.3145 29.0691 95.3145 31.0156C95.3145 32.6421 95.6297 34.0358 96.2648 35.1962C97.0233 36.5717 98.1702 37.2571 99.7055 37.2571C100.4 37.2571 101.026 37.1292 101.574 36.8733C102.123 36.6219 102.703 36.1881 103.32 35.5802V36.9876L103.32 36.9878ZM111.295 35.5668C110.651 36.371 110.071 36.9375 109.555 37.2665C108.627 37.8467 107.603 38.1393 106.489 38.1393C105.428 38.1393 104.551 37.8423 103.866 37.2437C103.053 36.5174 102.646 35.5395 102.646 34.2966C102.646 32.7066 103.295 31.5458 104.588 30.815C105.122 30.5134 105.593 30.2894 105.995 30.1387C106.393 29.9925 107.544 29.6361 109.436 29.074C110.112 28.8731 110.592 28.6126 110.875 28.3065C111.154 28.0004 111.296 27.5707 111.296 27.0271C111.296 26.3692 111.031 25.8256 110.5 25.4006C109.966 24.9757 109.281 24.7654 108.431 24.7654C107.745 24.7654 107.124 24.8796 106.575 25.108C106.027 25.3366 105.365 25.7568 104.588 26.3738L104.2 25.0716C105.136 24.5644 105.913 24.2217 106.525 24.0436C107.133 23.8653 107.864 23.7739 108.714 23.7739C109.989 23.7739 110.989 24.0343 111.711 24.5552C112.433 25.0806 112.794 25.7981 112.794 26.721V35.5671C112.794 36.5128 113.096 36.9881 113.703 36.9881C113.946 36.9881 114.279 36.8372 114.709 36.5311V37.6048C114.165 37.9612 113.653 38.1395 113.169 38.1395C112.543 38.1395 112.081 37.9292 111.775 37.5089C111.474 37.0885 111.314 36.4443 111.295 35.5669V35.5668ZM111.295 29.1014C110.51 29.5492 109.258 30.0336 107.535 30.5635C106.265 30.9382 105.406 31.4089 104.949 31.9801C104.46 32.6061 104.213 33.3005 104.213 34.0681C104.213 34.9547 104.478 35.672 105.008 36.2202C105.543 36.7686 106.233 37.0427 107.092 37.0427C108.545 37.0427 109.687 36.4442 110.519 35.247C111.035 34.4977 111.295 33.7163 111.295 32.903V29.1014H111.295ZM123.594 35.4208C123.068 36.1974 122.611 36.7549 122.228 37.0931C121.423 37.7921 120.391 38.1395 119.125 38.1395C117.489 38.1395 116.223 37.5225 115.323 36.2934C114.377 34.9959 113.902 33.2596 113.902 31.0845C113.902 28.8687 114.41 27.0774 115.429 25.7021C116.393 24.4181 117.75 23.7739 119.5 23.7739C121.309 23.7739 122.675 24.4958 123.594 25.9443V19.0494C123.594 18.7799 123.566 18.4919 123.511 18.1904H125.174C125.12 18.4921 125.092 18.78 125.092 19.0494V37.0384C125.092 37.3077 125.12 37.5958 125.174 37.8973H123.594V35.4209V35.4208ZM119.701 24.6419C118.243 24.6419 117.151 25.3183 116.42 26.6661C115.785 27.8404 115.47 29.2934 115.47 31.0161C115.47 32.8299 115.785 34.2602 116.42 35.3157C117.083 36.4305 118.092 36.9879 119.459 36.9879C120.816 36.9879 121.867 36.4303 122.607 35.3157C123.329 34.2236 123.69 32.7112 123.69 30.7738C123.69 28.8364 123.343 27.3378 122.653 26.2777C121.963 25.2131 120.976 24.6693 119.701 24.6418L119.701 24.6419ZM137.349 36.9881C135.855 37.7557 134.361 38.1396 132.863 38.1396C130.546 38.1396 128.796 37.4268 127.617 35.9967C126.607 34.7766 126.105 33.1227 126.105 31.0436C126.105 28.6858 126.703 26.8627 127.9 25.5696C129.024 24.3634 130.455 23.7602 132.195 23.7602C133.443 23.7602 134.535 24.0937 135.476 24.7656C136.993 25.8438 137.838 27.6167 138.017 30.0796H127.658C127.658 31.3408 127.736 32.3139 127.896 33.013C128.193 34.3792 128.714 35.4162 129.463 36.1199C130.267 36.8784 131.419 37.2577 132.918 37.2577C134.325 37.2577 135.677 36.7549 136.975 35.7544L137.35 36.9881H137.349ZM127.75 29.3986H136.399C136.308 28.6126 136.166 27.9501 135.97 27.4018C135.622 26.4652 135.088 25.7433 134.361 25.236C133.749 24.8064 133.027 24.5918 132.209 24.5918C131.154 24.5918 130.226 24.9573 129.422 25.6884C128.549 26.4926 127.992 27.7307 127.75 29.3985L127.75 29.3986ZM140.358 25.7982C140.984 25.0351 141.597 24.5096 142.204 24.2172C142.812 23.9202 143.58 23.7741 144.507 23.7741C145.508 23.7741 146.308 23.9293 146.915 24.2446C147.523 24.5552 148.025 25.0716 148.428 25.7982C149.081 25.0533 149.73 24.5324 150.374 24.2217C151.023 23.9156 151.804 23.7602 152.727 23.7602C154.116 23.7602 155.181 24.1031 155.912 24.793C156.556 25.3961 156.876 26.383 156.876 27.7493V37.0385C156.876 37.3079 156.903 37.596 156.958 37.8975H155.295C155.35 37.5869 155.377 37.299 155.377 37.0385V27.8727C155.377 26.9954 155.236 26.3512 154.948 25.9307C154.487 25.25 153.632 24.9117 152.389 24.9117C151.393 24.9117 150.566 25.1355 149.913 25.5835C149.049 26.1637 148.615 27.0913 148.615 28.366V37.0384C148.615 37.2988 148.642 37.5868 148.697 37.8973H147.034C147.089 37.5958 147.116 37.3077 147.116 37.0384V27.8725C147.116 26.9953 146.956 26.3557 146.636 25.9443C146.106 25.2635 145.275 24.9254 144.132 24.9254C143.018 24.9254 142.108 25.2132 141.409 25.7844C140.71 26.3555 140.358 27.0957 140.358 28.005V37.0384C140.358 37.3077 140.386 37.5958 140.44 37.8973H138.777C138.832 37.5958 138.859 37.3077 138.859 37.0384V24.898C138.859 24.6239 138.832 24.336 138.777 24.0436H140.358V25.7982H140.358ZM161.329 37.8973L156.682 24.7791C156.522 24.3863 156.426 24.1395 156.399 24.0437H158.076C158.094 24.126 158.158 24.368 158.277 24.7791L162.156 35.7955L166.789 24.7791C166.853 24.6193 166.931 24.3727 167.031 24.0437H167.996C167.959 24.1305 167.845 24.3772 167.657 24.7791L160.685 41.5526C160.63 41.6852 160.552 41.932 160.442 42.2884H159.478C159.515 42.1971 159.629 41.9549 159.816 41.5526L161.329 37.8973H161.329Z" fill="white"/>
</svg>
